<svg width="28" height="28" viewBox="0 0 28 28" fill="none" xmlns="http://www.w3.org/2000/svg">
<path d="M14 28C21.732 28 28 21.732 28 14C28 6.26802 21.732 0 14 0C6.26802 0 0 6.26802 0 14C0 21.732 6.26802 28 14 28Z" fill="#FF0420"/>
<path d="M9.91712 17.7206C9.08348 17.7206 8.40049 17.5244 7.86817 17.1322C7.34274 16.7329 7.08008 16.1654 7.08008 15.4299C7.08008 15.2758 7.09752 15.0867 7.13252 14.8625C7.22374 14.3582 7.35329 13.7522 7.5214 13.0446C7.99772 11.1182 9.22714 10.155 11.2096 10.155C11.749 10.155 12.2323 10.2461 12.6596 10.4282C13.087 10.6034 13.4233 10.8696 13.6684 11.2269C13.9136 11.5771 14.0362 11.9974 14.0362 12.4878C14.0362 12.6349 14.0187 12.8205 13.9836 13.0446C13.8786 13.6681 13.7525 14.274 13.6054 14.8625C13.3602 15.8222 12.9364 16.5402 12.334 17.0165C11.7314 17.4859 10.9259 17.7206 9.91712 17.7206ZM10.0642 16.2074C10.4566 16.2074 10.7892 16.0919 11.0625 15.8608C11.3428 15.6296 11.5423 15.2758 11.6614 14.7995C11.8225 14.1409 11.9452 13.5665 12.0292 13.0762C12.0572 12.9291 12.0712 12.7785 12.0712 12.6243C12.0712 11.9869 11.7384 11.6681 11.073 11.6681C10.6807 11.6681 10.3444 11.7837 10.0642 12.0149C9.79102 12.2461 9.59491 12.5999 9.4758 13.0762C9.34969 13.5455 9.22359 14.1199 9.09759 14.7995C9.06948 14.9396 9.05548 15.0867 9.05548 15.2408C9.05548 15.8852 9.3918 16.2074 10.0642 16.2074Z" fill="white"/>
<path d="M14.5209 17.6155C14.4438 17.6155 14.3842 17.591 14.3422 17.542C14.3072 17.4858 14.2967 17.4228 14.3107 17.3528L15.7608 10.5228C15.7748 10.4457 15.8133 10.3827 15.8763 10.3336C15.9394 10.2846 16.006 10.26 16.076 10.26H18.8711C19.6487 10.26 20.2721 10.4212 20.7414 10.7434C21.2178 11.0657 21.456 11.5315 21.456 12.141C21.456 12.3161 21.435 12.4982 21.393 12.6873C21.2178 13.4929 20.8641 14.0884 20.3316 14.4737C19.8063 14.8589 19.0847 15.0516 18.167 15.0516H16.7485L16.2652 17.3528C16.2511 17.4298 16.2126 17.4928 16.1496 17.542C16.0865 17.591 16.02 17.6155 15.95 17.6155H14.5209ZM18.2406 13.6015C18.5348 13.6015 18.7905 13.5209 19.0077 13.3598C19.2318 13.1987 19.3789 12.9675 19.449 12.6663C19.47 12.5472 19.4806 12.4422 19.4806 12.3511C19.4806 12.148 19.421 11.9939 19.3019 11.8888C19.1828 11.7766 18.9797 11.7206 18.6925 11.7206H17.4315L17.0322 13.6015H18.2406Z" fill="white"/>
</svg>
