<svg width="28" height="28" viewBox="0 0 28 28" fill="none" xmlns="http://www.w3.org/2000/svg">
<rect width="28" height="28" rx="14" fill="white"/>
<path d="M15.2405 19.2015C13.495 19.6162 11.5808 19.143 10.2195 17.781C8.45963 16.0213 8.11613 13.4102 9.38749 11.3418C9.9125 10.4878 10.4112 9.97732 10.8421 9.5482C12.6181 7.77918 15.88 4.55914 15.88 4.55914C12.8343 3.95618 9.55373 4.8339 7.19421 7.19401C3.43526 10.9526 3.43526 17.0475 7.19421 20.806C8.35955 21.9712 9.7488 22.7744 11.2246 23.2178L15.2413 19.2015H15.2405Z" fill="black"/>
<path d="M12.7606 8.79858C14.5061 8.38388 16.4203 8.85709 17.7816 10.2191C19.5414 11.9787 19.8849 14.5899 18.6137 16.6583C18.0886 17.5123 17.5899 18.0228 17.159 18.452C15.383 20.221 12.1211 23.4409 12.1211 23.4409C15.1668 24.0439 18.4474 23.1662 20.8069 20.806C24.5658 17.0475 24.5658 10.9526 20.8069 7.19408C19.6415 6.02886 18.2523 5.22575 16.7765 4.78223L12.7597 8.79858H12.7606Z" fill="black"/>
</svg>
