<svg viewBox="0 0 24 24" fill="none" xmlns="http://www.w3.org/2000/svg">
<path d="M24 12C24 5.37258 18.6274 0 12 0C5.37258 0 0 5.37258 0 12C0 18.6274 5.37258 24 12 24C18.6274 24 24 18.6274 24 12Z" fill="#6E54FF"/>
<path d="M12.0067 4.5C9.839 4.5 4.5 9.834 4.5 12C4.5 14.1659 9.839 19.5 12.0067 19.5C14.1746 19.5 19.5137 14.1658 19.5137 12C19.5137 9.8341 14.1747 4.5 12.0067 4.5ZM10.8369 16.2887C9.92285 16.0398 7.4651 11.7445 7.71425 10.8312C7.9634 9.91785 12.2625 7.4624 13.1767 7.7113C14.0908 7.9602 16.5486 12.2554 16.2995 13.1688C16.0503 14.0821 11.7512 16.5376 10.8369 16.2887Z" fill="white"/>
</svg>
