<svg width="32" height="32" viewBox="0 0 32 32" fill="none" xmlns="http://www.w3.org/2000/svg">
<g clip-path="url(#clip0_5718_24438)">
<path d="M32 0H0V32H32V0Z" fill="black"/>
<path d="M16 28V23.9136C15.5902 23.9136 15.1715 23.8778 14.7617 23.8152L14.1203 27.848C14.7439 27.9553 15.3764 28 16 28ZM17.8708 27.8569C18.4944 27.7586 19.1091 27.6155 19.706 27.4188L18.4499 23.5291C18.0579 23.6542 17.6481 23.7526 17.2383 23.8152L17.8708 27.8569ZM12.294 27.4188L13.5501 23.538C13.1581 23.4128 12.7751 23.2519 12.4009 23.0641L10.5479 26.7034C11.1091 26.9806 11.6971 27.2221 12.294 27.4188ZM21.4432 26.7034C22.0045 26.4173 22.539 26.0864 23.0468 25.7198L20.6414 22.4203C20.3118 22.6617 19.9555 22.8852 19.5813 23.0641L21.4432 26.7034ZM8.94432 25.7109L11.3497 22.4113C11.02 22.1699 10.6993 21.9016 10.4053 21.6066L7.51893 24.4948C7.96437 24.9329 8.44543 25.3443 8.94432 25.7109ZM24.4632 24.5127L24.49 24.4858C24.9354 24.0477 25.3452 23.5648 25.7105 23.0641L22.4143 20.6587C22.1737 20.9896 21.8975 21.3115 21.6125 21.5976L21.5679 21.6423L22.9577 22.9568L24.4632 24.5127ZM6.29844 23.0551L9.59465 20.6498C9.35412 20.3189 9.1314 19.9613 8.94432 19.5946L5.30958 21.4456C5.59465 22.0089 5.92428 22.5455 6.29844 23.0551ZM26.6904 21.4545C26.9755 20.9001 27.216 20.31 27.412 19.7109L23.5278 18.459C23.4031 18.8525 23.2428 19.237 23.0557 19.6036L26.6904 21.4545ZM4.58797 19.7109L8.47216 18.4501C8.34744 18.0566 8.24944 17.6542 8.18708 17.2429L4.15145 17.8778C4.24944 18.4948 4.40089 19.1118 4.58797 19.7109ZM27.8486 17.8867C27.9465 17.2697 28 16.6349 28 16.0089H23.9198C23.9198 16.4203 23.8842 16.8405 23.8218 17.2519L27.8486 17.8867ZM8.08909 16C8.08909 15.5887 8.12472 15.1684 8.18708 14.7571L4.15145 14.1222C4.05345 14.7392 4.00891 15.3741 4 16H8.08909ZM23.8218 14.766L27.8575 14.1311C27.7595 13.5142 27.6169 12.8972 27.4209 12.2981L23.5367 13.5499C23.6615 13.9523 23.7595 14.3547 23.8218 14.766ZM8.47216 13.5499C8.59688 13.1565 8.75724 12.772 8.94432 12.4054L5.30958 10.5544C5.0245 11.1088 4.78396 11.699 4.58797 12.2981L8.47216 13.5499ZM23.0646 12.4143L26.7082 10.5633C26.4232 10 26.0935 9.46349 25.7194 8.9538L22.4143 11.3592C22.6548 11.69 22.8775 12.0477 23.0646 12.4143ZM9.59465 11.3502C9.83519 11.0194 10.1114 10.6975 10.4053 10.4024L10.4143 10.3934L7.52784 7.50522L7.51893 7.51416C7.0735 7.96125 6.6637 8.43517 6.29844 8.94486L9.59465 11.3502ZM21.6125 10.4203L22.4855 9.53502L24.49 7.53204L24.4811 7.5231C24.0356 7.08495 23.5635 6.67362 23.0646 6.307L20.6592 9.60656C20.9889 9.84799 21.3096 10.1162 21.5947 10.4113L21.6125 10.4203ZM11.3586 9.58867C11.6882 9.34724 12.0445 9.13264 12.4187 8.94486L10.5657 5.30551C10.0045 5.59165 9.46993 5.9225 8.96214 6.28912L11.3586 9.58867ZM19.608 8.9538L21.4699 5.31446C20.9087 5.02832 20.3296 4.78689 19.7327 4.59016L18.4677 8.47094C18.8508 8.60507 19.2339 8.76602 19.608 8.9538ZM13.5679 8.47094C13.9599 8.34575 14.3697 8.24739 14.7795 8.1848L14.147 4.15201C13.5323 4.25037 12.9087 4.39344 12.3118 4.59016L13.5679 8.47094ZM17.2472 8.1848L17.8886 4.15201C17.2739 4.05365 16.6414 4 16.0178 4V8.08644C16.4276 8.08644 16.8463 8.12221 17.2472 8.1848Z" fill="white"/>
<path d="M15.9956 24V19.9086C15.6514 19.9086 15.3161 19.8641 14.9807 19.7749L13.9217 23.7237C14.6012 23.9019 15.2984 24 15.9956 24ZM18.0695 23.7237C18.749 23.5454 19.3933 23.278 20.0022 22.9214L17.9548 19.3827C17.6635 19.5521 17.3458 19.6858 17.0193 19.7749L18.0695 23.7237ZM11.9978 22.9214L14.0452 19.3827C13.754 19.2134 13.4804 18.9994 13.2333 18.7588L13.198 18.7231L11.9095 20.0869L10.321 21.629L10.3475 21.6557C10.8417 22.146 11.3977 22.5738 11.9978 22.9214ZM21.6525 21.6557C22.1467 21.1565 22.5792 20.6039 22.9233 19.9978L19.3844 17.9476C19.2168 18.2418 19.005 18.5092 18.7579 18.7588L21.6525 21.6557ZM9.06784 19.9889L12.6067 17.9476C12.4391 17.6535 12.3067 17.3415 12.2184 17.0117L8.27358 18.0635C8.45008 18.732 8.72366 19.3827 9.06784 19.9889ZM23.7264 18.0724C23.9029 17.395 24 16.6997 24 16.0045H19.914C19.914 16.3432 19.8698 16.6908 19.7816 17.0206L23.7264 18.0724ZM12.0949 15.9955C12.0949 15.6568 12.139 15.3092 12.2272 14.9794L8.27358 13.9276C8.09708 14.605 8 15.3003 8 15.9955H12.0949ZM19.7728 14.9883L23.7264 13.9365C23.5499 13.2591 23.2763 12.6084 22.9322 12.0022L19.3933 14.0435C19.5521 14.3465 19.6845 14.6585 19.7728 14.9883ZM12.6156 14.0435C12.7832 13.7582 12.9862 13.4819 13.2333 13.2412L13.2421 13.2323L11.7772 11.7705L10.374 10.3175L10.3475 10.3443C9.85328 10.8345 9.42967 11.3961 9.07667 11.9933L12.6156 14.0435ZM18.7579 13.2412L20.2052 11.7883L21.6878 10.3799L21.6525 10.3443C21.1583 9.84513 20.6023 9.42618 20.0022 9.06964L17.9548 12.6084C18.246 12.7777 18.5108 12.9827 18.7579 13.2234V13.2412ZM14.0452 12.6084C14.3365 12.439 14.6542 12.3053 14.9807 12.2162L13.9393 8.26741C13.2598 8.44568 12.6156 8.71309 12.0066 9.06964L14.0452 12.6084ZM17.0105 12.2251L18.0695 8.27632C17.3988 8.09805 16.7016 8 16.0044 8V12.0914C16.3398 12.0914 16.6839 12.1359 17.0105 12.2251Z" fill="white"/>
</g>
<defs>
<clipPath id="clip0_5718_24438">
<rect width="32" height="32" rx="16" fill="white"/>
</clipPath>
</defs>
</svg>
