<svg width="32" height="32" viewBox="0 0 32 32" fill="none" xmlns="http://www.w3.org/2000/svg">
<path d="M16 32C24.8366 32 32 24.8366 32 16C32 7.16345 24.8366 0 16 0C7.16345 0 0 7.16345 0 16C0 24.8366 7.16345 32 16 32Z" fill="#FF0420"/>
<path d="M11.3336 20.2522C10.3809 20.2522 9.60035 20.028 8.99199 19.5797C8.39149 19.1234 8.09131 18.4749 8.09131 17.6343C8.09131 17.4581 8.11125 17.242 8.15125 16.9858C8.25549 16.4094 8.40355 15.7169 8.59568 14.9082C9.14005 12.7066 10.5451 11.6058 12.8108 11.6058C13.4272 11.6058 13.9796 11.71 14.4679 11.9181C14.9564 12.1182 15.3407 12.4225 15.6208 12.8308C15.901 13.2311 16.0412 13.7114 16.0412 14.2718C16.0412 14.4399 16.0212 14.6521 15.981 14.9082C15.861 15.6207 15.7169 16.3133 15.5488 16.9858C15.2685 18.0826 14.7842 18.9032 14.0957 19.4476C13.4071 19.9839 12.4865 20.2522 11.3336 20.2522ZM11.5018 18.5229C11.9501 18.5229 12.3303 18.3908 12.6427 18.1267C12.9629 17.8625 13.191 17.4581 13.3271 16.9138C13.5112 16.1612 13.6514 15.5047 13.7474 14.9443C13.7794 14.7762 13.7954 14.6041 13.7954 14.4279C13.7954 13.6994 13.4151 13.3351 12.6546 13.3351C12.2063 13.3351 11.822 13.4671 11.5018 13.7314C11.1895 13.9956 10.9654 14.3999 10.8293 14.9443C10.6852 15.4807 10.541 16.1372 10.397 16.9138C10.3649 17.0739 10.3489 17.242 10.3489 17.4181C10.3489 18.1546 10.7333 18.5229 11.5018 18.5229Z" fill="white"/>
<path d="M16.5955 20.1321C16.5074 20.1321 16.4393 20.104 16.3913 20.048C16.3513 19.9839 16.3392 19.9119 16.3552 19.8319L18.0125 12.0261C18.0285 11.938 18.0725 11.866 18.1445 11.8099C18.2166 11.7539 18.2927 11.7258 18.3727 11.7258H21.5672C22.4558 11.7258 23.1683 11.9101 23.7046 12.2783C24.2491 12.6466 24.5213 13.179 24.5213 13.8755C24.5213 14.0756 24.4973 14.2837 24.4493 14.4999C24.2491 15.4206 23.8448 16.1011 23.2363 16.5415C22.636 16.9817 21.8112 17.2019 20.7625 17.2019H19.1413L18.589 19.8319C18.5728 19.9199 18.5289 19.9919 18.4569 20.048C18.3848 20.104 18.3087 20.1321 18.2287 20.1321H16.5955ZM20.8466 15.5447C21.1828 15.5447 21.475 15.4526 21.7232 15.2685C21.9794 15.0844 22.1475 14.8201 22.2276 14.4759C22.2516 14.3397 22.2637 14.2197 22.2637 14.1156C22.2637 13.8835 22.1956 13.7074 22.0595 13.5872C21.9234 13.4591 21.6912 13.3951 21.363 13.3951H19.9219L19.4655 15.5447H20.8466Z" fill="white"/>
</svg>
