<svg width="32" height="32" viewBox="0 0 32 32" fill="none" xmlns="http://www.w3.org/2000/svg">
<rect width="32" height="32" rx="16" fill="#EFF2F6"/>
<path d="M20.617 13.0283C20.284 12.8403 19.8512 12.8403 19.485 13.0283L16.8881 14.4698L15.1236 15.41L12.5267 16.8515C12.1938 17.0395 11.7609 17.0395 11.3947 16.8515L9.33053 15.7233C8.9976 15.5353 8.76455 15.1906 8.76455 14.8145V12.5896C8.76455 12.2135 8.96431 11.8688 9.33053 11.6808L11.3614 10.584C11.6944 10.3959 12.1272 10.3959 12.4934 10.584L14.5243 11.6808C14.8572 11.8688 15.0903 12.2135 15.0903 12.5896V14.0311L16.8548 13.0596V11.6181C16.8548 11.242 16.6551 10.8973 16.2888 10.7093L12.5267 8.64102C12.1938 8.45299 11.7609 8.45299 11.3947 8.64102L7.56599 10.7093C7.19976 10.8973 7 11.242 7 11.6181V15.786C7 16.162 7.19976 16.5068 7.56599 16.6948L11.3947 18.7631C11.7276 18.9511 12.1605 18.9511 12.5267 18.7631L15.1236 17.3529L16.8881 16.3814L19.485 14.9712C19.8179 14.7832 20.2507 14.7832 20.617 14.9712L22.6479 16.068C22.9808 16.2561 23.2138 16.6008 23.2138 16.9768V19.2018C23.2138 19.5779 23.0141 19.9226 22.6479 20.1106L20.617 21.2388C20.284 21.4268 19.8512 21.4268 19.485 21.2388L17.4541 20.1419C17.1212 19.9539 16.8881 19.6092 16.8881 19.2331V17.7916L15.1236 18.7631V20.2046C15.1236 20.5806 15.3234 20.9254 15.6895 21.1134L19.5183 23.1817C19.8512 23.3697 20.284 23.3697 20.6503 23.1817L24.479 21.1134C24.8119 20.9254 25.045 20.5806 25.045 20.2046V16.0367C25.045 15.6606 24.8452 15.316 24.479 15.1279L20.617 13.0283Z" fill="#8347E5"/>
</svg>
