<svg width="32" height="32" viewBox="0 0 32 32" fill="none" xmlns="http://www.w3.org/2000/svg">
<g clip-path="url(#clip0_6948_16253)">
<path d="M32 0H0V32H32V0Z" fill="#FFEEDA"/>
<path d="M22.1721 18.9572V8.86049C22.1587 8.01354 21.4852 7.33331 20.6382 7.33331H10.1014C7.82728 7.36666 6 9.22728 6 11.508C6 12.275 6.20674 12.9352 6.52017 13.5154C6.78693 13.9955 7.20707 14.449 7.62054 14.7891C7.74058 14.8825 7.68056 14.8425 8.04068 15.0626C8.53418 15.3627 9.10103 15.516 9.10103 15.516L9.09437 21.5581C9.1077 21.8448 9.13438 22.1182 9.21441 22.3783C9.44782 23.232 10.0413 23.8855 10.8416 24.1989C11.1751 24.3323 11.5552 24.419 11.962 24.4257L20.3781 24.4524C22.052 24.4524 23.4125 23.0919 23.4125 21.4113C23.4191 20.411 22.919 19.5174 22.1721 18.9572Z" fill="#FFEEDA"/>
<path d="M22.3789 21.4847C22.3456 22.5584 21.4586 23.4253 20.3716 23.4253L14.583 23.4053C15.0432 22.8718 15.3233 22.1782 15.3233 21.418C15.3233 20.2309 14.6164 19.4106 14.6164 19.4106H20.3783C21.4853 19.4106 22.3856 20.3109 22.3856 21.418L22.3789 21.4847Z" fill="#EBC28E"/>
<path d="M8.17406 13.9355C7.50717 13.302 7.04035 12.4883 7.04035 11.5147V11.4147C7.0937 9.76077 8.45415 8.427 10.108 8.38031H20.6449C20.9183 8.39365 21.1384 8.58705 21.1384 8.86714V17.7834C21.3785 17.8235 21.4985 17.8568 21.7319 17.9435C21.9186 18.0102 22.1721 18.1569 22.1721 18.1569V8.86714C22.1587 8.02019 21.4852 7.33997 20.6382 7.33997H10.1014C7.82728 7.37331 6 9.23393 6 11.5147C6 12.8418 6.60687 13.9755 7.59387 14.7691C7.66055 14.8225 7.72724 14.8958 7.90063 14.8958C8.2074 14.8958 8.42748 14.6491 8.41414 14.3823C8.41414 14.1556 8.31411 14.0755 8.17406 13.9355Z" fill="#101010"/>
<path d="M20.3713 18.3703H12.1086C11.5551 18.377 11.1083 18.8238 11.1083 19.3773V20.5644C11.1216 21.1112 11.5884 21.578 12.1486 21.578H12.7621V20.5644H12.1419V19.404C12.1419 19.404 12.2953 19.404 12.4754 19.404C13.5224 19.404 14.2893 20.371 14.2893 21.4113C14.2893 22.3316 13.449 23.5053 12.0486 23.412C10.8082 23.332 10.1346 22.2249 10.1346 21.4113V11.3413C10.1346 10.8878 9.76114 10.5143 9.30766 10.5143H8.48071V11.548H9.09425V21.418C9.06091 23.4253 10.5214 24.4323 12.0486 24.4323L20.378 24.459C22.0519 24.459 23.4124 23.0985 23.4124 21.418C23.419 19.7374 22.0519 18.3703 20.3713 18.3703ZM22.3787 21.4847C22.3453 22.5584 21.4584 23.4253 20.3713 23.4253L14.5827 23.4053C15.0429 22.8718 15.323 22.1782 15.323 21.418C15.323 20.2309 14.6161 19.4106 14.6161 19.4106H20.378C21.4851 19.4106 22.3854 20.3109 22.3854 21.418L22.3787 21.4847Z" fill="#101010"/>
<path d="M18.144 11.7348H11.9153V10.7011H18.144C18.4241 10.7011 18.6575 10.9279 18.6575 11.2146C18.6642 11.5014 18.4375 11.7348 18.144 11.7348Z" fill="#101010"/>
<path d="M18.144 16.583H11.9153V15.556H18.144C18.4241 15.556 18.6575 15.7828 18.6575 16.0695C18.6642 16.3496 18.4375 16.583 18.144 16.583Z" fill="#101010"/>
<path d="M19.2444 14.1556H11.9153V13.1219H19.2377C19.5178 13.1219 19.7512 13.3486 19.7512 13.6354C19.7646 13.9222 19.5312 14.1556 19.2444 14.1556Z" fill="#101010"/>
</g>
<defs>
<clipPath id="clip0_6948_16253">
<rect width="32" height="32" rx="16" fill="white"/>
</clipPath>
</defs>
</svg>
