<svg viewBox="0 0 114 114" fill="none" xmlns="http://www.w3.org/2000/svg">
<g clip-path="url(#clip0_573_6189)">
<g opacity="0.2" filter="url(#filter0_f_573_6189)">
<path fill-rule="evenodd" clip-rule="evenodd" d="M85.3489 19.3628C89.0334 22.4426 91.0383 25.9786 91.3655 29.5562L101.909 35.6212C103.466 36.5175 104.202 37.7085 104.113 38.8813C104.118 38.8125 104.12 38.7436 104.119 38.6748C104.123 38.6206 104.132 38.5657 104.132 38.5104V79.1869C104.132 80.1987 103.295 81 102.463 81.4608L60.9961 105.35C58.7022 106.65 55.3743 106.657 53.0724 105.346L11.3338 81.4566C10.2277 80.8251 9.86956 80.0059 9.86914 79.1785V38.4999C9.86913 38.5285 9.87412 38.5576 9.87546 38.5863C9.87519 38.5954 9.87563 38.6045 9.87546 38.6137C9.89549 37.5284 10.6192 36.4489 12.0503 35.6212L22.6314 29.4929C22.9744 25.9561 24.9575 22.4612 28.5826 19.4113C53.0724 19.4113 60.9961 19.4113 85.3489 19.3628Z" fill="#C9ACFF"/>
</g>
<path opacity="0.2" d="M12.083 41.7275C9.14987 40.0394 9.13369 37.3044 12.0491 35.6181L51.5549 12.7467C54.4686 11.0587 59.21 11.0587 62.1429 12.7467L101.907 35.6181C104.841 37.3061 104.857 40.0411 101.943 41.7275L62.4355 64.5973C59.5218 66.2852 54.7806 66.2852 51.8475 64.5973L12.083 41.7275Z" fill="white" fill-opacity="0.45"/>
<path d="M12.083 41.7275C9.14987 40.0394 9.13369 37.3044 12.0491 35.6181L51.5549 12.7467C54.4686 11.0587 59.21 11.0587 62.1429 12.7467L101.907 35.6181C104.841 37.3061 104.857 40.0411 101.943 41.7275L62.4355 64.5973C59.5218 66.2852 54.7806 66.2852 51.8475 64.5973L12.083 41.7275Z" fill="url(#paint0_radial_573_6189)" fill-opacity="0.5"/>
<path d="M91.4191 27.5427H22.5754V80.8734H91.4191V27.5427Z" fill="url(#paint1_radial_573_6189)"/>
<path opacity="0.3" d="M9.87546 38.5837C9.84183 39.7186 10.5783 40.8613 12.084 41.7279L51.848 64.5971C54.781 66.285 59.5218 66.2849 62.4355 64.5971L101.945 41.7279C103.402 40.8844 104.126 39.778 104.119 38.6722C104.123 38.6179 104.132 38.5634 104.132 38.5079V79.1844C104.132 80.1964 103.295 80.9974 102.463 81.4582L60.9961 105.347C58.7021 106.648 55.3744 106.654 53.0724 105.343L11.3338 81.454C10.2274 80.8224 9.86938 80.0036 9.86914 79.176V38.4973C9.86906 38.5262 9.87411 38.5549 9.87546 38.5837Z" fill="white" fill-opacity="0.35"/>
<path d="M9.87546 38.5837C9.84183 39.7186 10.5783 40.8613 12.084 41.7279L51.848 64.5971C54.781 66.285 59.5218 66.2849 62.4355 64.5971L101.945 41.7279C103.402 40.8844 104.126 39.778 104.119 38.6722C104.123 38.6179 104.132 38.5634 104.132 38.5079V79.1844C104.132 80.1964 103.295 80.9974 102.463 81.4582L60.9961 105.347C58.7021 106.648 55.3744 106.654 53.0724 105.343L11.3338 81.454C10.2274 80.8224 9.86938 80.0036 9.86914 79.176V38.4973C9.86906 38.5262 9.87411 38.5549 9.87546 38.5837Z" fill="url(#paint2_linear_573_6189)"/>
<path d="M32.6576 41.5965C46.1002 49.3569 67.8949 49.3569 81.3374 41.5965C94.78 33.8361 94.78 21.254 81.3374 13.4936C67.8949 5.73324 46.1002 5.73324 32.6576 13.4936C19.215 21.254 19.215 33.8361 32.6576 41.5965Z" fill="url(#paint3_linear_573_6189)"/>
<path opacity="0.6" d="M61.2262 25.104L46.7324 21.9683L50.8092 31.1178L66.654 33.469L61.2262 25.104Z" fill="white"/>
<path opacity="0.45" d="M46.7308 21.9681L50.8076 31.1176L73.2237 18.1768L46.7308 21.9681Z" fill="white"/>
<path opacity="0.8" d="M73.2212 18.1753L50.8051 31.1161L66.6499 33.4674L73.2212 18.1753Z" fill="white"/>
<path opacity="0.45" d="M44.8435 23.0588L40.7707 36.913L48.9202 32.2083L44.8435 23.0588Z" fill="white"/>
<path opacity="0.8" d="M48.9177 32.2041L40.7682 36.9089L64.7704 34.5599L48.9177 32.2041Z" fill="white"/>
</g>
<defs>
<filter id="filter0_f_573_6189" x="-5.32447" y="4.16918" width="124.65" height="117.351" filterUnits="userSpaceOnUse" color-interpolation-filters="sRGB">
<feFlood flood-opacity="0" result="BackgroundImageFix"/>
<feBlend mode="normal" in="SourceGraphic" in2="BackgroundImageFix" result="shape"/>
<feGaussianBlur stdDeviation="7.59681" result="effect1_foregroundBlur_573_6189"/>
</filter>
<radialGradient id="paint0_radial_573_6189" cx="0" cy="0" r="1" gradientTransform="matrix(-20.3522 56.2155 118.937 67.4632 56.9688 25.0612)" gradientUnits="userSpaceOnUse">
<stop stop-color="#9EFFF7"/>
<stop offset="1" stop-color="#9EFFF7"/>
</radialGradient>
<radialGradient id="paint1_radial_573_6189" cx="0" cy="0" r="1" gradientUnits="userSpaceOnUse" gradientTransform="translate(57.001 39.9004) rotate(90) scale(31.5 49.413)">
<stop stop-color="#4682FF"/>
<stop offset="0.546988" stop-color="#C4A4FF" stop-opacity="0.7"/>
<stop offset="1" stop-color="#ACFFF4" stop-opacity="0"/>
</radialGradient>
<linearGradient id="paint2_linear_573_6189" x1="-7.19951" y1="85.9002" x2="116.1" y2="85.7999" gradientUnits="userSpaceOnUse">
<stop stop-color="#FFCEBE"/>
<stop offset="0.350972" stop-color="#C9ACFF"/>
<stop offset="0.519722" stop-color="#AA9FFF" stop-opacity="0.7"/>
<stop offset="0.688471" stop-color="#8C91FF" stop-opacity="0.4"/>
<stop offset="0.917213" stop-color="#9EFFF7" stop-opacity="0.3"/>
</linearGradient>
<linearGradient id="paint3_linear_573_6189" x1="57.001" y1="5.6999" x2="57.001" y2="56.0999" gradientUnits="userSpaceOnUse">
<stop stop-color="#6A9AFF"/>
<stop offset="0.463232" stop-color="#C9ACFF"/>
<stop offset="1" stop-color="#FFCEBE"/>
</linearGradient>
<clipPath id="clip0_573_6189">
<rect width="114" height="114" fill="white"/>
</clipPath>
</defs>
</svg>
