<svg width="32" height="32" viewBox="0 0 32 32" fill="none" xmlns="http://www.w3.org/2000/svg">
<g clip-path="url(#clip0_13262_28548)">
<path d="M16 32C24.8366 32 32 24.8366 32 16C32 7.16344 24.8366 0 16 0C7.16344 0 0 7.16344 0 16C0 24.8366 7.16344 32 16 32Z" fill="#9391F7"/>
<path d="M13.0249 16.7812C14.3969 16.5585 15.3285 15.2656 15.1059 13.8937C14.8832 12.5217 13.5903 11.59 12.2184 11.8127C10.8464 12.0354 9.91468 13.3281 10.1374 14.7002C10.3601 16.0722 11.6529 17.0038 13.0249 16.7812Z" fill="white"/>
<path d="M19.6031 16.7812C20.975 16.5585 21.9067 15.2656 21.684 13.8937C21.4613 12.5217 20.1685 11.59 18.7965 11.8127C17.4246 12.0354 16.4928 13.3281 16.7155 14.7002C16.9383 16.0722 18.231 17.0038 19.6031 16.7812Z" fill="white"/>
<path d="M15.9063 3.90625C9.0727 3.90625 3.53239 9.5521 3.53418 16.5144H6.69487C6.69487 11.2967 10.7863 7.06635 15.9063 7.06635C21.0263 7.06635 25.1177 11.2967 25.1177 16.5144H28.2784C28.2796 9.5521 22.7393 3.90625 15.9063 3.90625Z" fill="white"/>
</g>
<defs>
<clipPath id="clip0_13262_28548">
<rect width="32" height="32" fill="white"/>
</clipPath>
</defs>
</svg>
