<svg width="20" height="20" viewBox="0 0 20 20" fill="none" xmlns="http://www.w3.org/2000/svg">
<path d="M2.29883 6.19878V13.5479C2.29883 14.0171 2.5503 14.4509 2.9576 14.6848L9.34015 18.3601C9.74744 18.594 10.2489 18.594 10.6561 18.3601L17.0387 14.6848C17.446 14.4509 17.6975 14.0171 17.6975 13.5479V6.19878C17.6975 5.72956 17.446 5.29572 17.0387 5.06188L10.6561 1.38656C10.2489 1.15272 9.74744 1.15272 9.34015 1.38656L2.95606 5.06188C2.54876 5.29572 2.29883 5.72956 2.29883 6.19878Z" fill="#213147"/>
<path d="M11.3887 11.2997L10.4785 13.7889C10.4538 13.8581 10.4538 13.9335 10.4785 14.0027L12.0444 18.2857L13.8557 17.2427L11.6819 11.2997C11.6325 11.1628 11.4381 11.1628 11.3887 11.2997Z" fill="#12AAFF"/>
<path d="M13.2151 7.11148C13.1657 6.97456 12.9713 6.97456 12.9219 7.11148L12.0117 9.60067C11.987 9.6699 11.987 9.74528 12.0117 9.81451L14.5773 16.8267L16.3886 15.7836L13.2151 7.11148Z" fill="#12AAFF"/>
<path d="M9.99906 1.66249C10.0438 1.66249 10.0885 1.6748 10.1287 1.69634L17.0358 5.67319C17.116 5.71934 17.1653 5.8055 17.1653 5.89626V13.8484C17.1653 13.9407 17.116 14.0253 17.0358 14.0715L10.1287 18.0484C10.0901 18.0714 10.0438 18.0822 9.99906 18.0822C9.95432 18.0822 9.90958 18.0699 9.86947 18.0484L2.96237 14.0746C2.88215 14.0284 2.83278 13.9423 2.83278 13.8515V5.8978C2.83278 5.8055 2.88215 5.72088 2.96237 5.67473L9.86947 1.69788C9.90958 1.6748 9.95432 1.66249 9.99906 1.66249ZM9.99906 0.500977C9.75376 0.500977 9.50691 0.564052 9.28629 0.691742L2.38074 4.66706C1.9395 4.9209 1.66797 5.39012 1.66797 5.8978V13.85C1.66797 14.3577 1.9395 14.8269 2.38074 15.0807L9.28783 19.0576C9.50845 19.1837 9.75376 19.2483 10.0006 19.2483C10.2459 19.2483 10.4928 19.1853 10.7134 19.0576L17.6205 15.0807C18.0617 14.8269 18.3332 14.3577 18.3332 13.85V5.8978C18.3332 5.39012 18.0617 4.9209 17.6205 4.66706L10.7118 0.691742C10.4912 0.564052 10.2444 0.500977 9.99906 0.500977Z" fill="#9DCCED"/>
<path d="M5.42969 16.8381L6.06532 15.1028L7.3443 16.1628L6.14863 17.252L5.42969 16.8381Z" fill="#213147"/>
<path d="M9.41697 5.32837H7.66589C7.53475 5.32837 7.4175 5.40991 7.37276 5.53298L3.61914 15.7943L5.43038 16.8374L9.56353 5.5376C9.6021 5.43606 9.5265 5.32837 9.41697 5.32837Z" fill="white"/>
<path d="M12.4824 5.32861H10.7314C10.6002 5.32861 10.483 5.41015 10.4382 5.53323L6.15234 17.2499L7.96359 18.293L12.629 5.53784C12.666 5.4363 12.5904 5.32861 12.4824 5.32861Z" fill="white"/>
</svg>
