<svg width="32" height="32" viewBox="0 0 32 32" fill="none" xmlns="http://www.w3.org/2000/svg">
<g clip-path="url(#clip0_3225_30853)">
<path d="M16 32C24.8366 32 32 24.8366 32 16C32 7.16344 24.8366 0 16 0C7.16344 0 0 7.16344 0 16C0 24.8366 7.16344 32 16 32Z" fill="url(#paint0_linear_3225_30853)"/>
<path d="M24.7335 14.9422C24.5128 14.895 24.2828 14.8495 24.0441 14.8058C23.976 14.2567 23.8567 13.7242 23.6916 13.2136C26.7941 13.7129 28.8002 14.5068 28.8002 15.4009C28.8002 15.4108 28.8 15.4208 28.7994 15.4308C28.7255 16.9283 23.0234 18.1374 16.0002 18.1374C8.93096 18.1374 3.2002 16.9124 3.2002 15.4013C3.2002 15.392 3.20041 15.3827 3.20084 15.3734C3.24194 14.4802 5.28544 13.6894 8.41783 13.1963C8.25163 13.7062 8.1313 14.2381 8.06203 14.7867C7.78536 14.8362 7.52003 14.888 7.2669 14.9422C6.93516 15.0131 6.63167 15.0863 6.35632 15.1606C6.06259 15.2399 5.80094 15.3208 5.57137 15.4011C6.01612 15.5566 6.58135 15.713 7.2669 15.8596C7.4991 15.9092 7.74156 15.957 7.99363 16.0027C10.1119 16.387 12.9074 16.6278 16.0002 16.6278C19.1437 16.6278 21.98 16.3795 24.1103 15.9841C24.3254 15.9442 24.5333 15.9024 24.7335 15.8596C25.4194 15.713 25.9848 15.5565 26.4296 15.4009C25.9848 15.2453 25.4194 15.0888 24.7335 14.9422Z" fill="white"/>
<path d="M25.6434 10.6816C25.6437 10.6744 25.6439 10.6673 25.6439 10.6602C25.6439 9.85343 23.5012 9.15456 20.3762 8.81396C21.1199 9.3069 21.7807 9.92323 22.3318 10.6352C22.3723 10.6434 22.4125 10.6518 22.4522 10.6602C22.4233 10.6663 22.3943 10.6723 22.365 10.6784C20.7728 11.0057 18.5513 11.2183 16.0585 11.2183C13.5597 11.2183 11.3331 11.005 9.74012 10.6763C9.71479 10.6711 9.68992 10.6654 9.66492 10.6602C9.69932 10.6529 9.73412 10.6457 9.76912 10.6385C10.3202 9.92597 10.9809 9.30916 11.7247 8.81576C8.60846 9.15703 6.47316 9.85483 6.47316 10.6602C6.47316 11.6679 11.1138 12.4693 14.2417 12.6908C14.9415 12.7403 16.0375 12.7438 16.0375 12.7438C16.4243 12.7606 17.1289 12.7408 17.8259 12.6928C20.9708 12.4759 25.5972 11.6837 25.6434 10.6816Z" fill="white"/>
<path d="M6.47314 21.1184C6.47314 20.5913 7.38784 20.1103 8.89351 19.7451C9.13371 20.2269 9.41757 20.6813 9.73964 21.1028C9.71457 21.1079 9.68964 21.1131 9.66491 21.1184C9.69904 21.1256 9.73344 21.1327 9.76817 21.1399C9.77037 21.1428 9.77264 21.1457 9.7749 21.1486H9.8093C11.3972 21.4693 13.5956 21.6765 16.0585 21.6765C18.5214 21.6765 20.7198 21.4693 22.3077 21.1486H22.3285C22.33 21.1468 22.3314 21.145 22.3328 21.1431C22.373 21.135 22.4128 21.1267 22.4522 21.1184C22.4236 21.1123 22.3947 21.1063 22.3656 21.1003C22.6876 20.6787 22.9713 20.2241 23.2114 19.7422C24.7243 20.1077 25.6439 20.5899 25.6439 21.1184C25.6439 21.1285 25.6436 21.1385 25.6429 21.1486C25.5689 22.2766 21.3062 23.1861 16.0585 23.1861C10.8108 23.1861 6.54809 22.2766 6.4741 21.1486C6.47344 21.1385 6.47314 21.1285 6.47314 21.1184Z" fill="white"/>
</g>
<defs>
<linearGradient id="paint0_linear_3225_30853" x1="32" y1="0" x2="0" y2="32" gradientUnits="userSpaceOnUse">
<stop stop-color="#9440FE"/>
<stop offset="1" stop-color="#6E29D9"/>
</linearGradient>
<clipPath id="clip0_3225_30853">
<rect width="32" height="32" fill="white"/>
</clipPath>
</defs>
</svg>
