<svg width="32" height="32" viewBox="0 0 32 32" fill="none" xmlns="http://www.w3.org/2000/svg">
<g clip-path="url(#clip0_13358_10365)">
<path fill-rule="evenodd" clip-rule="evenodd" d="M16 0C24.8352 0 32 7.1648 32 16C32 24.8352 24.8352 32 16 32C7.1648 32 0 24.8352 0 16C0 7.1648 7.1648 0 16 0Z" fill="white"/>
<path d="M16.2406 22.6877C11.1238 22.6877 6.97656 21.2093 6.97656 19.2285C6.97656 18.1949 8.10616 17.2637 9.91416 16.6077C11.3254 17.5133 13.6934 17.9773 16.3782 17.9773C18.999 17.9773 21.3158 17.4109 22.7398 16.5437C24.4454 17.1933 25.5046 18.0989 25.5046 19.0973C25.5046 21.0813 21.3574 22.6877 16.2406 22.6877Z" fill="#1E1E1E"/>
<path d="M16.2945 17.5331C12.4161 17.5331 9.27051 16.3171 9.27051 14.8163C9.27051 13.9843 10.2401 13.2387 11.7601 12.7427C12.8449 13.3091 14.4705 13.6707 16.2945 13.6707C18.1185 13.6707 19.7441 13.3091 20.8289 12.7427C22.3521 13.2419 23.3185 13.9843 23.3185 14.8163C23.3217 16.3171 20.1761 17.5331 16.2945 17.5331Z" fill="#1E1E1E"/>
<path d="M16.2693 13.219C13.2709 13.219 10.8389 12.2142 10.8389 10.979C10.8389 9.74381 13.2709 8.73901 16.2693 8.73901C19.2677 8.73901 21.6997 9.74381 21.6997 10.979C21.6997 12.2142 19.2677 13.219 16.2693 13.219Z" fill="#1E1E1E"/>
</g>
<defs>
<clipPath id="clip0_13358_10365">
<rect width="32" height="32" fill="white"/>
</clipPath>
</defs>
</svg>
