<svg width="20" height="20" viewBox="0 0 20 20" fill="none" xmlns="http://www.w3.org/2000/svg">
<g clip-path="url(#clip0_13262_28627)">
<path d="M10 20C15.5228 20 20 15.5228 20 10C20 4.47715 15.5228 0 10 0C4.47715 0 0 4.47715 0 10C0 15.5228 4.47715 20 10 20Z" fill="white"/>
<path d="M10 0.25C15.3848 0.25 19.75 4.61522 19.75 10C19.75 15.3848 15.3848 19.75 10 19.75C4.61522 19.75 0.25 15.3848 0.25 10C0.25 4.61522 4.61522 0.25 10 0.25Z" stroke="#000A3D" stroke-opacity="0.12" stroke-width="0.5"/>
<path d="M5.00008 5.79C5.00008 5.51938 5.00008 5.38414 5.05109 5.28C5.09992 5.18031 5.18047 5.09977 5.28016 5.05094C5.38422 5 5.51945 5 5.79008 5H14.2101C14.4806 5 14.616 5 14.7201 5.05102C14.8197 5.09984 14.9002 5.18039 14.9491 5.28008C15.0001 5.38414 15.0001 5.51945 15.0001 5.79008V14.2101C15.0001 14.4806 15.0001 14.616 14.9491 14.7201C14.9002 14.8197 14.8197 14.9002 14.7201 14.9491C14.616 15.0001 14.4806 15.0001 14.2101 15.0001H5.79008C5.51945 15.0001 5.38422 15.0001 5.28008 14.9491C5.18039 14.9002 5.09984 14.8197 5.05102 14.7201C5 14.616 5 14.4806 5 14.2101V5.79H5.00008Z" fill="#0000FF"/>
</g>
<defs>
<clipPath id="clip0_13262_28627">
<rect width="20" height="20" fill="white"/>
</clipPath>
</defs>
</svg>
