<svg width="33" height="33" viewBox="0 0 33 33" fill="none" xmlns="http://www.w3.org/2000/svg">
<path d="M16.2946 0.294678H16.2952C25.1316 0.294678 32.2949 7.45798 32.2949 16.2944V16.295C32.2949 25.1314 25.1316 32.2947 16.2952 32.2947H16.2946C7.45823 32.2947 0.294922 25.1314 0.294922 16.295V16.2944C0.294922 7.45798 7.45823 0.294678 16.2946 0.294678Z" fill="#111111" stroke="#111111" stroke-width="0.589409"/>
<path fill-rule="evenodd" clip-rule="evenodd" d="M14.131 8.86914H13.7908L13.5701 9.12817L7.87526 15.8172L7.46875 16.2948L7.87526 16.7722L13.5701 23.4613L13.7908 23.7204H14.131H24.3838H25.1203V22.9838V18.7314H23.6472V22.2473H15.7418L20.4733 16.7766L20.89 16.2948L20.4733 15.8129L15.7418 10.3423H23.6472V13.8581H25.1203V9.60571V8.86914H24.3838H14.131ZM14.1353 10.7368L9.40347 16.2948L14.1353 21.8527L18.9423 16.2948L14.1353 10.7368Z" fill="white"/>
</svg>
