<svg width="22" height="22" viewBox="0 0 22 22" fill="none" xmlns="http://www.w3.org/2000/svg">
<path d="M11 0.5C16.799 0.5 21.5 5.20101 21.5 11C21.5 16.799 16.799 21.5 11 21.5C5.20101 21.5 0.5 16.799 0.5 11C0.5 5.20101 5.20101 0.5 11 0.5Z" fill="#5F7EDD" stroke="#F8FAFC"/>
<path opacity="0.6" d="M10.9994 9.26318L6.90625 11.1247L10.9994 13.543L15.091 11.1247L10.9994 9.26318Z" fill="white"/>
<path opacity="0.45" d="M6.90625 11.1249L10.9994 13.5431V4.3335L6.90625 11.1249Z" fill="white"/>
<path opacity="0.8" d="M10.998 4.3335V13.5431L15.0896 11.1249L10.998 4.3335Z" fill="white"/>
<path opacity="0.45" d="M6.90625 11.9004L10.9994 17.6669V14.3186L6.90625 11.9004Z" fill="white"/>
<path opacity="0.8" d="M10.998 14.3184V17.6666L15.0928 11.9001L10.998 14.3184Z" fill="white"/>
</svg>
