<svg width="32" height="32" viewBox="0 0 32 32" fill="none" xmlns="http://www.w3.org/2000/svg">
<rect width="32" height="32" rx="16" fill="#171719"/>
<path d="M27.1796 17.3946L26.3333 14.0884C26.321 14.0404 26.2958 13.9967 26.2604 13.962C26.225 13.9274 26.1808 13.9031 26.1326 13.8919L22.8608 13.0839C22.8346 13.0795 22.8084 13.0751 22.7866 13.0751C22.7471 13.071 22.7071 13.0755 22.6694 13.0883C22.6318 13.1011 22.5973 13.1219 22.5685 13.1494L17.0457 18.6787L16.3128 15.8223C16.3005 15.7743 16.2753 15.7306 16.2399 15.696C16.2046 15.6613 16.1604 15.637 16.1121 15.6258L13.3028 14.9313L18.8212 9.4064C18.8517 9.37582 18.8735 9.33215 18.8866 9.29284C18.9128 9.24043 18.9172 9.17492 18.9041 9.11814L18.0578 5.8119C18.0455 5.76389 18.0203 5.72018 17.9849 5.68553C17.9495 5.65087 17.9053 5.6266 17.8571 5.61536L14.5853 4.80737C14.5222 4.79223 14.4557 4.79997 14.3977 4.8292C14.3977 4.8292 14.3672 4.84667 14.3497 4.85978C14.3366 4.86851 14.3192 4.87725 14.3061 4.89035L4.89203 14.3112L4.86586 14.3505C4.80478 14.4203 4.78297 14.5121 4.81351 14.6038L5.72961 17.7965C5.75579 17.8882 5.82559 17.9581 5.9172 17.9843L8.97961 18.8665L9.86081 21.9325C9.88699 22.0243 9.95679 22.0941 10.0484 22.1203L13.1239 23.0026L14.0051 26.0817C14.0313 26.1734 14.1011 26.2433 14.1927 26.2695L17.3947 27.1911C17.4209 27.1998 17.447 27.1998 17.4689 27.1998H17.4907C17.5605 27.1998 17.6303 27.1736 17.687 27.1168L27.1098 17.6829C27.1403 17.6523 27.1621 17.6087 27.1752 17.5694C27.2014 17.5169 27.2057 17.4514 27.1927 17.3946H27.1796ZM22.9568 21.059L22.2675 18.373L23.79 16.8487L26.4074 17.5999L22.9568 21.059ZM17.6128 26.4049L16.9236 23.7189L19.6806 20.9586L22.298 21.7098L17.6084 26.4049H17.6128ZM19.7373 20.1287L19.0786 17.8314L21.443 18.4167L19.7373 20.1244V20.1287ZM21.8225 18.8185L22.4245 21.1769L20.1256 20.5174L21.8225 18.8185ZM21.8967 17.9668L19.2138 17.3073L22.6601 13.8569L23.4061 16.4556L21.8967 17.9668ZM18.5507 17.9712L19.2967 20.5699L16.5527 23.3171L13.8699 22.6576L18.5507 17.9712ZM25.8447 14.3767L26.5339 17.0627L23.9339 16.3159L23.188 13.7215L25.8447 14.3767ZM13.4685 22.2557L12.7793 19.5697L13.7739 18.5739L16.3913 19.3251L13.4685 22.2514V22.2557ZM13.8306 17.7484L13.1719 15.4511L15.5363 16.0363L13.8306 17.7441V17.7484ZM16.5135 18.7923L14.2145 18.1328L15.9115 16.4338L16.5135 18.7923ZM13.39 18.1895L12.4128 19.1679L9.72994 18.5084L12.644 15.5908L13.39 18.1895ZM10.3058 9.66408L11.0518 12.2628L8.28598 15.0318L5.6031 14.3723L10.3058 9.66408ZM14.389 5.57169L15.135 8.17038L13.6517 9.65535L10.9689 8.99585L14.389 5.57169ZM14.7074 12.7476L14.0182 10.0615L15.5189 8.55909L18.1363 9.31031L14.7074 12.7432V12.7476ZM11.4924 11.826L10.8336 9.52869L13.1981 10.1139L11.4924 11.8217V11.826ZM13.5732 10.5114L14.1752 12.8699L11.8762 12.2104L13.5732 10.5114ZM11.4356 12.6515L14.0531 13.4027L9.34169 18.1197L8.65243 15.4336L11.4313 12.6515H11.4356ZM17.5735 6.09579L18.2628 8.78184L15.6628 8.03499L14.9168 5.44066L17.5735 6.09579ZM5.46787 14.9051L7.83229 15.4904L6.12659 17.1981L5.46787 14.9008V14.9051ZM6.51048 17.5868L8.20746 15.8878L8.80947 18.2463L6.51048 17.5868ZM10.3363 21.6355L9.59034 19.0412L12.247 19.6963L12.9363 22.3824L10.3363 21.6355ZM13.739 23.186L16.1034 23.7713L14.3977 25.479L13.739 23.1817V23.186ZM14.7816 25.8677L16.4786 24.1687L17.0806 26.5272L14.7816 25.8677Z" fill="#655EA8"/>
</svg>
