<svg width="32" height="32" viewBox="0 0 32 32" fill="none" xmlns="http://www.w3.org/2000/svg">
<path d="M16 32.0015C24.8366 32.0015 32 24.8377 32 16.0007C32 7.16377 24.8366 0 16 0C7.16344 0 0 7.16377 0 16.0007C0 24.8377 7.16344 32.0015 16 32.0015Z" fill="#0A191F"/>
<path d="M18.0444 7.08565L7.97903 11.5498C7.75893 11.647 7.56017 11.7866 7.39418 11.9607C7.22818 12.1348 7.09822 12.34 7.01174 12.5645C6.92527 12.789 6.88399 13.0284 6.89027 13.2689C6.89656 13.5094 6.95028 13.7463 7.04836 13.966C7.24795 14.4097 7.61519 14.7564 8.06971 14.9301C8.52424 15.1037 9.02905 15.0903 9.47369 14.8927L19.5384 10.4291C19.7585 10.3321 19.9573 10.1925 20.1234 10.0184C20.2895 9.8443 20.4195 9.63911 20.506 9.41461C20.5926 9.1901 20.6339 8.95071 20.6277 8.71019C20.6214 8.46966 20.5678 8.23274 20.4697 8.01302C20.2701 7.56925 19.9029 7.2226 19.4483 7.04893C18.9938 6.87525 18.489 6.8887 18.0444 7.08631V7.08565Z" fill="#37BEC1"/>
<path d="M15.2479 14.3286L8.54055 17.3028C8.32045 17.3999 8.1217 17.5395 7.9557 17.7136C7.78971 17.8878 7.65974 18.093 7.57327 18.3175C7.48679 18.542 7.44551 18.7813 7.4518 19.0218C7.45808 19.2623 7.5118 19.4992 7.60988 19.7189C7.80923 20.1627 8.17625 20.5095 8.63064 20.6835C9.08504 20.8574 9.58982 20.8442 10.0345 20.6469L16.7425 17.6715C16.9626 17.5744 17.1614 17.4349 17.3274 17.2608C17.4934 17.0867 17.6234 16.8816 17.7099 16.6572C17.7965 16.4328 17.8378 16.1935 17.8316 15.953C17.8254 15.7126 17.7718 15.4757 17.6739 15.256C17.4744 14.8121 17.1072 14.4653 16.6527 14.2915C16.1982 14.1177 15.6926 14.1311 15.2479 14.3286Z" fill="#FAB044"/>
<path d="M22.5242 17.1079L12.4602 21.5721C12.2402 21.6692 12.0415 21.8088 11.8756 21.9829C11.7096 22.157 11.5797 22.3621 11.4932 22.5866C11.4068 22.811 11.3655 23.0503 11.3717 23.2907C11.3779 23.5311 11.4316 23.7679 11.5296 23.9876C11.729 24.4315 12.0962 24.7783 12.5507 24.9521C13.0053 25.1259 13.5102 25.1125 13.9549 24.915L24.0196 20.4514C24.2397 20.3544 24.4385 20.2148 24.6046 20.0407C24.7707 19.8666 24.9007 19.6614 24.9872 19.4369C25.0738 19.2124 25.1151 18.973 25.1089 18.7325C25.1026 18.4919 25.0489 18.255 24.9509 18.0353C24.7514 17.5912 24.3841 17.2443 23.9294 17.0705C23.4747 16.8967 22.9697 16.9102 22.5249 17.1079H22.5242Z" fill="#E4615E"/>
</svg>
