<svg width="32" height="32" viewBox="0 0 32 32" fill="none" xmlns="http://www.w3.org/2000/svg">
  <circle cx="16" cy="16" r="16" fill="white" />
  <mask id="mask0_1_2" style="mask-type:luminance" maskUnits="userSpaceOnUse" x="2" y="2" width="28"
    height="28">
    <path d="M30 2H2V30H30V2Z" fill="white" />
  </mask>
  <g mask="url(#mask0_1_2)">
    <path
      d="M30.0012 15.3939C29.7056 8.39143 24.313 2.71382 17.4542 2.00698C16.6584 1.92451 16.0078 2.58422 16.0078 3.388V7.26861C16.0078 8.07239 16.6627 8.70882 17.4474 8.86746C20.1405 9.41307 22.2928 11.4583 23.0025 14.0986C23.2897 14 23.6166 13.9398 23.9945 13.9384C25.2981 13.9445 26.0014 14.668 26.5494 15.253C27.0619 15.7928 27.4709 16.2167 28.3282 16.2293C29.1266 16.2305 29.5352 15.8686 30.0012 15.3939Z"
      fill="#3F75FF" />
    <path
      d="M9.81264 3.37963C10.6962 2.9416 11.6606 3.63915 11.6606 4.62871V13.9766C10.356 13.9858 9.66011 14.6952 9.11019 15.272L9.09864 15.2839C8.58517 15.8114 8.1773 16.2305 7.31826 16.2292C6.46096 16.2166 6.05203 15.7927 5.5395 15.2529C4.99151 14.6679 4.28817 13.9444 2.98454 13.9382C2.66727 13.9395 2.38589 13.9821 2.13379 14.0541C2.78079 9.35744 5.73631 5.40169 9.81264 3.37963Z"
      fill="#3F75FF" />
    <path
      d="M17.4532 29.9928C16.6574 30.0748 16.0068 29.4156 16.0068 28.6119V24.7312C16.0068 23.9279 16.6618 23.291 17.4465 23.1324C20.7577 22.4615 23.2514 19.5234 23.2514 15.9998C23.2514 15.9678 23.2512 15.9358 23.2508 15.9039C23.4611 15.8187 23.7019 15.77 23.9953 15.7705C24.8527 15.7831 25.2615 16.207 25.7741 16.7468C26.3221 17.3319 27.0255 18.0553 28.3291 18.0615C28.9996 18.0588 29.5098 17.8716 29.9221 17.6119C29.1799 24.1457 23.9805 29.3202 17.4532 29.9928Z"
      fill="#003F99" />
    <path
      d="M2 16.024C2.00924 21.5494 5.19012 26.3276 9.81172 28.6201C10.6953 29.0581 11.6597 28.3606 11.6597 27.371V15.8089C10.8095 15.8117 10.4031 16.2293 9.89229 16.7542L9.88074 16.7661C9.32921 17.3445 8.63097 18.0563 7.31921 18.0615C6.01558 18.0553 5.31225 17.3319 4.76426 16.7468C4.25172 16.207 3.84279 15.7831 2.98549 15.7705C2.5738 15.7699 2.26573 15.8658 2 16.024Z"
      fill="#003F99" />
  </g>
</svg>