<svg width="32" height="32" viewBox="0 0 32 32" fill="none" xmlns="http://www.w3.org/2000/svg">
<circle cx="16" cy="16" r="16" fill="white"/>
<path d="M21.6084 8.6084C21.6992 8.66953 21.8935 8.81032 22.04 8.91895C22.1867 9.03037 22.4266 9.22136 22.5732 9.34863C22.7199 9.47332 22.9972 9.73832 23.1865 9.93457C23.3757 10.128 23.6235 10.401 23.7383 10.5391C23.8503 10.677 24.0372 10.9271 24.1572 11.0889C24.2772 11.2533 24.373 11.3966 24.373 11.4072C24.3715 11.4212 24.2979 11.4765 24.2109 11.5342C24.123 11.5925 23.9868 11.7066 23.9121 11.7861C23.8349 11.8656 23.7282 12.0033 23.6748 12.0908C23.6215 12.1784 23.5436 12.3462 23.501 12.4629C23.4344 12.6536 23.4268 12.7098 23.4268 13.0332C23.4268 13.3565 23.4343 13.4126 23.501 13.6035C23.5436 13.7202 23.6291 13.8975 23.6904 14.001C23.7571 14.1044 23.8936 14.2664 24.0029 14.3672C24.1334 14.489 24.2719 14.5844 24.4131 14.6533C24.5303 14.709 24.7037 14.7752 24.7998 14.8018C24.9011 14.8256 25.0799 14.8447 25.2266 14.8447C25.3652 14.8447 25.547 14.8311 25.627 14.8125C25.7066 14.794 25.7753 14.7839 25.7783 14.7891C25.7837 14.7944 25.8105 14.9271 25.8398 15.0889C25.8692 15.248 25.917 15.5793 25.9463 15.8232C25.9836 16.1361 26 16.436 26 16.8311C26 17.2183 25.9836 17.54 25.9463 17.8477C25.917 18.0968 25.8692 18.4306 25.8398 18.5898C25.8105 18.749 25.7837 18.8843 25.7783 18.8896C25.7757 18.8949 25.7068 18.8847 25.627 18.8662C25.547 18.8476 25.3652 18.834 25.2266 18.834C25.0799 18.834 24.8984 18.855 24.7998 18.8789C24.7038 18.9054 24.5304 18.9717 24.4131 19.0273C24.2798 19.091 24.1303 19.1954 24.0156 19.2988C23.9143 19.3917 23.7785 19.5481 23.7119 19.6514C23.6426 19.7548 23.5524 19.9379 23.5098 20.0625C23.4511 20.2322 23.4296 20.354 23.4189 20.5527C23.4083 20.7489 23.4185 20.8739 23.4531 21.0303C23.4798 21.1523 23.552 21.3435 23.624 21.4814C23.6987 21.6273 23.8032 21.7817 23.8965 21.8799C23.9792 21.9674 24.118 22.0863 24.2031 22.1445C24.2873 22.2021 24.3635 22.2521 24.373 22.2559C24.381 22.2612 24.3145 22.3698 24.2266 22.4971C24.1386 22.6244 23.9467 22.8766 23.8027 23.0596C23.6561 23.2426 23.3627 23.5696 23.1494 23.7871C22.9334 24.0046 22.6161 24.3017 22.4375 24.4502C22.2615 24.5961 21.9785 24.8133 21.8105 24.9326C21.6428 25.0492 21.4909 25.1549 21.4746 25.1631C21.4533 25.1763 21.416 25.1417 21.376 25.0674C21.3411 25.0063 21.2481 24.8872 21.1709 24.7998C21.0909 24.7149 20.9438 24.5878 20.8398 24.5215C20.7358 24.4525 20.5811 24.3678 20.4932 24.3359C20.4052 24.3015 20.2374 24.2566 20.1201 24.2354C19.9761 24.2088 19.8374 24.2033 19.6934 24.2139C19.576 24.2245 19.4026 24.256 19.3066 24.2852C19.2106 24.3143 19.0506 24.3805 18.9492 24.4336C18.8479 24.4893 18.6878 24.6039 18.5918 24.6914C18.4985 24.779 18.3654 24.9328 18.2988 25.0361C18.2295 25.1396 18.1386 25.3226 18.0986 25.4473C18.04 25.6169 18.0158 25.7388 18.0078 25.9375C17.9998 26.1018 18.0083 26.2717 18.0322 26.3857C18.0535 26.5023 18.056 26.5691 18.04 26.5771C18.0241 26.5824 17.8749 26.6115 17.707 26.6406C17.5391 26.6698 17.1709 26.7179 16.8936 26.7471C16.6164 26.7762 16.2191 26.7998 16.0137 26.7998C15.8084 26.7998 15.4616 26.781 15.2402 26.7598C15.0218 26.7386 14.7445 26.7073 14.627 26.6914C14.5097 26.6755 14.3175 26.6462 14.2002 26.625C14.0829 26.6038 13.976 26.5825 13.96 26.5771C13.9414 26.5691 13.9445 26.5081 13.9658 26.3994C13.9844 26.3067 14 26.14 14 26.0312C14 25.9226 13.9813 25.75 13.96 25.6465C13.9386 25.543 13.8635 25.3459 13.7969 25.208C13.693 25.0041 13.6292 24.9161 13.4561 24.7412C13.2856 24.5743 13.1921 24.5028 13.0137 24.418C12.8883 24.357 12.7093 24.2856 12.6133 24.2617C12.5066 24.2352 12.3382 24.2168 12.1729 24.2168C12.0103 24.2168 11.84 24.2352 11.7334 24.2617C11.6374 24.2856 11.4586 24.357 11.3359 24.418C11.1999 24.4869 11.0425 24.5959 10.9385 24.6914C10.8452 24.779 10.7198 24.9223 10.6611 25.0098C10.6025 25.0972 10.5411 25.1638 10.5225 25.1611C10.5062 25.1556 10.3572 25.0521 10.1895 24.9355C10.0215 24.8162 9.73851 24.5961 9.5625 24.4502C9.38392 24.3017 9.06685 24.0046 8.85352 23.7871C8.64021 23.5696 8.36833 23.2719 8.25098 23.126C8.13364 22.9801 7.97896 22.7783 7.9043 22.6748C7.82964 22.5714 7.73308 22.4386 7.69043 22.375C7.64792 22.3141 7.61897 22.2585 7.62695 22.2559C7.63601 22.2499 7.69389 22.2128 7.75977 22.1709C7.82643 22.1285 7.94441 22.0362 8.02441 21.9619C8.10441 21.8876 8.22437 21.744 8.29102 21.6406C8.36031 21.5372 8.44758 21.3541 8.49023 21.2295C8.54619 21.0625 8.57037 20.9353 8.58105 20.7393C8.58905 20.5405 8.58146 20.4207 8.54688 20.2617C8.52023 20.1424 8.44554 19.9458 8.37891 19.8105C8.28558 19.6275 8.21032 19.5269 8.05566 19.373C7.94371 19.2643 7.78138 19.1315 7.69336 19.0811C7.60541 19.0307 7.45884 18.9615 7.36816 18.9297C7.27485 18.8952 7.10144 18.8551 6.98145 18.8418C6.84011 18.8259 6.69058 18.8239 6.57324 18.8398C6.47228 18.8531 6.34747 18.8709 6.30176 18.8789C6.21381 18.8948 6.21314 18.8952 6.18652 18.7549C6.17319 18.6806 6.14979 18.5446 6.13379 18.457C6.11776 18.3691 6.083 18.0989 6.05371 17.8525C6.01639 17.5422 6 17.2426 6 16.8447C6 16.4601 6.01638 16.1388 6.05371 15.8311C6.08304 15.5818 6.13084 15.248 6.16016 15.0889C6.18949 14.9271 6.21635 14.7944 6.22168 14.7891C6.22469 14.7839 6.2934 14.794 6.37305 14.8125C6.45305 14.8311 6.63477 14.8447 6.77344 14.8447C6.92008 14.8447 7.09889 14.8256 7.2002 14.8018C7.2962 14.7752 7.47441 14.7064 7.59961 14.6455C7.78094 14.558 7.87238 14.4916 8.05371 14.3086C8.22141 14.1391 8.30627 14.0302 8.38086 13.8818C8.43417 13.7731 8.50385 13.5874 8.5332 13.4707C8.56518 13.3408 8.58688 13.1711 8.58691 13.0332C8.58691 12.8926 8.56787 12.7274 8.5332 12.5947C8.50114 12.478 8.42897 12.2922 8.37305 12.1836C8.31695 12.0748 8.19725 11.9079 8.10938 11.8125C8.02403 11.717 7.87971 11.5925 7.78906 11.5342C7.70224 11.4766 7.62879 11.424 7.62695 11.415C7.62695 11.4071 7.72281 11.2638 7.84277 11.0967C7.96277 10.9296 8.16275 10.6665 8.28809 10.5127C8.41345 10.3588 8.71449 10.0382 8.95703 9.79688C9.19965 9.55554 9.54369 9.2422 9.71973 9.10156C9.89558 8.96109 10.1542 8.77038 10.293 8.6748C10.4316 8.57931 10.5516 8.5106 10.5596 8.51855C10.5678 8.5295 10.6238 8.60871 10.6797 8.69336C10.7383 8.78084 10.864 8.92096 10.96 9.00586C11.0639 9.10133 11.2187 9.20489 11.3467 9.26855C11.4639 9.3242 11.6316 9.38789 11.7197 9.40918C11.8077 9.4304 11.9365 9.45464 12.1338 9.47852L11.5518 10.0537C11.2344 10.372 10.8397 10.7917 10.6797 10.9854C10.517 11.179 10.2857 11.4788 10.1631 11.6484C10.0404 11.8182 9.85055 12.107 9.74121 12.29C9.63188 12.4731 9.46638 12.7785 9.37305 12.9668C9.27972 13.1552 9.14671 13.4549 9.08008 13.6299C9.01075 13.805 8.91687 14.0858 8.86621 14.2529C8.81823 14.42 8.75494 14.6773 8.72559 14.8232C8.69359 14.9691 8.64776 15.2264 8.62109 15.3936C8.58376 15.6323 8.57324 15.8632 8.57324 16.4414C8.57324 17.0276 8.58377 17.2479 8.62109 17.4893C8.64776 17.6564 8.69899 17.9325 8.73633 18.0996C8.7737 18.2668 8.86163 18.577 8.93359 18.7891C9.0056 19.0013 9.12775 19.3171 9.20508 19.4922C9.28508 19.6673 9.41317 19.9246 9.49316 20.0625C9.5705 20.2004 9.71482 20.4342 9.81348 20.5801C9.91211 20.7259 10.093 20.9693 10.2129 21.123C10.3356 21.2769 10.5761 21.5399 10.7441 21.707C10.9148 21.8768 11.1737 22.1099 11.3203 22.2266C11.467 22.3433 11.7256 22.5292 11.8936 22.6406C12.0615 22.752 12.3389 22.9135 12.5068 23.001C12.6748 23.0912 12.9147 23.2057 13.04 23.2588C13.1652 23.3118 13.3491 23.3857 13.4531 23.4229C13.5571 23.46 13.7549 23.524 13.8936 23.5664C14.0323 23.6088 14.2909 23.6728 14.4668 23.71C14.6428 23.7444 14.9445 23.7916 15.1338 23.8154C15.3312 23.8366 15.7042 23.8555 16 23.8555C16.2958 23.8555 16.6688 23.8366 16.8662 23.8154C17.0555 23.7916 17.3338 23.7499 17.4805 23.7207C17.6272 23.6915 17.8962 23.6246 18.0801 23.5742C18.264 23.5212 18.5517 23.4257 18.7197 23.3594C18.8877 23.2931 19.1764 23.1632 19.3604 23.0703C19.5443 22.9801 19.8134 22.8291 19.96 22.7363C20.1066 22.6435 20.3465 22.4759 20.4932 22.3672C20.6398 22.2558 20.8854 22.052 21.04 21.9141C21.1946 21.7762 21.4262 21.5402 21.5596 21.3916C21.6929 21.2404 21.8963 20.9885 22.0137 20.832C22.131 20.6729 22.3149 20.3962 22.4189 20.2158C22.5256 20.0354 22.6826 19.7331 22.7705 19.5449C22.8585 19.3567 22.9895 19.0202 23.0615 18.8027C23.1362 18.5827 23.2263 18.2668 23.2637 18.0996C23.301 17.9325 23.349 17.6695 23.373 17.5156C23.397 17.3618 23.4236 16.9855 23.4316 16.6807C23.4423 16.3358 23.4347 15.9875 23.416 15.7646C23.3973 15.5683 23.3604 15.2686 23.3311 15.1016C23.3017 14.9344 23.2428 14.6666 23.2002 14.5049C23.1575 14.3431 23.0797 14.0837 23.0264 13.9219C22.9704 13.7601 22.8511 13.4573 22.7578 13.2451C22.6645 13.0331 22.5015 12.7124 22.3975 12.5293C22.2935 12.3463 22.109 12.0483 21.9863 11.8652C21.8636 11.6822 21.6505 11.3962 21.5146 11.2266C21.3787 11.0568 21.1467 10.7836 21 10.6191C20.8534 10.4547 20.536 10.1311 19.8535 9.48145L19.9863 9.46484C20.0609 9.45689 20.197 9.43011 20.293 9.40625C20.389 9.38238 20.5577 9.31938 20.667 9.26367C20.7896 9.20265 20.9418 9.09643 21.0645 8.98242C21.1711 8.88427 21.3018 8.73302 21.4404 8.49707L21.6084 8.6084Z" fill="black"/>
<path d="M13.1567 6.56905C13.1727 6.57435 13.186 6.59027 13.186 6.60353C13.186 6.6168 13.1674 6.73616 13.1487 6.86614C13.1247 7.0253 13.1167 7.22955 13.1274 7.47625C13.1327 7.6805 13.162 7.94311 13.186 8.05983C13.21 8.17654 13.2607 8.37284 13.298 8.49751C13.3327 8.62218 13.4047 8.82909 13.458 8.96172C13.5087 9.0917 13.6234 9.3437 13.7087 9.51877C13.794 9.69385 13.9487 9.98564 14.0554 10.1687C14.1594 10.3517 14.5007 10.9061 14.8127 11.4021C15.1247 11.8982 15.458 12.442 15.5514 12.6091C15.6474 12.7762 15.7914 13.0441 15.8714 13.2059C15.954 13.3651 16.0767 13.641 16.146 13.816C16.2154 13.9911 16.306 14.2723 16.3487 14.4394C16.394 14.6065 16.442 14.8877 16.458 15.0628C16.482 15.3042 16.482 15.4554 16.458 15.6861C16.4394 15.8533 16.3967 16.1053 16.3594 16.2432C16.3167 16.3997 16.2234 16.6358 16.106 16.8666C15.986 17.1106 15.8447 17.3387 15.7007 17.5297C15.578 17.6889 15.3354 17.9648 15.1594 18.1425C14.9834 18.3176 14.6287 18.6491 14.3727 18.8746C14.1167 19.1001 13.7914 19.4051 13.65 19.5484C13.5114 19.6916 13.3327 19.9012 13.2554 20.0099C13.178 20.1187 13.0687 20.3017 13.01 20.4131C12.954 20.5272 12.8767 20.7182 12.842 20.8376C12.8074 20.9596 12.7647 21.1771 12.7487 21.323C12.73 21.5007 12.73 21.6864 12.746 21.88C12.7594 22.0392 12.762 22.1798 12.7514 22.1904C12.7407 22.2037 12.626 22.1453 12.4927 22.0631C12.362 21.9808 12.138 21.8296 11.9994 21.7235C11.8607 21.6201 11.61 21.4026 11.442 21.2434C11.2767 21.0842 11.042 20.8376 10.9274 20.6996C10.81 20.5617 10.618 20.3044 10.5007 20.1293C10.3834 19.9542 10.1994 19.6306 10.0927 19.4131C9.98335 19.1929 9.85269 18.8958 9.79935 18.7499C9.74335 18.604 9.66069 18.3282 9.61269 18.1398C9.56469 17.9515 9.50069 17.657 9.47402 17.4899C9.43402 17.2406 9.42602 17.039 9.42869 16.4024C9.42869 15.7365 9.43669 15.5641 9.48735 15.2485C9.51935 15.0442 9.58069 14.7338 9.62335 14.5588C9.66602 14.3837 9.74069 14.1317 9.78602 14.0017C9.83402 13.8717 9.92469 13.6436 9.99135 13.4977C10.0554 13.3518 10.1754 13.1131 10.2554 12.9672C10.338 12.8213 10.5247 12.5083 10.674 12.2696C10.8234 12.0335 10.9594 11.8425 10.9727 11.8504C10.9887 11.8557 10.9967 11.869 10.994 11.8823C10.9914 11.8955 10.9327 12.0626 10.866 12.251C10.7994 12.4393 10.7167 12.7258 10.6767 12.8876C10.6287 13.0945 10.6047 13.2882 10.594 13.5508C10.586 13.763 10.5914 13.9858 10.6074 14.068C10.6234 14.1476 10.6634 14.2856 10.6954 14.3731C10.73 14.4606 10.802 14.588 10.858 14.6569C10.93 14.7471 11.0127 14.8108 11.138 14.8691C11.298 14.9461 11.3407 14.9567 11.5327 14.954C11.6767 14.9514 11.7967 14.9301 11.906 14.893C11.994 14.8612 12.138 14.7896 12.226 14.7365C12.314 14.6834 12.466 14.5614 12.562 14.4659C12.6607 14.3704 12.81 14.1848 12.8954 14.0548C12.9807 13.9248 13.0927 13.7152 13.1407 13.5906C13.1914 13.4659 13.2607 13.2563 13.2927 13.1264C13.3274 12.9964 13.37 12.7444 13.386 12.5693C13.4047 12.3863 13.41 12.1396 13.3994 11.9857C13.3914 11.8398 13.3647 11.6011 13.3434 11.4552C13.322 11.3093 13.266 11.0414 13.2154 10.8584C13.1674 10.6753 13.058 10.3066 12.9754 10.036C12.8927 9.76547 12.794 9.40736 12.7567 9.24025C12.706 9.00416 12.6874 8.83174 12.674 8.47098C12.6634 8.11553 12.6687 7.95107 12.7007 7.76804C12.7247 7.63806 12.7807 7.41524 12.826 7.2773C12.8714 7.13936 12.9594 6.9192 13.018 6.79187C13.0794 6.66454 13.1407 6.56374 13.1567 6.56905Z" fill="#FF4C00"/>
<path d="M18.4983 3.41767C18.5036 3.42562 18.4823 3.46276 18.4556 3.5052C18.4263 3.54499 18.349 3.69089 18.285 3.82882C18.2183 3.96676 18.1383 4.17632 18.1116 4.29303C18.0823 4.40975 18.0503 4.59013 18.0396 4.69093C18.0316 4.79173 18.0343 4.97741 18.0503 5.10209C18.0663 5.22676 18.1143 5.44162 18.1596 5.57956C18.205 5.7175 18.309 5.9695 18.3943 6.13661C18.4796 6.30373 18.677 6.65653 18.8343 6.91914C18.989 7.18175 19.1756 7.52129 19.2503 7.67514C19.3223 7.82899 19.4076 8.02529 19.4343 8.11282C19.4636 8.20036 19.5063 8.36482 19.5303 8.47889C19.5543 8.5903 19.573 8.7972 19.573 8.93514C19.573 9.07308 19.565 9.18714 19.5543 9.18714C19.541 9.18714 19.1356 8.7972 18.6503 8.31973C18.0903 7.77063 17.6956 7.35682 17.573 7.19767C17.4663 7.05973 17.333 6.86874 17.277 6.77325C17.221 6.67775 17.1436 6.51063 17.1036 6.40188C17.0556 6.26394 17.029 6.126 17.021 5.95093C17.0076 5.74668 17.0183 5.65649 17.0636 5.47346C17.0956 5.34878 17.1676 5.15249 17.2236 5.03577C17.2823 4.91906 17.3863 4.73337 17.4583 4.62461C17.5303 4.51586 17.685 4.3063 17.8023 4.1604C17.9196 4.01451 18.1223 3.78373 18.253 3.64845C18.381 3.51316 18.493 3.40971 18.4983 3.41767Z" fill="#FF4C00"/>
<path d="M16.2836 1.6001C16.3049 1.6001 16.3209 1.61336 16.3209 1.62662C16.3209 1.63989 16.2702 1.7513 16.2116 1.87332C16.1502 1.99269 16.0382 2.24469 15.9609 2.43568C15.8836 2.62667 15.7849 2.91315 15.7396 3.07231C15.6942 3.23147 15.6356 3.4702 15.6089 3.60283C15.5742 3.78056 15.5636 3.9742 15.5609 4.35883C15.5609 4.75673 15.5716 4.9318 15.6116 5.11483C15.6382 5.24481 15.7022 5.48355 15.7556 5.64536C15.8062 5.80717 15.9289 6.091 16.0249 6.28199C16.1236 6.47298 16.2942 6.76477 16.4062 6.93189C16.5182 7.099 16.7129 7.36161 16.8356 7.51547C16.9609 7.66932 17.1716 7.91867 17.3076 8.07252C17.4436 8.22637 17.6329 8.43328 17.7316 8.53408C17.8276 8.63488 18.2302 9.02481 18.6249 9.39618C19.0196 9.7702 19.5102 10.2556 19.7156 10.4732C19.9209 10.6933 20.1849 10.9851 20.2996 11.123C20.4169 11.261 20.6169 11.513 20.7449 11.6801C20.8729 11.8472 21.0622 12.1098 21.1662 12.2637C21.2676 12.4175 21.4142 12.651 21.4942 12.7809C21.5716 12.9109 21.7049 13.1603 21.7902 13.3327C21.8782 13.5025 21.9929 13.7545 22.0516 13.8871C22.1076 14.0224 22.1982 14.2717 22.2516 14.4388C22.3076 14.606 22.3796 14.8633 22.4169 15.0092C22.4516 15.155 22.5022 15.407 22.5262 15.5662C22.5609 15.7864 22.5742 16.0198 22.5742 16.5212C22.5742 17.0331 22.5636 17.2533 22.5236 17.4894C22.4969 17.6565 22.4356 17.9509 22.3876 18.1393C22.3396 18.3276 22.2542 18.6088 22.1982 18.7626C22.1422 18.9165 22.0089 19.2136 21.9049 19.4258C21.7982 19.638 21.6196 19.9484 21.5076 20.1155C21.3956 20.2826 21.2036 20.5399 21.0809 20.6858C20.9609 20.8317 20.7476 21.0598 20.6116 21.1924C20.4729 21.3224 20.2702 21.5028 20.1609 21.5903C20.0516 21.6779 19.8649 21.8185 19.7476 21.898C19.6302 21.9803 19.4009 22.1209 19.2409 22.2137C19.0782 22.3039 18.8329 22.4312 18.6942 22.4922C18.5556 22.5532 18.3156 22.6461 18.1609 22.6991C18.0062 22.7548 17.7662 22.8265 17.6276 22.8609C17.4889 22.8954 17.2302 22.9511 17.0542 22.983C16.8196 23.0228 16.5796 23.044 16.1609 23.0519C15.7209 23.0625 15.5049 23.0546 15.2276 23.0228C15.0302 22.9989 14.7342 22.9485 14.5742 22.9113C14.4116 22.8769 14.2089 22.8238 13.9609 22.7469L13.9102 22.5798C13.8702 22.4471 13.8596 22.3225 13.8569 21.9988C13.8542 21.6434 13.8622 21.5585 13.9156 21.3755C13.9502 21.2588 14.0196 21.0731 14.0702 20.9643C14.1209 20.8556 14.2409 20.6513 14.3342 20.5134C14.4276 20.3754 14.5822 20.1659 14.6809 20.0492C14.7769 19.9324 15.0942 19.5849 15.3849 19.2799C15.6756 18.9748 15.9876 18.6406 16.0782 18.5372C16.1716 18.4337 16.3316 18.2374 16.4382 18.0995C16.5449 17.9615 16.6969 17.7334 16.7796 17.5955C16.8622 17.4575 16.9716 17.2427 17.0222 17.118C17.0756 16.9933 17.1476 16.7864 17.1876 16.6538C17.2249 16.5212 17.2809 16.2798 17.3102 16.1153C17.3449 15.9137 17.3609 15.6962 17.3609 15.4336C17.3609 15.2187 17.3422 14.9163 17.3182 14.7492C17.2942 14.5874 17.2329 14.3036 17.1822 14.1205C17.1342 13.9375 17.0382 13.651 16.9716 13.4839C16.9049 13.3168 16.7556 12.9932 16.6436 12.7677C16.5289 12.5422 16.3262 12.1708 16.1876 11.9454C16.0516 11.7199 15.7742 11.2902 15.5716 10.9904C15.3716 10.6907 15.0596 10.2371 14.8809 9.98241C14.7022 9.72776 14.4916 9.39353 14.4142 9.23968C14.3369 9.08582 14.2382 8.85239 14.1929 8.72241C14.1476 8.59243 14.0862 8.36961 14.0569 8.23168C14.0276 8.09374 13.9902 7.87092 13.9742 7.74094C13.9609 7.61096 13.9476 7.34835 13.9476 7.15736C13.9476 6.96637 13.9662 6.66397 13.9876 6.48094C14.0089 6.29791 14.0569 6.00081 14.0969 5.81778C14.1342 5.63475 14.2062 5.34827 14.2569 5.18115C14.3049 5.01403 14.3982 4.73816 14.4622 4.57105C14.5262 4.40393 14.6196 4.1758 14.6676 4.06705C14.7156 3.95829 14.8142 3.74873 14.8862 3.60283C14.9609 3.45694 15.1289 3.15454 15.2622 2.92907C15.3982 2.70625 15.6089 2.38793 15.7316 2.22612C15.8542 2.06431 16.0196 1.8574 16.0996 1.76456C16.1822 1.67437 16.2649 1.6001 16.2836 1.6001Z" fill="#F4129A"/>
</svg>
