<svg width="32" height="32" viewBox="0 0 32 32" fill="none" xmlns="http://www.w3.org/2000/svg">
<circle cx="16" cy="16.0007" r="16" fill="#CAEAE5"/>
<path d="M25.9986 13.5903C25.9986 14.275 25.9809 14.9597 25.9986 15.6445C26.0163 16.0395 25.8657 16.1624 25.4847 16.1361C25.1037 16.1097 24.7227 16.1361 24.3329 16.1361C23.8278 16.1361 23.4291 16.3291 23.1012 16.7066C22.0025 17.9443 20.9038 19.1733 19.7963 20.4022C19.495 20.7358 19.0963 20.9114 18.6267 20.929C17.1736 20.964 17.0141 20.8587 17.0584 19.4103C17.0849 18.4799 17.0584 17.5405 17.0673 16.6101C17.0673 16.2414 16.9343 16.1097 16.5711 16.1361C16.0837 16.1624 15.7027 16.3467 15.3837 16.7066C14.3205 17.9093 13.2395 19.1119 12.1674 20.3057C11.6535 20.8763 10.5548 21.166 9.85482 20.9026C9.50925 20.7709 9.34091 20.5076 9.34977 20.1214C9.36749 18.9802 9.34977 17.8478 9.34977 16.7066C9.34977 16.1711 9.33205 16.1448 8.76497 16.1448C7.99411 16.1448 7.23211 16.1273 6.47011 16.1448C6.09797 16.1536 5.99164 16.0219 6.0005 15.662C6.02708 14.7842 6.0005 13.9151 6.00936 13.0373C6.01822 11.9225 6.90427 11.0446 8.02069 11.0359C8.50802 11.0359 8.99535 11.0622 9.48268 11.0271C9.85482 11.0008 9.91684 11.15 9.91684 11.4748C9.89912 12.6423 9.91684 13.8098 9.91684 14.9773C9.91684 15.1968 9.91684 15.4162 10.1295 15.5655C10.4042 15.7673 10.6168 15.6708 10.8206 15.4425C11.7155 14.4419 12.6636 13.4762 13.4965 12.4228C14.5331 11.1324 15.8977 10.913 17.4128 11.0271C17.6963 11.0534 17.6166 11.2729 17.6255 11.4221C17.6255 12.5457 17.6255 13.6693 17.6255 14.793C17.6255 14.9247 17.6255 15.0563 17.6343 15.188C17.6609 15.4075 17.7583 15.583 17.9799 15.6533C18.1925 15.7147 18.3697 15.6445 18.5292 15.4689C19.4596 14.4155 20.4165 13.3884 21.338 12.3263C22.1089 11.4397 23.0392 10.9744 24.2265 11.0271C24.6784 11.0446 25.1391 11.0446 25.5999 11.0271C25.8923 11.0183 25.9897 11.1237 25.9897 11.4046C25.9809 12.1332 25.9897 12.8617 25.9897 13.5903H25.9986Z" fill="#010101"/>
</svg>
