<svg width="24" height="24" viewBox="0 0 24 24" fill="none" xmlns="http://www.w3.org/2000/svg">
<path d="M11.6001 0.800293C17.5648 0.800293 22.3999 5.63542 22.3999 11.6001C22.3999 17.5648 17.5648 22.3999 11.6001 22.3999C5.63542 22.3999 0.800293 17.5648 0.800293 11.6001C0.800293 5.63542 5.63542 0.800293 11.6001 0.800293Z" fill="#1D1D1D" stroke="white" stroke-width="1.6"/>
<path d="M17.8501 11.5741C17.8501 15.7066 15.3211 17.0327 13.9886 15.8519C12.8918 14.8892 12.5655 12.8547 10.9157 12.6458C8.82182 12.3824 8.64052 15.1708 7.26272 15.1708C5.65829 15.1708 5.3501 12.8366 5.3501 11.6377C5.3501 10.4115 5.69455 8.74033 7.06329 8.74033C8.65866 8.74033 8.7493 11.129 10.7435 11.0019C12.7286 10.8656 12.7649 8.37702 14.0521 7.31436C15.1761 6.39702 17.8501 7.38702 17.8501 11.5741Z" fill="#97FCE4"/>
</svg>
