<svg width="20" height="20" viewBox="0 0 20 20" fill="none" xmlns="http://www.w3.org/2000/svg">
<path d="M0 10C0 15.4676 4.53238 20 10 20C15.4676 20 20 15.4676 20 10C20 4.53238 15.4676 0 10 0C4.53238 0 0 4.53238 0 10Z" fill="#61DFFF"/>
<mask id="mask0_13477_11152" style="mask-type:luminance" maskUnits="userSpaceOnUse" x="5" y="4" width="10" height="12">
<path d="M14.9541 4.7998H5V15.1975H14.9541V4.7998Z" fill="white"/>
</mask>
<g mask="url(#mask0_13477_11152)">
<path d="M13.2669 15.1978H5V6.4873H6.89147V13.5097H13.2669V15.1969V15.1978Z" fill="#121212"/>
<path d="M13.2673 8.17421C14.1991 8.17421 14.9545 7.41883 14.9545 6.48701C14.9545 5.55519 14.1991 4.7998 13.2673 4.7998C12.3354 4.7998 11.5801 5.55519 11.5801 6.48701C11.5801 7.41883 12.3354 8.17421 13.2673 8.17421Z" fill="#121212"/>
</g>
</svg>
