<svg width="32" height="32" viewBox="0 0 32 32" fill="none" xmlns="http://www.w3.org/2000/svg">
<g clip-path="url(#clip0_13262_28585)">
<path d="M32 0H0V32H32V0Z" fill="#2973FF"/>
<path opacity="0.8" d="M9.38574 18.8719V23.5289C9.38574 23.8156 9.62837 23.9346 9.70385 23.9617C9.77934 23.9942 10.0328 24.0644 10.2592 23.8535L13.7823 20.4678C14.0823 20.1796 14.3719 19.8764 14.5895 19.5218C14.6919 19.3551 14.7344 19.2613 14.7344 19.2613C14.95 18.8231 14.95 18.4012 14.7397 17.9794C14.4271 17.3519 13.6291 16.7137 12.4266 16.1079L10.3724 17.2546C9.76318 17.6007 9.38574 18.2119 9.38574 18.8719Z" fill="white"/>
<path d="M7.35938 8.51386V13.3982C7.35938 14.0094 7.76915 14.5503 8.35147 14.7233C10.3356 15.2967 13.7917 16.5299 14.6275 18.3419C14.7352 18.58 14.7999 18.8124 14.8216 19.056C15.377 18.0444 15.6304 16.8816 15.5117 15.7024C15.3499 14.031 14.4656 12.5111 13.0854 11.5429L8.16275 8.09736C8.07648 8.03245 7.97403 8 7.8716 8C7.78531 8 7.70984 8.01622 7.62896 8.0595C7.4672 8.15146 7.35938 8.31914 7.35938 8.51386Z" fill="white"/>
<path opacity="0.8" d="M22.4896 18.8719V23.5289C22.4896 23.8156 22.247 23.9346 22.1714 23.9617C22.096 23.9942 21.8424 24.0644 21.6162 23.8535L18.011 20.389C17.7656 20.1532 17.5312 19.9037 17.3464 19.6178C17.2 19.3916 17.141 19.2613 17.141 19.2613C16.9253 18.8231 16.9253 18.4012 17.1355 17.9794C17.4483 17.3519 18.2462 16.7137 19.4485 16.1079L21.5029 17.2546C22.1176 17.6007 22.4896 18.2119 22.4896 18.8719Z" fill="white"/>
<path d="M24.518 8.51386V13.3981C24.518 14.0094 24.1081 14.5503 23.5257 14.7233C21.5417 15.2967 18.0855 16.5299 17.2499 18.3419C17.1419 18.58 17.0772 18.8125 17.0556 19.056C16.5004 18.0445 16.247 16.8816 16.3655 15.7024C16.5271 14.031 17.4115 12.5111 18.7919 11.5429L23.7147 8.09736C23.8009 8.03245 23.9033 8 24.0057 8C24.0919 8 24.1675 8.01622 24.2483 8.0595C24.41 8.15146 24.518 8.31914 24.518 8.51386Z" fill="white"/>
</g>
<defs>
<clipPath id="clip0_13262_28585">
<rect width="32" height="32" rx="16" fill="white"/>
</clipPath>
</defs>
</svg>
