<svg width="22" height="22" viewBox="0 0 22 22" fill="none" xmlns="http://www.w3.org/2000/svg">
<path d="M11 0.5C16.799 0.5 21.5 5.20101 21.5 11C21.5 16.799 16.799 21.5 11 21.5C5.20101 21.5 0.5 16.799 0.5 11C0.5 5.20101 5.20101 0.5 11 0.5Z" fill="#6E54FF" stroke="white"/>
<path d="M11.0056 4.75C9.19917 4.75 4.75 9.195 4.75 11C4.75 12.8049 9.19917 17.25 11.0056 17.25C12.8121 17.25 17.2614 12.8048 17.2614 11C17.2614 9.19508 12.8122 4.75 11.0056 4.75ZM10.0308 14.5739C9.26904 14.3665 7.22092 10.7871 7.42854 10.026C7.63617 9.26487 11.2188 7.21867 11.9805 7.42608C12.7424 7.6335 14.7905 11.2128 14.5829 11.974C14.3752 12.7351 10.7926 14.7813 10.0308 14.5739Z" fill="white"/>
</svg>
