<svg width="32" height="32" viewBox="0 0 32 32" fill="none" xmlns="http://www.w3.org/2000/svg">
<g clip-path="url(#clip0_3225_30883)">
<path d="M32 16C32 24.8366 24.8366 32 16 32C7.16344 32 0 24.8366 0 16C0 7.16344 7.16344 0 16 0C24.8366 0 32 7.16344 32 16Z" fill="#BE95FF"/>
<path fill-rule="evenodd" clip-rule="evenodd" d="M20.5861 13.3743C19.6251 13.3743 18.972 13.9071 18.7853 14.7926H22.387C22.2315 13.8678 21.5718 13.3743 20.5861 13.3743ZM20.5204 11.0769C23.3813 11.0769 25.1956 13.1305 25.1956 15.6937L25.1952 16.6492L18.785 16.641C18.8431 17.3649 19.6584 18.0862 21.1053 18.0862C22.2287 18.0862 23.0505 17.7781 23.4467 17.4651L24.567 19.6422C23.9028 20.0355 22.495 20.5628 20.8417 20.5628C17.4374 20.5628 15.6965 18.3885 15.6965 15.6937C15.6965 13.1449 17.5874 11.0769 20.5204 11.0769ZM11.7536 13.6888C11.4341 13.6453 10.717 13.5866 10.717 15.5414L10.6888 20.5628H7.38477V11.2618L10.4174 11.2512V12.4309C11.1395 11.0301 13.2733 10.7998 14.5091 11.3587V15.3207C14.3752 15.3518 14.1297 15.3971 14.0061 15.4144C12.3735 15.6437 11.7316 14.6847 11.7536 13.6888Z" fill="black"/>
</g>
<defs>
<clipPath id="clip0_3225_30883">
<rect width="32" height="32" fill="white"/>
</clipPath>
</defs>
</svg>
