<svg width="32" height="32" viewBox="0 0 32 32" fill="none" xmlns="http://www.w3.org/2000/svg">
<path d="M0 16C0 7.16344 7.16344 0 16 0C24.8366 0 32 7.16344 32 16C32 24.8366 24.8366 32 16 32C7.16344 32 0 24.8366 0 16Z" fill="#086552"/>
<path d="M26.3905 7.56864L22.4515 11.5079C22.008 11.9514 21.4666 12.2737 20.8774 12.4542C20.5203 12.5638 20.1458 12.6205 19.7655 12.6205H12.4295C12.0493 12.6205 11.6748 12.5638 11.3177 12.4542C10.7285 12.2737 10.187 11.9514 9.74361 11.5079C8.42998 10.1942 7.11759 8.88173 5.80459 7.56801C5.68213 7.44557 5.55898 7.32245 5.43652 7.19995C5.46427 7.46876 5.50418 7.75756 5.56158 8.06243C5.66985 8.6458 5.83941 9.28913 6.10238 9.96468C6.20806 10.2374 6.32281 10.4984 6.44397 10.7479C6.75148 11.3809 7.1021 11.9417 7.46697 12.4355C8.15405 13.3656 9.08612 14.0618 10.1387 14.4679C10.831 14.7348 11.5748 14.8766 12.3354 14.8766H19.8596C20.6202 14.8766 21.3641 14.7348 22.0564 14.4679C23.109 14.0618 24.041 13.3656 24.7282 12.4355C25.0923 11.9423 25.4436 11.3809 25.7504 10.7485C25.8723 10.4991 25.987 10.2374 26.0927 9.96468C26.3557 9.28913 26.5252 8.6458 26.6335 8.06243C26.6909 7.75756 26.7309 7.46876 26.7586 7.19995C26.6355 7.32308 26.513 7.44557 26.3905 7.56864ZM6.25449 15.566L8.84636 18.1586H12.9491L10.898 20.2097L12.4934 21.8051L16.1398 18.1586H23.2669L25.8601 15.566C24.9789 14.6854 23.5505 14.6848 22.6694 15.566L22.3336 15.9025H9.78102L9.44456 15.566C9.0043 15.1257 8.42675 14.9052 7.84984 14.9052C7.2723 14.9052 6.69475 15.1257 6.25449 15.566ZM16.7082 19.1841L13.2553 22.5671L14.743 24.0548C15.4687 24.7806 16.6454 24.7806 17.3711 24.0548L22.2415 19.1841H16.7082Z" fill="#FFFDF1"/>
</svg>
