<svg width="32" height="32" viewBox="0 0 32 32" fill="none" xmlns="http://www.w3.org/2000/svg">
<g clip-path="url(#clip0_3504_36177)">
<path d="M15.9997 0.605164H16.0004C24.5027 0.605164 31.3951 7.49765 31.3951 16V16.0006C31.3951 24.5028 24.5027 31.3954 16.0004 31.3954H15.9997C7.49746 31.3954 0.60498 24.5028 0.60498 16.0006V16C0.60498 7.49765 7.49746 0.605164 15.9997 0.605164Z" fill="white" stroke="#111111" stroke-width="0.567125"/>
<path d="M16.0003 0.321594H15.9996C7.34073 0.321594 0.321289 7.34104 0.321289 16V16.0005C0.321289 24.6594 7.34073 31.6789 15.9996 31.6789H16.0003C24.6592 31.6789 31.6786 24.6594 31.6786 16.0005V16C31.6786 7.34104 24.6592 0.321594 16.0003 0.321594Z" fill="url(#paint0_radial_3504_36177)" fill-opacity="0.7"/>
<path d="M16.0003 0.321594H15.9996C7.34073 0.321594 0.321289 7.34104 0.321289 16V16.0005C0.321289 24.6594 7.34073 31.6789 15.9996 31.6789H16.0003C24.6592 31.6789 31.6786 24.6594 31.6786 16.0005V16C31.6786 7.34104 24.6592 0.321594 16.0003 0.321594Z" stroke="url(#paint1_linear_3504_36177)" stroke-width="0.574304"/>
<path fill-rule="evenodd" clip-rule="evenodd" d="M13.4914 3.10022C7.43652 4.26651 2.86279 9.59354 2.86279 15.9889C2.86279 22.3842 7.43652 27.7113 13.4914 28.8776V27.6474C8.10681 26.4996 4.06824 21.7159 4.06824 15.9889C4.06824 10.2619 8.10681 5.47822 13.4914 4.3304V3.10022ZM18.5086 4.33523V3.10458C24.5523 4.27972 29.1147 9.6015 29.1147 15.9889C29.1147 22.3763 24.5523 27.6981 18.5086 28.8732V27.6426C23.8819 26.4862 27.9093 21.7079 27.9093 15.9889C27.9093 10.2699 23.8819 5.49157 18.5086 4.33523Z" fill="black"/>
<path d="M17.8586 15.5503C18.8601 15.7412 19.637 16.1093 20.1891 16.6546C20.7412 17.1863 21.0172 17.868 21.0172 18.6997V20.0085C21.0172 21.0037 20.6578 21.8082 19.9387 22.4216C19.2197 23.0215 18.2759 23.3215 17.1075 23.3215H16.703V25.4074H15.3163V23.3215H14.8926C14.1223 23.3215 13.4418 23.151 12.8511 22.8102C12.2605 22.4557 11.7983 21.9649 11.4644 21.3377C11.1434 20.697 10.9829 19.9608 10.9829 19.1291H12.3696C12.3696 19.9744 12.6008 20.6629 13.063 21.1946C13.538 21.7127 14.1608 21.9717 14.9311 21.9717H17.069C17.8266 21.9717 18.4364 21.7945 18.8986 21.44C19.3609 21.0719 19.592 20.5947 19.592 20.0085V18.6997C19.592 18.2361 19.4187 17.8407 19.072 17.5136C18.7382 17.1863 18.2759 16.975 17.6853 16.8796L14.2185 16.266C13.2427 16.0888 12.4851 15.7207 11.9459 15.1617C11.4066 14.6028 11.137 13.9006 11.137 13.0554V11.951C11.137 10.9557 11.4837 10.1651 12.177 9.57877C12.8832 8.97889 13.8141 8.67899 14.9696 8.67899H15.3163V6.59302H16.703V8.67899H17.146C18.2374 8.67899 19.1169 9.0334 19.7846 9.74239C20.4523 10.4377 20.7862 11.358 20.7862 12.5032H19.3994C19.3994 11.7533 19.194 11.1534 18.7831 10.7035C18.3723 10.2537 17.8266 10.0287 17.146 10.0287H14.9696C14.2378 10.0287 13.6536 10.2059 13.217 10.5604C12.7805 10.9012 12.5622 11.3648 12.5622 11.951V13.0554C12.5622 13.5325 12.7227 13.9347 13.0437 14.2619C13.3775 14.5891 13.8333 14.8072 14.4112 14.9163L17.8586 15.5503Z" fill="black"/>
</g>
<defs>
<radialGradient id="paint0_radial_3504_36177" cx="0" cy="0" r="1" gradientUnits="userSpaceOnUse" gradientTransform="translate(16.0336 4.90016) rotate(90) scale(33.0574 23.2691)">
<stop offset="0.03125" stop-color="#FAFAFA"/>
<stop offset="1" stop-color="#E3E3E3"/>
</radialGradient>
<linearGradient id="paint1_linear_3504_36177" x1="15.9999" y1="0.0257679" x2="15.9999" y2="31.9747" gradientUnits="userSpaceOnUse">
<stop stop-color="#F4F4F4"/>
<stop offset="1" stop-color="#BEBEBE"/>
</linearGradient>
<clipPath id="clip0_3504_36177">
<rect width="32" height="32" fill="white"/>
</clipPath>
</defs>
</svg>
