<svg width="32" height="32" viewBox="0 0 32 32" fill="none" xmlns="http://www.w3.org/2000/svg">
<g clip-path="url(#clip0_3225_30796)">
<path d="M16 32C24.8366 32 32 24.8366 32 16C32 7.16344 24.8366 0 16 0C7.16344 0 0 7.16344 0 16C0 24.8366 7.16344 32 16 32Z" fill="#FF7039"/>
<path d="M8.00223 14.2153C11.4937 14.1143 19.8214 13.7348 21.68 11.0488C23.0929 9.00777 19.9745 6.88235 18.4923 6.11431C17.0102 5.34406 14.9483 5 14.9483 5C19.0977 5.46503 25.6574 7.72253 23.6156 11.8268C21.7872 15.5005 12.2543 16 8 16V14.2142H8.00223V14.2153Z" fill="white"/>
<path d="M8 23.9799V22.4067C13.281 22.2497 20.338 22.1135 23.9983 19C24.0976 21.7429 19.8756 22.9801 16.6441 23.4959C13.8473 23.9421 10.8695 24.0514 8.00112 23.9799H8Z" fill="white"/>
<path d="M24 15C21.1117 17.6646 15.316 18.4042 8 18.4042V20C15.6934 20 23.9778 18.9919 24 15Z" fill="white"/>
</g>
<defs>
<clipPath id="clip0_3225_30796">
<rect width="32" height="32" fill="white"/>
</clipPath>
</defs>
</svg>
