<svg width="32" height="32" viewBox="0 0 32 32" fill="none" xmlns="http://www.w3.org/2000/svg">
<rect width="32" height="32.0015" rx="16" fill="url(#paint0_linear_13262_28563)"/>
<path fill-rule="evenodd" clip-rule="evenodd" d="M7.94514 8.06608C9.86803 10.3858 11.3446 11.6892 12.0528 12.3145C12.2942 12.5276 12.4463 12.6619 12.4965 12.7308C12.6594 12.9546 12.5981 13.1559 12.319 13.3136C12.1638 13.4013 11.8446 13.4902 11.6849 13.4902C11.5041 13.4902 11.4421 13.4209 11.4421 13.4209C11.4294 13.4089 11.4173 13.3986 11.405 13.3881C11.3159 13.3121 11.213 13.2242 10.7402 12.39C9.9931 11.2378 9.36789 10.282 9.35084 10.266C9.3114 10.229 9.31207 10.2302 10.664 12.6345C10.8377 13.033 10.7626 13.231 10.7246 13.3312C10.7148 13.357 10.7074 13.3763 10.7074 13.3909C10.7074 13.5361 10.6676 13.6125 10.4874 13.8122C10.187 14.1453 10.0527 14.5196 9.95578 15.2942C9.84712 16.1625 9.54154 16.7758 8.69471 17.8255C8.199 18.44 8.11789 18.5527 7.99281 18.8003C7.83526 19.1122 7.79194 19.2869 7.77438 19.6807C7.75582 20.0971 7.79196 20.3662 7.91996 20.7643C8.03201 21.1128 8.14897 21.343 8.44798 21.8033C8.70603 22.2005 8.8546 22.4958 8.8546 22.6113C8.8546 22.7031 8.87226 22.7032 9.27212 22.6135C10.229 22.3987 11.006 22.021 11.443 21.558C11.7135 21.2714 11.777 21.1132 11.7791 20.7207C11.7804 20.4638 11.7713 20.41 11.7015 20.2622C11.5878 20.0218 11.3808 19.8218 10.9246 19.5119C10.3268 19.1057 10.0715 18.7787 10.001 18.329C9.94313 17.96 10.0102 17.6997 10.3409 17.0108C10.6832 16.2978 10.768 15.9939 10.8254 15.2752C10.8625 14.8108 10.9138 14.6277 11.048 14.4807C11.188 14.3274 11.314 14.2755 11.6605 14.2285C12.2253 14.1518 12.585 14.0065 12.8806 13.7358C13.137 13.5009 13.2444 13.2745 13.2608 12.9338L13.2733 12.6756L13.13 12.5095C12.611 11.908 7.59757 7.59326 7.56563 7.59326C7.5588 7.59326 7.72959 7.80604 7.94514 8.06608ZM9.14595 20.1519C9.26329 19.9453 9.20094 19.6798 9.00466 19.55C8.81921 19.4275 8.5311 19.4853 8.5311 19.645C8.5311 19.6937 8.55821 19.7292 8.61933 19.7605C8.72223 19.813 8.72971 19.8723 8.64874 19.9932C8.56674 20.1157 8.57336 20.2235 8.66741 20.2966C8.819 20.4146 9.03357 20.3497 9.14595 20.1519Z" fill="#FF007A"/>
<path d="M12.6781 8.88792C12.4465 8.85222 12.4368 8.84803 12.5457 8.83139C12.7545 8.79947 13.2476 8.84297 13.5874 8.92327C14.3806 9.11068 15.1024 9.59076 15.8728 10.4434L16.0775 10.6699L16.3703 10.6231C17.6039 10.4261 18.8588 10.5827 19.9084 11.0646C20.1972 11.1972 20.6525 11.4612 20.7094 11.529C20.7275 11.5506 20.7607 11.6897 20.7832 11.8382C20.8612 12.3519 20.8222 12.7456 20.6642 13.0397C20.5781 13.1997 20.5733 13.2504 20.6312 13.3874C20.6774 13.4967 20.806 13.5776 20.9335 13.5774C21.1943 13.577 21.475 13.1579 21.6051 12.5748L21.6568 12.3432L21.7592 12.4584C22.3206 13.0907 22.7617 13.953 22.8374 14.5668L22.8571 14.7268L22.7628 14.5813C22.6004 14.331 22.4371 14.1606 22.2282 14.0231C21.8514 13.7754 21.4531 13.691 20.3982 13.6358C19.4454 13.5859 18.9062 13.505 18.3716 13.3317C17.4618 13.0369 17.0033 12.6443 15.9226 11.2351C15.4427 10.6092 15.146 10.2629 14.8509 9.98398C14.1804 9.35028 13.5215 9.01795 12.6781 8.88792Z" fill="#FF007A"/>
<path d="M20.9241 10.2854C20.9481 9.86599 21.0053 9.58935 21.1204 9.3367C21.1659 9.2367 21.2085 9.15486 21.2152 9.15486C21.2217 9.15486 21.2019 9.22866 21.1711 9.31887C21.0875 9.56405 21.0737 9.89942 21.1313 10.2896C21.2045 10.7847 21.2461 10.8561 21.7726 11.3909C22.0195 11.6417 22.3067 11.9581 22.4108 12.0939L22.6001 12.3409L22.4108 12.1644C22.1793 11.9486 21.6469 11.5276 21.5293 11.4674C21.4504 11.4271 21.4387 11.4278 21.39 11.4759C21.3452 11.5203 21.3357 11.5869 21.3296 11.9019C21.3199 12.3928 21.2525 12.7079 21.0901 13.023C21.0022 13.1934 20.9883 13.1571 21.0678 12.9647C21.1272 12.8211 21.1332 12.758 21.1328 12.2827C21.1318 11.3278 21.0178 11.0982 20.349 10.7049C20.1796 10.6053 19.9003 10.4616 19.7285 10.3857C19.5568 10.3097 19.4203 10.2435 19.4253 10.2385C19.4442 10.2198 20.0965 10.409 20.3591 10.5094C20.7497 10.6587 20.814 10.6781 20.8615 10.6601C20.8933 10.648 20.9087 10.5559 20.9241 10.2854Z" fill="#FF007A"/>
<path d="M12.4301 9.55228C12.3671 10.2895 12.658 11.2757 13.128 11.919C13.4924 12.4176 14.0573 12.8051 14.4743 12.8425C14.7473 12.867 14.8294 12.782 14.7058 12.6027C14.5343 12.3538 14.3234 11.9705 14.2676 11.8064C14.2329 11.7044 14.1576 11.4033 14.1001 11.1371C13.9041 10.2286 13.7113 9.8748 13.2661 9.60607C13.1039 9.50813 12.7575 9.37996 12.5565 9.34354L12.4495 9.32414L12.4301 9.55228Z" fill="#FF007A"/>
<path d="M20.3541 16.7061C18.1575 15.827 17.3838 15.0639 17.3838 13.7764C17.3838 13.5869 17.3904 13.4319 17.3983 13.4319C17.4063 13.4319 17.4913 13.4944 17.5872 13.5709C18.0327 13.926 18.5315 14.0777 19.9124 14.2779C20.725 14.3957 21.1823 14.4909 21.6041 14.63C22.9449 15.0719 23.7744 15.9689 23.9723 17.1905C24.0298 17.5455 23.996 18.2112 23.9028 18.562C23.8293 18.8391 23.6047 19.3386 23.5451 19.3579C23.5286 19.3631 23.5125 19.3002 23.5082 19.2146C23.4857 18.7559 23.2525 18.3093 22.8608 17.9748C22.4154 17.5944 21.8172 17.2916 20.3541 16.7061Z" fill="#FF007A"/>
<path d="M18.7057 16.6094C18.7365 16.7007 18.7842 16.9086 18.8117 17.0714C18.9876 18.1122 18.438 18.9531 17.3688 19.279C17.2556 19.3135 16.8097 19.4001 16.3779 19.4717C15.5039 19.6164 15.1138 19.7187 14.7219 19.9064C14.444 20.0395 14.1075 20.2388 14.1275 20.2586C14.1339 20.265 14.1974 20.2499 14.2684 20.2251C14.7626 20.0526 15.3126 19.9634 16.1483 19.9201C16.4799 19.903 16.8571 19.8757 16.9865 19.8596C17.7309 19.7663 18.2469 19.5416 18.6481 19.1357C18.8714 18.9098 19.0045 18.6994 19.1117 18.4026C19.1797 18.2144 19.1889 18.1445 19.1895 17.8109C19.1901 17.4712 19.1818 17.409 19.1081 17.1999C19.0116 16.926 18.8978 16.7203 18.7537 16.5596L18.6496 16.4434L18.7057 16.6094Z" fill="#FF007A"/>
<path d="M19.8187 18.8489C19.5269 18.2253 19.4599 17.6232 19.6198 17.0617C19.6369 17.0017 19.6644 16.9526 19.6809 16.9526C19.6975 16.9526 19.7663 16.9896 19.8339 17.0348C19.9685 17.1248 20.2382 17.2764 20.9568 17.6658C21.8536 18.1518 22.3649 18.5281 22.7126 18.958C23.0171 19.3345 23.2055 19.7633 23.2963 20.2863C23.3476 20.5824 23.3174 21.2951 23.241 21.5934C22.9999 22.5339 22.4395 23.2725 21.6403 23.7036C21.5232 23.7668 21.4181 23.8186 21.4067 23.8189C21.3953 23.8191 21.438 23.7113 21.5015 23.5793C21.7703 23.0206 21.801 22.4772 21.5977 21.8724C21.4732 21.502 21.2195 21.0501 20.7071 20.2863C20.1113 19.3984 19.9653 19.1621 19.8187 18.8489Z" fill="#FF007A"/>
<path d="M14.321 20.8944C13.397 21.0437 12.3827 21.5297 11.5676 22.2138L11.3249 22.4175L11.5382 22.4506C12.6512 22.6232 12.9509 22.7764 13.7229 23.5669C14.1672 24.0218 14.3173 24.123 14.6858 24.2166C15.2271 24.3539 15.7606 24.1016 15.9436 23.6216C16.0254 23.4072 16.0145 23.0521 15.9207 22.8738C15.6975 22.4492 15.0474 22.3121 14.7331 22.623C14.4712 22.882 14.5475 23.2722 14.8732 23.3394C14.9477 23.3547 14.9456 23.3515 14.8542 23.3104C14.7116 23.2463 14.6497 23.1576 14.6489 23.0163C14.6471 22.6849 15.0286 22.4987 15.3836 22.6579C15.6434 22.7745 15.7466 22.9269 15.7466 23.1938C15.7466 23.605 15.3946 23.9148 14.9849 23.864C14.7659 23.8369 14.4981 23.6978 14.3545 23.5364C13.9932 23.1303 14.1339 22.4895 14.6384 22.2436C15.0225 22.0564 15.533 22.1026 15.9289 22.3602C16.3838 22.6563 16.5772 22.9269 16.969 23.815C17.0966 24.1043 17.2607 24.4297 17.3337 24.5384C17.7048 25.0907 18.1494 25.3615 18.6851 25.3615C18.9804 25.3615 19.2027 25.3078 19.4823 25.169C19.69 25.0658 19.9845 24.8699 19.9632 24.849C19.9572 24.8429 19.871 24.8695 19.7718 24.9081C19.187 25.1348 18.5925 25.1193 18.2472 24.8681C18.0299 24.7098 17.8545 24.395 17.7643 24.001C17.7487 23.9327 17.6972 23.6317 17.6499 23.3317C17.5299 22.5715 17.4146 22.2298 17.1459 21.8377C16.8709 21.4366 16.3422 21.0998 15.7512 20.9495C15.3825 20.8556 14.7191 20.8301 14.321 20.8944Z" fill="#FF007A"/>
<path fill-rule="evenodd" clip-rule="evenodd" d="M13.0273 15.0171C13.1071 14.7242 13.3649 14.4449 13.63 14.364C13.7986 14.3125 14.1472 14.3454 14.311 14.4282C14.6286 14.5886 14.8592 14.9542 14.8091 15.218C14.7481 15.5398 14.2231 15.7972 13.6193 15.8014C13.3109 15.8036 13.197 15.7624 13.0792 15.606C13.0063 15.5092 12.9787 15.1958 13.0273 15.0171ZM14.2299 14.5428C14.3883 14.639 14.4291 14.7811 14.3359 14.9126C14.2718 15.0032 14.0732 15.0892 13.9281 15.0892C13.7101 15.0892 13.4722 14.9354 13.4722 14.7944C13.4722 14.5113 13.9283 14.3598 14.2299 14.5428Z" fill="#FF007A"/>
<defs>
<linearGradient id="paint0_linear_13262_28563" x1="32" y1="0" x2="-0.00145718" y2="32" gradientUnits="userSpaceOnUse">
<stop stop-color="#FED4E8"/>
<stop offset="1" stop-color="#FCFDFF"/>
</linearGradient>
</defs>
</svg>
