<svg width="32" height="32" viewBox="0 0 32 32" fill="none" xmlns="http://www.w3.org/2000/svg">
<path d="M16 32C24.8667 32 32 24.8667 32 16C32 7.13328 24.8667 0 16 0C7.13328 0 0 7.13328 0 16C0 24.8667 7.13328 32 16 32Z" fill="#2775CA"/>
<path d="M20.4 18.5333C20.4 16.2 19 15.4 16.2 15.0667C14.2001 14.8 13.8001 14.2667 13.8001 13.3333C13.8001 12.3999 14.4668 11.8 15.8 11.8C17 11.8 17.6667 12.2 18 13.2C18.0667 13.4 18.2667 13.5333 18.4667 13.5333H19.5333C19.8 13.5333 20 13.3333 20 13.0667V13C19.7333 11.5333 18.5333 10.4 17 10.2667V8.66674C17 8.40002 16.8 8.20002 16.4668 8.1333H15.4668C15.2 8.1333 15 8.3333 14.9333 8.66674V10.2C12.9333 10.4667 11.6668 11.8 11.6668 13.4667C11.6668 15.6667 13.0001 16.5333 15.8 16.8667C17.6667 17.2 18.2667 17.6 18.2667 18.6667C18.2667 19.7334 17.3333 20.4667 16.0668 20.4667C14.3333 20.4667 13.7333 19.7333 13.5333 18.7333C13.4668 18.4667 13.2668 18.3333 13.0668 18.3333H11.9334C11.6668 18.3333 11.4668 18.5333 11.4668 18.8V18.8667C11.7334 20.5333 12.8001 21.7333 15 22.0667V23.6667C15 23.9333 15.2 24.1333 15.5333 24.2H16.5333C16.8 24.2 17 24 17.0667 23.6667V22.0667C19.0667 21.7333 20.4 20.3333 20.4 18.5333Z" fill="white"/>
<path d="M12.5998 25.5334C7.39984 23.6668 4.73312 17.8668 6.66656 12.7334C7.66656 9.93337 9.86656 7.80009 12.5998 6.80009C12.8666 6.66681 12.9998 6.46681 12.9998 6.13337V5.20009C12.9998 4.93337 12.8666 4.73337 12.5998 4.66681C12.5331 4.66681 12.3998 4.66681 12.3331 4.73337C5.99984 6.73337 2.53311 13.4668 4.53311 19.8001C5.73311 23.5334 8.59984 26.4001 12.3331 27.6001C12.5998 27.7334 12.8666 27.6001 12.9331 27.3334C12.9998 27.2668 12.9998 27.2001 12.9998 27.0668V26.1334C12.9998 25.9334 12.7998 25.6668 12.5998 25.5334ZM19.6666 4.73337C19.3998 4.60009 19.1331 4.73337 19.0666 5.00009C18.9998 5.06681 18.9998 5.13337 18.9998 5.26681V6.20009C18.9998 6.46681 19.1998 6.73337 19.3998 6.86681C24.5998 8.73337 27.2666 14.5334 25.3331 19.6668C24.3331 22.4668 22.1331 24.6001 19.3998 25.6001C19.1331 25.7334 18.9998 25.9334 18.9998 26.2668V27.2001C18.9998 27.4668 19.1331 27.6668 19.3998 27.7334C19.4666 27.7334 19.5998 27.7334 19.6666 27.6668C25.9998 25.6668 29.4666 18.9334 27.4666 12.6001C26.2666 8.80009 23.3331 5.93337 19.6666 4.73337Z" fill="white"/>
</svg>
