<svg width="32" height="32" viewBox="0 0 32 32" fill="none" xmlns="http://www.w3.org/2000/svg">
<path d="M16 0C24.8362 0 32 7.16384 32 16C32 24.8362 24.8358 32 16 32C7.16416 32 0 24.8381 0 16C0 7.16192 7.16288 0 16 0Z" fill="#53AE94"/>
<path d="M17.9747 13.8682V11.4881H23.4176V7.86151H8.59644V11.4881H14.04V13.8663C9.61596 14.0695 6.28955 14.9457 6.28955 15.9953C6.28955 17.0449 9.61756 17.9211 14.04 18.1255V25.7496H17.976V18.1249C22.392 17.9211 25.7117 17.0455 25.7117 15.9969C25.7117 14.9482 22.392 14.0727 17.976 13.8689L17.9747 13.8682ZM17.976 17.4791V17.4772C17.8649 17.4843 17.2944 17.5185 16.024 17.5185C15.0083 17.5185 14.2937 17.4897 14.0419 17.4766V17.4798C10.1334 17.3067 7.21595 16.626 7.21595 15.8116C7.21595 14.9972 10.1337 14.3175 14.0419 14.1441V16.8017C14.2979 16.8193 15.03 16.8625 16.0406 16.8625C17.2544 16.8625 17.8646 16.8119 17.9766 16.8017V14.1441C21.8774 14.3178 24.7882 14.9991 24.7882 15.8106C24.7882 16.6222 21.8761 17.3038 17.9766 17.4775" fill="white"/>
</svg>
