<svg width="32" height="32" viewBox="0 0 32 32" fill="none" xmlns="http://www.w3.org/2000/svg">
<g clip-path="url(#clip0_13644_24532)">
<path d="M16.0001 32.0002C24.8367 32.0002 32.0002 24.8367 32.0002 16.0001C32.0002 7.16348 24.8367 0 16.0001 0C7.16348 0 0 7.16348 0 16.0001C0 24.8367 7.16348 32.0002 16.0001 32.0002Z" fill="#0657F9"/>
<path fill-rule="evenodd" clip-rule="evenodd" d="M9.33154 6.29768L8.06433 7.57766L11.1363 10.7009L14.2084 13.8241V16.7425V19.661H16.0004H17.7925V16.7425V13.8241L20.8645 10.7009L23.9365 7.57766L22.6693 6.28492L21.4021 4.99219L18.7141 7.71862C17.2421 9.21627 16.0133 10.445 16.0004 10.445C15.9747 10.445 14.7589 9.22903 13.2867 7.73138C11.8148 6.23373 10.6115 5.01771 10.5988 5.01771C10.586 5.01771 10.01 5.59374 9.31878 6.29768H9.33154ZM8.01314 13.6065C7.56516 14.4001 7.15547 15.7954 7.04032 16.9218C6.98913 17.4721 7.01465 18.6754 7.09152 19.2257C7.87232 24.2946 12.5827 27.7506 17.5491 26.8674C20.8259 26.2914 23.5139 23.949 24.5507 20.7618C24.8963 19.7122 25.0114 19.0082 25.0114 17.8562C25.0114 16.6146 24.8706 15.7954 24.4738 14.6561C24.333 14.2593 23.9874 13.4913 23.9362 13.4913C23.9235 13.4913 23.2962 14.1057 22.5666 14.8608C21.3251 16.1281 21.2225 16.2304 21.2482 16.3328C21.261 16.3968 21.2994 16.5633 21.3251 16.7169C21.4147 17.1521 21.4531 17.7536 21.4275 18.24C21.389 18.7649 21.3251 19.0848 21.1715 19.5712C20.6723 21.1585 19.3539 22.5152 17.7667 23.0657C17.1651 23.2704 16.8195 23.3216 16.0387 23.3345C15.2451 23.3345 14.9507 23.2961 14.3363 23.0913C12.6595 22.541 11.3027 21.1073 10.8163 19.4049C10.6627 18.8545 10.6115 18.496 10.6115 17.8305C10.6115 17.216 10.6372 17.0497 10.7908 16.3328C10.8035 16.2689 10.5091 15.9488 9.44669 14.8736L8.08985 13.4913L8.01299 13.6193V13.6065H8.01314Z" fill="white"/>
</g>
<defs>
<clipPath id="clip0_13644_24532">
<rect width="32" height="32" fill="white"/>
</clipPath>
</defs>
</svg>
