<svg width="314" height="135" viewBox="0 0 314 135" fill="none" xmlns="http://www.w3.org/2000/svg">
<path d="M7.37793 153.5C55.8779 98 277.878 89.5 353.878 89V206.5C214.045 216.167 -47.17 215.921 7.37793 153.5Z" fill="white"/>
<path d="M100.964 121.137C92.3068 123.085 83.7162 117.655 81.7763 109.008C79.8364 100.36 85.2818 91.7705 93.939 89.8218C102.596 87.873 111.187 93.3033 113.127 101.951C115.067 110.598 109.621 119.188 100.964 121.137Z" fill="url(#paint0_radial_3875_1944)"/>
<path fill-rule="evenodd" clip-rule="evenodd" d="M93.819 93.8178C94.4233 91.7204 97.7446 90.8081 101.228 91.7822C104.711 92.7563 107.047 95.2435 106.438 97.334C105.834 99.4314 102.512 100.344 99.0295 99.3696C95.5465 98.3956 93.2097 95.9083 93.819 93.8178Z" fill="url(#paint1_radial_3875_1944)"/>
<g style="mix-blend-mode:multiply" opacity="0.4">
<path d="M91.6519 94.6028C90.6169 95.0132 89.1729 93.5446 89.1729 93.5446C89.1729 93.5446 89.0352 94.4299 88.5012 94.9626C88.7408 93.5032 88.2903 91.8939 87.6462 90.7594C87.9266 90.6325 88.3267 90.4307 88.7717 90.2032C89.0431 90.1804 89.3141 90.1468 89.5718 90.0675C89.9978 89.9353 90.4415 89.8825 90.8627 89.7361C90.974 89.6958 91.8082 89.3825 92.0317 89.2074C92.083 89.3055 92.1344 89.4035 92.1908 89.4962C92.501 90.3872 93.16 91.1302 93.8898 91.7404C93.9884 91.8225 94.1121 91.8919 94.2546 91.9516C93.5991 91.9388 92.8997 91.7661 92.5007 91.5502C92.5007 91.5502 92.9396 94.0935 91.6572 94.6028L91.6519 94.6028Z" fill="#5E4D98"/>
</g>
<path d="M92.0341 87.2891C92.4176 87.7942 92.9546 88.5216 93.576 89.4156C94.978 91.4315 95.0083 91.6562 94.8842 91.8134C94.6871 92.0688 93.971 91.8028 93.3954 91.603C92.6391 91.3411 92.2506 91.1146 91.9449 90.8845C92.0773 91.1728 92.2489 91.9049 92.2717 92.3984C92.2887 92.7596 92.2551 93.58 91.8773 93.8339C91.3365 94.1959 90.0162 93.4329 88.6308 91.9441C88.746 92.3461 88.8828 93.027 88.7549 93.8239C88.7427 93.9018 88.4577 95.1821 87.9989 95.1903C87.7058 95.1966 87.4909 94.771 86.936 93.2964C86.5899 92.3775 86.1516 91.1662 85.672 89.7194C86.0962 89.2154 87.0342 88.2473 88.5781 87.6732C90.0611 87.1193 91.3722 87.2025 92.032 87.2902L92.0341 87.2891Z" fill="url(#paint2_linear_3875_1944)"/>
<path d="M88.6062 87.6916C90.098 87.1329 91.417 87.2168 92.0808 87.3053C91.9039 87.6854 91.2106 89.0598 89.5762 89.7584C87.7259 90.5483 86.0276 89.8959 85.6827 89.7554C86.1094 89.2471 87.053 88.2706 88.6062 87.6916Z" fill="url(#paint3_linear_3875_1944)"/>
<path d="M88.9138 88.7427L88.9786 88.5205C89.1299 88.0073 89.3239 86.9736 88.932 85.8071C88.2881 83.8874 86.5538 83.0824 86.2129 82.9419L86.0451 82.8717L85.973 83.0347C85.7877 83.4529 85.6915 83.8858 85.6817 84.3237C85.6357 86.8599 88.5849 88.555 88.7085 88.6259L88.9138 88.7427ZM86.2526 83.3792C86.7743 83.6298 88.0571 84.3838 88.5706 85.9183C88.8744 86.8258 88.7907 87.6441 88.673 88.1564C88.396 87.9777 87.8875 87.6217 87.3907 87.1226C86.4922 86.2211 86.0464 85.2877 86.0637 84.3472C86.069 84.0212 86.1322 83.6956 86.2526 83.3792Z" fill="url(#paint4_linear_3875_1944)"/>
<path d="M91.6175 87.9259C91.3364 88.2773 91.0317 88.5989 90.6912 88.8773C90.354 89.1569 89.9821 89.3955 89.5868 89.5791L89.4381 89.6471L89.286 89.7085C89.1858 89.7516 89.0798 89.7837 88.9761 89.8202C88.7673 89.8855 88.5528 89.9398 88.3347 89.982C87.8994 90.063 87.4516 90.0945 86.9998 90.0722C86.973 90.072 86.9512 90.0916 86.95 90.1201C86.9499 90.1454 86.9688 90.1664 86.9925 90.171C87.9058 90.3366 88.867 90.2202 89.7061 89.8338C90.128 89.645 90.5152 89.3845 90.8566 89.072C91.1948 88.7584 91.4861 88.3906 91.6998 87.9815C91.7119 87.9585 91.7033 87.9266 91.6803 87.9132C91.6585 87.9021 91.634 87.9062 91.6196 87.9248L91.6175 87.9259Z" fill="#EDF0FF"/>
<path d="M273.094 15.7775C273.094 15.7775 266.77 33.3966 241.073 31.9765L238.543 28.4704C238.543 28.4704 259.025 27.716 262.62 13.5142L273.072 15.7998L273.094 15.7775Z" fill="#7068E0"/>
<path d="M273.094 15.7775C273.094 15.7775 251.924 14.9342 242.427 30.3343L236.813 29.5355C236.813 29.5355 248.751 6.59067 262.731 5.43677C262.731 5.43677 270.409 8.29933 273.094 15.7775Z" fill="#9383FF"/>
<path d="M211.805 7.03467C211.805 7.03467 212.958 25.7189 238.011 31.5328L241.406 28.8699C241.406 28.8699 221.946 22.4126 222.456 7.76699L211.782 7.03467H211.805Z" fill="#7068E0"/>
<path d="M211.804 7.0343C211.804 7.0343 232.375 12.1381 237.168 29.5797L242.782 30.3785C242.782 30.3785 237.723 5.01502 224.63 0C224.63 0 216.464 0.599101 211.804 7.0343Z" fill="#9383FF"/>
<path d="M240.807 23.0337C240.807 23.0337 237.589 27.9378 237.19 29.6021C237.19 29.6021 237.012 28.204 236.502 27.4718L240.807 23.0337Z" fill="#6F66E2"/>
<path d="M239.168 45.1323L284.445 51.5842L277.536 100.069L232.259 93.6166L239.168 45.1323Z" fill="#FF9E3D"/>
<path d="M193.865 38.6743L239.142 45.1262L232.233 93.6105L186.956 87.1586L193.865 38.6743Z" fill="#FFD164"/>
<path d="M239.171 45.134L284.448 51.5859L283.878 55.5841L238.601 49.1322L239.171 45.134Z" fill="#FF7D37"/>
<path d="M193.869 38.676L239.146 45.1279L238.576 49.1261L193.299 42.6742L193.869 38.676Z" fill="#FF9E3D"/>
<path d="M255.358 47.4392L268.232 49.2737L261.323 97.758L248.449 95.9235L255.358 47.4392Z" fill="#776EE5"/>
<path d="M210.078 40.9844L222.951 42.8188L216.042 91.3032L203.169 89.4687L210.078 40.9844Z" fill="#9383FF"/>
<path d="M255.362 47.4407L268.235 49.2751L267.665 53.2733L254.792 51.4389L255.362 47.4407Z" fill="#5A58CC"/>
<path d="M210.06 40.9829L222.933 42.8174L222.363 46.8156L209.49 44.9811L210.06 40.9829Z" fill="#7C73EF"/>
<path d="M241.543 28.3692L290.181 35.3L287.727 52.5233L239.089 45.5924L241.543 28.3692Z" fill="#FFB751"/>
<path d="M192.9 21.4436L241.538 28.3745L239.084 45.5977L190.446 38.6669L192.9 21.4436Z" fill="#FFE87F"/>
<path d="M259.447 30.9172L272.321 32.7517L269.867 49.9749L256.993 48.1405L259.447 30.9172Z" fill="#776EE5"/>
<path d="M210.783 23.9915L223.656 25.8259L221.202 43.0492L208.328 41.2147L210.783 23.9915Z" fill="#9383FF"/>
<path d="M271.245 80.0203C284.622 80.0203 295.451 90.8497 295.451 104.226H247.039C247.039 90.8497 257.869 80.0203 271.245 80.0203Z" fill="white"/>
<path d="M217.08 81.981C229.357 81.981 239.325 91.9308 239.325 104.226H194.834C194.834 91.9491 204.784 81.981 217.08 81.981Z" fill="white"/>
<path d="M244.767 71.3164C262.945 71.3164 277.677 86.0488 277.677 104.226H211.857C211.857 86.0488 226.59 71.3164 244.767 71.3164Z" fill="white"/>
<path d="M271.264 84.3814C269.944 84.3814 268.662 84.5097 267.397 84.7112C261.497 79.1224 253.563 75.6775 244.786 75.6775C235.074 75.6775 226.37 79.9103 220.341 86.5986C219.279 86.4337 218.198 86.3421 217.098 86.3421C206.305 86.3421 197.327 94.0198 195.293 104.208H194.853C194.853 91.9309 204.803 81.9626 217.098 81.9626C218.198 81.9626 219.279 82.0726 220.341 82.2192C226.37 75.531 235.074 71.2981 244.786 71.2981C253.544 71.2981 261.497 74.743 267.397 80.3318C268.662 80.1303 269.944 80.002 271.264 80.002C284.64 80.002 295.469 90.8314 295.469 104.208H295.048C292.977 92.9387 283.119 84.3814 271.264 84.3814Z" fill="#CFEBFA"/>
<path d="M224.315 80.5003C235.944 79.3742 246.429 88.0628 247.75 99.9199L205.642 103.997C204.321 92.1404 212.668 81.6282 224.297 80.5021L224.315 80.5003Z" fill="white"/>
<path d="M177.187 87.1403C187.872 86.1056 197.509 94.091 198.722 104.986L160.043 108.732C158.83 97.8365 166.501 88.1751 177.187 87.1403Z" fill="white"/>
<path d="M200.362 75.2453C216.164 73.7152 230.427 85.5343 232.221 101.646L174.982 107.189C173.188 91.077 184.542 76.7773 200.344 75.2471L200.362 75.2453Z" fill="white"/>
<path d="M224.77 84.5214C223.624 84.636 222.508 84.8595 221.436 85.1531C215.754 80.7228 208.512 78.3695 200.852 79.1352C192.374 79.9828 185.191 84.487 180.59 90.9338C179.648 90.8974 178.69 90.8813 177.726 90.9777C168.32 91.9181 161.211 99.4922 160.417 108.673L160.035 108.711C158.863 97.8432 166.592 88.1742 177.308 87.1028C178.272 87.0064 179.228 87.0041 180.172 87.059C184.791 80.6103 191.974 76.1062 200.434 75.2604C208.076 74.4964 215.336 76.8479 221.018 81.2783C222.108 80.9828 223.206 80.7611 224.352 80.6465C236.015 79.4806 246.49 88.113 247.766 99.9406L247.402 99.977C244.526 90.1931 235.123 83.4864 224.77 84.5214Z" fill="#CFEBFA"/>
<path d="M118.46 106.698C125.565 105.601 132.381 110.604 133.709 117.892L107.994 121.88C106.68 114.588 111.355 107.795 118.456 106.683L118.46 106.698Z" fill="white"/>
<path d="M89.6822 112.619C96.2013 111.605 102.472 116.209 103.69 122.915L80.06 126.579C78.8469 119.887 83.149 113.637 89.6822 112.619Z" fill="white"/>
<path d="M103.482 104.373C113.136 102.87 122.412 109.694 124.209 119.604L89.2472 125.029C87.4499 115.119 93.8273 105.876 103.482 104.373Z" fill="white"/>
<path d="M118.897 109.223C118.196 109.341 117.526 109.512 116.873 109.742C113.188 107.195 108.623 105.992 103.956 106.747C98.7721 107.568 94.5441 110.616 91.9719 114.77C91.3912 114.775 90.8048 114.814 90.217 114.9C84.4634 115.817 80.4202 120.759 80.3131 126.483L80.078 126.517C78.8946 119.836 83.241 113.57 89.7991 112.522C90.387 112.436 90.9733 112.398 91.5539 112.393C94.1262 108.238 98.3542 105.19 103.538 104.369C108.21 103.629 112.774 104.832 116.455 107.364C117.112 107.149 117.778 106.963 118.479 106.846C125.611 105.716 132.423 110.683 133.719 117.96L133.498 117.991C131.314 112.028 125.234 108.205 118.897 109.223Z" fill="#CFEBFA"/>
<defs>
<radialGradient id="paint0_radial_3875_1944" cx="0" cy="0" r="1" gradientTransform="matrix(-8.53604 36.7034 36.715 8.48028 95.5494 86.1589)" gradientUnits="userSpaceOnUse">
<stop stop-color="#7DBEF7"/>
<stop offset="0.5" stop-color="#00A3FF"/>
<stop offset="1" stop-color="#2238FF" stop-opacity="0"/>
</radialGradient>
<radialGradient id="paint1_radial_3875_1944" cx="0" cy="0" r="1" gradientTransform="matrix(4.88521 8.68548 7.90806 -4.46995 98.5188 91.4979)" gradientUnits="userSpaceOnUse">
<stop stop-color="white"/>
<stop offset="1" stop-color="white" stop-opacity="0"/>
</radialGradient>
<linearGradient id="paint2_linear_3875_1944" x1="94.0653" y1="91.3157" x2="86.0019" y2="91.4757" gradientUnits="userSpaceOnUse">
<stop offset="0.1" stop-color="#C9C9C9"/>
<stop offset="1" stop-color="#767484"/>
</linearGradient>
<linearGradient id="paint3_linear_3875_1944" x1="92.8824" y1="88.5905" x2="81.6506" y2="81.2997" gradientUnits="userSpaceOnUse">
<stop offset="0.1" stop-color="#C9C9C9"/>
<stop offset="1" stop-color="#767484"/>
</linearGradient>
<linearGradient id="paint4_linear_3875_1944" x1="90.0955" y1="88.3951" x2="85.6121" y2="89.6384" gradientUnits="userSpaceOnUse">
<stop offset="0.1" stop-color="#C9C9C9"/>
<stop offset="1" stop-color="#767484"/>
</linearGradient>
</defs>
</svg>
