<svg viewBox="0 0 311 179" fill="none" xmlns="http://www.w3.org/2000/svg">
<path d="M149.5 21.3687C134.939 46.4791 84.7539 90.2671 0.500118 64.536" stroke="url(#paint0_radial_3875_2947)" stroke-linecap="round"/>
<path d="M310 0.368652C310 0.368652 234.5 69.3687 138.646 61.3687C42.7916 53.3687 30.5004 22.3687 30.5004 22.3687" stroke="url(#paint1_radial_3875_2947)"/>
<path d="M136.558 44.8107C139.84 43.9504 141.803 40.5925 140.943 37.3107C140.082 34.0289 136.725 32.066 133.443 32.9263C130.161 33.7867 128.198 37.1445 129.058 40.4263C129.919 43.7081 133.277 45.6711 136.558 44.8107Z" fill="url(#paint2_radial_3875_2947)"/>
<path fill-rule="evenodd" clip-rule="evenodd" d="M134.256 34.8204C133.559 34.2551 132.238 34.7462 131.31 35.9155C130.382 37.0848 130.193 38.4908 130.89 39.0525C131.587 39.6177 132.907 39.1267 133.835 37.9574C134.763 36.7881 134.953 35.3821 134.256 34.8204Z" fill="url(#paint3_radial_3875_2947)"/>
<path d="M180.558 66.8107C183.84 65.9504 185.803 62.5925 184.943 59.3107C184.082 56.0289 180.724 54.066 177.443 54.9263C174.161 55.7867 172.198 59.1445 173.058 62.4263C173.919 65.7081 177.276 67.6711 180.558 66.8107Z" fill="url(#paint4_radial_3875_2947)"/>
<path fill-rule="evenodd" clip-rule="evenodd" d="M178.255 56.8204C177.558 56.2551 176.238 56.7462 175.31 57.9155C174.382 59.0848 174.193 60.4908 174.89 61.0525C175.587 61.6177 176.907 61.1267 177.835 59.9574C178.763 58.7881 178.952 57.3821 178.255 56.8204Z" fill="url(#paint5_radial_3875_2947)"/>
<path d="M141.557 68.8091C144.838 67.9489 146.801 64.5915 145.941 61.3101C145.081 58.0288 141.723 56.0661 138.442 56.9263C135.16 57.7865 133.198 61.144 134.058 64.4253C134.918 67.7067 138.276 69.6694 141.557 68.8091Z" fill="url(#paint6_radial_3875_2947)"/>
<path fill-rule="evenodd" clip-rule="evenodd" d="M139.255 58.8191C138.558 58.254 137.238 58.7449 136.31 59.9141C135.382 61.0833 135.193 62.4891 135.89 63.0507C136.587 63.6158 137.907 63.1249 138.835 61.9557C139.763 60.7865 139.952 59.3807 139.255 58.8191Z" fill="url(#paint7_radial_3875_2947)"/>
<path d="M39.557 77.8089C42.8383 76.9487 44.8011 73.5912 43.9408 70.3099C43.0806 67.0285 39.7232 65.0658 36.4418 65.926C33.1604 66.7863 31.1977 70.1437 32.058 73.4251C32.9182 76.7064 36.2756 78.6691 39.557 77.8089Z" fill="url(#paint8_radial_3875_2947)"/>
<path fill-rule="evenodd" clip-rule="evenodd" d="M37.2553 67.8189C36.5584 67.2537 35.2383 67.7447 34.3104 68.9138C33.3825 70.083 33.1934 71.4888 33.8902 72.0504C34.587 72.6156 35.9071 72.1246 36.8351 70.9555C37.763 69.7863 37.9521 68.3805 37.2553 67.8189Z" fill="url(#paint9_radial_3875_2947)"/>
<path d="M237.557 52.8091C240.838 51.9489 242.801 48.5915 241.941 45.3101C241.081 42.0288 237.723 40.0661 234.442 40.9263C231.16 41.7865 229.198 45.144 230.058 48.4253C230.918 51.7067 234.276 53.6694 237.557 52.8091Z" fill="url(#paint10_radial_3875_2947)"/>
<path fill-rule="evenodd" clip-rule="evenodd" d="M235.255 42.8191C234.558 42.254 233.238 42.7449 232.31 43.9141C231.382 45.0833 231.193 46.4891 231.89 47.0507C232.587 47.6158 233.907 47.1249 234.835 45.9557C235.763 44.7865 235.952 43.3807 235.255 42.8191Z" fill="url(#paint11_radial_3875_2947)"/>
<path d="M71.5584 52.8107C74.8402 51.9504 76.8032 48.5925 75.9428 45.3107C75.0825 42.0289 71.7246 40.066 68.4428 40.9263C65.161 41.7867 63.1981 45.1445 64.0584 48.4263C64.9188 51.7081 68.2766 53.6711 71.5584 52.8107Z" fill="url(#paint12_radial_3875_2947)"/>
<path fill-rule="evenodd" clip-rule="evenodd" d="M69.2556 42.8204C68.5587 42.2551 67.2384 42.7462 66.3104 43.9155C65.3823 45.0848 65.1932 46.4908 65.8901 47.0525C66.5871 47.6177 67.9073 47.1267 68.8354 45.9574C69.7634 44.7881 69.9526 43.3821 69.2556 42.8204Z" fill="url(#paint13_radial_3875_2947)"/>
<path d="M208.026 82.477L190.534 91.0806L208.509 101.066L225.587 90.1699L208.026 82.477Z" fill="url(#paint14_radial_3875_2947)"/>
<path d="M207.943 79.2903L190.636 87.7108L208.607 97.5347L225.658 86.8009L207.943 79.2903Z" fill="url(#paint15_radial_3875_2947)"/>
<path d="M207.943 79.2903L190.636 87.7108L208.607 97.5347L225.658 86.8009L207.943 79.2903Z" fill="url(#paint16_radial_3875_2947)"/>
<path d="M190.451 87.8781L208.422 97.702L207.401 58.4004L190.451 87.8781Z" fill="url(#paint17_radial_3875_2947)"/>
<path d="M190.534 91.0803L208.881 115.392L208.509 101.065L190.534 91.0803Z" fill="url(#paint18_radial_3875_2947)"/>
<path d="M208.509 101.066L208.882 115.405L225.587 90.1698L208.509 101.066Z" fill="url(#paint19_radial_3875_2947)"/>
<path d="M208.509 101.066L208.882 115.405L225.587 90.1698L208.509 101.066Z" fill="url(#paint20_radial_3875_2947)"/>
<path d="M208.509 101.066L208.882 115.405L225.587 90.1698L208.509 101.066Z" fill="url(#paint21_radial_3875_2947)"/>
<path d="M207.401 58.4004L208.422 97.702L225.467 86.9683L207.401 58.4004Z" fill="url(#paint22_radial_3875_2947)"/>
<path d="M207.401 58.4004L208.422 97.702L225.467 86.9683L207.401 58.4004Z" fill="url(#paint23_radial_3875_2947)"/>
<path d="M207.401 58.4004L208.422 97.702L225.467 86.9683L207.401 58.4004Z" fill="url(#paint24_radial_3875_2947)"/>
<g style="mix-blend-mode:multiply" opacity="0.4">
<path d="M207.655 65.6435C208.762 65.514 209.307 63.5789 209.307 63.5789C209.307 63.5789 209.861 64.2756 210.59 64.4845C209.665 63.3419 209.271 61.7489 209.279 60.4737C208.971 60.4954 208.522 60.5083 208.021 60.5201C207.773 60.627 207.519 60.7244 207.255 60.7764C206.817 60.8613 206.403 61.0226 205.962 61.0931C205.845 61.1103 204.961 61.2298 204.68 61.1835C204.683 61.2917 204.686 61.3998 204.682 61.5058C204.847 62.4161 204.634 63.3618 204.294 64.2263C204.248 64.3428 204.174 64.4601 204.078 64.5778C204.646 64.2613 205.173 63.7869 205.417 63.4155C205.417 63.4155 206.278 65.8058 207.651 65.646L207.655 65.6435Z" fill="#5E4D98"/>
</g>
<path d="M203.748 59.5079C203.66 60.1216 203.548 60.9983 203.444 62.0578C203.207 64.4473 203.291 64.6549 203.477 64.7326C203.774 64.8608 204.27 64.2981 204.675 63.8579C205.208 63.28 205.436 62.904 205.59 62.5634C205.616 62.8734 205.825 63.584 206.048 64.0197C206.21 64.3387 206.642 65.0298 207.097 65.0725C207.747 65.1325 208.527 63.8603 209.007 61.9325C209.104 62.3325 209.319 62.9827 209.822 63.6096C209.87 63.6711 210.748 64.6411 211.153 64.4345C211.412 64.3034 211.391 63.8367 211.153 62.308C211.004 61.3553 210.793 60.1078 210.502 58.6381C209.884 58.4016 208.589 58.0045 206.958 58.2291C205.389 58.4426 204.284 59.125 203.75 59.5079L203.748 59.5079Z" fill="url(#paint25_linear_3875_2947)"/>
<path d="M206.964 58.2322C205.393 58.447 204.285 59.1335 203.75 59.5187C204.09 59.763 205.363 60.6209 207.127 60.4599C209.124 60.2766 210.285 58.9252 210.516 58.6437C209.897 58.4058 208.599 58.0063 206.964 58.2322Z" fill="url(#paint26_linear_3875_2947)"/>
<path d="M207.235 59.2549L207.069 59.093C206.684 58.7198 206.006 57.9161 205.776 56.7227C205.398 54.7594 206.523 53.2496 206.753 52.9682L206.866 52.8287L207.009 52.936C207.377 53.2111 207.674 53.5406 207.898 53.915C209.185 56.0885 207.431 58.9383 207.358 59.0576L207.235 59.2549ZM206.933 53.3652C206.599 53.8267 205.844 55.0807 206.148 56.6495C206.328 57.5773 206.803 58.2463 207.158 58.6346C207.313 58.3501 207.584 57.8035 207.775 57.1387C208.12 55.9372 208.052 54.9203 207.575 54.1145C207.41 53.8348 207.194 53.5827 206.933 53.3652Z" fill="url(#paint27_linear_3875_2947)"/>
<path d="M204.457 59.8503C204.872 60.0214 205.294 60.1557 205.725 60.2361C206.154 60.319 206.593 60.3505 207.026 60.3236L207.188 60.3126L207.35 60.2943C207.458 60.2845 207.566 60.2625 207.674 60.2454C207.887 60.204 208.1 60.1504 208.31 60.0846C208.728 59.9507 209.133 59.7684 209.515 59.5377C209.538 59.525 209.566 59.5317 209.581 59.5557C209.594 59.5774 209.587 59.6044 209.569 59.6194C208.855 60.1893 207.963 60.5388 207.046 60.5987C206.587 60.6335 206.124 60.5904 205.676 60.4811C205.229 60.3693 204.797 60.1889 204.413 59.9367C204.391 59.9226 204.383 59.891 204.397 59.8688C204.41 59.849 204.433 59.8411 204.455 59.8504L204.457 59.8503Z" fill="#EDF0FF"/>
<path d="M66.2934 77.1498C66.2934 77.1498 69.2408 73.4947 69.7332 72.3967C70.2256 71.2988 69.6119 69.2304 69.3621 68.7416C69.1194 68.2528 64.5735 65.4548 61.8758 66.6732C59.1782 67.8916 59.5422 72.6446 62.3683 77.2702L64.3308 77.0294L62.6109 68.8691C62.6109 68.8691 66.4147 69.2375 67.6422 70.6967L63.346 77.7661L66.2934 77.1569V77.1498Z" fill="url(#paint28_radial_3875_2947)"/>
<path d="M83.3456 115.982C83.3456 115.982 69.936 138.076 69.6505 146.859C69.6505 146.859 81.5757 153.128 83.2028 161.869C84.8799 170.837 79.4918 177.588 73.4971 178.721C67.5024 179.855 53.8074 171.213 41.8251 162.153C29.8428 153.086 28.13 149.409 28.5582 141.476C28.9864 133.542 37.4076 119.524 46.5352 100.264L83.3456 115.982Z" fill="url(#paint29_radial_3875_2947)"/>
<path d="M28.5583 141.475C28.7581 137.757 30.7135 132.706 33.6752 126.402C36.28 129.15 40.4835 134.491 41.5397 141.029C42.603 147.603 40.1266 154.566 37.7644 158.958C29.4432 152.094 28.1872 148.403 28.5583 141.475Z" fill="url(#paint30_radial_3875_2947)"/>
<path d="M48.7323 126.688C45.4119 129.222 44.2134 133.706 45.8485 137.472C47.7754 141.902 52.9209 143.809 57.3466 141.733C61.1064 139.966 63.2216 135.821 62.4325 131.765L62.3641 131.404L54.163 132.916L49.0262 126.461L48.7323 126.688ZM50.411 125.463L54.828 131.014L61.8778 129.711L59.6786 118.387L50.411 125.463ZM60.2919 128.625L55.3993 129.526L52.3319 125.676L58.7635 120.769L60.2919 128.625Z" fill="url(#paint31_radial_3875_2947)"/>
<path d="M42.5436 94.0669C42.5579 91.871 42.7434 89.6184 43.4642 87.5287C44.5561 84.3836 47.3965 81.5006 50.7506 81.3873C52.5633 78.8443 55.7605 77.3851 58.9791 77.1017C63.5536 76.698 69.4698 77.7818 72.51 81.5077C73.1023 81.6281 73.6946 81.7273 74.2727 81.8265C76.4993 82.2019 78.626 82.7615 80.6385 83.7957C84.2996 85.687 87.2684 88.7613 89.024 92.466L89.0382 92.5014C92.2069 93.5073 94.4692 95.9794 95.2899 98.9333C97.6021 100.81 98.38 103.793 98.33 106.669C98.2729 109.934 97.4308 112.98 94.7403 115.027C93.9553 115.622 93.1275 116.168 92.4495 116.89C91.7858 117.598 91.3291 118.448 90.8152 119.263C90.0302 120.51 89.1025 121.579 87.6466 122.033C85.1774 122.812 82.6938 121.48 81.7804 119.242C80.2175 120.141 78.5047 120.729 76.8419 119.61C75.7357 118.873 75.122 117.761 74.7366 116.55C73.502 116.571 72.3102 116.047 71.2896 115.233C69.3984 113.724 68.1567 111.74 65.8944 110.664C63.8605 109.686 61.6125 109.261 59.5357 108.369C57.5518 107.519 56.0174 106.137 54.326 104.841C53.3483 104.09 52.3207 103.41 51.136 103.013C50.0512 102.645 48.8951 102.525 47.7818 102.263C46.0262 101.852 44.4562 101.044 43.5641 99.422C42.6721 97.7999 42.5222 95.8661 42.5365 94.0598L42.5436 94.0669Z" fill="white"/>
<path d="M42.5436 94.0669C42.5579 91.871 42.7434 89.6184 43.4642 87.5287C44.5561 84.3836 47.3965 81.5006 50.7506 81.3873C52.5633 78.8443 55.7605 77.3851 58.9791 77.1017C63.5536 76.698 69.4698 77.7818 72.51 81.5077C73.1023 81.6281 73.6946 81.7273 74.2727 81.8265C76.4993 82.2019 78.626 82.7615 80.6385 83.7957C84.2996 85.687 87.2684 88.7613 89.024 92.466L89.0382 92.5014C92.2069 93.5073 94.4692 95.9794 95.2899 98.9333C97.6021 100.81 98.38 103.793 98.33 106.669C98.2729 109.934 97.4308 112.98 94.7403 115.027C93.9553 115.622 93.1275 116.168 92.4495 116.89C91.7858 117.598 91.3291 118.448 90.8152 119.263C90.0302 120.51 89.1025 121.579 87.6466 122.033C85.1774 122.812 82.6938 121.48 81.7804 119.242C80.2175 120.141 78.5047 120.729 76.8419 119.61C75.7357 118.873 75.122 117.761 74.7366 116.55C73.502 116.571 72.3102 116.047 71.2896 115.233C69.3984 113.724 68.1567 111.74 65.8944 110.664C63.8605 109.686 61.6125 109.261 59.5357 108.369C57.5518 107.519 56.0174 106.137 54.326 104.841C53.3483 104.09 52.3207 103.41 51.136 103.013C50.0512 102.645 48.8951 102.525 47.7818 102.263C46.0262 101.852 44.4562 101.044 43.5641 99.422C42.6721 97.7999 42.5222 95.8661 42.5365 94.0598L42.5436 94.0669Z" fill="url(#paint32_radial_3875_2947)"/>
<path d="M46.5351 100.263L83.3455 115.982C83.3455 115.982 80.8619 120.076 78.0073 125.438C70.6567 119.24 56.1481 110.712 43.238 107.071C44.3157 104.882 45.4147 102.615 46.528 100.271L46.5351 100.263Z" fill="url(#paint33_linear_3875_2947)"/>
<path d="M92.7139 100.825C86.812 93.4909 75.0084 84.6904 59.2702 81.7568C61.7293 87.135 73.0411 98.869 92.7139 100.825Z" fill="url(#paint34_linear_3875_2947)"/>
<path d="M81.5112 162.408C81.1829 161.671 80.1488 161.558 79.5137 161.891C78.7964 162.271 78.6948 163.104 78.9565 163.783C78.9043 163.687 79.0237 163.997 79.042 164.051C79.0493 164.073 79.0775 164.2 79.0917 164.278C79.0989 164.356 79.1137 164.562 79.1137 164.597C79.1137 164.724 79.106 164.844 79.0917 164.971C79.0061 165.779 79.8203 166.381 80.5482 166.416C81.3902 166.459 81.9251 165.722 82.0036 164.971C82.0963 164.072 81.8751 163.222 81.5112 162.408Z" fill="url(#paint35_radial_3875_2947)"/>
<path d="M72.1271 150.876C70.5356 149.877 69.0724 152.384 70.6567 153.376C72.9403 154.8 74.9026 156.663 76.4226 158.873C77.4788 160.403 80.0054 158.958 78.9426 157.414C77.13 154.779 74.846 152.576 72.1271 150.876Z" fill="url(#paint36_radial_3875_2947)"/>
<path d="M68.1478 104.247C75.0121 104.247 80.5767 98.6825 80.5767 91.8183C80.5767 84.954 75.0121 79.3894 68.1478 79.3894C61.2836 79.3894 55.719 84.954 55.719 91.8183C55.719 98.6825 61.2836 104.247 68.1478 104.247Z" fill="url(#paint37_radial_3875_2947)"/>
<g clip-path="url(#clip0_3875_2947)">
<rect x="68.83" y="80.6033" width="24.8577" height="24.8577" rx="12.4289" transform="rotate(8.97195 68.83 80.6033)" fill="url(#paint38_radial_3875_2947)"/>
<path fill-rule="evenodd" clip-rule="evenodd" d="M80.5479 87.7513L83.1205 93.3782L79.444 94.7416L76.3669 92.3119L80.5479 87.7513ZM77.4386 92.2342L80.3397 89.0697L82.1248 92.9741L79.5738 93.9201L77.4386 92.2342Z" fill="white"/>
<path d="M79.2625 95.8604L75.6926 93.0417L75.5602 93.1862C74.0664 94.8157 73.9595 97.2417 75.3033 99.0189C76.8846 101.11 79.9083 101.588 82.057 100.085C83.8829 98.8084 84.5287 96.4675 83.6096 94.4571L83.528 94.2788L79.2625 95.8604Z" fill="white"/>
<path fill-rule="evenodd" clip-rule="evenodd" d="M80.5479 87.7513L83.1205 93.3782L79.444 94.7416L76.3669 92.3119L80.5479 87.7513ZM77.4386 92.2342L80.3397 89.0697L82.1248 92.9741L79.5738 93.9201L77.4386 92.2342Z" fill="white"/>
<path d="M79.2625 95.8604L75.6926 93.0417L75.5602 93.1862C74.0664 94.8157 73.9595 97.2417 75.3033 99.0189C76.8846 101.11 79.9083 101.588 82.057 100.085C83.8829 98.8084 84.5287 96.4675 83.6096 94.4571L83.528 94.2788L79.2625 95.8604Z" fill="white"/>
</g>
<path d="M57.9478 77.021C55.1515 77.5235 52.5014 78.9195 50.9136 81.147C47.5596 81.2603 44.7194 84.1427 43.6274 87.2876C42.9067 89.3771 42.7208 91.6299 42.7065 93.8257L42.6997 93.8188C42.6854 95.6251 42.8351 97.5591 43.7271 99.1812C44.6191 100.803 46.1892 101.611 47.9448 102.022C49.0581 102.284 50.2146 102.405 51.2993 102.773C52.4837 103.17 53.5112 103.849 54.4888 104.6C56.1801 105.896 57.7148 107.277 59.6987 108.127C61.7754 109.02 64.0232 109.446 66.0571 110.423C68.3194 111.5 69.5615 113.483 71.4526 114.992C72.4732 115.806 73.6653 116.33 74.8999 116.309C75.2852 117.52 75.8984 118.633 77.0044 119.37C78.6672 120.489 80.3809 119.901 81.9438 119.001C82.8575 121.24 85.341 122.572 87.8101 121.792C89.2658 121.339 90.1931 120.269 90.978 119.022C91.4918 118.207 91.9491 117.357 92.6128 116.649C93.2907 115.927 94.1189 115.382 94.9038 114.787C97.594 112.74 98.4355 109.694 98.4927 106.428C98.5269 104.456 98.1726 102.434 97.2007 100.752C95.7631 100.825 94.225 100.793 92.5913 100.63C72.9185 98.6747 61.6061 86.9401 59.147 81.562C58.8285 79.8756 58.4161 78.3666 57.9478 77.021Z" fill="white"/>
<path d="M57.9478 77.021C55.1515 77.5235 52.5014 78.9195 50.9136 81.147C47.5596 81.2603 44.7194 84.1427 43.6274 87.2876C42.9067 89.3771 42.7208 91.6299 42.7065 93.8257L42.6997 93.8188C42.6854 95.6251 42.8351 97.5591 43.7271 99.1812C44.6191 100.803 46.1892 101.611 47.9448 102.022C49.0581 102.284 50.2146 102.405 51.2993 102.773C52.4837 103.17 53.5112 103.849 54.4888 104.6C56.1801 105.896 57.7148 107.277 59.6987 108.127C61.7754 109.02 64.0232 109.446 66.0571 110.423C68.3194 111.5 69.5615 113.483 71.4526 114.992C72.4732 115.806 73.6653 116.33 74.8999 116.309C75.2852 117.52 75.8984 118.633 77.0044 119.37C78.6672 120.489 80.3809 119.901 81.9438 119.001C82.8575 121.24 85.341 122.572 87.8101 121.792C89.2658 121.339 90.1931 120.269 90.978 119.022C91.4918 118.207 91.9491 117.357 92.6128 116.649C93.2907 115.927 94.1189 115.382 94.9038 114.787C97.594 112.74 98.4355 109.694 98.4927 106.428C98.5269 104.456 98.1726 102.434 97.2007 100.752C95.7631 100.825 94.225 100.793 92.5913 100.63C72.9185 98.6747 61.6061 86.9401 59.147 81.562C58.8285 79.8756 58.4161 78.3666 57.9478 77.021Z" fill="url(#paint39_radial_3875_2947)"/>
<defs>
<radialGradient id="paint0_radial_3875_2947" cx="0" cy="0" r="1" gradientTransform="matrix(-60.5 -71.5 -73.2766 20.8229 101 69.8687)" gradientUnits="userSpaceOnUse">
<stop stop-color="white" stop-opacity="0.2"/>
<stop offset="1" stop-color="white" stop-opacity="0.02"/>
</radialGradient>
<radialGradient id="paint1_radial_3875_2947" cx="0" cy="0" r="1" gradientTransform="matrix(25 -98.6471 -128.869 -42.9711 136.5 55.6334)" gradientUnits="userSpaceOnUse">
<stop stop-color="white" stop-opacity="0.2"/>
<stop offset="1" stop-color="white" stop-opacity="0.02"/>
</radialGradient>
<radialGradient id="paint2_radial_3875_2947" cx="0" cy="0" r="1" gradientTransform="matrix(10.2 9 -9.63136 10.9219 132.301 35.8684)" gradientUnits="userSpaceOnUse">
<stop stop-color="#FFB6B7"/>
<stop offset="0.5" stop-color="#E23E3F"/>
<stop offset="1" stop-color="#F0A3A4" stop-opacity="0"/>
</radialGradient>
<radialGradient id="paint3_radial_3875_2947" cx="0" cy="0" r="1" gradientTransform="matrix(0.428857 4.12068 -3.68692 0.390448 132.144 35.1665)" gradientUnits="userSpaceOnUse">
<stop stop-color="white"/>
<stop offset="1" stop-color="white" stop-opacity="0"/>
</radialGradient>
<radialGradient id="paint4_radial_3875_2947" cx="0" cy="0" r="1" gradientTransform="matrix(10.2 9 -9.63136 10.9219 176.3 57.8684)" gradientUnits="userSpaceOnUse">
<stop stop-color="#FFB6B7"/>
<stop offset="0.5" stop-color="#E23E3F"/>
<stop offset="1" stop-color="#F0A3A4" stop-opacity="0"/>
</radialGradient>
<radialGradient id="paint5_radial_3875_2947" cx="0" cy="0" r="1" gradientTransform="matrix(0.428857 4.12068 -3.68692 0.390448 176.144 57.1665)" gradientUnits="userSpaceOnUse">
<stop stop-color="white"/>
<stop offset="1" stop-color="white" stop-opacity="0"/>
</radialGradient>
<radialGradient id="paint6_radial_3875_2947" cx="0" cy="0" r="1" gradientUnits="userSpaceOnUse" gradientTransform="translate(139.999 52.5014) rotate(125.605) scale(21.9731 21.9731)">
<stop stop-color="#00A3FF"/>
<stop offset="0.5" stop-color="#00A3FF" stop-opacity="0.7"/>
<stop offset="1" stop-color="#2E61FD" stop-opacity="0"/>
</radialGradient>
<radialGradient id="paint7_radial_3875_2947" cx="0" cy="0" r="1" gradientTransform="matrix(0.428801 4.12014 -3.68644 0.390397 137.144 59.1652)" gradientUnits="userSpaceOnUse">
<stop stop-color="white"/>
<stop offset="1" stop-color="white" stop-opacity="0"/>
</radialGradient>
<radialGradient id="paint8_radial_3875_2947" cx="0" cy="0" r="1" gradientUnits="userSpaceOnUse" gradientTransform="translate(37.9994 61.5012) rotate(125.605) scale(21.9731 21.9731)">
<stop stop-color="#FFAA7D"/>
<stop offset="0.5" stop-color="#FFAA7D" stop-opacity="0.7"/>
<stop offset="1" stop-color="#FFAA7D" stop-opacity="0"/>
</radialGradient>
<radialGradient id="paint9_radial_3875_2947" cx="0" cy="0" r="1" gradientTransform="matrix(0.428801 4.12014 -3.68644 0.390397 35.1439 68.1649)" gradientUnits="userSpaceOnUse">
<stop stop-color="white"/>
<stop offset="1" stop-color="white" stop-opacity="0"/>
</radialGradient>
<radialGradient id="paint10_radial_3875_2947" cx="0" cy="0" r="1" gradientUnits="userSpaceOnUse" gradientTransform="translate(235.999 36.5014) rotate(125.605) scale(21.9731 21.9731)">
<stop stop-color="#FFAA7D"/>
<stop offset="0.5" stop-color="#FFAA7D" stop-opacity="0.7"/>
<stop offset="1" stop-color="#FFAA7D" stop-opacity="0"/>
</radialGradient>
<radialGradient id="paint11_radial_3875_2947" cx="0" cy="0" r="1" gradientTransform="matrix(0.428801 4.12014 -3.68644 0.390397 233.144 43.1652)" gradientUnits="userSpaceOnUse">
<stop stop-color="white"/>
<stop offset="1" stop-color="white" stop-opacity="0"/>
</radialGradient>
<radialGradient id="paint12_radial_3875_2947" cx="0" cy="0" r="1" gradientTransform="matrix(10.2 9 -9.63136 10.9219 67.3006 43.8684)" gradientUnits="userSpaceOnUse">
<stop stop-color="#FFB6B7"/>
<stop offset="0.5" stop-color="#E23E3F"/>
<stop offset="1" stop-color="#F0A3A4" stop-opacity="0"/>
</radialGradient>
<radialGradient id="paint13_radial_3875_2947" cx="0" cy="0" r="1" gradientTransform="matrix(0.428857 4.12068 -3.68692 0.390448 67.144 43.1665)" gradientUnits="userSpaceOnUse">
<stop stop-color="white"/>
<stop offset="1" stop-color="white" stop-opacity="0"/>
</radialGradient>
<radialGradient id="paint14_radial_3875_2947" cx="0" cy="0" r="1" gradientTransform="matrix(64.443 -6.22396 -17.4169 19.4811 159.882 102.042)" gradientUnits="userSpaceOnUse">
<stop stop-color="#FFB6B7"/>
<stop offset="1" stop-color="#FFB6B7" stop-opacity="0.431373"/>
</radialGradient>
<radialGradient id="paint15_radial_3875_2947" cx="0" cy="0" r="1" gradientTransform="matrix(17.2556 -10.9436 88.8359 6.76574 190.727 95.9367)" gradientUnits="userSpaceOnUse">
<stop stop-color="#4D5CFF"/>
<stop offset="0.943718" stop-color="#8AAAFB" stop-opacity="0.29"/>
</radialGradient>
<radialGradient id="paint16_radial_3875_2947" cx="0" cy="0" r="1" gradientTransform="matrix(33.3079 0.95057 -10.1425 8.83251 185.301 87.9465)" gradientUnits="userSpaceOnUse">
<stop stop-color="#354BFF"/>
<stop offset="1" stop-color="#354BFF" stop-opacity="0"/>
</radialGradient>
<radialGradient id="paint17_radial_3875_2947" cx="0" cy="0" r="1" gradientTransform="matrix(15.0203 66.715 -34.8767 44.6771 196.094 66.8769)" gradientUnits="userSpaceOnUse">
<stop stop-color="#FFB6B7"/>
<stop offset="0.5" stop-color="#E23E3F"/>
<stop offset="1" stop-color="#F0A3A4" stop-opacity="0"/>
</radialGradient>
<radialGradient id="paint18_radial_3875_2947" cx="0" cy="0" r="1" gradientTransform="matrix(26.5851 11.1824 -1.45072 29.4894 196.853 96.0737)" gradientUnits="userSpaceOnUse">
<stop stop-color="#FFB6B7"/>
<stop offset="0.5" stop-color="#E23E3F"/>
<stop offset="1" stop-color="#F0A3A4" stop-opacity="0"/>
</radialGradient>
<radialGradient id="paint19_radial_3875_2947" cx="0" cy="0" r="1" gradientTransform="matrix(-21.2059 2.54239 -8.37424 -35.7056 227.274 106.031)" gradientUnits="userSpaceOnUse">
<stop stop-color="#FFB6B7"/>
<stop offset="0.943718" stop-color="#FFB6B7" stop-opacity="0"/>
</radialGradient>
<radialGradient id="paint20_radial_3875_2947" cx="0" cy="0" r="1" gradientTransform="matrix(23.6956 28.3333 -23.7518 8.17277 200.636 87.6185)" gradientUnits="userSpaceOnUse">
<stop stop-color="#FFB6B7"/>
<stop offset="0.364808" stop-color="#FFB6B7" stop-opacity="0.87"/>
</radialGradient>
<radialGradient id="paint21_radial_3875_2947" cx="0" cy="0" r="1" gradientTransform="matrix(14.5722 -10.2964 19.2441 11.4637 207.572 115.49)" gradientUnits="userSpaceOnUse">
<stop stop-color="#E23E3F"/>
<stop offset="1" stop-color="#ED6062" stop-opacity="0"/>
</radialGradient>
<radialGradient id="paint22_radial_3875_2947" cx="0" cy="0" r="1" gradientTransform="matrix(-21.1307 3.70684 -8.90483 -56.7326 226.64 83.1211)" gradientUnits="userSpaceOnUse">
<stop stop-color="#FF8F91"/>
<stop offset="0.943718" stop-color="#FFB6B7" stop-opacity="0"/>
</radialGradient>
<radialGradient id="paint23_radial_3875_2947" cx="0" cy="0" r="1" gradientTransform="matrix(24.0874 45.2789 -23.5863 12.5939 199.766 53.525)" gradientUnits="userSpaceOnUse">
<stop stop-color="#FFB6B7"/>
<stop offset="0.364808" stop-color="#FFB6B7" stop-opacity="0.87"/>
</radialGradient>
<radialGradient id="paint24_radial_3875_2947" cx="0" cy="0" r="1" gradientTransform="matrix(14.3901 -16.1006 19.3861 18.4673 207.115 97.8166)" gradientUnits="userSpaceOnUse">
<stop stop-color="#E23E3F"/>
<stop offset="1" stop-color="#ED6062" stop-opacity="0"/>
</radialGradient>
<linearGradient id="paint25_linear_3875_2947" x1="203.948" y1="63.9225" x2="210.968" y2="60.1057" gradientUnits="userSpaceOnUse">
<stop offset="0.1" stop-color="#C9C9C9"/>
<stop offset="1" stop-color="#767484"/>
</linearGradient>
<linearGradient id="paint26_linear_3875_2947" x1="203.679" y1="60.9964" x2="209.791" y2="49.4403" gradientUnits="userSpaceOnUse">
<stop offset="0.1" stop-color="#C9C9C9"/>
<stop offset="1" stop-color="#767484"/>
</linearGradient>
<linearGradient id="paint27_linear_3875_2947" x1="206.028" y1="59.5081" x2="210.546" y2="58.3813" gradientUnits="userSpaceOnUse">
<stop offset="0.1" stop-color="#C9C9C9"/>
<stop offset="1" stop-color="#767484"/>
</linearGradient>
<radialGradient id="paint28_radial_3875_2947" cx="0" cy="0" r="1" gradientTransform="matrix(-17.5853 43.2011 41.0971 23.4617 66.4673 68.74)" gradientUnits="userSpaceOnUse">
<stop stop-color="#FFB6B7"/>
<stop offset="0.63203" stop-color="#E23E3F"/>
<stop offset="1" stop-color="#F0A3A4" stop-opacity="0"/>
</radialGradient>
<radialGradient id="paint29_radial_3875_2947" cx="0" cy="0" r="1" gradientTransform="matrix(-33.9599 72.2049 54.118 51.9357 64.2947 116.609)" gradientUnits="userSpaceOnUse">
<stop stop-color="#FFB6D3"/>
<stop offset="0.5" stop-color="#E23E3F"/>
<stop offset="1" stop-color="#F0A3CB" stop-opacity="0"/>
</radialGradient>
<radialGradient id="paint30_radial_3875_2947" cx="0" cy="0" r="1" gradientUnits="userSpaceOnUse" gradientTransform="translate(-30.691 175.861) rotate(-27.5199) scale(79.4161 101.569)">
<stop stop-color="white"/>
<stop offset="1" stop-color="white" stop-opacity="0.3"/>
</radialGradient>
<radialGradient id="paint31_radial_3875_2947" cx="0" cy="0" r="1" gradientTransform="matrix(32.9702 -11.802 -23.7124 -22.9461 21.3271 142.098)" gradientUnits="userSpaceOnUse">
<stop stop-color="white"/>
<stop offset="1" stop-color="white" stop-opacity="0.7"/>
</radialGradient>
<radialGradient id="paint32_radial_3875_2947" cx="0" cy="0" r="1" gradientTransform="matrix(-42.0214 66.2872 84.6496 33.0281 82.942 81.9316)" gradientUnits="userSpaceOnUse">
<stop stop-color="white"/>
<stop offset="0.5" stop-color="#F8A9AB" stop-opacity="0.6"/>
<stop offset="1" stop-color="white" stop-opacity="0"/>
</radialGradient>
<linearGradient id="paint33_linear_3875_2947" x1="52.7598" y1="127.329" x2="66.8774" y2="108.915" gradientUnits="userSpaceOnUse">
<stop stop-color="#BB1F22"/>
<stop offset="1" stop-color="#960B0D" stop-opacity="0"/>
</linearGradient>
<linearGradient id="paint34_linear_3875_2947" x1="56.5944" y1="115.621" x2="75.2897" y2="88.9342" gradientUnits="userSpaceOnUse">
<stop stop-color="#BB1F22"/>
<stop offset="1" stop-color="#960B0D" stop-opacity="0"/>
</linearGradient>
<radialGradient id="paint35_radial_3875_2947" cx="0" cy="0" r="1" gradientTransform="matrix(27.3688 -14.8071 -22.9659 -15.5048 60.3102 162.851)" gradientUnits="userSpaceOnUse">
<stop stop-color="white"/>
<stop offset="1" stop-color="white" stop-opacity="0.3"/>
</radialGradient>
<radialGradient id="paint36_radial_3875_2947" cx="0" cy="0" r="1" gradientTransform="matrix(27.3688 -14.8071 -22.9659 -15.5048 60.3102 162.851)" gradientUnits="userSpaceOnUse">
<stop stop-color="white"/>
<stop offset="1" stop-color="white" stop-opacity="0.3"/>
</radialGradient>
<radialGradient id="paint37_radial_3875_2947" cx="0" cy="0" r="1" gradientUnits="userSpaceOnUse" gradientTransform="translate(60.4538 100.104) rotate(-39.4007) scale(21.4459)">
<stop offset="0.183421" stop-color="#FFAA7D"/>
<stop offset="1" stop-color="#FFAA7D" stop-opacity="0.3"/>
</radialGradient>
<radialGradient id="paint38_radial_3875_2947" cx="0" cy="0" r="1" gradientUnits="userSpaceOnUse" gradientTransform="translate(81.2588 93.0321) rotate(91.273) scale(26.6398)">
<stop offset="0.183421" stop-color="#FFAA7D"/>
<stop offset="1" stop-color="#FFAA7D" stop-opacity="0.3"/>
</radialGradient>
<radialGradient id="paint39_radial_3875_2947" cx="0" cy="0" r="1" gradientTransform="matrix(-42.0217 65.9369 84.6503 32.8535 83.1052 81.9044)" gradientUnits="userSpaceOnUse">
<stop stop-color="white"/>
<stop offset="0.5" stop-color="#F8A9AB" stop-opacity="0.6"/>
<stop offset="1" stop-color="white" stop-opacity="0"/>
</radialGradient>
<clipPath id="clip0_3875_2947">
<rect x="68.83" y="80.6033" width="24.8577" height="24.8577" rx="12.4289" transform="rotate(8.97195 68.83 80.6033)" fill="white"/>
</clipPath>
</defs>
</svg>
