<svg viewBox="0 0 245 118" fill="none" xmlns="http://www.w3.org/2000/svg">
<defs>
<filter id="blueGlow1" x="-100%" y="-100%" width="300%" height="300%">
<feComponentTransfer in="SourceGraphic" result="brightened">
<feFuncR type="linear" slope="1">
<animate attributeName="slope" values="1;1.4;1" dur="4s" begin="0.5s" repeatCount="indefinite"/>
</feFuncR>
<feFuncG type="linear" slope="1">
<animate attributeName="slope" values="1;1.4;1" dur="4s" begin="0.5s" repeatCount="indefinite"/>
</feFuncG>
<feFuncB type="linear" slope="1">
<animate attributeName="slope" values="1;1.4;1" dur="4s" begin="0.5s" repeatCount="indefinite"/>
</feFuncB>
</feComponentTransfer>
<feGaussianBlur in="brightened" stdDeviation="0" result="blur">
<animate attributeName="stdDeviation" values="0;8;0" dur="4s" begin="0.5s" repeatCount="indefinite"/>
</feGaussianBlur>
<feFlood flood-color="#00A3FF" flood-opacity="0" result="color">
<animate attributeName="flood-opacity" values="0;1;0" dur="4s" begin="0.5s" repeatCount="indefinite"/>
</feFlood>
<feComposite in="color" in2="blur" operator="in" result="coloredBlur"/>
<feMerge><feMergeNode in="coloredBlur"/><feMergeNode in="brightened"/></feMerge>
</filter>
<filter id="blueGlow2" x="-100%" y="-100%" width="300%" height="300%">
<feComponentTransfer in="SourceGraphic" result="brightened">
<feFuncR type="linear" slope="1">
<animate attributeName="slope" values="1;1.4;1" dur="4s" begin="1.8s" repeatCount="indefinite"/>
</feFuncR>
<feFuncG type="linear" slope="1">
<animate attributeName="slope" values="1;1.4;1" dur="4s" begin="1.8s" repeatCount="indefinite"/>
</feFuncG>
<feFuncB type="linear" slope="1">
<animate attributeName="slope" values="1;1.4;1" dur="4s" begin="1.8s" repeatCount="indefinite"/>
</feFuncB>
</feComponentTransfer>
<feGaussianBlur in="brightened" stdDeviation="0" result="blur">
<animate attributeName="stdDeviation" values="0;8;0" dur="4s" begin="1.8s" repeatCount="indefinite"/>
</feGaussianBlur>
<feFlood flood-color="#00A3FF" flood-opacity="0" result="color">
<animate attributeName="flood-opacity" values="0;1;0" dur="4s" begin="1.8s" repeatCount="indefinite"/>
</feFlood>
<feComposite in="color" in2="blur" operator="in" result="coloredBlur"/>
<feMerge><feMergeNode in="coloredBlur"/><feMergeNode in="brightened"/></feMerge>
</filter>
<filter id="blueGlow3" x="-100%" y="-100%" width="300%" height="300%">
<feComponentTransfer in="SourceGraphic" result="brightened">
<feFuncR type="linear" slope="1">
<animate attributeName="slope" values="1;1.4;1" dur="4s" begin="3.2s" repeatCount="indefinite"/>
</feFuncR>
<feFuncG type="linear" slope="1">
<animate attributeName="slope" values="1;1.4;1" dur="4s" begin="3.2s" repeatCount="indefinite"/>
</feFuncG>
<feFuncB type="linear" slope="1">
<animate attributeName="slope" values="1;1.4;1" dur="4s" begin="3.2s" repeatCount="indefinite"/>
</feFuncB>
</feComponentTransfer>
<feGaussianBlur in="brightened" stdDeviation="0" result="blur">
<animate attributeName="stdDeviation" values="0;8;0" dur="4s" begin="3.2s" repeatCount="indefinite"/>
</feGaussianBlur>
<feFlood flood-color="#00A3FF" flood-opacity="0" result="color">
<animate attributeName="flood-opacity" values="0;1;0" dur="4s" begin="3.2s" repeatCount="indefinite"/>
</feFlood>
<feComposite in="color" in2="blur" operator="in" result="coloredBlur"/>
<feMerge><feMergeNode in="coloredBlur"/><feMergeNode in="brightened"/></feMerge>
</filter>
<filter id="pinkGlow" x="-100%" y="-100%" width="300%" height="300%">
<feComponentTransfer in="SourceGraphic" result="brightened">
<feFuncR type="linear" slope="1">
<animate attributeName="slope" values="1;1.4;1" dur="4s" begin="1s" repeatCount="indefinite"/>
</feFuncR>
<feFuncG type="linear" slope="1">
<animate attributeName="slope" values="1;1.4;1" dur="4s" begin="1s" repeatCount="indefinite"/>
</feFuncG>
<feFuncB type="linear" slope="1">
<animate attributeName="slope" values="1;1.4;1" dur="4s" begin="1s" repeatCount="indefinite"/>
</feFuncB>
</feComponentTransfer>
<feGaussianBlur in="brightened" stdDeviation="0" result="blur">
<animate attributeName="stdDeviation" values="0;8;0" dur="4s" begin="1s" repeatCount="indefinite"/>
</feGaussianBlur>
<feFlood flood-color="#F8A9AB" flood-opacity="0" result="color">
<animate attributeName="flood-opacity" values="0;1;0" dur="4s" begin="1s" repeatCount="indefinite"/>
</feFlood>
<feComposite in="color" in2="blur" operator="in" result="coloredBlur"/>
<feMerge><feMergeNode in="coloredBlur"/><feMergeNode in="brightened"/></feMerge>
</filter>
<filter id="redGlow1" x="-100%" y="-100%" width="300%" height="300%">
<feComponentTransfer in="SourceGraphic" result="brightened">
<feFuncR type="linear" slope="1">
<animate attributeName="slope" values="1;1.4;1" dur="4s" begin="2.5s" repeatCount="indefinite"/>
</feFuncR>
<feFuncG type="linear" slope="1">
<animate attributeName="slope" values="1;1.4;1" dur="4s" begin="2.5s" repeatCount="indefinite"/>
</feFuncG>
<feFuncB type="linear" slope="1">
<animate attributeName="slope" values="1;1.4;1" dur="4s" begin="2.5s" repeatCount="indefinite"/>
</feFuncB>
</feComponentTransfer>
<feGaussianBlur in="brightened" stdDeviation="0" result="blur">
<animate attributeName="stdDeviation" values="0;8;0" dur="4s" begin="2.5s" repeatCount="indefinite"/>
</feGaussianBlur>
<feFlood flood-color="#E23E3F" flood-opacity="0" result="color">
<animate attributeName="flood-opacity" values="0;1;0" dur="4s" begin="2.5s" repeatCount="indefinite"/>
</feFlood>
<feComposite in="color" in2="blur" operator="in" result="coloredBlur"/>
<feMerge><feMergeNode in="coloredBlur"/><feMergeNode in="brightened"/></feMerge>
</filter>
<filter id="redGlow2" x="-100%" y="-100%" width="300%" height="300%">
<feComponentTransfer in="SourceGraphic" result="brightened">
<feFuncR type="linear" slope="1">
<animate attributeName="slope" values="1;1.4;1" dur="4s" begin="0s" repeatCount="indefinite"/>
</feFuncR>
<feFuncG type="linear" slope="1">
<animate attributeName="slope" values="1;1.4;1" dur="4s" begin="0s" repeatCount="indefinite"/>
</feFuncG>
<feFuncB type="linear" slope="1">
<animate attributeName="slope" values="1;1.4;1" dur="4s" begin="0s" repeatCount="indefinite"/>
</feFuncB>
</feComponentTransfer>
<feGaussianBlur in="brightened" stdDeviation="0" result="blur">
<animate attributeName="stdDeviation" values="0;8;0" dur="4s" begin="0s" repeatCount="indefinite"/>
</feGaussianBlur>
<feFlood flood-color="#E23E3F" flood-opacity="0" result="color">
<animate attributeName="flood-opacity" values="0;1;0" dur="4s" begin="0s" repeatCount="indefinite"/>
</feFlood>
<feComposite in="color" in2="blur" operator="in" result="coloredBlur"/>
<feMerge><feMergeNode in="coloredBlur"/><feMergeNode in="brightened"/></feMerge>
</filter>
<filter id="blueBallGlow" x="-200%" y="-200%" width="500%" height="500%">
<feComponentTransfer in="SourceGraphic" result="brightened">
<feFuncR type="linear" slope="1">
<animate attributeName="slope" values="1;1.6;1" dur="5s" begin="1.5s" repeatCount="indefinite"/>
</feFuncR>
<feFuncG type="linear" slope="1">
<animate attributeName="slope" values="1;1.6;1" dur="5s" begin="1.5s" repeatCount="indefinite"/>
</feFuncG>
<feFuncB type="linear" slope="1">
<animate attributeName="slope" values="1;1.6;1" dur="5s" begin="1.5s" repeatCount="indefinite"/>
</feFuncB>
</feComponentTransfer>
<feGaussianBlur in="brightened" stdDeviation="0" result="blur">
<animate attributeName="stdDeviation" values="0;12;0" dur="5s" begin="1.5s" repeatCount="indefinite"/>
</feGaussianBlur>
<feFlood flood-color="#00A3FF" flood-opacity="0" result="color">
<animate attributeName="flood-opacity" values="0;1;0" dur="5s" begin="1.5s" repeatCount="indefinite"/>
</feFlood>
<feComposite in="color" in2="blur" operator="in" result="coloredBlur"/>
<feMerge><feMergeNode in="coloredBlur"/><feMergeNode in="brightened"/></feMerge>
</filter>
</defs>
<path d="M95.6312 0.5C110.159 21.1792 160.23 57.2399 244.293 36.0496" stroke="url(#paint0_radial_3875_3018)" stroke-linecap="round"/>
<path d="M214.293 1.5C214.293 1.5 162.97 40.5 108.439 40.5C53.9079 40.5 0.293333 1.5 0.293333 1.5" stroke="url(#paint1_radial_3875_3018)"/>
<path d="M176.35 30.9405C179.631 30.0803 181.594 26.7228 180.734 23.4415C179.874 20.1601 176.516 18.1974 173.235 19.0576C169.953 19.9179 167.991 23.2753 168.851 26.5567C169.711 29.838 173.069 31.8007 176.35 30.9405Z" fill="url(#paint2_radial_3875_3018)" filter="url(#blueGlow1)"/>
<path fill-rule="evenodd" clip-rule="evenodd" d="M174.048 20.9505C173.351 20.3853 172.031 20.8763 171.103 22.0454C170.175 23.2146 169.986 24.6204 170.683 25.182C171.38 25.7472 172.7 25.2562 173.628 24.0871C174.556 22.9179 174.745 21.5121 174.048 20.9505Z" fill="url(#paint3_radial_3875_3018)"/>
<path d="M43.35 30.9405C46.6313 30.0803 48.594 26.7228 47.7338 23.4415C46.8735 20.1601 43.5161 18.1974 40.2348 19.0576C36.9534 19.9179 34.9907 23.2753 35.8509 26.5567C36.7112 29.838 40.0686 31.8007 43.35 30.9405Z" fill="url(#paint4_radial_3875_3018)" filter="url(#blueGlow2)"/>
<path fill-rule="evenodd" clip-rule="evenodd" d="M41.0482 20.9505C40.3514 20.3853 39.0313 20.8763 38.1034 22.0454C37.1754 23.2146 36.9864 24.6204 37.6832 25.182C38.38 25.7472 39.7001 25.2562 40.628 24.0871C41.556 22.9179 41.7451 21.5121 41.0482 20.9505Z" fill="url(#paint5_radial_3875_3018)"/>
<path d="M110.35 19.9415C113.631 19.0812 115.594 15.7238 114.734 12.4424C113.874 9.16109 110.516 7.19838 107.235 8.05861C103.953 8.91885 101.991 12.2763 102.851 15.5576C103.711 18.839 107.069 20.8017 110.35 19.9415Z" fill="url(#paint6_radial_3875_3018)" filter="url(#blueGlow3)"/>
<path fill-rule="evenodd" clip-rule="evenodd" d="M108.048 9.95146C107.351 9.38623 106.031 9.87727 105.103 11.0466C104.175 12.2159 103.986 13.6219 104.683 14.1836C105.38 14.7488 106.7 14.2578 107.628 13.0885C108.556 11.9192 108.745 10.5132 108.048 9.95146Z" fill="url(#paint7_radial_3875_3018)"/>
<path d="M86.3511 43.9421C89.6329 43.0817 91.5959 39.7239 90.7355 36.4421C89.8752 33.1603 86.5173 31.1973 83.2355 32.0577C79.9537 32.918 77.9908 36.2759 78.8511 39.5577C79.7115 42.8395 83.0693 44.8024 86.3511 43.9421Z" fill="url(#paint8_radial_3875_3018)" filter="url(#pinkGlow)"/>
<path fill-rule="evenodd" clip-rule="evenodd" d="M84.0483 33.9517C83.3514 33.3865 82.0311 33.8775 81.1031 35.0468C80.175 36.2161 79.9859 37.6221 80.6828 38.1838C81.3797 38.7491 82.7 38.258 83.6281 37.0887C84.5561 35.9194 84.7452 34.5134 84.0483 33.9517Z" fill="url(#paint9_radial_3875_3018)"/>
<path d="M191.351 22.9421C194.633 22.0817 196.596 18.7239 195.736 15.4421C194.875 12.1603 191.517 10.1973 188.236 11.0577C184.954 11.918 182.991 15.2759 183.851 18.5577C184.711 21.8395 188.069 23.8024 191.351 22.9421Z" fill="url(#paint10_radial_3875_3018)" filter="url(#redGlow1)"/>
<path fill-rule="evenodd" clip-rule="evenodd" d="M189.048 12.9517C188.351 12.3865 187.031 12.8775 186.103 14.0468C185.175 15.2161 184.986 16.6221 185.683 17.1838C186.38 17.7491 187.7 17.258 188.628 16.0887C189.556 14.9194 189.745 13.5134 189.048 12.9517Z" fill="url(#paint11_radial_3875_3018)"/>
<path d="M148.351 39.9421C151.633 39.0817 153.596 35.7239 152.736 32.4421C151.875 29.1603 148.517 27.1973 145.236 28.0577C141.954 28.918 139.991 32.2759 140.851 35.5577C141.712 38.8395 145.069 40.8024 148.351 39.9421Z" fill="url(#paint12_radial_3875_3018)" filter="url(#redGlow2)"/>
<path fill-rule="evenodd" clip-rule="evenodd" d="M146.048 29.9517C145.351 29.3865 144.031 29.8775 143.103 31.0468C142.175 32.2161 141.986 33.6221 142.683 34.1838C143.38 34.7491 144.7 34.258 145.628 33.0887C146.556 31.9194 146.745 30.5134 146.048 29.9517Z" fill="url(#paint13_radial_3875_3018)"/>
<g filter="url(#blueBallGlow)">
<g clip-path="url(#clip0_3875_3018)">
<path d="M127.569 116.638C144.732 112.139 154.998 94.5776 150.498 77.4145C145.999 60.2513 128.438 49.9854 111.275 54.4848C94.1114 58.9843 83.8455 76.5453 88.345 93.7084C92.8444 110.872 110.405 121.138 127.569 116.638Z" fill="url(#paint14_radial_3875_3018)"/>
<path d="M119.42 114.153C135.713 114.153 148.92 100.946 148.92 84.6533C148.92 68.3609 135.713 55.1533 119.42 55.1533C103.128 55.1533 89.9201 68.3609 89.9201 84.6533C89.9201 100.946 103.128 114.153 119.42 114.153Z" fill="url(#paint15_radial_3875_3018)"/>
<path opacity="0.6" d="M130.768 82.6238L131.097 83.1249C134.81 88.7771 133.981 96.1794 129.104 100.922C126.234 103.712 122.474 105.107 118.713 105.107C118.713 105.107 118.713 105.107 130.768 82.6238Z" fill="#00A3FF"/>
<path opacity="0.2" d="M118.712 89.4571L130.766 82.6238C118.712 105.107 118.712 105.107 118.712 105.107C118.712 100.211 118.712 94.5995 118.712 89.4571Z" fill="#00A3FF"/>
<path d="M106.646 82.6238L106.316 83.1249C102.604 88.7771 103.433 96.1794 108.31 100.922C111.179 103.712 114.939 105.107 118.7 105.107C118.7 105.107 118.7 105.107 106.646 82.6238Z" fill="#00A3FF"/>
<path opacity="0.6" d="M118.697 89.4571L106.642 82.6238C118.697 105.107 118.697 105.107 118.697 105.107C118.697 100.211 118.697 94.5995 118.697 89.4571Z" fill="#00A3FF"/>
<path opacity="0.2" d="M118.717 74.1917V85.9772L129.1 80.0883L118.717 74.1917Z" fill="#00A3FF"/>
<path opacity="0.6" d="M118.713 74.1917L108.322 80.0881L118.713 85.9772V74.1917Z" fill="#00A3FF"/>
<path d="M118.713 64.28L108.322 80.092L118.713 74.1789V64.28Z" fill="#00A3FF"/>
<path opacity="0.6" d="M118.717 74.1773L129.108 80.0905L118.717 64.2708V74.1773Z" fill="#00A3FF"/>
<path fill-rule="evenodd" clip-rule="evenodd" d="M105.637 63.9015C103.429 62.1259 99.2453 63.6684 96.3045 67.3416C93.3637 71.0149 92.7644 75.4316 94.9728 77.1961C97.1812 78.9716 101.365 77.4291 104.306 73.7559C107.246 70.0827 107.846 65.6659 105.637 63.9015Z" fill="url(#paint16_radial_3875_3018)"/>
</g>
</g>
<g style="mix-blend-mode:multiply" opacity="0.4">
<path d="M118.57 60.4289C120.735 60.2283 121.904 56.5025 121.904 56.5025C121.904 56.5025 122.945 57.8781 124.353 58.3165C122.615 56.0595 121.936 52.9539 122.023 50.4824C121.423 50.5104 120.547 50.5151 119.57 50.5151C119.079 50.7109 118.58 50.8881 118.061 50.9767C117.204 51.1213 116.387 51.415 115.525 51.5316C115.296 51.5596 113.567 51.7508 113.021 51.6482C113.021 51.858 113.021 52.0679 113.008 52.2731C113.278 54.045 112.811 55.8683 112.1 57.5284C112.003 57.7522 111.852 57.9761 111.659 58.1999C112.783 57.6123 113.838 56.717 114.333 56.0082C114.333 56.0082 115.878 60.6807 118.561 60.4335L118.57 60.4289Z" fill="#5E4D98"/>
</g>
<path d="M111.288 48.3602C111.081 49.5447 110.811 51.2374 110.545 53.2845C109.944 57.901 110.095 58.3067 110.453 58.4652C111.026 58.7263 112.026 57.6585 112.842 56.8238C113.915 55.728 114.383 55.0098 114.704 54.357C114.736 54.9585 115.103 56.3435 115.511 57.1968C115.809 57.8217 116.612 59.1787 117.497 59.2813C118.763 59.4258 120.359 56.9963 121.409 53.2845C121.574 54.0632 121.954 55.3316 122.899 56.5673C122.991 56.6886 124.646 58.6051 125.449 58.2227C125.962 57.9802 125.949 57.0756 125.573 54.1052C125.339 52.2539 124.999 49.8291 124.518 46.9706C123.326 46.4857 120.822 45.6603 117.625 46.024C114.553 46.3691 112.356 47.6421 111.292 48.3602H111.288Z" fill="url(#paint17_linear_3875_3018)"/>
<path d="M117.621 46.024C114.549 46.3691 112.352 47.6421 111.288 48.3602C111.935 48.8452 114.365 50.5519 117.809 50.3187C121.707 50.0529 124.046 47.5022 124.514 46.9706C123.321 46.4857 120.817 45.6603 117.621 46.024Z" fill="url(#paint18_linear_3875_3018)"/>
<path d="M118.066 47.9925L117.749 47.6707C117.016 46.9293 115.732 45.3392 115.351 43.0123C114.723 39.1839 117.02 36.3021 117.488 35.7658L117.717 35.5L117.992 35.7145C118.699 36.2648 119.263 36.9176 119.68 37.6544C122.078 41.9304 118.469 47.3863 118.318 47.6148L118.066 47.9925ZM117.818 36.5445C117.135 37.4259 115.58 39.8274 116.085 42.8864C116.383 44.6957 117.277 46.0153 117.951 46.7847C118.272 46.2392 118.836 45.19 119.249 43.9076C119.996 41.59 119.923 39.6129 119.033 38.0274C118.726 37.4772 118.318 36.9782 117.818 36.5445Z" fill="url(#paint19_linear_3875_3018)"/>
<path d="M112.655 49.0463C113.453 49.3913 114.264 49.6665 115.099 49.839C115.929 50.0162 116.782 50.0955 117.626 50.0628L117.942 50.0488L118.259 50.0209C118.469 50.0069 118.68 49.9696 118.891 49.9416C119.309 49.8716 119.726 49.7784 120.139 49.6618C120.96 49.424 121.758 49.0929 122.514 48.6685C122.56 48.6452 122.615 48.6592 122.643 48.7059C122.666 48.7478 122.652 48.7991 122.615 48.8271C121.193 49.8856 119.437 50.5151 117.649 50.5898C116.754 50.6364 115.856 50.5338 114.989 50.3053C114.127 50.0721 113.297 49.7084 112.563 49.2095C112.522 49.1815 112.508 49.1209 112.535 49.0789C112.563 49.0416 112.609 49.0276 112.65 49.0463H112.655Z" fill="#EDF0FF"/>
<defs>
<radialGradient id="paint0_radial_3875_3018" cx="0" cy="0" r="1" gradientTransform="matrix(60.3627 -58.8824 73.1103 17.1483 144.021 40.4412)" gradientUnits="userSpaceOnUse">
<stop stop-color="white" stop-opacity="0.2"/>
<stop offset="1" stop-color="white" stop-opacity="0.02"/>
</radialGradient>
<radialGradient id="paint1_radial_3875_3018" cx="0" cy="0" r="1" gradientTransform="matrix(25 -98.6471 -128.869 -42.9711 106.293 34.7647)" gradientUnits="userSpaceOnUse">
<stop stop-color="white" stop-opacity="0.2"/>
<stop offset="1" stop-color="white" stop-opacity="0.02"/>
</radialGradient>
<radialGradient id="paint2_radial_3875_3018" cx="0" cy="0" r="1" gradientUnits="userSpaceOnUse" gradientTransform="translate(174.792 14.6328) rotate(125.605) scale(21.9731 21.9731)">
<stop stop-color="#00A3FF"/>
<stop offset="0.5" stop-color="#00A3FF" stop-opacity="0.7"/>
<stop offset="1" stop-color="#2E61FD" stop-opacity="0"/>
</radialGradient>
<radialGradient id="paint3_radial_3875_3018" cx="0" cy="0" r="1" gradientTransform="matrix(0.428801 4.12014 -3.68644 0.390397 171.937 21.2965)" gradientUnits="userSpaceOnUse">
<stop stop-color="white"/>
<stop offset="1" stop-color="white" stop-opacity="0"/>
</radialGradient>
<radialGradient id="paint4_radial_3875_3018" cx="0" cy="0" r="1" gradientUnits="userSpaceOnUse" gradientTransform="translate(41.7924 14.6328) rotate(125.605) scale(21.9731 21.9731)">
<stop stop-color="#00A3FF"/>
<stop offset="0.5" stop-color="#00A3FF" stop-opacity="0.7"/>
<stop offset="1" stop-color="#2E61FD" stop-opacity="0"/>
</radialGradient>
<radialGradient id="paint5_radial_3875_3018" cx="0" cy="0" r="1" gradientTransform="matrix(0.428801 4.12014 -3.68644 0.390397 38.9369 21.2965)" gradientUnits="userSpaceOnUse">
<stop stop-color="white"/>
<stop offset="1" stop-color="white" stop-opacity="0"/>
</radialGradient>
<radialGradient id="paint6_radial_3875_3018" cx="0" cy="0" r="1" gradientUnits="userSpaceOnUse" gradientTransform="translate(108.792 3.63375) rotate(125.605) scale(21.9731 21.9731)">
<stop stop-color="#00A3FF"/>
<stop offset="0.5" stop-color="#00A3FF" stop-opacity="0.7"/>
<stop offset="1" stop-color="#2E61FD" stop-opacity="0"/>
</radialGradient>
<radialGradient id="paint7_radial_3875_3018" cx="0" cy="0" r="1" gradientTransform="matrix(0.428801 4.12068 -3.68644 0.390448 105.937 10.2976)" gradientUnits="userSpaceOnUse">
<stop stop-color="white"/>
<stop offset="1" stop-color="white" stop-opacity="0"/>
</radialGradient>
<radialGradient id="paint8_radial_3875_3018" cx="0" cy="0" r="1" gradientTransform="matrix(10.2 9 -9.63136 10.9219 82.0933 34.9998)" gradientUnits="userSpaceOnUse">
<stop stop-color="white"/>
<stop offset="0.5" stop-color="#F8A9AB" stop-opacity="0.6"/>
<stop offset="1" stop-color="white" stop-opacity="0"/>
</radialGradient>
<radialGradient id="paint9_radial_3875_3018" cx="0" cy="0" r="1" gradientTransform="matrix(0.428857 4.12068 -3.68692 0.390448 81.9367 34.2978)" gradientUnits="userSpaceOnUse">
<stop stop-color="white"/>
<stop offset="1" stop-color="white" stop-opacity="0"/>
</radialGradient>
<radialGradient id="paint10_radial_3875_3018" cx="0" cy="0" r="1" gradientTransform="matrix(10.2 9 -9.63136 10.9219 187.093 13.9998)" gradientUnits="userSpaceOnUse">
<stop stop-color="#FFB6B7"/>
<stop offset="0.5" stop-color="#E23E3F"/>
<stop offset="1" stop-color="#F0A3A4" stop-opacity="0"/>
</radialGradient>
<radialGradient id="paint11_radial_3875_3018" cx="0" cy="0" r="1" gradientTransform="matrix(0.428857 4.12068 -3.68692 0.390448 186.937 13.2978)" gradientUnits="userSpaceOnUse">
<stop stop-color="white"/>
<stop offset="1" stop-color="white" stop-opacity="0"/>
</radialGradient>
<radialGradient id="paint12_radial_3875_3018" cx="0" cy="0" r="1" gradientTransform="matrix(10.2 9 -9.63136 10.9219 144.093 30.9998)" gradientUnits="userSpaceOnUse">
<stop stop-color="#FFB6B7"/>
<stop offset="0.5" stop-color="#E23E3F"/>
<stop offset="1" stop-color="#F0A3A4" stop-opacity="0"/>
</radialGradient>
<radialGradient id="paint13_radial_3875_3018" cx="0" cy="0" r="1" gradientTransform="matrix(0.428857 4.12068 -3.68692 0.390448 143.937 30.2978)" gradientUnits="userSpaceOnUse">
<stop stop-color="white"/>
<stop offset="1" stop-color="white" stop-opacity="0"/>
</radialGradient>
<radialGradient id="paint14_radial_3875_3018" cx="0" cy="0" r="1" gradientUnits="userSpaceOnUse" gradientTransform="translate(102.793 45.5) rotate(54.4207) scale(79.9203 79.9203)">
<stop stop-color="#E8F4FF"/>
<stop offset="0.49738" stop-color="#A7DFFF"/>
<stop offset="1" stop-color="#ABB3FF" stop-opacity="0"/>
</radialGradient>
<radialGradient id="paint15_radial_3875_3018" cx="0" cy="0" r="1" gradientUnits="userSpaceOnUse" gradientTransform="translate(119.42 84.6533) rotate(49.0882) scale(27.3705)">
<stop stop-color="white" stop-opacity="0.7"/>
<stop offset="1" stop-color="white" stop-opacity="0"/>
</radialGradient>
<radialGradient id="paint16_radial_3875_3018" cx="0" cy="0" r="1" gradientUnits="userSpaceOnUse" gradientTransform="translate(98.9461 64.9888) rotate(84.0068) scale(13.0156 11.7473)">
<stop stop-color="white"/>
<stop offset="1" stop-color="white" stop-opacity="0"/>
</radialGradient>
<linearGradient id="paint17_linear_3875_3018" x1="111.421" y1="56.9171" x2="125.326" y2="49.8049" gradientUnits="userSpaceOnUse">
<stop offset="0.1" stop-color="#C9C9C9"/>
<stop offset="1" stop-color="#767484"/>
</linearGradient>
<linearGradient id="paint18_linear_3875_3018" x1="111.063" y1="51.2013" x2="123.33" y2="29.0556" gradientUnits="userSpaceOnUse">
<stop offset="0.1" stop-color="#C9C9C9"/>
<stop offset="1" stop-color="#767484"/>
</linearGradient>
<linearGradient id="paint19_linear_3875_3018" x1="115.681" y1="48.431" x2="124.619" y2="46.4585" gradientUnits="userSpaceOnUse">
<stop offset="0.1" stop-color="#C9C9C9"/>
<stop offset="1" stop-color="#767484"/>
</linearGradient>
<clipPath id="clip0_3875_3018">
<rect width="64.2535" height="79.3348" fill="white" transform="translate(87.2933 38.3555)"/>
</clipPath>
</defs>
</svg>
