<svg width="297" height="125" viewBox="0 0 297 125" fill="none" xmlns="http://www.w3.org/2000/svg">
<path d="M204.595 99.8886C207.858 103.8 213.668 104.326 217.572 101.064C221.475 97.8015 221.994 91.9866 218.731 88.0756C215.467 84.1646 209.657 83.6386 205.754 86.9007C201.85 90.1627 201.331 95.9776 204.595 99.8886Z" fill="url(#paint0_radial_3875_2047)"/>
<path fill-rule="evenodd" clip-rule="evenodd" d="M217.39 89.9381C217.847 88.7715 216.652 87.1961 214.725 86.4236C212.799 85.6511 210.865 85.9681 210.413 87.1333C209.956 88.2999 211.15 89.8753 213.077 90.6478C215.004 91.4203 216.937 91.1033 217.39 89.9381Z" fill="url(#paint1_radial_3875_2047)"/>
<g style="mix-blend-mode:multiply" opacity="0.4">
<path d="M218.153 91.0324C218.488 91.5976 219.627 91.4594 219.627 91.4594C219.627 91.4594 219.398 91.9117 219.465 92.349C219.837 91.5988 220.571 91.0331 221.237 90.7538C221.152 90.5935 221.037 90.3555 220.91 90.0893C220.794 89.9796 220.682 89.8652 220.591 89.7348C220.441 89.5189 220.257 89.3325 220.114 89.1119C220.077 89.0529 219.801 88.6052 219.758 88.444C219.702 88.4697 219.647 88.4954 219.59 88.5168C219.156 88.8078 218.612 88.9039 218.08 88.9138C218.008 88.915 217.929 88.9012 217.845 88.8761C218.147 89.1102 218.521 89.2878 218.773 89.3359C218.773 89.3359 217.736 90.3298 218.151 91.0305L218.153 91.0324Z" fill="#4D7398"/>
</g>
<path d="M220.416 87.5556C220.075 87.6447 219.591 87.7786 219.014 87.9572C217.712 88.3597 217.624 88.4508 217.628 88.5677C217.634 88.7561 218.047 88.8977 218.375 89.0178C218.805 89.176 219.056 89.2154 219.271 89.2229C219.116 89.3054 218.796 89.5754 218.623 89.7913C218.496 89.9493 218.241 90.3346 218.329 90.5885C218.455 90.9513 219.307 91.0884 220.428 90.9194C220.243 91.0599 219.956 91.3193 219.752 91.7285C219.731 91.7684 219.439 92.4549 219.645 92.6268C219.776 92.7371 220.014 92.6224 220.752 92.1554C221.213 91.8645 221.812 91.4745 222.507 90.9925C222.48 90.6079 222.373 89.824 221.861 88.9971C221.369 88.2016 220.746 87.7589 220.417 87.5569L220.416 87.5556Z" fill="url(#paint2_linear_3875_2047)"/>
<path d="M221.874 88.9808C221.387 88.1905 220.77 87.7506 220.444 87.5499C220.4 87.7842 220.266 88.6506 220.771 89.5552C221.343 90.5788 222.314 90.9015 222.514 90.9634C222.487 90.5813 222.381 89.8024 221.874 88.9808Z" fill="url(#paint3_linear_3875_2047)"/>
<path d="M221.428 89.3254L221.473 89.1983C221.575 88.9042 221.831 88.3533 222.403 87.9599C223.344 87.3121 224.417 87.5879 224.621 87.6503L224.723 87.6806L224.701 87.783C224.647 88.0458 224.546 88.2822 224.404 88.4885C223.576 89.6795 221.643 89.3614 221.562 89.3481L221.428 89.3254ZM224.456 87.8379C224.131 87.7589 223.285 87.6282 222.533 88.1465C222.089 88.4529 221.853 88.8629 221.736 89.1441C221.924 89.1649 222.279 89.1902 222.676 89.145C223.393 89.0636 223.912 88.7983 224.22 88.3566C224.326 88.2037 224.406 88.0294 224.456 87.8379Z" fill="url(#paint4_linear_3875_2047)"/>
<path d="M220.434 88.0143C220.446 88.2719 220.478 88.5248 220.54 88.7714C220.6 89.0173 220.689 89.2575 220.805 89.4816L220.85 89.5654L220.898 89.6475C220.928 89.7028 220.965 89.7553 220.999 89.8089C221.071 89.9132 221.149 90.0147 221.232 90.1121C221.4 90.305 221.588 90.4804 221.796 90.6333C221.808 90.6429 221.811 90.6595 221.803 90.6726C221.795 90.6839 221.78 90.6864 221.768 90.6799C221.309 90.4244 220.92 90.0262 220.671 89.5518C220.544 89.3158 220.456 89.0604 220.404 88.7983C220.355 88.5369 220.343 88.2684 220.379 88.0093C220.381 87.9948 220.395 87.9837 220.41 87.986C220.423 87.9889 220.433 87.9996 220.433 88.013L220.434 88.0143Z" fill="#EDF0FF"/>
<path d="M296.184 143.06C284.684 84.5605 25.6841 79.0603 -50.3159 78.5603V196.06C89.5174 205.727 312.174 224.4 296.184 143.06Z" fill="white"/>
<path d="M201.199 93.3344C196.902 92.2274 192.425 94.89 191.182 99.2922L206.732 103.309C207.967 98.9039 205.496 94.4414 201.203 93.3258L201.199 93.3344Z" fill="white"/>
<path d="M218.537 98.697C214.595 97.6768 210.475 100.127 209.334 104.177L223.624 107.868C224.762 103.826 222.488 99.7205 218.537 98.697Z" fill="white"/>
<path d="M210.543 92.8007C204.705 91.2893 198.611 94.9219 196.926 100.908L218.068 106.371C219.753 100.385 216.381 94.3121 210.543 92.8007Z" fill="white"/>
<path d="M200.799 94.8568C201.222 94.9711 201.623 95.1169 202.011 95.2973C204.425 93.9505 207.3 93.4836 210.12 94.228C213.254 95.044 215.668 97.1734 216.999 99.8843C217.356 99.9224 217.713 99.9812 218.069 100.069C221.547 100.979 223.734 104.262 223.458 107.792L223.6 107.827C224.726 103.786 222.432 99.6691 218.468 98.631C218.112 98.543 217.754 98.4842 217.398 98.4461C216.067 95.7352 213.653 93.6058 210.519 92.7898C207.695 92.0541 204.82 92.521 202.409 93.8591C202.019 93.6874 201.621 93.5329 201.197 93.4186C196.886 92.2958 192.407 94.9448 191.177 99.3461L191.311 99.3781C193.008 95.8392 196.969 93.8506 200.799 94.8568Z" fill="#CFEBFA"/>
<path d="M111.663 15.9884C111.663 15.9884 105.729 30.9978 83.9632 29.149L81.944 26.0725C81.944 26.0725 99.3729 25.9062 102.881 13.8015L111.693 16.0218L111.663 15.9884Z" fill="#D54C3F"/>
<path d="M111.624 16.0236C111.624 16.0236 93.6913 14.7827 85.1245 27.7745L80.3905 26.9471C80.3905 26.9471 91.2687 7.55929 103.168 6.89706C103.168 6.89706 109.588 9.52376 111.624 16.0236Z" fill="#FC6C57"/>
<path d="M59.8524 6.98391C59.8524 6.98391 60.2151 23.02 81.2821 28.5904L84.2507 26.3895C84.2507 26.3895 67.966 20.3872 68.8649 7.87992L59.8511 7.01621L59.8524 6.98391Z" fill="#D54C3F"/>
<path d="M59.8463 7.01305C59.8463 7.01305 77.0907 11.8783 80.5934 26.9011L85.3201 27.727C85.3201 27.727 81.8422 5.89394 70.945 1.29193C70.945 1.29193 63.9982 1.62323 59.8463 7.01305Z" fill="#FC6C57"/>
<path d="M83.9551 21.3659C83.9551 21.3659 81.0772 25.4892 80.7024 26.8935C80.7024 26.8935 80.5898 25.6986 80.1992 25.0742L83.9858 21.3991L83.9551 21.3659Z" fill="#E04E3F"/>
<path d="M80.1109 40.2858L118.593 47.0046L109.163 100.185L70.6816 93.4664L80.1109 40.2858Z" fill="#0E8CD3"/>
<path d="M41.8791 33.5679L80.1753 40.2544L70.7459 93.435L32.4497 86.7485L41.8791 33.5679Z" fill="#00A3FF"/>
<path d="M80.1801 40.3418L118.556 47.0688L117.954 50.4765L79.5783 43.7495L80.1801 40.3418Z" fill="#0B70A9"/>
<path d="M41.8315 33.5677L80.207 40.2947L79.6052 43.7023L41.2297 36.9753L41.8315 33.5677Z" fill="#0F8DD4"/>
<path d="M93.9894 42.7313L104.84 44.6299L95.4388 97.7655L84.5886 95.8669L93.9894 42.7313Z" fill="#D54C3F"/>
<path d="M55.5727 35.9544L66.4229 37.853L57.0221 90.9886L46.1719 89.09L55.5727 35.9544Z" fill="#FC6C57"/>
<path d="M93.9347 42.6972L104.836 44.6025L104.234 47.9989L93.3332 46.0935L93.9347 42.6972Z" fill="#B63F34"/>
<path d="M55.5529 35.9813L66.4541 37.8867L65.8525 41.2831L54.9513 39.3777L55.5529 35.9813Z" fill="#E75740"/>
<path d="M82.7165 26.116L123.917 33.3154L121.319 47.975L80.1193 40.7757L82.7165 26.116Z" fill="#0E8CD3"/>
<path d="M41.5111 18.8487L82.7112 26.0481L80.114 40.7077L38.914 33.5083L41.5111 18.8487Z" fill="#00A3FF"/>
<path d="M97.8884 28.785L108.772 30.6853L106.179 45.3105L95.2952 43.4102L97.8884 28.785Z" fill="#D54C3F"/>
<path d="M56.6513 21.5126L67.5352 23.4128L64.9419 38.038L54.058 36.1378L56.6513 21.5126Z" fill="#FC6C57"/>
<path d="M138.092 83.1763C150.805 83.5927 160.706 94.3269 160.201 107.145L114.187 105.638C114.691 92.8198 125.411 82.761 138.124 83.1774L138.092 83.1763Z" fill="white"/>
<path d="M86.4351 83.1899C98.123 83.5727 107.193 93.4393 106.73 105.192L64.4299 103.807C64.8939 92.0215 74.7472 82.8071 86.403 83.1888L86.4351 83.1899Z" fill="white"/>
<path d="M113.19 73.9348C130.482 74.5012 143.92 89.0692 143.233 106.505L80.6631 104.455C81.3496 87.0199 95.8985 73.3685 113.19 73.9348Z" fill="white"/>
<path d="M137.891 87.3306C136.641 87.2878 135.417 87.3751 134.192 87.5268C128.783 81.9818 121.34 78.4336 113.004 78.1481C103.771 77.8318 95.3141 81.6104 89.3349 87.7986C88.315 87.6022 87.2927 87.4704 86.2667 87.4352C76.0073 87.0838 67.1702 94.1427 64.8799 103.815L64.4631 103.801C64.9063 92.0311 74.7545 82.8435 86.4246 83.2432C87.4826 83.2794 88.5049 83.4113 89.4927 83.6066C95.4732 77.3862 103.897 73.6387 113.162 73.956C121.498 74.2415 128.941 77.7898 134.35 83.3349C135.543 83.182 136.798 83.0958 138.049 83.1387C150.777 83.5746 160.71 94.3114 160.228 107.113L159.843 107.1C158.294 96.2305 149.208 87.7182 137.923 87.3317L137.891 87.3306Z" fill="#CFEBFA"/>
<path d="M63.0299 73.1142C77.785 73.938 88.9531 86.7298 87.9673 101.677L34.5589 98.6952C35.5447 83.7478 48.312 72.2924 63.0671 73.1163L63.0299 73.1142Z" fill="white"/>
<path d="M2.95089 71.649C16.5167 72.4064 26.7459 84.1634 25.842 97.8685L-23.2553 95.1272C-22.3489 81.3845 -10.615 70.8915 2.91368 71.6469L2.95089 71.649Z" fill="white"/>
<path d="M34.3423 61.6701C54.4123 62.7907 69.5689 80.1511 68.228 100.483L-4.39562 96.4279C-3.05469 76.0963 14.2723 60.5495 34.3423 61.6701Z" fill="white"/>
<path d="M62.6776 77.9516C61.2253 77.8672 59.8008 77.9354 58.3714 78.0787C52.2503 71.4619 43.7051 67.1183 34.0233 66.5559C23.2988 65.9329 13.354 70.1077 6.21668 77.1614C5.03698 76.9042 3.85254 76.7223 2.66093 76.6531C-9.25519 75.9609 -19.7409 83.9516 -22.6946 95.171L-23.1787 95.1428C-22.3092 81.4262 -10.5839 70.9803 2.97064 71.7677C4.19949 71.839 5.38392 72.0211 6.52638 72.276C13.666 65.1848 23.5713 61.0453 34.333 61.6704C44.0149 62.2328 52.56 66.5765 58.6811 73.1933C60.0732 73.0479 61.535 72.9819 62.9873 73.0662C77.7707 73.925 88.9942 86.7222 88.0484 101.641L87.6016 101.616C86.1282 88.8943 75.8226 78.7152 62.7149 77.9538L62.6776 77.9516Z" fill="#CFEBFA"/>
<defs>
<radialGradient id="paint0_radial_3875_2047" cx="0" cy="0" r="1" gradientTransform="matrix(-5.69731 19.6006 -20.9712 -6.12282 214.009 88.3997)" gradientUnits="userSpaceOnUse">
<stop stop-color="#FFB6B7"/>
<stop offset="0.5" stop-color="#E23E3F"/>
<stop offset="1" stop-color="#F0A3A4" stop-opacity="0"/>
</radialGradient>
<radialGradient id="paint1_radial_3875_2047" cx="0" cy="0" r="1" gradientTransform="matrix(-5.25862 2.25091 -2.04174 -4.79796 216.059 87.24)" gradientUnits="userSpaceOnUse">
<stop stop-color="white"/>
<stop offset="1" stop-color="white" stop-opacity="0"/>
</radialGradient>
<linearGradient id="paint2_linear_3875_2047" x1="218.165" y1="88.6416" x2="221.918" y2="91.4845" gradientUnits="userSpaceOnUse">
<stop offset="0.1" stop-color="#C9C9C9"/>
<stop offset="1" stop-color="#767484"/>
</linearGradient>
<linearGradient id="paint3_linear_3875_2047" x1="219.67" y1="87.8352" x2="227.076" y2="88.1967" gradientUnits="userSpaceOnUse">
<stop offset="0.1" stop-color="#C9C9C9"/>
<stop offset="1" stop-color="#767484"/>
</linearGradient>
<linearGradient id="paint4_linear_3875_2047" x1="220.998" y1="88.7227" x2="222.71" y2="90.9319" gradientUnits="userSpaceOnUse">
<stop offset="0.1" stop-color="#C9C9C9"/>
<stop offset="1" stop-color="#767484"/>
</linearGradient>
</defs>
</svg>
