<svg width="32" height="32" viewBox="0 0 32 32" fill="none" xmlns="http://www.w3.org/2000/svg">
<g clip-path="url(#clip0_5718_24419)">
<path d="M22.8247 9.48604V9.47039C22.7152 9.18873 22.324 9.18873 22.2145 9.47039L20.3211 14.6655C20.2741 14.8063 20.2741 14.9628 20.3211 15.1193L25.3722 28.9692C24.9007 29.3104 24.4099 29.6267 23.9016 29.9159L19.6326 18.2019C19.523 17.9202 19.1318 17.9202 19.0223 18.2019L17.1289 23.397C17.082 23.5378 17.082 23.6943 17.1289 23.8508L19.9211 31.516C18.6665 31.8321 17.353 32 16.0001 32C14.7364 32 13.5069 31.8535 12.3277 31.5764L21.5886 6.16869C21.6668 5.94962 21.5103 5.73055 21.2912 5.73055V5.7462H17.6453C17.3793 5.7462 17.1289 5.91833 17.035 6.16869L8.3234 30.0415C7.81219 29.7616 7.31803 29.4544 6.8428 29.122L15.2199 6.16869C15.2981 5.94962 15.1416 5.73055 14.9226 5.73055L14.9069 5.7462H11.261C10.995 5.7462 10.7446 5.91833 10.6507 6.16869L3.44597 25.9203C1.28813 23.1935 0 19.7473 0 16.0001C0 7.16343 7.16343 0 16.0001 0C24.8367 0 32 7.16343 32 16.0001C32 19.6398 30.7848 22.9954 28.7377 25.6837L22.8247 9.48604Z" fill="#213147"/>
<path d="M23.9017 29.9159C22.668 30.6181 21.3318 31.1607 19.9212 31.5161L17.129 23.8508C17.082 23.6944 17.082 23.5379 17.129 23.3971L19.0223 18.202C19.1319 17.9203 19.5231 17.9203 19.6326 18.202L23.9017 29.9159Z" fill="#12AAFF"/>
<path d="M28.738 25.6836C27.784 26.9367 26.6492 28.0449 25.3725 28.9691L20.3213 15.1192C20.2744 14.9627 20.2744 14.8062 20.3213 14.6654L22.2147 9.47028C22.3243 9.18862 22.7155 9.18862 22.825 9.47028V9.48593L28.738 25.6836Z" fill="#12AAFF"/>
<path d="M15.22 6.16861L6.84288 29.122C5.56038 28.2253 4.41527 27.1455 3.44604 25.9203L10.6508 6.16861C10.7447 5.91824 10.995 5.74612 11.261 5.74612H14.907L14.9226 5.73047C15.1417 5.73047 15.2982 5.94954 15.22 6.16861Z" fill="white"/>
<path d="M21.5884 6.16861L12.3275 31.5763C10.9109 31.2438 9.56693 30.7229 8.32324 30.0414L17.0349 6.16861C17.1288 5.91824 17.3791 5.74612 17.6451 5.74612H21.2911V5.73047C21.5102 5.73047 21.6666 5.94954 21.5884 6.16861Z" fill="white"/>
</g>
<defs>
<clipPath id="clip0_5718_24419">
<rect width="32" height="32" rx="16" fill="white"/>
</clipPath>
</defs>
</svg>
