<svg width="32" height="32" viewBox="0 0 32 32" fill="none" xmlns="http://www.w3.org/2000/svg">
<g clip-path="url(#clip0_7274_13676)">
<path d="M32 0H0V32H32V0Z" fill="#F0B90B"/>
<path d="M10.8848 9.31454L15.9999 6.36203L21.1151 9.31454L19.2345 10.4053L15.9999 8.5435L12.7653 10.4053L10.8848 9.31454ZM21.1151 13.0381L19.2345 11.9474L15.9999 13.8091L12.7653 11.9474L10.8848 13.0381V15.2196L14.1193 17.0813V20.8049L15.9999 21.8956L17.8805 20.8049V17.0813L21.1151 15.2196V13.0381ZM21.1151 18.9431V16.7616L19.2345 17.8523V20.0338L21.1151 18.9431ZM22.4503 19.7142L19.2157 21.5759V23.7574L24.3309 20.8049V14.8998L22.4503 15.9906V19.7142ZM20.5698 11.1763L22.4503 12.267V14.4485L24.3309 13.3578V11.1763L22.4503 10.0856L20.5698 11.1763ZM14.1193 22.3658V24.5473L15.9999 25.638L17.8805 24.5473V22.3658L15.9999 23.4565L14.1193 22.3658ZM10.8848 18.9431L12.7653 20.0338V17.8523L10.8848 16.7616V18.9431ZM14.1193 11.1763L15.9999 12.267L17.8805 11.1763L15.9999 10.0856L14.1193 11.1763ZM9.54952 12.267L11.4301 11.1763L9.54952 10.0856L7.66895 11.1763V13.3578L9.54952 14.4485V12.267ZM9.54952 15.9906L7.66895 14.8998V20.8049L12.7841 23.7574V21.5759L9.54952 19.7142V15.9906Z" fill="white"/>
</g>
<defs>
<clipPath id="clip0_7274_13676">
<rect width="32" height="32" rx="16" fill="white"/>
</clipPath>
</defs>
</svg>
