<svg xmlns="http://www.w3.org/2000/svg" width="32" height="32" fill="none"><path fill="#fff" d="M16 32c8.837 0 16-7.163 16-16S24.837 0 16 0 0 7.163 0 16s7.163 16 16 16Z"/><path fill="#00CFFF" d="M32 16A16 16 0 1 0 .002 16 16 16 0 0 0 32 16Z"/><path fill="#000" d="M26.797 15.202a11.67 11.67 0 0 0-1.056-.713 2.542 2.542 0 0 1-.436-.343c-.273-.27-.727-.741-.877-1.031-.094-.179-.055-.52.018-.838.13-.559.033-1.146-.269-1.635l-.474-.77a5.141 5.141 0 0 1-.521-1.121 3.247 3.247 0 0 0-.832-1.334c-.77-.754-2.905-1.124-4.678-1.183a2.896 2.896 0 0 0-.335-.079c-.789-.135-1.63-.356-2.386-.211-1.123.21-2.255.56-3.103 1.425-.178.178-.436.258-.62.424-.365.33-.857.33-1.18.694-.19.212-.277.909-.774 1.174-.823.44-1.425.926-1.63 1.174-.151.187-.267.404-.415.595-.148.19-.857.525-1.068.732a1.496 1.496 0 0 0-.357 1.304c.013.055.022.1.029.135.082.303.301.85.251 1.1-.058.298-.824 2.514.89 3.103a.764.764 0 0 1 .546.729c.037.296.123.583.253.851.114.217.282.401.488.534.22.21.427.43.622.663.605 1.12.436 1.681 1.603 2.06.298.099.584.23.853.392.328.198.679.354 1.045.463l.047.016c.259-.623.519-1.213.78-1.77-2.09-2.138-1.54-4.54-1.34-5.182a.125.125 0 0 1 .031-.05.116.116 0 0 1 .11-.031c.019.004.037.013.052.026.438.385 1.772 1.769 1.615 4.275.461-.92.909-1.73 1.318-2.42a5.225 5.225 0 0 1-.03-5.383.117.117 0 0 1 .102-.057c.02 0 .04.005.058.015.018.01.033.024.043.042.308.455 1.142 1.959.625 4.096.376-.573.679-.997.878-1.263.535-3.562 3.228-4.73 3.935-4.978a.122.122 0 0 1 .059-.005.119.119 0 0 1 .1.13 6.187 6.187 0 0 1-3.638 5.028 25.01 25.01 0 0 0-1.083 1.546c1.194-.931 2.866-1.37 4.255-1.033a.121.121 0 0 1 .092.134.12.12 0 0 1-.022.055c-.4.534-1.988 2.315-4.987 1.904-.506.853-.97 1.715-1.38 2.542 1.292-.978 3.18-1.352 4.644-.86a.122.122 0 0 1 .082.145.127.127 0 0 1-.028.054c-.454.49-2.205 2.096-5.085 1.459-.271.57-.674 1.508-.87 1.972-.067.16-.13.32-.178.484-.126.378-.3.85-.504 1.32a.53.53 0 0 0 .13.6c.053.05.116.088.185.112 2.272.812 4.739.903 7.064.262a.533.533 0 0 0 .345-.307c.048-.114.097-.224.097-.224s1.004-2.331 1.152-3.349c.042-.32.142-.63.294-.915a.96.96 0 0 1 .787-.495c.766-.041 2.396-.148 2.989-.337.787-.25.447-1.685.404-1.84-.043-.155.38-.515.465-.723.085-.208-.212-.283-.335-.513-.123-.23.305-.397.365-.606.061-.208-.139-.438-.219-.593a1.29 1.29 0 0 1-.112-.356s.577-.422.881-.687c.305-.266.252-.487.25-.535"/></svg>
