<svg width="32" height="32" viewBox="0 0 32 32" fill="none" xmlns="http://www.w3.org/2000/svg">
<rect width="32" height="32" rx="16" fill="url(#paint0_linear_9459_12573)"/>
<g clip-path="url(#clip0_9459_12573)">
<path d="M25.6173 18.2242L25.5908 18.2521C25.5784 18.2649 25.5659 18.2776 25.5532 18.2903L18.2804 25.5513C17.0135 26.8162 14.9594 26.8162 13.6925 25.5513L11.6841 23.5463C11.5417 23.4047 11.5415 23.1744 11.6832 23.0322C11.7249 22.9904 11.7762 22.9593 11.8325 22.9417C13.9852 22.2772 15.7343 21.5101 17.0799 20.6405C20.2843 18.5695 23.1301 17.7641 25.6173 18.2242ZM24.0926 12.2512C26.7778 13.0973 26.4644 15.0727 26.5 15.8514C23.5593 14.3094 20.0217 14.8746 15.8869 17.5468C12.8051 19.5386 10.2236 20.3598 8.14241 20.0104C6.06123 19.661 5.59307 17.1193 5.5 16.4439C7.78685 17.6002 10.8515 16.9365 14.694 14.4532C18.2746 12.1391 21.4075 11.4051 24.0926 12.2512ZM18.2804 6.44866L20.1676 8.33248C20.3097 8.4743 20.3099 8.70458 20.1681 8.84673C20.1175 8.89745 20.053 8.93208 19.9828 8.94623C17.2509 9.49659 15.0661 10.301 13.4284 11.3595C10.6219 13.1733 8.23032 14.0163 6.25365 13.8886L6.25386 13.8881L13.6925 6.44866C14.9594 5.18378 17.0135 5.18378 18.2804 6.44866Z" fill="white"/>
</g>
<defs>
<linearGradient id="paint0_linear_9459_12573" x1="16" y1="-1.7896e-07" x2="15.6863" y2="53.9608" gradientUnits="userSpaceOnUse">
<stop stop-color="#3068EF"/>
<stop offset="1" stop-color="#1322AC"/>
</linearGradient>
<clipPath id="clip0_9459_12573">
<rect width="21" height="21" fill="white" transform="translate(5.5 5.5)"/>
</clipPath>
</defs>
</svg>
