<svg xmlns="http://www.w3.org/2000/svg" width="32" height="32" fill="none"><g clip-path="url(#a)"><path fill="#F3F1E6" d="M32 0H0v32h32V0Z"/><rect width="51" height="51" x="-9.5" y="-9.5" stroke="#000" stroke-opacity=".1" rx="25.5"/><path fill="url(#b)" fill-rule="evenodd" d="M4.45 16.275C4.45 9.742 9.742 4.45 16.272 4.45c6.529 0 11.82 5.292 11.82 11.825a11.844 11.844 0 0 1-2.86 7.723l-8.938-8.942-7.686 7.686-1.267 1.271a11.757 11.757 0 0 1-2.883-7.738H4.45Zm20.478 4.612.111-.214a9.809 9.809 0 0 0 1.038-4.39c0-5.403-4.395-9.8-9.798-9.8-5.403 0-9.805 4.39-9.805 9.792 0 1.53.363 3.053 1.045 4.412l.11.215 8.657-8.662 8.642 8.64v.007ZM16.271 28.1c2.943 0 5.633-1.079 7.708-2.853l-7.693-7.693-7.708 7.708a11.747 11.747 0 0 0 7.686 2.846l.008-.008Z" clip-rule="evenodd"/></g><defs><linearGradient id="b" x1="16.257" x2="16.294" y1="4.45" y2="28.1" gradientUnits="userSpaceOnUse"><stop stop-color="#169E00"/><stop offset=".49" stop-color="#00C537"/><stop offset="1" stop-color="#00B1C9"/></linearGradient><clipPath id="a"><rect width="32" height="32" fill="#fff" rx="16"/></clipPath></defs></svg>
