<svg viewBox="0 0 20 20" fill="none" xmlns="http://www.w3.org/2000/svg">
  <rect width="20" height="20" rx="10" fill="#0F36B7" />
  <path
    d="M15.0603 8.66443L12.969 9.628L12.8978 15.3058C12.8978 15.6379 12.637 16.131 12.4142 16.2249C14.3376 16.2249 14.9939 14.6091 15.0603 13.7937V8.66443Z"
    fill="white" />
  <path d="M12.969 7.73053L15.0603 8.66447L12.969 9.62809L10.8492 8.66447L12.969 7.73053Z"
    fill="white" />
  <path
    d="M10.8454 6.73004L8.88211 7.68363V12.8037C8.88211 13.4199 9.16258 14.2268 10.1776 14.2268C10.5916 14.2268 10.8454 14.0507 10.8454 13.7866V11.8061V6.73004Z"
    fill="white" />
  <path d="M8.88325 5.80426L10.8454 6.72928L8.88325 7.68368L6.89441 6.72928L8.88325 5.80426Z"
    fill="white" />
  <path
    d="M7.16862 6.0254L8.86826 4.70768L7.55126 6.40802L9.84272 6.67895L7.55126 6.94952L7.65478 7.09455L6.8945 6.73001V11.7541L6.62784 7.33213L5.625 7.95343L6.24522 6.94952L3.01331 6.67895L6.24522 6.40802L5.32288 5.10235L6.62784 6.0254L6.89805 3.37292L7.16862 6.0254Z"
    fill="white" />
</svg>
