<svg viewBox="0 0 20 20" fill="none" xmlns="http://www.w3.org/2000/svg">
  <g clip-path="url(#clip0_2130_32731)">
    <path
      d="M10 20C15.5228 20 20 15.5228 20 10C20 4.47715 15.5228 0 10 0C4.47715 0 0 4.47715 0 10C0 15.5228 4.47715 20 10 20Z"
      fill="black" />
    <path
      d="M7.41668 6.75417L6.93647 8.54272C6.85002 8.52605 6.76252 8.51772 6.66981 8.51772C6.53752 8.51772 6.40939 8.53542 6.28647 8.56772C6.07189 8.62501 5.87502 8.73022 5.71043 8.87084L4.4021 7.56251C4.57189 7.40313 4.75835 7.26355 4.95835 7.14272L5.05835 7.08438C5.29272 6.95522 5.54377 6.85313 5.80731 6.7823C6.08231 6.70938 6.37085 6.6698 6.66877 6.6698C6.92606 6.6698 7.17502 6.69897 7.41564 6.75313L7.41668 6.75417Z"
      fill="#00ACEB" />
    <path
      d="M16.575 9.25415C16.6313 9.49478 16.6594 9.74269 16.6594 9.99998C16.6594 10.2989 16.6198 10.5864 16.5469 10.8614C16.476 11.125 16.374 11.376 16.2448 11.6094L16.1854 11.7135C16.0646 11.9135 15.925 12.0989 15.7677 12.2687L14.4594 10.9604C14.599 10.7958 14.7042 10.6 14.7615 10.3833C14.7948 10.2614 14.8115 10.1323 14.8115 9.99998C14.8115 9.91144 14.8042 9.82603 14.7885 9.74165L16.575 9.25415Z"
      fill="#00BFF2" />
    <path
      d="M12.8344 11.3969L12.3531 13.1855C12.1312 13.1157 11.9187 13.025 11.7187 12.9146L11.6208 12.8584C11.3854 12.7177 11.1687 12.548 10.976 12.3552C10.976 12.3542 10.975 12.3542 10.975 12.3542L10.8781 12.2532C10.8031 12.1719 10.7323 12.0855 10.6656 11.998L11.9562 10.7094L12.2417 11.0073C12.2552 11.0219 12.2687 11.0365 12.2833 11.05C12.4365 11.2042 12.625 11.325 12.8354 11.399L12.8344 11.3969Z"
      fill="#009CDD" />
    <path
      d="M9.33648 8.00415L8.04585 9.29165H8.04481L7.76044 8.99582C7.74585 8.98124 7.73335 8.96665 7.71877 8.95311C7.5646 8.79895 7.37606 8.67811 7.16669 8.60415L7.6469 6.81561C7.86877 6.8854 8.08335 6.97603 8.28127 7.0854L8.37919 7.1427C8.6146 7.28332 8.83231 7.45311 9.02398 7.64582C9.02502 7.64582 9.02502 7.64686 9.02502 7.64686L9.12189 7.74686C9.19689 7.82915 9.26877 7.91561 9.33544 8.00415H9.33648Z"
      fill="#009CDD" />
    <path
      d="M14.2896 11.1281L15.5979 12.4375C15.4281 12.5969 15.2417 12.7364 15.0417 12.8573L14.9417 12.9156C14.7073 13.0448 14.4563 13.1469 14.1927 13.2177C13.9177 13.2906 13.6292 13.3302 13.3313 13.3302C13.074 13.3302 12.825 13.301 12.5844 13.2469L13.0656 11.4583C13.1521 11.475 13.2396 11.4833 13.3313 11.4833C13.4635 11.4833 13.5927 11.4656 13.7146 11.4333C13.9292 11.376 14.126 11.2708 14.2906 11.1292L14.2896 11.1281Z"
      fill="#00ACEB" />
    <path
      d="M7.48023 11.2416L8.78336 12.5739C8.65836 12.6781 8.52398 12.7719 8.3844 12.8562L8.27919 12.9156C8.04586 13.0458 7.79586 13.1469 7.53231 13.2177C7.25731 13.2906 6.96877 13.3302 6.66981 13.3302C6.37086 13.3302 6.08336 13.2906 5.80836 13.2177C5.54586 13.1469 5.29586 13.0458 5.06252 12.9167L4.95523 12.8542C4.7219 12.7146 4.50731 12.5458 4.31565 12.3552C4.12294 12.1625 3.95523 11.9479 3.81356 11.7135L3.75523 11.6104C3.64377 11.4125 3.55419 11.1989 3.48648 10.9771L5.27086 10.4885C5.34377 10.701 5.46565 10.8906 5.62086 11.0479C5.80211 11.2291 6.03023 11.3646 6.28544 11.4312C6.40836 11.4646 6.53648 11.4812 6.66877 11.4812C6.80106 11.4812 6.93023 11.4646 7.05315 11.4312C7.20627 11.3906 7.34898 11.326 7.47815 11.2416H7.48023Z"
      fill="#FFA726" />
    <path
      d="M4.23334 7.73126L5.54167 9.0396C5.40209 9.20418 5.29688 9.40001 5.23959 9.61668C5.20626 9.73855 5.18959 9.86772 5.18959 10C5.18959 10.0886 5.19688 10.174 5.21251 10.2583L3.42605 10.7458C3.3698 10.5052 3.34167 10.2563 3.34167 10C3.34167 9.70105 3.38126 9.41355 3.45522 9.13751C3.52605 8.87501 3.62709 8.62397 3.75626 8.39064L3.81563 8.28647C3.93647 8.08647 4.07605 7.90105 4.23334 7.73126Z"
      fill="#00BFF2" />
    <path
      d="M16.5135 9.02397L14.7292 9.51147C14.6552 9.29792 14.5344 9.1073 14.3781 8.95209C14.1969 8.77084 13.9688 8.63542 13.7135 8.56772C13.5906 8.53542 13.4625 8.51772 13.3302 8.51772C13.1979 8.51772 13.0688 8.53542 12.9469 8.56772C12.7938 8.60938 12.651 8.67397 12.5208 8.75834L11.2177 7.42605C11.3427 7.32188 11.4771 7.22813 11.6167 7.14376L11.7219 7.08334C11.9552 6.95417 12.2052 6.85313 12.4688 6.7823C12.7438 6.70938 13.0323 6.6698 13.3313 6.6698C13.6302 6.6698 13.9177 6.70938 14.1927 6.7823C14.4552 6.85313 14.7063 6.95417 14.9396 7.08334L15.0458 7.14584C15.2802 7.28542 15.4938 7.45417 15.6854 7.6448C15.8771 7.83542 16.0458 8.05209 16.1875 8.28647L16.2458 8.38751C16.3573 8.58855 16.4479 8.80001 16.5156 9.02293L16.5135 9.02397Z"
      fill="#FFA726" />
  </g>
  <defs>
    <clipPath id="clip0_2130_32731">
      <rect width="20" height="20" fill="white" />
    </clipPath>
  </defs>
</svg>
