<svg viewBox="0 0 25 25" fill="none" xmlns="http://www.w3.org/2000/svg">
  <path
    d="M12.2198 0.435165C18.7306 0.435165 24.0044 5.70901 24.0044 12.2198C24.0044 18.7244 18.7306 24.0044 12.2198 24.0044C5.70903 24.0044 0.435181 18.7244 0.435181 12.2198C0.435181 5.70901 5.70903 0.435165 12.2198 0.435165Z"
    fill="#111111" stroke="#111111" stroke-width="0.434068" />
  <path
    d="M12.2197 0.219788C5.59203 0.219788 0.219727 5.5921 0.219727 12.2198C0.219727 18.8475 5.59203 24.2198 12.2197 24.2198C18.8474 24.2198 24.2197 18.8475 24.2197 12.2198C24.2197 5.5921 18.8474 0.219788 12.2197 0.219788Z"
    fill="url(#paint0_radial_17573_53)" fill-opacity="0.7" />
  <path
    d="M12.2197 0.219788C5.59203 0.219788 0.219727 5.5921 0.219727 12.2198C0.219727 18.8475 5.59203 24.2198 12.2197 24.2198C18.8474 24.2198 24.2197 18.8475 24.2197 12.2198C24.2197 5.5921 18.8474 0.219788 12.2197 0.219788Z"
    stroke="url(#paint1_linear_17573_53)" stroke-width="0.439563" />
  <path fill-rule="evenodd" clip-rule="evenodd"
    d="M10.2997 2.34286C5.66584 3.23517 2.16431 7.31517 2.16431 12.2075C2.16431 17.0998 5.66584 21.1798 10.2997 22.0721V21.1306C6.17661 20.2506 3.08738 16.589 3.08738 12.2075C3.08738 7.82594 6.17661 4.1644 10.2997 3.2844V2.34286ZM14.1397 3.29056V2.34902C18.7674 3.24748 22.2566 7.32133 22.2566 12.2075C22.2566 17.0936 18.7674 21.1675 14.1397 22.0659V21.1244C18.2505 20.2382 21.3335 16.5829 21.3335 12.2075C21.3335 7.8321 18.2505 4.17671 14.1397 3.29056Z"
    fill="white" />
  <path
    d="M13.6412 11.8752C14.4105 12.0229 15.0012 12.3059 15.4259 12.7183C15.8505 13.1244 16.0597 13.6475 16.0597 14.2813V15.2844C16.0597 16.0475 15.7828 16.6629 15.2351 17.1306C14.6874 17.5921 13.9612 17.8198 13.0689 17.8198H12.7612V19.4136H11.7028V17.8198H11.3766C10.7859 17.8198 10.2689 17.6906 9.81356 17.4259C9.36433 17.1552 9.0074 16.7798 8.7551 16.2998C8.50894 15.8075 8.38586 15.2475 8.38586 14.6075H9.44433C9.44433 15.2536 9.62279 15.7829 9.97356 16.189C10.3366 16.5829 10.8166 16.7859 11.4012 16.7859H13.0382C13.6166 16.7859 14.0843 16.6506 14.4412 16.3798C14.792 16.0967 14.9705 15.7336 14.9705 15.2844V14.2813C14.9705 13.9244 14.8351 13.6229 14.5705 13.3706C14.312 13.1183 13.9612 12.9583 13.512 12.8844L10.8597 12.4167C10.1151 12.2813 9.53048 11.9983 9.11817 11.5736C8.70586 11.1429 8.49663 10.6075 8.49663 9.96133V9.11825C8.49663 8.35518 8.76125 7.7521 9.29048 7.30287C9.83202 6.84133 10.5459 6.61364 11.4259 6.61364H11.6905V5.01979H12.7489V6.61364H13.0874C13.9243 6.61364 14.5951 6.88441 15.1059 7.42594C15.6166 7.95518 15.8751 8.66287 15.8751 9.53671H14.8166C14.8166 8.96441 14.6566 8.50287 14.3428 8.15825C14.0289 7.81364 13.6105 7.64133 13.0874 7.64133H11.4197C10.8597 7.64133 10.4105 7.77671 10.0782 8.04748C9.74586 8.30594 9.57971 8.66287 9.57971 9.1121V9.95518C9.57971 10.3183 9.70279 10.6259 9.94894 10.8783C10.2074 11.1306 10.552 11.2967 10.9951 11.3767L13.6412 11.8752Z"
    fill="white" />
  <defs>
    <radialGradient id="paint0_radial_17573_53" cx="0" cy="0" r="1" gradientUnits="userSpaceOnUse"
      gradientTransform="translate(12.2433 3.72157) rotate(90) scale(25.3016 17.8098)">
      <stop offset="0.03125" stop-color="#3A3A3A" />
      <stop offset="1" stop-color="#1C1C1C" />
    </radialGradient>
    <linearGradient id="paint1_linear_17573_53" x1="12.2182" y1="-0.00175086" x2="12.2182"
      y2="24.4382" gradientUnits="userSpaceOnUse">
      <stop stop-color="white" />
      <stop offset="1" stop-color="#111111" />
    </linearGradient>
  </defs>
</svg>
