<svg width="24" height="24" viewBox="0 0 24 24" fill="none" xmlns="http://www.w3.org/2000/svg">
<path d="M12 0C18.6271 0 24 5.37288 24 12C24 18.6271 18.6269 24 12 24C5.37312 24 0 18.6286 0 12C0 5.37144 5.37216 0 12 0Z" fill="#53AE94"/>
<path d="M13.481 10.401V8.61592H17.5632V5.896H6.44733V8.61592H10.53V10.3996C7.21197 10.552 4.71716 11.2091 4.71716 11.9963C4.71716 12.7835 7.21317 13.4407 10.53 13.594V19.312H13.482V13.5935C16.794 13.4407 19.2838 12.784 19.2838 11.9975C19.2838 11.211 16.794 10.5544 13.482 10.4015L13.481 10.401ZM13.482 13.1092V13.1078C13.3987 13.1131 12.9708 13.1387 12.018 13.1387C11.2562 13.1387 10.7203 13.1171 10.5314 13.1073V13.1097C7.60005 12.9799 5.41196 12.4694 5.41196 11.8586C5.41196 11.2478 7.60029 10.738 10.5314 10.6079V12.6011C10.7234 12.6143 11.2725 12.6467 12.0305 12.6467C12.9408 12.6467 13.3985 12.6088 13.4825 12.6011V10.6079C16.4081 10.7382 18.5911 11.2492 18.5911 11.8578C18.5911 12.4665 16.4071 12.9777 13.4825 13.108" fill="white"/>
</svg>
