<svg viewBox="0 0 114 114" fill="none" xmlns="http://www.w3.org/2000/svg">
<g clip-path="url(#clip0_573_6373)">
<g opacity="0.2" filter="url(#filter0_f_573_6373)">
<path fill-rule="evenodd" clip-rule="evenodd" d="M85.3484 19.3628C89.0328 22.4426 91.0378 25.9786 91.3649 29.5562L101.908 35.6213C103.465 36.5176 104.202 37.7086 104.113 38.8814C104.118 38.8126 104.119 38.7437 104.119 38.6749C104.123 38.6207 104.131 38.5658 104.131 38.5105V79.1872C104.131 80.199 103.295 81.0003 102.462 81.4611L60.9954 105.35C58.7015 106.651 55.3735 106.657 53.0717 105.346L11.3328 81.4569C10.2267 80.8254 9.86859 80.0062 9.86816 79.1788V38.5C9.86815 38.5286 9.87314 38.5577 9.87449 38.5864C9.87422 38.5955 9.87465 38.6046 9.87449 38.6138C9.89451 37.5285 10.6182 36.449 12.0493 35.6213L22.6305 29.493C22.9735 25.9561 24.9566 22.4612 28.5817 19.4113C53.0717 19.4113 60.9954 19.4113 85.3484 19.3628Z" fill="#007AFF"/>
</g>
<path opacity="0.2" d="M12.0825 41.7287C9.14938 40.0405 9.1332 37.3055 12.0486 35.6192L51.5546 12.7477C54.4683 11.0597 59.2098 11.0597 62.1427 12.7477L101.907 35.6192C104.841 37.3072 104.857 40.0422 101.943 41.7287L62.4353 64.5985C59.5216 66.2865 54.7803 66.2865 51.8472 64.5985L12.0825 41.7287Z" fill="white" fill-opacity="0.45"/>
<path d="M12.0825 41.7287C9.14938 40.0405 9.1332 37.3055 12.0486 35.6192L51.5546 12.7477C54.4683 11.0597 59.2098 11.0597 62.1427 12.7477L101.907 35.6192C104.841 37.3072 104.857 40.0422 101.943 41.7287L62.4353 64.5985C59.5216 66.2865 54.7803 66.2865 51.8472 64.5985L12.0825 41.7287Z" fill="url(#paint0_radial_573_6373)" fill-opacity="0.5"/>
<path d="M91.4178 27.5435H22.5737V80.8744H91.4178V27.5435Z" fill="url(#paint1_radial_573_6373)"/>
<path opacity="0.3" d="M9.87449 38.584C9.84086 39.7188 10.5773 40.8616 12.083 41.7282L51.8473 64.5975C54.7803 66.2854 59.5211 66.2853 62.4348 64.5975L101.944 41.7282C103.401 40.8847 104.126 39.7783 104.119 38.6725C104.123 38.6181 104.131 38.5636 104.131 38.5081V79.1848C104.131 80.1969 103.295 80.9979 102.462 81.4587L60.9954 105.348C58.7014 106.648 55.3736 106.655 53.0717 105.344L11.3328 81.4545C10.2264 80.8229 9.86841 80.004 9.86817 79.1764V38.4976C9.86808 38.5264 9.87313 38.5551 9.87449 38.584Z" fill="white" fill-opacity="0.35"/>
<path d="M9.87449 38.584C9.84086 39.7188 10.5773 40.8616 12.083 41.7282L51.8473 64.5975C54.7803 66.2854 59.5211 66.2853 62.4348 64.5975L101.944 41.7282C103.401 40.8847 104.126 39.7783 104.119 38.6725C104.123 38.6181 104.131 38.5636 104.131 38.5081V79.1848C104.131 80.1969 103.295 80.9979 102.462 81.4587L60.9954 105.348C58.7014 106.648 55.3736 106.655 53.0717 105.344L11.3328 81.4545C10.2264 80.8229 9.86841 80.004 9.86817 79.1764V38.4976C9.86808 38.5264 9.87313 38.5551 9.87449 38.584Z" fill="url(#paint2_linear_573_6373)"/>
<path d="M32.6564 41.5967C46.0991 49.3571 67.8939 49.3571 81.3365 41.5967C94.7792 33.8362 94.7792 21.2541 81.3365 13.4937C67.8939 5.73323 46.0991 5.73323 32.6564 13.4937C19.2138 21.2541 19.2138 33.8362 32.6564 41.5967Z" fill="#5F7EDD"/>
<path d="M32.6818 41.5846C46.1567 49.3637 67.8378 49.3637 81.3127 41.5846C94.7876 33.8056 94.7876 21.2891 81.3127 13.5101C67.8378 5.73102 46.1567 5.73102 32.6818 13.5101C19.207 21.2891 19.207 33.8056 32.6818 41.5846Z" fill="url(#paint3_linear_573_6373)"/>
<path d="M59.9687 32.1645C63.5146 30.1174 62.6028 28.1873 58.8541 25.4384C56.22 23.4498 56.4226 22.631 57.8411 21.812C59.2597 20.9931 61.1845 21.0518 63.2107 22.2215C65.0343 23.2743 65.4397 24.2101 64.4264 25.3799C64.2239 25.6139 64.3253 25.9063 64.6292 26.0817L66.2501 27.0174C66.6554 27.2514 67.2633 27.2514 67.6684 27.0176L67.7698 26.959C69.5934 25.4382 69.492 23.3912 67.3645 21.9291L69.796 20.5254C70.2013 20.2914 70.2013 19.9404 69.7963 19.5895L68.2766 18.7122C67.8712 18.4782 67.2633 18.4782 66.6552 18.7122L64.3251 20.0574C60.8803 18.5367 56.9293 18.5953 54.3964 20.0575C51.053 21.9876 51.7623 23.9176 55.5107 26.6667C57.8411 28.5968 58.145 29.4741 56.5239 30.41C54.9028 31.3458 52.3699 31.1702 50.4451 30.059C47.8108 28.5383 48.0136 27.3684 49.2294 26.3156C49.5333 26.0234 49.4322 25.7308 49.1282 25.5554L47.4057 24.561C47.0007 24.3271 46.3928 24.3271 45.9874 24.5611L45.886 24.6196C43.7584 26.3156 43.5559 28.3043 46.3925 30.5269L43.961 31.9306C43.5559 32.1645 43.5559 32.5154 43.9609 32.8664L45.4806 33.7437C45.886 33.9777 46.4939 33.9777 47.1017 33.7438L49.5333 32.3401C53.0794 33.8022 57.2332 33.7437 59.9687 32.1645Z" fill="white"/>
<path d="M37.4736 31.4523C32.4077 25.2526 37.1694 17.8245 47.909 15.0171C53.684 13.4379 60.2693 13.4964 65.9428 15.0171C66.5507 15.1341 67.0572 15.0756 67.5639 14.783L68.9822 13.9643C69.3876 13.7303 69.489 13.4379 69.1848 13.1455C69.0834 13.0869 68.8808 12.97 68.6783 12.9699C56.0141 9.16813 40.5128 12.0341 33.9274 19.3452C30.0776 23.6733 30.0776 28.7034 33.9274 33.0315C34.1302 33.3825 34.7381 33.4995 35.2446 33.3239C35.4471 33.3241 35.5485 33.2655 35.7511 33.1486L37.1697 32.3297C37.4736 32.1542 37.5747 31.7449 37.4736 31.4523ZM79.823 19.4037C79.6202 19.0528 79.0123 18.9357 78.5059 19.1113C78.3031 19.1113 78.2019 19.1697 77.9991 19.2868L76.5808 20.1056C76.1755 20.3396 76.0743 20.7489 76.1755 21.0414C81.2413 27.2411 76.4797 34.6693 65.74 37.4767C59.9651 39.0559 53.3798 38.9974 47.7062 37.4767C47.0984 37.3596 46.5919 37.4182 46.0851 37.7107L44.6668 38.5295C44.2615 38.7635 44.1601 39.0559 44.4643 39.3483C44.5657 39.4068 44.7682 39.5238 44.9708 39.5239C57.635 43.3256 73.1363 40.4596 79.7216 33.1486C83.6729 28.7619 83.5715 23.6733 79.823 19.4037Z" fill="white"/>
</g>
<defs>
<filter id="filter0_f_573_6373" x="-5.32552" y="4.16911" width="124.651" height="117.352" filterUnits="userSpaceOnUse" color-interpolation-filters="sRGB">
<feFlood flood-opacity="0" result="BackgroundImageFix"/>
<feBlend mode="normal" in="SourceGraphic" in2="BackgroundImageFix" result="shape"/>
<feGaussianBlur stdDeviation="7.59684" result="effect1_foregroundBlur_573_6373"/>
</filter>
<radialGradient id="paint0_radial_573_6373" cx="0" cy="0" r="1" gradientTransform="matrix(-20.3523 56.2158 118.937 67.4635 56.9685 25.0623)" gradientUnits="userSpaceOnUse">
<stop stop-color="#2775CA" stop-opacity="0"/>
<stop offset="1" stop-color="#2775CA"/>
</radialGradient>
<radialGradient id="paint1_radial_573_6373" cx="0" cy="0" r="1" gradientUnits="userSpaceOnUse" gradientTransform="translate(56.9941 36.5686) rotate(90) scale(44.2692 69.4437)">
<stop stop-color="#2775CA"/>
<stop offset="0.664554" stop-color="#2775CA" stop-opacity="0.2"/>
<stop offset="1" stop-color="#2775CA" stop-opacity="0"/>
</radialGradient>
<linearGradient id="paint2_linear_573_6373" x1="-46.3714" y1="85.9006" x2="158.984" y2="85.9006" gradientUnits="userSpaceOnUse">
<stop/>
<stop offset="0.350972" stop-color="#2775CA"/>
<stop offset="0.619504" stop-color="#2775CA" stop-opacity="0.24"/>
<stop offset="0.917213" stop-color="#2775CA" stop-opacity="0.2"/>
</linearGradient>
<linearGradient id="paint3_linear_573_6373" x1="56.9973" y1="7.67578" x2="56.9973" y2="47.4189" gradientUnits="userSpaceOnUse">
<stop stop-color="#2775CA"/>
<stop offset="1" stop-color="#6CACF1"/>
</linearGradient>
<clipPath id="clip0_573_6373">
<rect width="114" height="114" fill="white"/>
</clipPath>
</defs>
</svg>
