<svg xmlns="http://www.w3.org/2000/svg" width="40" height="40" fill="none"><rect width="39" height="39" x=".5" y=".5" stroke="#000" stroke-opacity=".1" rx="19.5"/><g clip-path="url(#a)"><path fill="#121314" fill-rule="evenodd" d="M6.362 17.078c0-.056.046-.102.102-.102h7.959c.056 0 .102.046.102.102v3.056a.102.102 0 0 1-.102.102H6.464a.102.102 0 0 1-.102-.102v-3.056Zm7.142 2.088c0 .028-.022.051-.05.051h-6.02a.051.051 0 0 1-.051-.05v-1.121c0-.028.022-.051.05-.051h6.02c.029 0 .051.023.051.05v1.121Zm-6.223 2.292c.056 0 .102.046.102.102v.815a.102.102 0 0 1-.102.102h-.817a.102.102 0 0 1-.102-.102v-.815c0-.056.046-.102.102-.102h.817Zm18.875.102a.102.102 0 0 0-.102-.102h-.816a.102.102 0 0 0-.102.102v.815c0 .056.046.102.102.102h.816a.102.102 0 0 0 .102-.102v-.815Zm-10.305-.102a.102.102 0 0 0-.102.102v.815c0 .056.046.102.102.102h7.958a.102.102 0 0 0 .102-.102v-.815a.102.102 0 0 0-.102-.102h-7.958Zm9.285-4.38c0-.056.046-.102.102-.102h7.958c.056 0 .102.046.102.102v3.056a.102.102 0 0 1-.102.102h-7.958a.102.102 0 0 1-.102-.102v-3.056Zm7.09.917c.029 0 .052.023.052.05v1.121c0 .028-.023.051-.051.051h-6.02a.051.051 0 0 1-.05-.05v-1.121c0-.028.022-.051.05-.051h6.02Zm-16.477-.917c0-.056.046-.102.102-.102h7.958c.057 0 .102.046.102.102v3.056a.102.102 0 0 1-.102.102h-7.958a.102.102 0 0 1-.102-.102v-.815c0-.056.046-.102.102-.102h6.99a.05.05 0 0 0 .05-.05v-1.121a.05.05 0 0 0-.05-.051h-6.99a.102.102 0 0 1-.102-.102v-.815Z" clip-rule="evenodd"/><g filter="url(#b)"><path fill="#121314" fill-opacity=".5" fill-rule="evenodd" d="M6.362 16.146c0-.056.046-.102.102-.102h7.959c.056 0 .102.046.102.102v3.056a.102.102 0 0 1-.102.102H6.464a.102.102 0 0 1-.102-.102v-3.056Zm7.142 2.088c0 .028-.022.051-.05.051h-6.02a.051.051 0 0 1-.051-.05v-1.121c0-.028.022-.051.05-.051h6.02c.029 0 .051.023.051.05v1.121Zm-6.223 2.292c.056 0 .102.046.102.102v.815a.102.102 0 0 1-.102.102h-.817a.102.102 0 0 1-.102-.102v-.815c0-.056.046-.102.102-.102h.817Zm18.875.102a.102.102 0 0 0-.102-.102h-.816a.102.102 0 0 0-.102.102v.815c0 .057.046.102.102.102h.816a.102.102 0 0 0 .102-.102v-.815Zm-10.305-.102a.102.102 0 0 0-.102.102v.815c0 .057.046.102.102.102h7.958a.102.102 0 0 0 .102-.102v-.815a.102.102 0 0 0-.102-.102h-7.958Zm9.285-4.38c0-.056.046-.102.102-.102h7.958c.056 0 .102.046.102.102v3.056a.102.102 0 0 1-.102.102h-7.958a.102.102 0 0 1-.102-.102v-3.056Zm7.09.917c.029 0 .052.023.052.05v1.121c0 .028-.023.051-.051.051h-6.02a.051.051 0 0 1-.05-.05v-1.121c0-.028.022-.051.05-.051h6.02Zm-16.477-.917c0-.056.046-.102.102-.102h7.958c.057 0 .102.046.102.102v3.056a.102.102 0 0 1-.102.102h-7.958a.102.102 0 0 1-.102-.102v-.815c0-.056.046-.102.102-.102h6.99a.05.05 0 0 0 .05-.05v-1.121a.05.05 0 0 0-.05-.051h-6.99a.102.102 0 0 1-.102-.102v-.815Z" clip-rule="evenodd"/></g></g><defs><clipPath id="a"><path fill="#fff" d="M1 1h38v38H1z"/></clipPath><filter id="b" width="46.935" height="25.501" x="-3.638" y="6.044" color-interpolation-filters="sRGB" filterUnits="userSpaceOnUse"><feFlood flood-opacity="0" result="BackgroundImageFix"/><feBlend in="SourceGraphic" in2="BackgroundImageFix" result="shape"/><feGaussianBlur result="effect1_foregroundBlur_6254_13457" stdDeviation="5"/></filter></defs></svg>
