<svg xmlns="http://www.w3.org/2000/svg" width="40" height="40" fill="none"><rect width="39" height="39" x=".5" y=".5" stroke="#fff" stroke-opacity=".1" rx="19.5"/><g clip-path="url(#a)"><g filter="url(#b)" opacity=".5"><path fill="#7180F5" fill-rule="evenodd" d="M18.323 21.9h3.786v-3.8h-3.786v-3.8h7.572v11.4H14.536v-3.8H10.75V6.7h15.145v3.8H14.536V21.9h3.787Z" clip-rule="evenodd"/><path fill="#FF8099" d="M29.682 10.5h-3.787v3.8h3.787v-3.8Z"/><path fill="#1E1C2D" d="M14.536 25.7H10.75v3.8h3.786v-3.8Z"/></g><path fill="#7180F5" fill-rule="evenodd" d="M19.023 24.75h3.786v-3.8h-3.786v-3.8h7.573v11.4h-11.36v-3.8H11.45V9.55h15.146v3.8h-11.36V24.75h3.787Z" clip-rule="evenodd"/><path fill="#FF8099" d="M30.382 13.35h-3.786v3.8h3.786v-3.8Z"/><path fill="#1E1C2D" d="M15.237 28.55H11.45v3.8h3.787v-3.8Z"/></g><defs><clipPath id="a"><path fill="#fff" d="M1 1h38v38H1z"/></clipPath><filter id="b" width="46.932" height="50.8" x="-3.25" y="-7.3" color-interpolation-filters="sRGB" filterUnits="userSpaceOnUse"><feFlood flood-opacity="0" result="BackgroundImageFix"/><feBlend in="SourceGraphic" in2="BackgroundImageFix" result="shape"/><feGaussianBlur result="effect1_foregroundBlur_6369_12529" stdDeviation="7"/></filter></defs></svg>
