<svg xmlns="http://www.w3.org/2000/svg" width="40" height="40" fill="none"><rect width="39" height="39" x=".5" y=".5" stroke="#fff" stroke-opacity=".1" rx="19.5"/><g clip-path="url(#a)"><g filter="url(#b)"><path fill="#71D9FF" fill-rule="evenodd" d="M21.54 10.975h-3.683a.183.183 0 0 0-.182.184v1.227c0 .102.081.184.182.184h3.683a.183.183 0 0 0 .182-.184v-1.227a.183.183 0 0 0-.183-.184Zm-10.465 4.512-2.738-4.34a.364.364 0 0 0-.308-.171H6.884a.183.183 0 0 0-.183.184v9.007c0 .102.082.184.183.184H8.1a.183.183 0 0 0 .182-.184v-5.924c0-.061.08-.084.112-.033l2.576 4.086a.182.182 0 0 0 .308 0l2.576-4.086c.032-.051.111-.028.111.033v5.924c0 .101.082.184.183.184h1.217c.1 0 .182-.083.182-.184V11.16a.183.183 0 0 0-.182-.184H14.22a.365.365 0 0 0-.308.17l-2.736 4.341a.06.06 0 0 1-.102 0Zm11.894.973h-3.651a.06.06 0 0 0-.061.062v2.173c0 .034.027.062.06.062h5.08c.102 0 .183.082.183.184v1.226a.183.183 0 0 1-.182.184h-6.54a.183.183 0 0 1-.183-.184V15.05c0-.102.081-.184.182-.184h5.112c.1 0 .182.082.182.184v1.226a.183.183 0 0 1-.182.184Zm7.935-5.246-2.47 6.66a.06.06 0 0 1-.114 0l-2.47-6.66a.366.366 0 0 0-.342-.239H24.11a.184.184 0 0 0-.171.248l3.342 9.009c.027.071.095.12.17.12h1.85a.183.183 0 0 0 .17-.12l3.342-9.008a.184.184 0 0 0-.17-.249h-1.397a.365.365 0 0 0-.343.24ZM7.974 23.57c-.373 0-.678.122-.916.368-.238.244-.357.557-.358.934 0 .378.12.69.357.935.238.245.543.368.916.368.445 0 .785-.17 1.02-.512l-.403-.313a.816.816 0 0 1-.263.229.704.704 0 0 1-.353.092.734.734 0 0 1-.56-.224.8.8 0 0 1-.213-.574.8.8 0 0 1 .213-.573.735.735 0 0 1 .56-.225.753.753 0 0 1 .617.309l.403-.302c-.235-.341-.576-.512-1.02-.512Zm2.732 2.574 1.025-2.543h.38l1.02 2.543h-.53l-.164-.42h-1.036l-.163.42h-.532Zm1.553-.88-.338-.864-.338.864h.676Zm2.697-1.663v2.543h.5v-.869h.676a.746.746 0 0 0 .538-.225c.153-.15.23-.354.23-.613 0-.258-.076-.461-.23-.612a.748.748 0 0 0-.538-.224h-1.176Zm1.087 1.181h-.586v-.692h.593a.35.35 0 0 1 .246.096.33.33 0 0 1 .103.252.32.32 0 0 1-.105.248.36.36 0 0 1-.251.096Zm2.76 1.362V23.6h.5v2.543h-.5Zm4.416-2.543h-2.015v.462h.757v2.08h.505v-2.08h.753V23.6Zm1.463 2.543 1.025-2.543h.38l1.021 2.543h-.532l-.163-.42h-1.036l-.163.42h-.532Zm1.553-.88-.338-.864-.337.864h.675ZM28.93 23.6v2.543h1.7v-.462h-1.199V23.6h-.5Z" clip-rule="evenodd"/></g><path fill="#fff" fill-rule="evenodd" d="M21.54 12.4h-3.683a.183.183 0 0 0-.182.184v1.226c0 .102.081.184.182.184h3.683a.183.183 0 0 0 .182-.184v-1.226a.183.183 0 0 0-.183-.184Zm-10.465 4.512L8.337 12.57a.364.364 0 0 0-.308-.17H6.884a.183.183 0 0 0-.183.184v9.007c0 .102.082.184.183.184H8.1a.183.183 0 0 0 .182-.184v-5.924c0-.061.08-.084.112-.033l2.576 4.086a.182.182 0 0 0 .308 0l2.576-4.086c.032-.051.111-.028.111.033v5.923c0 .102.082.184.183.184h1.217c.1 0 .182-.082.182-.184v-9.007a.183.183 0 0 0-.182-.184H14.22a.365.365 0 0 0-.308.171l-2.736 4.34a.06.06 0 0 1-.102 0Zm11.894.973h-3.651a.06.06 0 0 0-.061.062v2.173c0 .034.027.061.06.061h5.08c.102 0 .183.083.183.184v1.227a.183.183 0 0 1-.182.184h-6.54a.183.183 0 0 1-.183-.184v-5.117c0-.102.081-.184.182-.184h5.112c.1 0 .182.082.182.184V17.7a.183.183 0 0 1-.182.184Zm7.935-5.246-2.47 6.66a.06.06 0 0 1-.114 0l-2.47-6.66a.366.366 0 0 0-.342-.24H24.11a.184.184 0 0 0-.171.25l3.342 9.008c.027.071.095.12.17.12h1.85a.183.183 0 0 0 .17-.12l3.342-9.009a.184.184 0 0 0-.17-.248h-1.397a.365.365 0 0 0-.343.24ZM7.974 24.995c-.373 0-.678.122-.916.368-.238.244-.357.556-.358.934 0 .378.12.69.357.935.238.245.543.368.916.368.445 0 .785-.17 1.02-.512l-.403-.313a.816.816 0 0 1-.263.229.705.705 0 0 1-.353.092.734.734 0 0 1-.56-.225.8.8 0 0 1-.213-.573.8.8 0 0 1 .213-.573.735.735 0 0 1 .56-.225.753.753 0 0 1 .617.308l.403-.3c-.235-.342-.576-.513-1.02-.513Zm2.732 2.573 1.025-2.542h.38l1.02 2.543h-.53l-.164-.42h-1.036l-.163.42h-.532Zm1.553-.88-.338-.864-.338.864h.676Zm2.697-1.662v2.543h.5V26.7h.676a.746.746 0 0 0 .538-.225c.153-.15.23-.355.23-.613s-.076-.461-.23-.612a.748.748 0 0 0-.538-.224h-1.176Zm1.087 1.181h-.586v-.692h.593a.35.35 0 0 1 .246.096.33.33 0 0 1 .103.252.32.32 0 0 1-.105.248.36.36 0 0 1-.251.096Zm2.76 1.361v-2.542h.5v2.543h-.5Zm4.416-2.542h-2.015v.462h.757v2.08h.505v-2.08h.753v-.462Zm1.463 2.543 1.025-2.543h.38l1.021 2.543h-.532l-.163-.42h-1.036l-.163.42h-.532Zm1.553-.88-.338-.865-.337.864h.675Zm2.696-1.663v2.543h1.7v-.462h-1.199v-2.081h-.5Z" clip-rule="evenodd"/></g><defs><clipPath id="a"><path fill="#fff" d="M1 1h38v38H1z"/></clipPath><filter id="b" width="54.126" height="43.2" x="-7.3" y="-3.025" color-interpolation-filters="sRGB" filterUnits="userSpaceOnUse"><feFlood flood-opacity="0" result="BackgroundImageFix"/><feBlend in="SourceGraphic" in2="BackgroundImageFix" result="shape"/><feGaussianBlur result="effect1_foregroundBlur_6369_12529" stdDeviation="7"/></filter></defs></svg>
