<svg xmlns="http://www.w3.org/2000/svg" width="40" height="40" fill="none"><rect width="39" height="39" x=".5" y=".5" stroke="#000" stroke-opacity=".1" rx="19.5"/><g clip-path="url(#a)"><mask id="b" width="26" height="22" x="7" y="9" maskUnits="userSpaceOnUse" style="mask-type:luminance"><path fill="#fff" d="m32.339 9.988-4.678 4.678a4.51 4.51 0 0 1-3.19 1.32h-8.71a4.498 4.498 0 0 1-3.19-1.32L7.893 9.987l-.437-.437c.033.32.08.662.149 1.024a12.524 12.524 0 0 0 2.262 5.193 7.129 7.129 0 0 0 3.173 2.414 7.249 7.249 0 0 0 2.609.485h8.935c.903 0 1.786-.168 2.608-.485a7.13 7.13 0 0 0 3.173-2.414 12.726 12.726 0 0 0 1.62-2.934 12.524 12.524 0 0 0 .791-3.283l-.437.438ZM8.427 19.485l3.078 3.078h4.872L13.942 25l1.894 1.895 4.33-4.33h8.464l3.079-3.08a2.68 2.68 0 0 0-3.789 0l-.399.4H12.615l-.4-.4a2.67 2.67 0 0 0-1.893-.784c-.686 0-1.372.262-1.895.785Zm12.414 4.296-4.1 4.018 1.766 1.766c.862.862 2.26.862 3.121 0l5.784-5.784h-6.57Z"/></mask><g mask="url(#b)"><path fill="url(#c)" d="M32.824 9.555H7.408v20.652h25.416V9.555Z"/></g><g filter="url(#d)" opacity=".8"><mask id="e" width="26" height="22" x="7" y="7" maskUnits="userSpaceOnUse" style="mask-type:luminance"><path fill="#fff" d="m32.339 8.088-4.678 4.678a4.51 4.51 0 0 1-3.19 1.32h-8.71a4.501 4.501 0 0 1-3.19-1.32L7.893 8.087l-.437-.437c.033.32.08.662.149 1.024a12.521 12.521 0 0 0 2.262 5.193 7.129 7.129 0 0 0 3.173 2.414 7.251 7.251 0 0 0 2.609.485h8.935a7.25 7.25 0 0 0 2.608-.485 7.13 7.13 0 0 0 3.173-2.414 12.726 12.726 0 0 0 1.62-2.934 12.522 12.522 0 0 0 .791-3.283l-.437.438ZM8.427 17.584l3.078 3.08h4.872l-2.435 2.435 1.894 1.895 4.33-4.33h8.464l3.079-3.08a2.68 2.68 0 0 0-3.789 0l-.399.4H12.615l-.4-.4a2.67 2.67 0 0 0-1.893-.784c-.686 0-1.372.262-1.895.784Zm12.414 4.297-4.1 4.017 1.766 1.767c.862.862 2.26.862 3.121 0l5.784-5.784h-6.57Z"/></mask><g mask="url(#e)"><path fill="url(#f)" d="M32.824 7.655H7.408v20.651h25.416V7.656Z"/></g></g></g><defs><linearGradient id="c" x1="7.408" x2="32.824" y1="19.568" y2="19.568" gradientUnits="userSpaceOnUse"><stop offset=".26" stop-color="#4919F9"/><stop offset=".714" stop-color="#ED8620"/></linearGradient><linearGradient id="f" x1="7.408" x2="32.824" y1="17.668" y2="17.668" gradientUnits="userSpaceOnUse"><stop offset=".26" stop-color="#4919F9"/><stop offset=".714" stop-color="#ED8620"/></linearGradient><clipPath id="a"><path fill="#fff" d="M1 1h38v38H1z"/></clipPath><filter id="d" width="53.32" height="48.651" x="-6.544" y="-6.345" color-interpolation-filters="sRGB" filterUnits="userSpaceOnUse"><feFlood flood-opacity="0" result="BackgroundImageFix"/><feBlend in="SourceGraphic" in2="BackgroundImageFix" result="shape"/><feGaussianBlur result="effect1_foregroundBlur_6254_13429" stdDeviation="7"/></filter></defs></svg>
