<svg xmlns="http://www.w3.org/2000/svg" viewBox="0 0 75 75" fill="none"><g clip-path="url(#a)"><mask id="b" width="51" height="42" x="12" y="16" maskUnits="userSpaceOnUse" style="mask-type:luminance"><path fill="#fff" d="m61.852 17.74-9.232 9.232a8.901 8.901 0 0 1-6.295 2.607H29.13a8.901 8.901 0 0 1-6.295-2.608c-3.079-3.078-6.155-6.154-9.232-9.233l-.863-.863c.065.63.159 1.307.293 2.021a24.72 24.72 0 0 0 2.068 6.294 25.124 25.124 0 0 0 2.398 3.956 14.07 14.07 0 0 0 6.262 4.763c1.622.626 3.366.958 5.148.958h17.635a14.31 14.31 0 0 0 5.149-.958 14.072 14.072 0 0 0 6.262-4.763 25.123 25.123 0 0 0 3.198-5.791 24.72 24.72 0 0 0 1.268-4.459 24.57 24.57 0 0 0 .293-2.021l-.863.864ZM14.658 36.482l6.075 6.076h9.616l-4.807 4.808 3.739 3.739 8.546-8.547h16.704l6.078-6.076a5.289 5.289 0 0 0-7.478 0l-.787.789h-29.42l-.789-.79a5.271 5.271 0 0 0-3.738-1.548 5.273 5.273 0 0 0-3.739 1.549Zm24.501 8.48-8.092 7.929 3.486 3.487a4.355 4.355 0 0 0 6.16 0l11.415-11.416H39.159Z"/></mask><g mask="url(#b)"><path fill="url(#c)" d="M62.809 16.886H12.647v40.758h50.162V16.886Z"/></g><g filter="url(#d)" opacity=".8"><mask id="e" width="51" height="41" x="12" y="13" maskUnits="userSpaceOnUse" style="mask-type:luminance"><path fill="#fff" d="m61.852 13.99-9.232 9.232a8.901 8.901 0 0 1-6.295 2.607H29.13a8.901 8.901 0 0 1-6.295-2.608c-3.079-3.078-6.155-6.154-9.232-9.233l-.863-.863c.065.63.159 1.307.293 2.021a24.72 24.72 0 0 0 2.068 6.294 25.124 25.124 0 0 0 2.398 3.956 14.07 14.07 0 0 0 6.262 4.763c1.622.626 3.366.958 5.148.958h17.635a14.31 14.31 0 0 0 5.149-.958 14.072 14.072 0 0 0 6.262-4.763 25.123 25.123 0 0 0 3.198-5.791 24.72 24.72 0 0 0 1.268-4.459 24.57 24.57 0 0 0 .293-2.021l-.863.864ZM14.658 32.732l6.075 6.076h9.616l-4.807 4.808 3.739 3.739 8.546-8.547h16.704l6.078-6.076a5.289 5.289 0 0 0-7.478 0l-.787.789h-29.42l-.789-.79a5.271 5.271 0 0 0-3.738-1.548 5.273 5.273 0 0 0-3.739 1.549Zm24.501 8.48-8.092 7.929 3.486 3.487a4.355 4.355 0 0 0 6.16 0l11.415-11.416H39.159Z"/></mask><g mask="url(#e)"><path fill="url(#f)" d="M62.809 13.136H12.647v40.758h50.162V13.136Z"/></g></g></g><defs><linearGradient id="c" x1="12.646" x2="62.809" y1="36.647" y2="36.647" gradientUnits="userSpaceOnUse"><stop offset=".26" stop-color="#4919F9"/><stop offset=".714" stop-color="#ED8620"/></linearGradient><linearGradient id="f" x1="12.646" x2="62.809" y1="32.897" y2="32.897" gradientUnits="userSpaceOnUse"><stop offset=".26" stop-color="#4919F9"/><stop offset=".714" stop-color="#ED8620"/></linearGradient><clipPath id="a"><path fill="#fff" d="M0 0h75v75H0z"/></clipPath><filter id="d" width="77.974" height="68.759" x="-1.259" y="-.865" color-interpolation-filters="sRGB" filterUnits="userSpaceOnUse"><feFlood flood-opacity="0" result="BackgroundImageFix"/><feBlend in="SourceGraphic" in2="BackgroundImageFix" result="shape"/><feGaussianBlur result="effect1_foregroundBlur_6243_11058" stdDeviation="7"/></filter></defs></svg>
