<svg width="64" height="28" viewBox="0 0 64 28" fill="none" xmlns="http://www.w3.org/2000/svg">
<g clip-path="url(#clip0_9518_28703)">
<rect width="28" height="28" rx="14" fill="#34343D"/>
<path opacity="0.6" d="M19.1686 12.415L19.3097 12.6298C20.9007 15.052 20.5454 18.2241 18.4553 20.2564C17.2258 21.452 15.6143 22.0499 14.0028 22.05C14.0028 22.05 14.0028 22.05 19.1686 12.415Z" fill="#00A3FF"/>
<path opacity="0.2" d="M14.0022 15.3433L19.168 12.415C14.0022 22.05 14.0022 22.05 14.0022 22.05C14.0022 19.9516 14.0022 17.5471 14.0022 15.3433Z" fill="#00A3FF"/>
<path d="M8.83141 12.415L8.69035 12.6298C7.0993 15.052 7.45464 18.2241 9.54465 20.2564C10.7742 21.452 12.3857 22.0499 13.9972 22.05C13.9972 22.05 13.9972 22.05 8.83141 12.415Z" fill="#00A3FF"/>
<path opacity="0.6" d="M13.9959 15.3433L8.83008 12.415C13.9959 22.05 13.9959 22.05 13.9959 22.05C13.9959 19.9516 13.9959 17.5471 13.9959 15.3433Z" fill="#00A3FF"/>
<path opacity="0.2" d="M14.0042 8.80157V13.8521L18.4539 11.3285L14.0042 8.80157Z" fill="#00A3FF"/>
<path opacity="0.6" d="M14.0028 8.80157L9.5498 11.3284L14.0028 13.8521V8.80157Z" fill="#00A3FF"/>
<path d="M14.0028 4.55396L9.5498 11.3299L14.0028 8.79596V4.55396Z" fill="#00A3FF"/>
<path opacity="0.6" d="M14.0042 8.7953L18.4573 11.3293L14.0042 4.54999V8.7953Z" fill="#00A3FF"/>
</g>
<rect x="0.388889" y="0.388889" width="27.2222" height="27.2222" rx="13.6111" stroke="black" stroke-opacity="0.1" stroke-width="0.777778"/>
<rect x="18" y="0.000610352" width="28" height="27.9987" rx="13.9994" fill="#34343D"/>
<rect x="18.3889" y="0.389499" width="27.2222" height="27.2209" rx="13.6105" stroke="black" stroke-opacity="0.1" stroke-width="0.777778"/>
<path d="M35.3462 18.8997C34.1723 18.8997 32.974 18.4544 31.771 17.5683C30.8681 16.9046 30.1365 16.3069 29.4907 15.7796L29.4308 15.7302L29.0876 16.0532C28.0651 17.0148 27.2347 17.6107 26.2543 17.6107C24.8311 17.6112 23.583 16.448 23.583 15.121C23.583 13.7156 24.9256 12.6234 26.0807 12.6234C27.2889 12.6234 28.215 13.1831 29.367 14.085C30.9815 12.5709 32.5861 11.1039 33.8014 10.2962C35.3615 9.25941 37.7598 9.00299 39.3245 10.5181C41.0998 12.2368 40.4457 15.5456 39.235 16.9798C38.7831 17.5151 37.8091 18.4618 36.3628 18.7855C36.0292 18.861 35.6882 18.8993 35.3462 18.8997ZM30.3436 14.873C30.9613 15.3774 31.66 15.9457 32.5067 16.5685C33.5933 17.3676 34.55 17.6551 35.3634 17.6551C36.8216 17.6551 37.8195 16.7317 38.286 16.1792C39.5943 14.6296 39.2937 12.2186 38.4606 11.4116C37.2386 10.2281 35.4162 10.7151 34.4894 11.331C33.3838 12.0657 31.8765 13.437 30.3436 14.873ZM26.0807 13.866C25.5274 13.866 24.8255 14.4578 24.8255 15.1212C24.8255 15.7623 25.5198 16.3696 26.2538 16.3696C26.7469 16.3696 27.3022 16.0273 28.2357 15.1494L28.451 14.9469C27.5557 14.2595 26.8683 13.866 26.0807 13.866Z" fill="#2FE4AB"/>
<path opacity="0.92" d="M28.2357 15.1493C27.3022 16.0272 26.7464 16.3695 26.2538 16.3695C26.1325 16.3691 26.0119 16.353 25.8948 16.3216V17.5865C26.0137 17.6029 26.1337 17.6111 26.2538 17.6111C27.2341 17.6111 28.0646 17.0152 29.0871 16.0536L29.4303 15.7306L28.4509 14.9461L28.2357 15.1493Z" fill="url(#paint0_linear_9518_28703)"/>
<g opacity="0.92">
<path opacity="0.92" d="M29.3669 14.0855L30.3436 14.8732C31.0384 14.2221 31.7281 13.5847 32.3775 13.0134L31.4978 12.133C30.8118 12.7375 30.0906 13.4065 29.3669 14.0855Z" fill="url(#paint1_linear_9518_28703)"/>
</g>
<rect x="36" y="0.000610352" width="28" height="27.9987" rx="13.9994" fill="#34343D"/>
<rect x="36.3889" y="0.389499" width="27.2222" height="27.2209" rx="13.6105" stroke="black" stroke-opacity="0.1" stroke-width="0.777778"/>
<path opacity="0.62" d="M47.3097 19.2673L49.5484 16.4527C49.7823 16.1565 50.2223 16.1565 50.4562 16.4527L52.695 19.2673C52.8676 19.4838 52.8676 19.7972 52.695 20.0194L50.4562 22.834C50.2223 23.1303 49.7823 23.1303 49.5484 22.834L47.3097 20.0194C47.137 19.7972 47.137 19.4838 47.3097 19.2673Z" fill="#2DB1FF"/>
<path d="M53.9308 9.56439C53.6969 9.26812 53.2569 9.26812 53.023 9.56439L50.7842 12.379C50.6116 12.5955 50.6116 12.9089 50.7842 13.1311L53.023 15.9457C53.2569 16.2419 53.6969 16.2419 53.9308 15.9457L56.1695 13.1311C56.3422 12.9146 56.3422 12.6012 56.1695 12.379L53.9308 9.56439ZM46.975 9.56439C46.7411 9.26812 46.3011 9.26812 46.0672 9.56439L43.8285 12.379C43.6558 12.5955 43.6558 12.9089 43.8285 13.1311L46.0672 15.9457C46.3011 16.2419 46.7411 16.2419 46.975 15.9457L49.2138 13.1311C49.3864 12.9146 49.3864 12.6012 49.2138 12.379L46.975 9.56439ZM52.695 7.98047L50.4562 5.16587C50.2223 4.8696 49.7824 4.8696 49.5485 5.16587L47.3097 7.98047C47.137 8.19698 47.137 8.51034 47.3097 8.73255L49.5485 11.5471C49.7824 11.8434 50.2223 11.8434 50.4562 11.5471L52.695 8.73255C52.8676 8.51034 52.8676 8.19698 52.695 7.98047Z" fill="#2DB1FF"/>
<defs>
<linearGradient id="paint0_linear_9518_28703" x1="28.625" y1="15.0642" x2="26.6595" y2="17.0296" gradientUnits="userSpaceOnUse">
<stop stop-color="#0F7C76"/>
<stop offset="1" stop-color="#2FE4AB"/>
</linearGradient>
<linearGradient id="paint1_linear_9518_28703" x1="29.9079" y1="14.5137" x2="31.8473" y2="12.574" gradientUnits="userSpaceOnUse">
<stop stop-color="#0F7C76"/>
<stop offset="1" stop-color="#2FE4AB"/>
</linearGradient>
<clipPath id="clip0_9518_28703">
<rect width="28" height="28" rx="14" fill="white"/>
</clipPath>
</defs>
</svg>
