<svg xmlns="http://www.w3.org/2000/svg" width="90" height="34" fill="none"><rect width="32" height="32" x="29" y="1" stroke="#EEF0FF" stroke-width="2" rx="16"/><rect width="30" height="30" x="30" y="2" fill="#fff" rx="15"/><path fill="#2DB1FF" d="m42.117 22.644 2.399-3.016a.616.616 0 0 1 .973 0l2.398 3.016a.654.654 0 0 1 0 .806l-2.398 3.015a.616.616 0 0 1-.973 0l-2.399-3.015a.655.655 0 0 1 0-.806Z" opacity=".62"/><path fill="#2DB1FF" d="M49.212 12.247a.616.616 0 0 0-.973 0l-2.399 3.016a.654.654 0 0 0 0 .806l2.4 3.016c.25.317.721.317.972 0l2.398-3.016a.654.654 0 0 0 0-.806l-2.398-3.016Zm-7.453 0a.616.616 0 0 0-.973 0l-2.398 3.016a.654.654 0 0 0 0 .806l2.398 3.016c.251.317.722.317.973 0l2.399-3.016a.654.654 0 0 0 0-.806l-2.399-3.016Zm6.129-1.697-2.4-3.016a.616.616 0 0 0-.972 0l-2.398 3.016a.655.655 0 0 0 0 .806l2.398 3.016c.25.317.722.317.973 0l2.399-3.016a.654.654 0 0 0 0-.806Z"/><rect width="32" height="32" x="57" y="1" fill="#fff" rx="16"/><rect width="32" height="32" x="57" y="1" stroke="#EEF0FF" stroke-width="2" rx="16"/><g clip-path="url(#c)"><rect width="30" height="30" x="58" y="2" fill="#fff" rx="15"/><g clip-path="url(#d)" filter="url(#e)" opacity=".7"><mask id="f" width="17" height="17" x="64" y="6" maskUnits="userSpaceOnUse" style="mask-type:luminance"><path fill="#fff" d="M80.125 6.875h-15.75v15.75h15.75V6.875Z"/></mask><g mask="url(#f)"><path fill="url(#g)" d="M72.25 22.625a7.875 7.875 0 1 0 0-15.75 7.875 7.875 0 0 0 0 15.75Z"/><path fill="#fff" fill-rule="evenodd" d="M73.037 20.262a5.512 5.512 0 1 0 0-11.024 5.512 5.512 0 0 0 0 11.024Zm0 .788a6.3 6.3 0 1 0 0-12.6 6.3 6.3 0 0 0 0 12.6Z" clip-rule="evenodd"/><path fill="#fff" fill-rule="evenodd" d="M74.613 17.113a2.362 2.362 0 1 0 0-4.725 2.362 2.362 0 0 0 0 4.725Zm0 .787a3.15 3.15 0 1 0 0-6.3 3.15 3.15 0 0 0 0 6.3Z" clip-rule="evenodd"/></g></g><g clip-path="url(#h)"><mask id="i" width="30" height="30" x="58" y="2" maskUnits="userSpaceOnUse" style="mask-type:luminance"><path fill="#fff" d="M88 2H58v30h30V2Z"/></mask><g mask="url(#i)"><path fill="url(#j)" d="M73 32c8.284 0 15-6.716 15-15 0-8.284-6.716-15-15-15-8.284 0-15 6.716-15 15 0 8.284 6.716 15 15 15Z"/><path fill="#fff" fill-rule="evenodd" d="M74.5 27.5C80.299 27.5 85 22.799 85 17S80.299 6.5 74.5 6.5 64 11.201 64 17s4.701 10.5 10.5 10.5Zm0 1.5c6.627 0 12-5.373 12-12s-5.373-12-12-12-12 5.373-12 12 5.373 12 12 12Z" clip-rule="evenodd"/><path fill="#fff" fill-rule="evenodd" d="M77.5 21.5a4.5 4.5 0 1 0 0-9 4.5 4.5 0 0 0 0 9Zm0 1.5a6 6 0 1 0 0-12 6 6 0 0 0 0 12Z" clip-rule="evenodd"/></g></g></g><defs><linearGradient id="a" x1="13.384" x2="11.278" y1="18.14" y2="20.246" gradientUnits="userSpaceOnUse"><stop stop-color="#0F7C76"/><stop offset="1" stop-color="#2FE4AB"/></linearGradient><linearGradient id="b" x1="14.759" x2="16.837" y1="17.551" y2="15.472" gradientUnits="userSpaceOnUse"><stop stop-color="#0F7C76"/><stop offset="1" stop-color="#2FE4AB"/></linearGradient><linearGradient id="g" x1="72.25" x2="72.25" y1="6.875" y2="22.625" gradientUnits="userSpaceOnUse"><stop stop-color="#F50D3C"/><stop offset="1" stop-color="#D7002B"/></linearGradient><linearGradient id="j" x1="73" x2="73" y1="2" y2="32" gradientUnits="userSpaceOnUse"><stop stop-color="#F50D3C"/><stop offset="1" stop-color="#D7002B"/></linearGradient><clipPath id="c"><rect width="30" height="30" x="58" y="2" fill="#fff" rx="15"/></clipPath><clipPath id="d"><path fill="#fff" d="M64.375 6.875h15.75v15.75h-15.75z"/></clipPath><clipPath id="h"><path fill="#fff" d="M58 2h30v30H58z"/></clipPath><filter id="e" width="43.75" height="43.75" x="50.375" y="-7.125" color-interpolation-filters="sRGB" filterUnits="userSpaceOnUse"><feFlood flood-opacity="0" result="BackgroundImageFix"/><feBlend in="SourceGraphic" in2="BackgroundImageFix" result="shape"/><feGaussianBlur result="effect1_foregroundBlur_7471_14407" stdDeviation="7"/></filter></defs></svg>
