<svg width="90" height="34" viewBox="0 0 90 34" fill="none" xmlns="http://www.w3.org/2000/svg">
<rect x="1" y="1" width="32" height="32" rx="16" fill="white"/>
<rect x="1" y="1" width="32" height="32" rx="16" stroke="#EEF0FF" stroke-width="2"/>
<rect x="2" y="2" width="30" height="30" rx="15" fill="white"/>
<path d="M20.5858 22.25C19.3281 22.25 18.0442 21.7729 16.7552 20.8234C15.7878 20.1123 15.004 19.4719 14.3121 18.9068L14.2479 18.854L13.8802 19.2001C12.7847 20.2304 11.8949 20.8689 10.8445 20.8689C9.31969 20.8694 7.98242 19.623 7.98242 18.2012C7.98242 16.6954 9.42087 15.5251 10.6585 15.5251C11.953 15.5251 12.9453 16.1248 14.1795 17.0911C15.9093 15.4688 17.6286 13.897 18.9308 13.0315C20.6022 11.9206 23.1719 11.6459 24.8483 13.2693C26.7504 15.1109 26.0496 18.6561 24.7524 20.1928C24.2682 20.7664 23.2247 21.7808 21.675 22.1277C21.3176 22.2085 20.9523 22.2495 20.5858 22.25ZM15.2259 17.9354C15.8877 18.476 16.6364 19.0849 17.5436 19.7522C18.7078 20.6084 19.7328 20.9164 20.6043 20.9164C22.1667 20.9164 23.2358 19.9271 23.7356 19.3351C25.1374 17.6747 24.8153 15.0913 23.9227 14.2266C22.6134 12.9586 20.6609 13.4803 19.6678 14.1403C18.4832 14.9275 16.8683 16.3969 15.2259 17.9354ZM10.6585 16.8565C10.0657 16.8565 9.31362 17.4906 9.31362 18.2015C9.31362 18.8883 10.0575 19.539 10.844 19.539C11.3724 19.539 11.9673 19.1723 12.9675 18.2316L13.1981 18.0147C12.2389 17.2782 11.5023 16.8565 10.6585 16.8565Z" fill="#2FE4AB"/>
<path opacity="0.92" d="M12.9671 18.2315C11.9669 19.1722 11.3715 19.5389 10.8436 19.5389C10.7137 19.5385 10.5845 19.5213 10.459 19.4877V20.8429C10.5864 20.8605 10.715 20.8693 10.8436 20.8693C11.894 20.8693 12.7838 20.2308 13.8793 19.2005L14.247 18.8544L13.1977 18.0138L12.9671 18.2315Z" fill="url(#paint0_linear_7471_14407)"/>
<g opacity="0.92">
<path opacity="0.92" d="M14.1797 17.0917L15.2261 17.9358C15.9706 17.2381 16.7095 16.5552 17.4053 15.9431L16.4627 14.9997C15.7278 15.6475 14.9551 16.3642 14.1797 17.0917Z" fill="url(#paint1_linear_7471_14407)"/>
</g>
<rect x="29" y="1" width="32" height="32" rx="16" fill="white"/>
<rect x="29" y="1" width="32" height="32" rx="16" stroke="#EEF0FF" stroke-width="2"/>
<rect x="30" y="2" width="30" height="30" rx="15" fill="white"/>
<path opacity="0.62" d="M42.1172 22.6439L44.5159 19.6281C44.7665 19.3106 45.2379 19.3106 45.4885 19.6281L47.8872 22.6439C48.0722 22.8758 48.0722 23.2116 47.8872 23.4497L45.4885 26.4655C45.2379 26.7829 44.7665 26.7829 44.5159 26.4655L42.1172 23.4497C41.9323 23.2116 41.9323 22.8758 42.1172 22.6439Z" fill="#2DB1FF"/>
<path d="M49.2117 12.2473C48.9611 11.9299 48.4897 11.9299 48.2391 12.2473L45.8404 15.2631C45.6554 15.4951 45.6554 15.8309 45.8404 16.0689L48.2391 19.0847C48.4897 19.4022 48.9611 19.4022 49.2117 19.0847L51.6103 16.0689C51.7953 15.837 51.7953 15.5012 51.6103 15.2631L49.2117 12.2473ZM41.759 12.2473C41.5084 11.9299 41.037 11.9299 40.7864 12.2473L38.3878 15.2631C38.2028 15.4951 38.2028 15.8309 38.3878 16.0689L40.7864 19.0847C41.037 19.4022 41.5084 19.4022 41.759 19.0847L44.1577 16.0689C44.3427 15.837 44.3427 15.5012 44.1577 15.2631L41.759 12.2473ZM47.8876 10.5502L45.4889 7.53441C45.2383 7.21696 44.7669 7.21696 44.5163 7.53441L42.1176 10.5502C41.9327 10.7822 41.9327 11.1179 42.1176 11.356L44.5163 14.3718C44.7669 14.6893 45.2383 14.6893 45.4889 14.3718L47.8876 11.356C48.0726 11.1179 48.0726 10.7822 47.8876 10.5502Z" fill="#2DB1FF"/>
<rect x="57" y="1" width="32" height="32" rx="16" fill="white"/>
<rect x="57" y="1" width="32" height="32" rx="16" stroke="#EEF0FF" stroke-width="2"/>
<g clip-path="url(#clip0_7471_14407)">
<rect x="58" y="2" width="30" height="30" rx="15" fill="white"/>
<g opacity="0.7" clip-path="url(#clip1_7471_14407)" filter="url(#filter0_f_7471_14407)">
<mask id="mask0_7471_14407" style="mask-type:luminance" maskUnits="userSpaceOnUse" x="64" y="6" width="17" height="17">
<path d="M80.125 6.875H64.375V22.625H80.125V6.875Z" fill="white"/>
</mask>
<g mask="url(#mask0_7471_14407)">
<path d="M72.25 22.625C76.5992 22.625 80.125 19.0992 80.125 14.75C80.125 10.4008 76.5992 6.875 72.25 6.875C67.9008 6.875 64.375 10.4008 64.375 14.75C64.375 19.0992 67.9008 22.625 72.25 22.625Z" fill="url(#paint2_linear_7471_14407)"/>
<path fill-rule="evenodd" clip-rule="evenodd" d="M73.0373 20.2625C76.0818 20.2625 78.5498 17.7945 78.5498 14.75C78.5498 11.7055 76.0818 9.2375 73.0373 9.2375C69.9928 9.2375 67.5248 11.7055 67.5248 14.75C67.5248 17.7945 69.9928 20.2625 73.0373 20.2625ZM73.0373 21.05C76.5167 21.05 79.3373 18.2294 79.3373 14.75C79.3373 11.2706 76.5167 8.45 73.0373 8.45C69.5579 8.45 66.7373 11.2706 66.7373 14.75C66.7373 18.2294 69.5579 21.05 73.0373 21.05Z" fill="white"/>
<path fill-rule="evenodd" clip-rule="evenodd" d="M74.6129 17.1125C75.9177 17.1125 76.9754 16.0548 76.9754 14.75C76.9754 13.4452 75.9177 12.3875 74.6129 12.3875C73.3081 12.3875 72.2504 13.4452 72.2504 14.75C72.2504 16.0548 73.3081 17.1125 74.6129 17.1125ZM74.6129 17.9C76.3526 17.9 77.7629 16.4897 77.7629 14.75C77.7629 13.0103 76.3526 11.6 74.6129 11.6C72.8732 11.6 71.4629 13.0103 71.4629 14.75C71.4629 16.4897 72.8732 17.9 74.6129 17.9Z" fill="white"/>
</g>
</g>
<g clip-path="url(#clip2_7471_14407)">
<mask id="mask1_7471_14407" style="mask-type:luminance" maskUnits="userSpaceOnUse" x="58" y="2" width="30" height="30">
<path d="M88 2H58V32H88V2Z" fill="white"/>
</mask>
<g mask="url(#mask1_7471_14407)">
<path d="M73 32C81.2843 32 88 25.2843 88 17C88 8.71573 81.2843 2 73 2C64.7157 2 58 8.71573 58 17C58 25.2843 64.7157 32 73 32Z" fill="url(#paint3_linear_7471_14407)"/>
<path fill-rule="evenodd" clip-rule="evenodd" d="M74.5 27.5C80.299 27.5 85 22.799 85 17C85 11.201 80.299 6.5 74.5 6.5C68.701 6.5 64 11.201 64 17C64 22.799 68.701 27.5 74.5 27.5ZM74.5 29C81.1274 29 86.5 23.6274 86.5 17C86.5 10.3726 81.1274 5 74.5 5C67.8726 5 62.5 10.3726 62.5 17C62.5 23.6274 67.8726 29 74.5 29Z" fill="white"/>
<path fill-rule="evenodd" clip-rule="evenodd" d="M77.5 21.5C79.9853 21.5 82 19.4853 82 17C82 14.5147 79.9853 12.5 77.5 12.5C75.0146 12.5 73 14.5147 73 17C73 19.4853 75.0146 21.5 77.5 21.5ZM77.5 23C80.8136 23 83.5 20.3136 83.5 17C83.5 13.6863 80.8136 11 77.5 11C74.1863 11 71.5 13.6863 71.5 17C71.5 20.3136 74.1863 23 77.5 23Z" fill="white"/>
</g>
</g>
</g>
<defs>
<filter id="filter0_f_7471_14407" x="50.375" y="-7.125" width="43.75" height="43.75" filterUnits="userSpaceOnUse" color-interpolation-filters="sRGB">
<feFlood flood-opacity="0" result="BackgroundImageFix"/>
<feBlend mode="normal" in="SourceGraphic" in2="BackgroundImageFix" result="shape"/>
<feGaussianBlur stdDeviation="7" result="effect1_foregroundBlur_7471_14407"/>
</filter>
<linearGradient id="paint0_linear_7471_14407" x1="13.3842" y1="18.1404" x2="11.2782" y2="20.2461" gradientUnits="userSpaceOnUse">
<stop stop-color="#0F7C76"/>
<stop offset="1" stop-color="#2FE4AB"/>
</linearGradient>
<linearGradient id="paint1_linear_7471_14407" x1="14.7593" y1="17.5506" x2="16.8373" y2="15.4723" gradientUnits="userSpaceOnUse">
<stop stop-color="#0F7C76"/>
<stop offset="1" stop-color="#2FE4AB"/>
</linearGradient>
<linearGradient id="paint2_linear_7471_14407" x1="72.25" y1="6.875" x2="72.25" y2="22.625" gradientUnits="userSpaceOnUse">
<stop stop-color="#F50D3C"/>
<stop offset="1" stop-color="#D7002B"/>
</linearGradient>
<linearGradient id="paint3_linear_7471_14407" x1="73" y1="2" x2="73" y2="32" gradientUnits="userSpaceOnUse">
<stop stop-color="#F50D3C"/>
<stop offset="1" stop-color="#D7002B"/>
</linearGradient>
<clipPath id="clip0_7471_14407">
<rect x="58" y="2" width="30" height="30" rx="15" fill="white"/>
</clipPath>
<clipPath id="clip1_7471_14407">
<rect width="15.75" height="15.75" fill="white" transform="translate(64.375 6.875)"/>
</clipPath>
<clipPath id="clip2_7471_14407">
<rect width="30" height="30" fill="white" transform="translate(58 2)"/>
</clipPath>
</defs>
</svg>
