<svg xmlns="http://www.w3.org/2000/svg" width="34" height="34" fill="none"><rect width="32" height="32" x="1" y="1" fill="#fff" rx="16"/><rect width="32" height="32" x="1" y="1" stroke="#EEF0FF" stroke-width="2" rx="16"/><rect width="30" height="30" x="2" y="2" fill="#fff" rx="15"/><path fill="#fff" d="M17 32c8.284 0 15-6.716 15-15 0-8.284-6.716-15-15-15C8.716 2 2 8.716 2 17c0 8.284 6.716 15 15 15Z"/><path fill="#00A3FF" d="m23.153 15.934.168.258a7.235 7.235 0 0 1-1.017 9.149 7.553 7.553 0 0 1-5.3 2.151l6.149-11.558Z" opacity=".6"/><path fill="#00A3FF" d="m17.003 19.447 6.15-3.513-6.15 11.558v-8.045Z" opacity=".2"/><path fill="#00A3FF" d="m10.847 15.934-.168.258a7.235 7.235 0 0 0 1.017 9.149 7.553 7.553 0 0 0 5.3 2.151l-6.149-11.558Z"/><path fill="#00A3FF" d="m16.994 19.447-6.15-3.513 6.15 11.558v-8.045Z" opacity=".6"/><path fill="#00A3FF" d="M17.005 11.6v6.058l5.297-3.027-5.297-3.031Z" opacity=".2"/><path fill="#00A3FF" d="m17.003 11.6-5.3 3.03 5.3 3.028V11.6Z" opacity=".6"/><path fill="#00A3FF" d="m17.003 6.504-5.3 8.129 5.3-3.04V6.504Z"/><path fill="#00A3FF" d="m17.005 11.592 5.301 3.04L17.005 6.5v5.092Z" opacity=".6"/></svg>
