<svg width="34" height="34" viewBox="0 0 34 34" fill="none" xmlns="http://www.w3.org/2000/svg">
<rect x="1" y="1" width="32" height="32" rx="16" fill="white"/>
<rect x="1" y="1" width="32" height="32" rx="16" stroke="#EEF0FF" stroke-width="2"/>
<rect x="2" y="2" width="30" height="30" rx="15" fill="white"/>
<path d="M17 32C25.2843 32 32 25.2843 32 17C32 8.71573 25.2843 2 17 2C8.71573 2 2 8.71573 2 17C2 25.2843 8.71573 32 17 32Z" fill="white"/>
<path opacity="0.6" d="M23.153 15.9343L23.321 16.1919C25.2151 19.0975 24.792 22.9028 22.3039 25.3407C20.8402 26.7749 18.9218 27.4921 17.0033 27.4923C17.0033 27.4923 17.0033 27.4923 23.153 15.9343Z" fill="#00A3FF"/>
<path opacity="0.2" d="M17.0026 19.4471L23.1523 15.9343C17.0026 27.4923 17.0026 27.4923 17.0026 27.4923C17.0026 24.9751 17.0026 22.0907 17.0026 19.4471Z" fill="#00A3FF"/>
<path d="M10.847 15.9343L10.679 16.1919C8.78494 19.0975 9.20796 22.9028 11.6961 25.3407C13.1598 26.7749 15.0782 27.4921 16.9967 27.4923C16.9967 27.4923 16.9967 27.4923 10.847 15.9343Z" fill="#00A3FF"/>
<path opacity="0.6" d="M16.9945 19.4471L10.8447 15.9343C16.9945 27.4923 16.9945 27.4923 16.9945 27.4923C16.9945 24.9751 16.9945 22.0907 16.9945 19.4471Z" fill="#00A3FF"/>
<path opacity="0.2" d="M17.0049 11.5996V17.6582L22.3022 14.6309L17.0049 11.5996Z" fill="#00A3FF"/>
<path opacity="0.6" d="M17.0033 11.5996L11.7021 14.6308L17.0033 17.6582V11.5996Z" fill="#00A3FF"/>
<path d="M17.0033 6.50439L11.7021 14.6328L17.0033 11.5931V6.50439Z" fill="#00A3FF"/>
<path opacity="0.6" d="M17.0049 11.5921L22.3063 14.6319L17.0049 6.49951V11.5921Z" fill="#00A3FF"/>
</svg>
