<svg width="28" height="28" viewBox="0 0 28 28" fill="none" xmlns="http://www.w3.org/2000/svg">
<g clip-path="url(#clip0_9518_28710)">
<g opacity="0.7" clip-path="url(#clip1_9518_28710)" filter="url(#filter0_f_9518_28710)">
<mask id="mask0_9518_28710" style="mask-type:luminance" maskUnits="userSpaceOnUse" x="5" y="4" width="16" height="16">
<path d="M20.65 4.54999L5.94995 4.54999L5.94995 19.25H20.65V4.54999Z" fill="white"/>
</mask>
<g mask="url(#mask0_9518_28710)">
<path d="M13.3 19.25C17.3592 19.25 20.65 15.9593 20.65 11.9C20.65 7.84069 17.3592 4.54999 13.3 4.54999C9.24066 4.54999 5.94995 7.84069 5.94995 11.9C5.94995 15.9593 9.24066 19.25 13.3 19.25Z" fill="url(#paint0_linear_9518_28710)"/>
<path fill-rule="evenodd" clip-rule="evenodd" d="M14.0348 17.0451C16.8763 17.0451 19.1798 14.7416 19.1798 11.9001C19.1798 9.05858 16.8763 6.75508 14.0348 6.75508C11.1933 6.75508 8.88979 9.05858 8.88979 11.9001C8.88979 14.7416 11.1933 17.0451 14.0348 17.0451ZM14.0348 17.7801C17.2822 17.7801 19.9148 15.1475 19.9148 11.9001C19.9148 8.65264 17.2822 6.02008 14.0348 6.02008C10.7873 6.02008 8.15479 8.65264 8.15479 11.9001C8.15479 15.1475 10.7873 17.7801 14.0348 17.7801Z" fill="white"/>
<path fill-rule="evenodd" clip-rule="evenodd" d="M15.5049 14.1051C16.7228 14.1051 17.7099 13.1179 17.7099 11.9001C17.7099 10.6823 16.7228 9.69508 15.5049 9.69508C14.2871 9.69508 13.2999 10.6823 13.2999 11.9001C13.2999 13.1179 14.2871 14.1051 15.5049 14.1051ZM15.5049 14.8401C17.1286 14.8401 18.4449 13.5238 18.4449 11.9001C18.4449 10.2764 17.1286 8.96008 15.5049 8.96008C13.8813 8.96008 12.5649 10.2764 12.5649 11.9001C12.5649 13.5238 13.8813 14.8401 15.5049 14.8401Z" fill="white"/>
</g>
</g>
<g clip-path="url(#clip2_9518_28710)">
<mask id="mask1_9518_28710" style="mask-type:luminance" maskUnits="userSpaceOnUse" x="0" y="0" width="28" height="28">
<path d="M28 0L0 0L0 28L28 28L28 0Z" fill="white"/>
<path d="M27.6504 0.349609L27.6504 27.6504L0.349609 27.6504L0.349609 0.349609L27.6504 0.349609Z" stroke="white" stroke-width="0.7"/>
</mask>
<g mask="url(#mask1_9518_28710)">
<path d="M14 28C21.732 28 28 21.732 28 14C28 6.26801 21.732 0 14 0C6.26801 0 0 6.26801 0 14C0 21.732 6.26801 28 14 28Z" fill="url(#paint1_linear_9518_28710)"/>
<path d="M14 0.349609C21.5387 0.349609 27.6504 6.46131 27.6504 14C27.6504 21.5387 21.5387 27.6504 14 27.6504C6.46131 27.6504 0.349609 21.5387 0.349609 14C0.349609 6.46131 6.46131 0.349609 14 0.349609Z" stroke="black" stroke-opacity="0.1" stroke-width="0.7"/>
<path fill-rule="evenodd" clip-rule="evenodd" d="M15.4 23.8C20.8123 23.8 25.1999 19.4124 25.1999 14C25.1999 8.5876 20.8123 4.19999 15.4 4.19999C9.98756 4.19999 5.59995 8.5876 5.59995 14C5.59995 19.4124 9.98756 23.8 15.4 23.8ZM15.4 25.2C21.5856 25.2 26.5999 20.1856 26.5999 14C26.5999 7.81439 21.5856 2.79999 15.4 2.79999C9.21436 2.79999 4.19995 7.81439 4.19995 14C4.19995 20.1856 9.21436 25.2 15.4 25.2Z" fill="white"/>
<path d="M15.4001 3.1496C21.3924 3.1497 26.2498 8.00796 26.2498 14.0002C26.2496 19.9923 21.3923 24.8497 15.4001 24.8498C9.40792 24.8498 4.54967 19.9924 4.54956 14.0002C4.54956 8.00789 9.40785 3.1496 15.4001 3.1496ZM15.4001 3.84979C9.79446 3.84979 5.24976 8.3945 5.24976 14.0002C5.24986 19.6058 9.79453 24.1496 15.4001 24.1496C21.0057 24.1495 25.5495 19.6057 25.5496 14.0002C25.5496 8.39456 21.0058 3.8499 15.4001 3.84979Z" stroke="black" stroke-opacity="0.1" stroke-width="0.7"/>
<path fill-rule="evenodd" clip-rule="evenodd" d="M18.1999 18.2C20.5195 18.2 22.3999 16.3197 22.3999 14C22.3999 11.6804 20.5195 9.80002 18.1999 9.80002C15.8802 9.80002 13.9999 11.6804 13.9999 14C13.9999 16.3197 15.8802 18.2 18.1999 18.2ZM18.1999 19.6C21.2926 19.6 23.7999 17.0928 23.7999 14C23.7999 10.9072 21.2926 8.40002 18.1999 8.40002C15.1071 8.40002 12.5999 10.9072 12.5999 14C12.5999 17.0928 15.1071 19.6 18.1999 19.6Z" fill="white"/>
<path d="M18.1995 8.74963C21.0988 8.74963 23.4493 11.1003 23.4495 13.9996C23.4495 16.8991 21.0989 19.2496 18.1995 19.2496C15.3002 19.2494 12.9495 16.8989 12.9495 13.9996C12.9497 11.1004 15.3003 8.74984 18.1995 8.74963ZM18.1995 9.44983C15.6868 9.45004 13.6499 11.4871 13.6497 13.9996C13.6497 16.5125 15.6867 18.5502 18.1995 18.5504C20.7124 18.5504 22.7502 16.5126 22.7502 13.9996C22.75 11.4869 20.7123 9.44983 18.1995 9.44983Z" stroke="black" stroke-opacity="0.1" stroke-width="0.7"/>
</g>
</g>
</g>
<defs>
<filter id="filter0_f_9518_28710" x="-4.93894" y="-6.3389" width="36.4777" height="36.4778" filterUnits="userSpaceOnUse" color-interpolation-filters="sRGB">
<feFlood flood-opacity="0" result="BackgroundImageFix"/>
<feBlend mode="normal" in="SourceGraphic" in2="BackgroundImageFix" result="shape"/>
<feGaussianBlur stdDeviation="5.44444" result="effect1_foregroundBlur_9518_28710"/>
</filter>
<linearGradient id="paint0_linear_9518_28710" x1="13.3" y1="4.54999" x2="13.3" y2="19.25" gradientUnits="userSpaceOnUse">
<stop stop-color="#F50D3C"/>
<stop offset="1" stop-color="#D7002B"/>
</linearGradient>
<linearGradient id="paint1_linear_9518_28710" x1="14" y1="0" x2="14" y2="28" gradientUnits="userSpaceOnUse">
<stop stop-color="#F50D3C"/>
<stop offset="1" stop-color="#D7002B"/>
</linearGradient>
<clipPath id="clip0_9518_28710">
<rect width="28" height="28" rx="14" fill="white"/>
</clipPath>
<clipPath id="clip1_9518_28710">
<rect width="14.7" height="14.7" fill="white" transform="translate(5.94995 4.54999)"/>
</clipPath>
<clipPath id="clip2_9518_28710">
<rect width="28" height="28" fill="white"/>
</clipPath>
</defs>
</svg>
