<svg width="106" height="74" viewBox="0 0 106 74" fill="none" xmlns="http://www.w3.org/2000/svg">
<path d="M114.672 52.8764L71.9714 77.6234C65.4771 81.3851 54.918 81.3851 48.3818 77.6234L5.40017 52.8764C-1.13604 49.1109 -1.17026 43.0132 5.32412 39.2477L48.0243 14.5007C54.5187 10.739 65.0778 10.739 71.614 14.5007L114.596 39.2477C121.132 43.0132 121.166 49.1109 114.672 52.8764Z" fill="url(#paint0_linear_12759_7717)"/>
<path d="M77.0224 21.9996C76.9809 21.9858 76.9439 21.972 76.9023 21.9628L77.0224 21.9076V21.9996Z" fill="#FFBF00"/>
<path d="M50.7644 4.63745L50.7559 4.64602V4.63745H50.7644Z" fill="#806000"/>
<path d="M50.7545 4.64502C41.0591 23.0945 40.2937 24.5487 40.2334 24.6592C40.2334 24.6592 43.7404 17.9878 50.7545 4.64502Z" fill="#DCA500"/>
<path d="M59.521 13.5504L59.3587 69.8239L54.5898 59.704L54.7522 3.43054L59.521 13.5504Z" fill="url(#paint1_linear_12759_7717)"/>
<path d="M77.1451 16.2604L76.9828 72.5339L59.3594 69.8233L59.5217 13.5498L77.1451 16.2604Z" fill="url(#paint2_linear_12759_7717)"/>
<path d="M81.7686 6.64971C81.7686 6.75555 81.7593 6.866 81.7547 6.97645C81.75 7.10531 81.7408 7.23877 81.7268 7.37222C81.7176 7.45046 81.7083 7.52869 81.699 7.61153C81.6805 7.74499 81.6573 7.88305 81.6341 8.01651C81.6202 8.09014 81.6062 8.16377 81.5923 8.2328C81.5413 8.48131 81.4763 8.73442 81.4021 8.98753C81.3882 9.03355 81.3697 9.08417 81.3557 9.13019C81.2908 9.34649 81.2166 9.56739 81.1331 9.78828C81.1052 9.86652 81.0774 9.94015 81.0496 10.0184C81.0125 10.1104 80.9753 10.2071 80.9336 10.3037C80.8918 10.4096 80.8454 10.5154 80.7991 10.6212C80.7573 10.7179 80.7109 10.8145 80.6692 10.9066C80.6181 11.0124 80.5718 11.1183 80.5207 11.2241C80.4743 11.3208 80.4233 11.4174 80.3769 11.514C80.3213 11.6199 80.2656 11.7257 80.2099 11.8316C80.1589 11.9282 80.1032 12.0249 80.0522 12.1215C80.0012 12.2135 79.9455 12.3056 79.8945 12.3976C79.7878 12.5863 79.6718 12.775 79.5558 12.9637C79.5187 13.0235 79.4816 13.0833 79.4445 13.1432C79.2914 13.3871 79.129 13.631 78.9667 13.8749C78.9296 13.9301 78.8925 13.9853 78.8553 14.0359C78.7208 14.2292 78.5863 14.4179 78.4471 14.6112C78.3914 14.6894 78.3311 14.7677 78.2755 14.8459C78.1409 15.0254 78.0018 15.2049 77.8626 15.3843C77.8116 15.4488 77.7605 15.5178 77.7095 15.5822C77.5286 15.8077 77.3477 16.0332 77.1575 16.2587L76.9951 72.5276C77.1807 72.3067 77.3662 72.0812 77.5472 71.8557C77.5611 71.8373 77.5796 71.8143 77.5982 71.7959C77.6353 71.7499 77.6678 71.7039 77.7049 71.6578C77.844 71.4784 77.9832 71.2989 78.1177 71.1194C78.1734 71.0412 78.2337 70.9629 78.2894 70.8847C78.4286 70.696 78.5631 70.5027 78.6976 70.3094C78.7347 70.2542 78.7765 70.199 78.8136 70.1438C78.9806 69.8999 79.1383 69.656 79.2914 69.4121C79.3285 69.3522 79.3656 69.2924 79.4027 69.2326C79.5187 69.0439 79.63 68.8552 79.7414 68.6665C79.7646 68.6251 79.7878 68.5883 79.811 68.5469C79.8434 68.4916 79.8666 68.441 79.8991 68.3858C79.9548 68.2892 80.0058 68.1925 80.0568 68.0959C80.1125 67.99 80.1682 67.8842 80.2238 67.7783C80.2749 67.6817 80.3212 67.585 80.3676 67.4884C80.4187 67.3826 80.4697 67.2767 80.5207 67.1709C80.5671 67.0742 80.6089 66.9822 80.6506 66.8855C80.697 66.7797 80.7434 66.6739 80.7851 66.568C80.8223 66.4714 80.864 66.3793 80.9011 66.2827C80.915 66.2459 80.9336 66.2044 80.9475 66.1676C80.9614 66.1308 80.9707 66.0894 80.9846 66.0526C81.0681 65.8317 81.1423 65.6108 81.2073 65.3899C81.2212 65.3439 81.2398 65.2978 81.2537 65.2472C81.3279 64.9941 81.3882 64.741 81.4439 64.4925C81.4485 64.4695 81.4578 64.4465 81.4624 64.4235C81.4717 64.3728 81.4764 64.3222 81.4856 64.2716C81.5088 64.1335 81.532 64.0001 81.5506 63.8666C81.5599 63.7884 81.5691 63.7055 81.5784 63.6273C81.5923 63.4939 81.6016 63.365 81.6062 63.2361C81.6062 63.1855 81.6155 63.1349 81.6155 63.0889C81.6155 63.029 81.6155 62.9692 81.6155 62.9094L81.7779 6.6405L81.7686 6.64971Z" fill="url(#paint3_linear_12759_7717)"/>
<path d="M50.7545 4.64563L56.0358 15.5956C50.8541 18.5823 45.1646 21.8112 40.2334 24.6598C40.2937 24.5448 41.0545 23.0951 50.7545 4.64563Z" fill="#FFD966"/>
<path d="M75.0409 18.5832L40.2256 24.6993C45.1614 21.8506 50.8518 18.5906 56.0381 15.5992L75.0409 18.5832Z" fill="#FFF2CC"/>
<path d="M33.9805 16.2424C34.0593 19.5144 36.4523 22.5054 40.2376 24.6729C40.4739 24.8108 40.7198 24.9441 40.9654 25.0729C41.0489 25.1143 41.1373 25.1567 41.2255 25.2027C41.3923 25.2855 41.5549 25.3676 41.7264 25.4503C41.8284 25.501 41.9408 25.5469 42.0475 25.5975C42.2051 25.6665 42.3577 25.7409 42.5153 25.8053C42.6359 25.8605 42.7618 25.907 42.887 25.9577C43.0353 26.022 43.1792 26.0861 43.3321 26.1412C43.3408 26.1498 43.3452 26.1498 43.3496 26.1499C43.7066 26.2878 44.0736 26.4222 44.4491 26.5464C44.5465 26.5786 44.6449 26.61 44.7423 26.6468C45.0995 26.7618 45.4563 26.8734 45.8227 26.9792C45.8551 26.9884 45.8875 26.9978 45.9152 27.0069C46.2491 27.0989 46.5879 27.1908 46.931 27.2736C47.0282 27.2965 47.1305 27.3199 47.2277 27.3428C47.478 27.398 47.7245 27.4567 47.9747 27.5073C48.1184 27.5395 48.2674 27.568 48.4111 27.5956C48.592 27.6324 48.7736 27.6638 48.9591 27.696C49.1122 27.7236 49.2651 27.7527 49.4182 27.7757C49.6037 27.8079 49.7894 27.8347 49.9749 27.8623C50.1373 27.8853 50.3048 27.9085 50.4671 27.9315C50.6339 27.9545 50.796 27.9737 50.9628 27.9921C51.1344 28.0151 51.3061 28.0326 51.4777 28.051C51.6446 28.0648 51.8116 28.0839 51.9786 28.0977C52.1548 28.1115 52.3312 28.1255 52.5074 28.1393C52.6741 28.1531 52.8364 28.1613 53.0031 28.1705C53.184 28.1843 53.3615 28.1936 53.5424 28.1982C53.7093 28.2074 53.8765 28.2126 54.0434 28.2172C54.3355 28.2264 54.628 28.2345 54.9248 28.2345C55.3559 28.2391 55.7777 28.2299 56.2041 28.2207C56.3014 28.2161 56.4041 28.2114 56.5061 28.2068C56.7749 28.1976 57.0488 28.1843 57.3176 28.1705C57.3964 28.1659 57.4711 28.1612 57.5498 28.1566C57.8883 28.1336 58.2317 28.1057 58.5656 28.0735C58.6305 28.0643 58.7013 28.0556 58.7663 28.051C59.1091 28.0142 59.4474 27.9729 59.7856 27.9315C59.8691 27.9177 59.9534 27.909 60.0369 27.8952C60.4125 27.8446 60.7882 27.7847 61.1592 27.7203C61.2566 27.7019 61.3497 27.6833 61.4472 27.6649C61.6556 27.6281 61.8595 27.5868 62.0633 27.5454C62.1746 27.5224 62.2871 27.494 62.3984 27.471C62.593 27.4296 62.7884 27.3836 62.9831 27.3376C63.0893 27.3147 63.1956 27.2872 63.2972 27.2597C63.5106 27.2091 63.7203 27.1533 63.9291 27.0935C64.0076 27.0706 64.0862 27.0523 64.1647 27.0294C64.4522 26.9466 64.7312 26.8641 65.0094 26.7766C65.0326 26.7674 65.0613 26.7581 65.0845 26.7489C65.4691 26.6248 65.8396 26.4955 66.2102 26.3576C66.2565 26.3393 66.3036 26.3212 66.3499 26.3074C66.7117 26.1694 67.0649 26.0212 67.4128 25.8694C67.4776 25.8418 67.5382 25.8138 67.603 25.7862C67.9415 25.6344 68.271 25.474 68.5909 25.3084L68.7585 25.2253C69.0829 25.0551 69.4073 24.8759 69.7132 24.692C69.7595 24.6644 69.8013 24.6364 69.8476 24.6089C70.0146 24.5076 70.1826 24.4013 70.345 24.2955C70.419 24.245 70.4885 24.1988 70.5579 24.1483C70.6924 24.0563 70.8272 23.965 70.9524 23.873C71.0266 23.8224 71.101 23.7672 71.1706 23.712C71.2958 23.6199 71.4211 23.5229 71.5371 23.4263C71.6065 23.3757 71.6712 23.3204 71.736 23.2652C71.8659 23.1594 71.9907 23.0484 72.1113 22.938C72.1623 22.8966 72.2086 22.8547 72.2597 22.8133C72.4591 22.6247 72.6501 22.4369 72.8356 22.2437C72.8774 22.1977 72.923 22.146 72.9648 22.1C73.1271 21.9205 73.2859 21.742 73.4343 21.558C73.4528 21.535 73.4751 21.5066 73.4936 21.4836C73.6327 21.3088 73.7629 21.1297 73.8881 20.9503C73.9205 20.8998 73.9528 20.8536 73.9806 20.8031C74.0734 20.6696 74.1571 20.5308 74.2406 20.3927C74.2777 20.3284 74.3153 20.2597 74.3523 20.1954C74.4126 20.085 74.4724 19.9698 74.5234 19.8595C74.5605 19.7904 74.5939 19.7207 74.6264 19.6517C74.6819 19.5323 74.729 19.4127 74.78 19.2933V19.2898C74.8124 19.207 74.8487 19.1227 74.8812 19.0353L74.7189 75.3095L74.677 75.4203C74.6586 75.4659 74.6361 75.5116 74.6176 75.5571C74.5712 75.6814 74.5197 75.8022 74.464 75.9172C74.4316 75.9908 74.3987 76.0595 74.3663 76.1285C74.3107 76.2388 74.2502 76.3489 74.19 76.4592C74.1715 76.496 74.1527 76.5384 74.1342 76.5752L74.0783 76.6583C73.9995 76.7962 73.9115 76.9343 73.8235 77.0721C73.7911 77.1181 73.7582 77.1682 73.7258 77.2141C73.6051 77.3936 73.4757 77.5742 73.3365 77.7491C73.332 77.758 73.3271 77.7626 73.3226 77.7716C73.3041 77.79 73.2905 77.8041 73.272 77.827C73.1236 78.0111 72.9694 78.1896 72.8025 78.369C72.7608 78.4149 72.7196 78.4616 72.6733 78.5075C72.4924 78.7008 72.2968 78.8948 72.0973 79.0789C72.0884 79.0877 72.0837 79.0924 72.0746 79.1014C72.033 79.1381 71.9913 79.1703 71.9542 79.207C71.829 79.3174 71.7042 79.4239 71.579 79.5343C71.514 79.5895 71.4432 79.6401 71.3783 79.6953C71.2578 79.7918 71.1368 79.8845 71.0117 79.981C70.9378 80.0315 70.8675 80.087 70.7936 80.142C70.6641 80.2337 70.5349 80.3256 70.4008 80.4173C70.3267 80.4633 70.2569 80.515 70.1827 80.561C70.0251 80.6668 69.8574 80.7715 69.6905 80.8727C69.6489 80.9002 69.6116 80.9232 69.5701 80.9506C69.5654 80.9506 69.5509 80.9564 69.5509 80.961C69.2451 81.1448 68.9251 81.319 68.5961 81.4891C68.5407 81.5212 68.4893 81.5499 68.4338 81.5774C68.1138 81.743 67.7793 81.8999 67.4407 82.0518C67.3804 82.0794 67.3154 82.1073 67.2505 82.1349C66.9072 82.2868 66.554 82.4332 66.1876 82.5712C66.1413 82.5896 66.0942 82.6031 66.0479 82.6215C65.6818 82.7594 65.3068 82.8938 64.9222 83.018C64.9036 83.0226 64.8884 83.0261 64.8698 83.0353C64.865 83.0356 64.856 83.0405 64.8471 83.0405C64.5735 83.1279 64.2905 83.215 64.0076 83.2933C63.9289 83.3162 63.8455 83.3396 63.7667 83.3625C63.558 83.4177 63.3483 83.4735 63.1349 83.5287C63.0333 83.5517 62.927 83.5785 62.8208 83.6015C62.6308 83.652 62.4353 83.694 62.2361 83.74C62.1248 83.763 62.0175 83.7862 61.9062 83.8092C61.7021 83.8507 61.4925 83.8919 61.2883 83.9287C61.2146 83.9425 61.1456 83.9617 61.0719 83.9755C61.0487 83.9801 61.0201 83.9795 60.9969 83.9841C60.6258 84.0485 60.2549 84.109 59.8746 84.1642C59.7911 84.1734 59.7073 84.1861 59.6285 84.1954C59.2901 84.2413 58.947 84.2826 58.604 84.3148C58.5576 84.3194 58.5142 84.3293 58.4678 84.3339C58.4451 84.334 58.4268 84.3391 58.4085 84.3391C58.0699 84.3713 57.7307 84.3992 57.3875 84.4222C57.3134 84.4268 57.2346 84.4297 57.1606 84.4343C56.8869 84.4527 56.6174 84.4667 56.3437 84.4759C56.2928 84.4759 56.2463 84.4862 56.1954 84.4862H56.0418C55.62 84.5 55.1935 84.5036 54.7624 84.5036C54.5351 84.5036 54.3021 84.4995 54.0748 84.4949C54.0101 84.4903 53.9446 84.4862 53.8845 84.4862C53.7132 84.4816 53.5457 84.4718 53.3836 84.4672C53.203 84.458 53.0215 84.4487 52.8408 84.4395C52.6789 84.4303 52.5123 84.4175 52.3504 84.4083C52.2437 84.3991 52.1313 84.3933 52.0292 84.3841C51.96 84.3795 51.8907 84.3668 51.8215 84.3668C51.6499 84.3484 51.4824 84.3332 51.3154 84.3148C51.1438 84.2964 50.9721 84.2778 50.8005 84.2594C50.6382 84.241 50.4706 84.2184 50.3083 84.1954C50.2064 84.1861 50.1088 84.1728 50.0116 84.159C49.9422 84.1498 49.8774 84.1405 49.8126 84.1313C49.6273 84.1037 49.4417 84.0723 49.2611 84.0447C49.1034 84.0171 48.9498 83.9927 48.7968 83.9651C48.616 83.9329 48.4349 83.8963 48.254 83.8595L47.9468 83.804C47.9008 83.7949 47.8586 83.7855 47.8124 83.7763C47.5622 83.7212 47.3157 83.6664 47.0654 83.6067C46.9682 83.5837 46.8659 83.5604 46.7687 83.5374C46.4303 83.4546 46.0919 83.3673 45.7581 83.2708C45.749 83.2708 45.7445 83.27 45.7355 83.2656C45.7124 83.261 45.6887 83.2522 45.6656 83.243C45.2992 83.1418 44.9361 83.0274 44.5835 82.9123C44.4817 82.8802 44.384 82.8475 44.2868 82.8154C43.9159 82.6866 43.5443 82.558 43.1872 82.4154H43.1733C43.0157 82.3511 42.8631 82.2859 42.7055 82.2215C42.5896 82.1755 42.4688 82.1301 42.353 82.0795C42.2045 82.0151 42.0656 81.9448 41.9218 81.8804C41.8012 81.8298 41.68 81.7746 41.564 81.7194L40.8031 81.3419C40.5576 81.2133 40.3167 81.0804 40.0805 80.9471V80.722C36.49 78.5729 33.8907 75.6776 33.8164 72.5115V72.3279L33.9805 16.2424Z" fill="url(#paint4_linear_12759_7717)"/>
<path d="M74.8951 74.8299L74.7189 75.313L74.8812 19.0387L75.0575 18.5609L74.8951 74.8299Z" fill="url(#paint5_linear_12759_7717)"/>
<path d="M105.869 35.2586C105.869 35.3093 105.86 35.3599 105.855 35.4105C105.823 35.7879 105.776 36.1652 105.712 36.538C105.702 36.584 105.698 36.6254 105.688 36.6715C105.623 37.0534 105.545 37.4354 105.447 37.8174C105.438 37.8496 105.429 37.8864 105.419 37.9186C105.317 38.3098 105.206 38.6963 105.076 39.0829C105.067 39.1059 105.057 39.1289 105.048 39.1565C104.914 39.5569 104.761 39.9527 104.594 40.3485C104.594 40.3485 104.594 40.3577 104.589 40.3577C104.422 40.7488 104.236 41.14 104.037 41.5266C104.023 41.5542 104.014 41.5772 104 41.6048C103.81 41.9684 103.605 42.3319 103.387 42.6955C103.355 42.7507 103.322 42.8105 103.285 42.8658C103.072 43.2155 102.84 43.5653 102.599 43.9104C102.552 43.9749 102.506 44.0393 102.46 44.1083C102.214 44.4535 101.954 44.7986 101.68 45.1392C101.629 45.2036 101.574 45.2634 101.523 45.3279C101.281 45.6224 101.026 45.9169 100.766 46.2068C100.697 46.2851 100.623 46.3679 100.553 46.4461C100.242 46.7821 99.9221 47.118 99.5834 47.4448C99.5231 47.5046 99.4582 47.5598 99.3979 47.6197C99.0732 47.9326 98.7345 48.2455 98.382 48.5539C98.3541 48.5815 98.3263 48.6045 98.2938 48.6321C97.9041 48.9681 97.5006 49.304 97.083 49.6307C97.0413 49.663 97.0042 49.6952 96.9671 49.7228C96.5542 50.0449 96.1228 50.3625 95.6821 50.68C95.6311 50.7168 95.5847 50.749 95.5336 50.7858C95.0929 51.0942 94.6383 51.4025 94.1698 51.7016C94.1095 51.7385 94.0538 51.7753 93.9935 51.8167C93.4879 52.1388 92.9729 52.4518 92.4348 52.7601C91.9338 53.05 91.4189 53.3308 90.8993 53.6023C90.7648 53.6759 90.6256 53.7449 90.4911 53.814C90.0226 54.0533 89.5494 54.288 89.0716 54.5181C89.0113 54.5457 88.9463 54.5779 88.886 54.6101C88.3479 54.8632 87.8051 55.1025 87.2531 55.3372C87.1139 55.3971 86.9701 55.4569 86.8263 55.5167C86.3578 55.7146 85.88 55.9033 85.4022 56.0874C85.3001 56.1288 85.1981 56.1702 85.0914 56.207C84.5254 56.4233 83.9548 56.6258 83.3749 56.8237C83.2358 56.8697 83.0966 56.9157 82.9574 56.9618C82.5678 57.0906 82.1734 57.2195 81.7791 57.3391C81.4034 57.4542 81.0276 57.5692 80.6519 57.6797C80.3318 57.7717 80.0117 57.8638 79.6916 57.9512C79.3112 58.057 78.9215 58.1583 78.5365 58.2549C78.2118 58.3378 77.8871 58.4206 77.5623 58.4988C77.1727 58.5909 76.7783 58.6829 76.3794 58.7704C76.05 58.844 75.7253 58.9176 75.3959 58.982C74.9923 59.0649 74.5888 59.1431 74.1852 59.2167C73.8233 59.2858 73.4661 59.3548 73.0997 59.4192C72.9373 59.4468 72.7749 59.4745 72.6079 59.5021C72.0513 59.5941 71.4946 59.6815 70.9333 59.7598C70.8405 59.7736 70.7477 59.7874 70.6549 59.8012C70.0148 59.8886 69.3746 59.9715 68.7344 60.0451C68.572 60.0635 68.4097 60.0819 68.2519 60.0957C67.853 60.1372 67.454 60.174 67.0551 60.2108C66.5587 60.2568 66.0624 60.2982 65.5614 60.335C65.2505 60.358 64.9351 60.3811 64.6243 60.3995C64.1047 60.4317 63.5852 60.4547 63.0656 60.4777C62.7733 60.4915 62.4765 60.5053 62.1842 60.5145C61.7342 60.5283 61.2796 60.5329 60.8296 60.5421C60.5142 60.5421 60.1987 60.5559 59.8833 60.5559C59.4008 60.5559 58.9184 60.5467 58.4313 60.5421C58.1483 60.5421 57.8607 60.5421 57.5777 60.5283C57.1324 60.5191 56.6917 60.4961 56.2463 60.4777C55.9355 60.4639 55.6294 60.4547 55.3185 60.4409C54.8407 60.4133 54.3629 60.3765 53.8851 60.3442C53.6161 60.3258 53.3424 60.312 53.0733 60.289C52.5027 60.243 51.9367 60.1832 51.3662 60.1233C51.1899 60.1049 51.0136 60.0911 50.8373 60.0727C50.0951 59.9899 49.3575 59.8978 48.6199 59.7966C48.4993 59.7782 48.3833 59.7598 48.2627 59.7414C47.6318 59.6493 47.0009 59.5527 46.3793 59.4468C46.1195 59.4008 45.8597 59.3502 45.5953 59.3042C45.1175 59.2167 44.635 59.1293 44.1619 59.0327C43.9114 58.982 43.6655 58.9268 43.4196 58.8716C42.8954 58.7611 42.3759 58.6461 41.8563 58.5218C41.5687 58.4528 41.2811 58.3792 40.9981 58.3055C40.5249 58.1859 40.0564 58.0662 39.5925 57.9374C39.1935 57.8269 38.7946 57.7165 38.3956 57.5968C38.2472 57.5508 38.0987 57.5094 37.9503 57.4634C37.3565 57.2839 36.7627 57.0952 36.1782 56.8973C36.0669 56.8605 35.9556 56.8191 35.8396 56.7823C35.3571 56.6166 34.8747 56.4417 34.3969 56.2669C34.2345 56.207 34.0721 56.1472 33.9098 56.0828C33.5294 55.9355 33.1583 55.7836 32.7825 55.6318C32.5274 55.5259 32.2676 55.4247 32.0124 55.3142C31.6506 55.1578 31.2888 54.9967 30.9316 54.8356C30.695 54.7298 30.4584 54.6239 30.2264 54.5181C29.8368 54.334 29.4517 54.1407 29.0667 53.9474C28.8765 53.8508 28.6817 53.7588 28.4961 53.6621C27.9302 53.3676 27.3735 53.0638 26.8261 52.7509C21.6815 49.8056 17.9842 46.3403 15.739 42.6495C15.4885 42.2399 15.2565 41.8257 15.0432 41.4115C14.7231 40.7903 14.4401 40.1598 14.2035 39.5293C14.0411 39.1059 13.902 38.6871 13.7767 38.2592C13.7164 38.0475 13.6561 37.8358 13.6051 37.6195C13.285 36.3401 13.1273 35.0561 13.1319 33.7676L12.9835 90.0549C12.9649 96.9211 17.5343 103.797 26.6776 109.034C27.225 109.347 27.7817 109.65 28.3477 109.945C28.5379 110.041 28.7327 110.133 28.9229 110.23C29.3033 110.423 29.6883 110.617 30.078 110.796C30.3099 110.907 30.5465 111.008 30.7831 111.114C31.1403 111.275 31.4975 111.436 31.8594 111.592C32.1145 111.703 32.3743 111.804 32.6294 111.91C32.8753 112.011 33.1212 112.117 33.367 112.214C33.4923 112.264 33.6268 112.31 33.7521 112.361C33.9144 112.421 34.0768 112.485 34.2391 112.545C34.717 112.724 35.1948 112.895 35.6819 113.06C35.7932 113.097 35.9045 113.139 36.0159 113.175C36.6004 113.373 37.1942 113.562 37.7879 113.741C37.9364 113.787 38.0848 113.829 38.2333 113.875C38.4884 113.949 38.7436 114.027 39.0033 114.1C39.1425 114.142 39.291 114.174 39.4301 114.211C39.894 114.34 40.3672 114.459 40.8357 114.579C41.1233 114.653 41.4063 114.726 41.6939 114.795C42.2089 114.92 42.7331 115.035 43.2573 115.145C43.4521 115.187 43.6423 115.237 43.8418 115.274C43.8928 115.283 43.9485 115.292 43.9995 115.302C44.4727 115.398 44.9551 115.486 45.4329 115.573C45.6927 115.619 45.9525 115.674 46.2169 115.716C46.8432 115.822 47.4694 115.918 48.1003 116.01C48.2163 116.029 48.3276 116.047 48.4436 116.065C48.4483 116.065 48.4575 116.065 48.4622 116.065C49.1951 116.167 49.9374 116.263 50.6796 116.342C50.8559 116.36 51.0322 116.374 51.2084 116.392C51.7744 116.452 52.345 116.507 52.9109 116.558C52.9248 116.558 52.9388 116.558 52.9527 116.558C53.2078 116.581 53.4676 116.59 53.7227 116.609C54.2006 116.641 54.6784 116.678 55.1562 116.705C55.467 116.724 55.7732 116.728 56.084 116.742C56.5247 116.76 56.97 116.783 57.4107 116.793C57.4478 116.793 57.4849 116.793 57.5221 116.793C57.7726 116.797 58.0184 116.793 58.2689 116.802C58.7514 116.811 59.2338 116.816 59.7209 116.816C60.0364 116.816 60.3518 116.806 60.6673 116.802C61.1172 116.797 61.5719 116.788 62.0218 116.774C62.1053 116.774 62.1888 116.774 62.2723 116.77C62.4811 116.76 62.6898 116.747 62.9032 116.737C63.4228 116.714 63.9424 116.691 64.4619 116.659C64.7774 116.641 65.0882 116.618 65.399 116.595C65.8954 116.558 66.3964 116.517 66.8927 116.47C67.069 116.457 67.2407 116.443 67.4169 116.429C67.6396 116.406 67.8669 116.378 68.0896 116.355C68.2519 116.337 68.4143 116.323 68.572 116.305C69.2169 116.231 69.857 116.153 70.4926 116.061C70.5853 116.047 70.6781 116.033 70.7709 116.019C71.3322 115.941 71.8889 115.854 72.4456 115.762C72.6079 115.734 72.7749 115.707 72.9373 115.679C73.0672 115.656 73.2017 115.638 73.3316 115.615C73.5635 115.573 73.7909 115.522 74.0182 115.481C74.4264 115.403 74.83 115.329 75.2336 115.242C75.5629 115.173 75.8923 115.099 76.217 115.03C76.6113 114.943 77.0057 114.855 77.4 114.759C77.7247 114.68 78.0494 114.597 78.3742 114.515C78.7592 114.413 79.1442 114.317 79.5292 114.211C79.8493 114.123 80.1694 114.031 80.4895 113.939C80.8699 113.829 81.2457 113.714 81.6214 113.599C81.7838 113.548 81.9508 113.502 82.1132 113.452C82.3451 113.378 82.5724 113.3 82.7997 113.221C82.9389 113.175 83.078 113.129 83.2172 113.083C83.7971 112.886 84.3677 112.678 84.9336 112.467C85.0403 112.425 85.1424 112.384 85.2444 112.347C85.7223 112.163 86.1954 111.974 86.6686 111.776C86.8124 111.717 86.9516 111.657 87.0954 111.597C87.6474 111.362 88.1902 111.118 88.7283 110.87C88.7932 110.842 88.8535 110.81 88.9138 110.778C89.3917 110.552 89.8648 110.318 90.3334 110.074C90.4725 110.005 90.6071 109.931 90.7462 109.862C91.2658 109.59 91.7807 109.31 92.2817 109.02C92.4719 108.909 92.6621 108.799 92.8477 108.688C93.1863 108.486 93.5157 108.283 93.8404 108.076C93.9007 108.04 93.9564 108.003 94.0167 107.961C94.4852 107.662 94.9398 107.354 95.3805 107.046C95.4316 107.009 95.478 106.977 95.529 106.94C95.9697 106.627 96.4011 106.309 96.814 105.982C96.8557 105.95 96.8929 105.918 96.9346 105.886C97.3521 105.559 97.7557 105.223 98.1454 104.887C98.1732 104.86 98.201 104.837 98.2335 104.809C98.4005 104.662 98.5675 104.519 98.7252 104.372C98.9015 104.206 99.0732 104.04 99.2448 103.875C99.3051 103.815 99.3701 103.755 99.4304 103.695C99.769 103.364 100.089 103.033 100.4 102.697C100.474 102.618 100.544 102.536 100.613 102.457C100.873 102.167 101.128 101.873 101.369 101.578C101.42 101.514 101.476 101.449 101.527 101.39C101.55 101.362 101.578 101.33 101.601 101.302C101.847 100.989 102.079 100.676 102.307 100.363C102.353 100.299 102.399 100.235 102.446 100.166C102.687 99.8204 102.919 99.4706 103.132 99.1209C103.169 99.0656 103.202 99.0058 103.234 98.9506C103.313 98.8171 103.397 98.6883 103.471 98.5548C103.601 98.3247 103.726 98.0946 103.847 97.8599C103.861 97.8323 103.87 97.8093 103.884 97.7817C104.083 97.3951 104.269 97.0039 104.436 96.6128C104.436 96.6128 104.436 96.6035 104.44 96.6035C104.533 96.3827 104.621 96.1618 104.709 95.9409C104.774 95.766 104.839 95.5865 104.9 95.4116C104.909 95.3886 104.918 95.3656 104.928 95.338C105.057 94.9514 105.169 94.5603 105.271 94.1737C105.28 94.1415 105.289 94.1047 105.299 94.0724C105.359 93.8331 105.415 93.5892 105.461 93.3499C105.489 93.2073 105.512 93.0692 105.535 92.9265C105.545 92.8805 105.554 92.8391 105.558 92.7931C105.619 92.4157 105.665 92.0429 105.702 91.6656C105.707 91.615 105.712 91.5643 105.716 91.5137C105.739 91.2468 105.753 90.9753 105.763 90.7084C105.763 90.5749 105.767 90.4369 105.767 90.3034L105.93 34.0345C105.93 34.4395 105.911 34.8398 105.874 35.2448L105.869 35.2586Z" fill="url(#paint6_radial_12759_7717)"/>
<path d="M119.505 46.4437C119.501 46.5263 119.494 46.6088 119.486 46.6914C119.478 46.7626 119.467 46.8339 119.459 46.9052C119.448 46.9878 119.437 47.0703 119.421 47.1528C119.406 47.2241 119.391 47.2992 119.376 47.3704C119.357 47.4492 119.338 47.5318 119.315 47.6106C119.296 47.6819 119.273 47.7569 119.25 47.8282C119.224 47.907 119.197 47.9858 119.171 48.0683C119.144 48.1396 119.117 48.2109 119.091 48.2821C119.057 48.3647 119.022 48.4472 118.984 48.5335C118.954 48.6048 118.92 48.6723 118.886 48.7399C118.844 48.8224 118.802 48.905 118.756 48.9875C118.718 49.055 118.684 49.1226 118.642 49.1864C118.585 49.2839 118.525 49.3815 118.46 49.479C118.422 49.539 118.384 49.5991 118.342 49.6553C118.266 49.7604 118.186 49.8692 118.107 49.9742C118.072 50.0193 118.038 50.068 118 50.1131C117.867 50.2819 117.719 50.447 117.567 50.6121C117.529 50.6533 117.487 50.6946 117.445 50.7359C117.324 50.8597 117.198 50.9835 117.065 51.1073C117.005 51.1636 116.948 51.2199 116.883 51.2724C116.803 51.3437 116.724 51.4112 116.644 51.4788C116.568 51.5425 116.492 51.6063 116.416 51.6663C116.332 51.7339 116.245 51.8014 116.154 51.869C116.074 51.929 115.99 51.9928 115.907 52.0528C115.815 52.1166 115.72 52.1841 115.625 52.2479C115.538 52.3079 115.451 52.3679 115.359 52.428C115.261 52.4918 115.158 52.5555 115.055 52.6156C114.926 52.6944 114.801 52.7732 114.668 52.8482L114.637 63.2146L114.668 52.8519L71.9958 77.3367L71.9312 129.397L71.9958 77.3405C71.745 77.483 71.4905 77.6181 71.2283 77.7532C71.1523 77.7907 71.0763 77.8282 71.0041 77.8657C70.7989 77.967 70.5937 78.0608 70.3847 78.1546C70.3163 78.1847 70.2479 78.2184 70.1757 78.2484C69.9021 78.3647 69.6248 78.4773 69.3436 78.5824C69.2942 78.6011 69.2448 78.6161 69.1954 78.6349C68.956 78.7212 68.7166 78.8075 68.4696 78.8863C68.3708 78.92 68.2682 78.95 68.1694 78.9838C68.0364 79.0251 67.8996 79.0663 67.7628 79.1076C67.6488 79.1414 67.5349 79.1751 67.4171 79.2052C67.2803 79.2427 67.1397 79.2802 67.0029 79.314C66.8851 79.344 66.7711 79.374 66.6533 79.4003C66.5127 79.434 66.3683 79.4678 66.2277 79.4978C66.1099 79.5241 65.9959 79.5503 65.8781 79.5729C65.7337 79.6029 65.5855 79.6291 65.4411 79.6591C65.331 79.6817 65.2208 79.7004 65.1068 79.7192C64.7952 79.7755 64.4798 79.8242 64.1644 79.8692C64.1188 79.8768 64.0732 79.8805 64.0314 79.8843C63.754 79.9218 63.4804 79.9518 63.1993 79.9818C63.0929 79.9931 62.9865 80.0043 62.8839 80.0118C62.7053 80.0268 62.5267 80.0418 62.3443 80.0568C62.2341 80.0643 62.1201 80.0718 62.0099 80.0794C61.8237 80.0906 61.6337 80.0981 61.4475 80.1056C61.3449 80.1094 61.2385 80.1169 61.136 80.1169C60.9726 80.1206 60.8092 80.1244 60.6496 80.1244C60.5356 80.1244 60.4216 80.1281 60.3076 80.1281C60.1328 80.1281 59.9618 80.1281 59.787 80.1244C59.6844 80.1244 59.5818 80.1244 59.4792 80.1206C59.3196 80.1169 59.16 80.1094 59.0005 80.1019C58.8903 80.0981 58.7801 80.0944 58.6699 80.0869C58.4989 80.0794 58.3279 80.0644 58.1569 80.0531C58.0581 80.0456 57.9593 80.0418 57.8643 80.0343C57.6591 80.0193 57.4577 79.9968 57.2525 79.9743C57.1879 79.9668 57.1233 79.963 57.0625 79.9555C56.7966 79.9255 56.5306 79.8918 56.2646 79.8542C56.2228 79.8467 56.181 79.843 56.1392 79.8355C55.9112 79.8017 55.6832 79.7679 55.4552 79.7304C55.3602 79.7154 55.269 79.6967 55.174 79.6779C55.003 79.6479 54.8282 79.6141 54.6573 79.5804C54.5661 79.5616 54.4787 79.5428 54.3913 79.5241C54.2051 79.4828 54.0189 79.4415 53.8327 79.4003C53.7301 79.374 53.6275 79.3477 53.5211 79.3215C53.3539 79.2802 53.1829 79.2352 53.0157 79.1902C52.9207 79.1639 52.8257 79.1376 52.7308 79.1114C52.4648 79.0363 52.2026 78.9538 51.9442 78.8713C51.8986 78.8562 51.8492 78.8412 51.8036 78.8262C51.5034 78.7249 51.2108 78.6199 50.922 78.5073C50.8612 78.4848 50.8004 78.4585 50.7396 78.436C50.3635 78.286 49.9949 78.1284 49.6339 77.9595C49.5997 77.9445 49.5617 77.9258 49.5275 77.907C49.1513 77.7269 48.7865 77.5393 48.4332 77.3367L5.47618 52.8482C2.18933 50.976 0.547809 48.5148 0.555408 46.061L0.475612 103.179C0.468013 105.633 2.10953 108.094 5.39638 109.966L5.46478 56.0298L5.39638 109.97L48.3495 134.455C48.7029 134.657 49.0715 134.845 49.4439 135.025C49.4781 135.044 49.5161 135.059 49.5503 135.077C49.9113 135.246 50.2799 135.404 50.656 135.554C50.6902 135.565 50.7206 135.584 50.751 135.595C50.7776 135.606 50.808 135.614 50.8346 135.625C51.1234 135.738 51.4198 135.843 51.7162 135.944C51.7618 135.959 51.8074 135.974 51.853 135.989C52.1114 136.075 52.3774 136.154 52.6433 136.233C52.6889 136.244 52.7307 136.259 52.7763 136.274C52.8257 136.289 52.8789 136.3 52.9283 136.315C53.0955 136.361 53.2627 136.406 53.4337 136.447C53.5363 136.473 53.6389 136.499 53.7415 136.522C53.9277 136.567 54.1139 136.608 54.3001 136.646C54.3723 136.661 54.4407 136.679 54.5091 136.694C54.5281 136.698 54.5471 136.702 54.5661 136.706C54.7371 136.739 54.9118 136.773 55.0828 136.803C55.174 136.818 55.269 136.837 55.3602 136.856C55.5882 136.893 55.8162 136.931 56.0442 136.961C56.0822 136.965 56.1202 136.972 56.1582 136.98C56.1582 136.98 56.162 136.98 56.1658 136.98C56.4318 137.017 56.694 137.051 56.9638 137.081C57.0283 137.088 57.0929 137.092 57.1537 137.1C57.3551 137.122 57.5603 137.141 57.7655 137.16C57.7693 137.16 57.7769 137.16 57.7807 137.16C57.8757 137.167 57.9707 137.171 58.0657 137.178C58.2367 137.19 58.4039 137.205 58.5749 137.212C58.6889 137.22 58.8029 137.22 58.9169 137.227C59.0727 137.235 59.2284 137.242 59.3842 137.246C59.3956 137.246 59.4108 137.246 59.4222 137.246C59.5134 137.246 59.6046 137.246 59.6958 137.246C59.8668 137.246 60.0416 137.25 60.2126 137.25C60.3266 137.25 60.4406 137.25 60.5546 137.246C60.718 137.246 60.8776 137.242 61.041 137.238C61.0714 137.238 61.1018 137.238 61.1322 137.238C61.2081 137.238 61.2841 137.231 61.3601 137.227C61.5463 137.22 61.7325 137.212 61.9187 137.201C62.0327 137.193 62.1429 137.186 62.2569 137.178C62.4355 137.167 62.6141 137.152 62.7927 137.133C62.8535 137.126 62.9181 137.126 62.9789 137.118C63.0207 137.115 63.0663 137.107 63.1081 137.103C63.3854 137.073 63.6628 137.043 63.9402 137.006C63.9858 136.998 64.0314 136.995 64.0732 136.991C64.3886 136.946 64.704 136.897 65.0156 136.841C65.046 136.837 65.0726 136.833 65.103 136.826C65.1866 136.811 65.2664 136.792 65.35 136.777C65.4981 136.751 65.6425 136.721 65.7869 136.691C65.9047 136.668 66.0225 136.642 66.1403 136.616C66.2847 136.586 66.4253 136.552 66.5659 136.518C66.6837 136.492 66.7977 136.462 66.9155 136.432C67.0561 136.398 67.1929 136.361 67.3297 136.323C67.4436 136.293 67.5614 136.259 67.6754 136.225C67.8122 136.184 67.9452 136.147 68.082 136.102C68.139 136.083 68.1998 136.068 68.2606 136.049C68.3024 136.034 68.3442 136.019 68.386 136.004C68.6292 135.925 68.8686 135.843 69.108 135.753C69.1574 135.734 69.2106 135.719 69.26 135.7C69.5412 135.595 69.8185 135.483 70.0921 135.366C70.1643 135.336 70.2327 135.302 70.3049 135.272C70.5139 135.179 70.7191 135.085 70.9243 134.984C71.0003 134.946 71.0763 134.909 71.1523 134.871C71.4145 134.74 71.6691 134.605 71.9198 134.462L114.596 109.977C114.664 109.936 114.732 109.895 114.797 109.857C114.862 109.82 114.919 109.782 114.979 109.745C115.082 109.681 115.185 109.621 115.283 109.557C115.375 109.497 115.462 109.437 115.549 109.377C115.644 109.313 115.739 109.249 115.831 109.182C115.914 109.122 115.998 109.058 116.078 108.998C116.165 108.931 116.252 108.863 116.34 108.795C116.42 108.732 116.496 108.672 116.568 108.608C116.651 108.54 116.731 108.469 116.807 108.401C116.838 108.371 116.876 108.345 116.906 108.315C116.936 108.289 116.959 108.259 116.99 108.233C117.123 108.109 117.248 107.985 117.369 107.861C117.411 107.82 117.453 107.779 117.491 107.737C117.643 107.572 117.787 107.407 117.924 107.238C117.932 107.231 117.936 107.223 117.943 107.216C117.974 107.178 118 107.137 118.031 107.1C118.11 106.995 118.19 106.889 118.266 106.781C118.308 106.721 118.346 106.664 118.384 106.604C118.449 106.507 118.509 106.409 118.566 106.312C118.582 106.285 118.601 106.259 118.616 106.233C118.639 106.192 118.658 106.154 118.677 106.113C118.722 106.03 118.764 105.948 118.806 105.865C118.84 105.798 118.874 105.726 118.905 105.659C118.943 105.576 118.977 105.494 119.011 105.407C119.026 105.37 119.045 105.332 119.06 105.295C119.072 105.261 119.083 105.227 119.095 105.194C119.125 105.115 119.148 105.036 119.174 104.954C119.197 104.882 119.22 104.807 119.239 104.736C119.262 104.657 119.281 104.575 119.3 104.496C119.311 104.451 119.323 104.409 119.33 104.364C119.338 104.334 119.338 104.304 119.345 104.278C119.361 104.196 119.372 104.113 119.383 104.031C119.395 103.959 119.402 103.888 119.41 103.813C119.418 103.73 119.425 103.648 119.429 103.565C119.429 103.517 119.437 103.468 119.44 103.419C119.44 103.37 119.44 103.321 119.44 103.273L119.52 46.1548C119.52 46.2524 119.513 46.3462 119.509 46.4437H119.505Z" fill="url(#paint7_linear_12759_7717)"/>
<path d="M81.7539 10.7683C85.4697 11.951 88.9678 13.4461 92.127 15.2546L92.2285 15.2087C110.404 25.6185 110.502 42.4992 92.4424 52.9089C89.1627 54.8003 85.5072 56.3468 81.6152 57.5525C80.1169 58.0173 78.5857 58.4262 77.0225 58.7898C71.3861 60.0968 65.3829 60.7366 59.3848 60.7136C47.6158 60.6722 35.8515 58.0677 26.8428 52.9089C25.3538 52.0576 23.9805 51.1559 22.7373 50.2263C21.4895 49.2921 20.3623 48.3206 19.3604 47.322L19.2578 47.3679C9.01985 37.1791 11.4274 23.957 26.5225 15.2546C29.4032 13.5934 32.5717 12.1992 35.9395 11.0671C34.6824 12.5811 33.9871 14.2794 33.9824 16.0603L33.9355 32.9402C32.748 35.0432 32.5299 37.6208 33.9121 40.7224C33.9306 40.7729 33.9544 40.8281 33.9775 40.8787C38.7696 48.2511 49.1659 48.7537 54.8672 48.7859C56.4303 48.7951 57.9562 48.7024 59.4219 48.5183C67.0715 47.5657 73.1771 44.1417 74.8193 39.5857L75 39.1072L77.083 36.8152L77.0918 36.8064C79.7592 33.6356 81.7031 30.078 81.7031 27.1833L81.7266 19.8386L81.7539 10.7683ZM54.7275 12.9138L52.251 7.75562C53.0812 7.682 53.9119 7.62194 54.7422 7.57593L54.7275 12.9138Z" fill="url(#paint8_radial_12759_7717)"/>
<path d="M79.177 2.22316C83.9134 4.93375 81.4872 11.1051 77.1451 16.2639L59.5217 13.5533L54.7529 3.43349C63.72 0.920788 74.4406 -0.492033 79.177 2.22316Z" fill="url(#paint9_radial_12759_7717)"/>
<path d="M40.2237 24.6659C36.4383 22.4983 34.0585 19.5162 33.9843 16.2396C33.8544 10.6665 40.4835 5.88503 49.9237 4.74373L50.7588 4.64248C40.3257 24.4772 40.2283 24.6613 40.2283 24.6659H40.2237Z" fill="url(#paint10_radial_12759_7717)"/>
<path d="M75.0576 18.5637L74.8813 19.0469C72.9236 24.4773 64.6199 28.3016 54.9245 28.2418C49.2186 28.2096 44.0276 26.8474 40.2376 24.6798L75.0529 18.5637H75.0576Z" fill="url(#paint11_radial_12759_7717)"/>
<defs>
<linearGradient id="paint0_linear_12759_7717" x1="59.4547" y1="19.3446" x2="59.9893" y2="80.4447" gradientUnits="userSpaceOnUse">
<stop stop-color="#FFBF00"/>
<stop offset="1" stop-color="#FFBF00" stop-opacity="0.3"/>
</linearGradient>
<linearGradient id="paint1_linear_12759_7717" x1="57.0554" y1="16.2048" x2="57.0554" y2="82.3314" gradientUnits="userSpaceOnUse">
<stop stop-color="#624B06"/>
<stop offset="0.322115" stop-color="#FFBF00" stop-opacity="0"/>
</linearGradient>
<linearGradient id="paint2_linear_12759_7717" x1="67.4948" y1="19.3641" x2="68.2402" y2="83.6457" gradientUnits="userSpaceOnUse">
<stop stop-color="#896908"/>
<stop offset="0.387172" stop-color="#D5A61C"/>
<stop offset="0.528921" stop-color="#ECBD34" stop-opacity="0"/>
</linearGradient>
<linearGradient id="paint3_linear_12759_7717" x1="79.3763" y1="19.3175" x2="79.3763" y2="84.9405" gradientUnits="userSpaceOnUse">
<stop stop-color="#BD8F04"/>
<stop offset="0.320511" stop-color="#FFBF00"/>
<stop offset="0.517152" stop-color="#FFBF00" stop-opacity="0"/>
</linearGradient>
<linearGradient id="paint4_linear_12759_7717" x1="54.3493" y1="29.3762" x2="54.3493" y2="97.3636" gradientUnits="userSpaceOnUse">
<stop stop-color="#BD8F04"/>
<stop offset="0.320511" stop-color="#FFBF00"/>
<stop offset="0.517152" stop-color="#FFBF00" stop-opacity="0"/>
</linearGradient>
<linearGradient id="paint5_linear_12759_7717" x1="54.3493" y1="29.3762" x2="54.3493" y2="97.3636" gradientUnits="userSpaceOnUse">
<stop stop-color="#BD8F04"/>
<stop offset="0.320511" stop-color="#FFBF00"/>
<stop offset="0.517152" stop-color="#FFBF00" stop-opacity="0"/>
</linearGradient>
<radialGradient id="paint6_radial_12759_7717" cx="0" cy="0" r="1" gradientTransform="matrix(0 58.0561 -64.8429 1.90454 59.4542 58.7026)" gradientUnits="userSpaceOnUse">
<stop stop-color="#FFBF00"/>
<stop offset="0.655314" stop-color="white" stop-opacity="0.8"/>
<stop offset="1" stop-color="white" stop-opacity="0"/>
</radialGradient>
<linearGradient id="paint7_linear_12759_7717" x1="59.4547" y1="74.3081" x2="65.6113" y2="170.944" gradientUnits="userSpaceOnUse">
<stop stop-color="#FFBF00"/>
<stop offset="1" stop-color="#FFBF00" stop-opacity="0"/>
</linearGradient>
<radialGradient id="paint8_radial_12759_7717" cx="0" cy="0" r="1" gradientTransform="matrix(0.893624 33.6857 -58.8787 1.53703 61.2417 27.3465)" gradientUnits="userSpaceOnUse">
<stop stop-color="#FFE391"/>
<stop offset="1" stop-color="white"/>
</radialGradient>
<radialGradient id="paint9_radial_12759_7717" cx="0" cy="0" r="1" gradientUnits="userSpaceOnUse" gradientTransform="translate(57.8722 14.4962) rotate(90) scale(13.7463 23.8897)">
<stop stop-color="#FFBF00"/>
</radialGradient>
<radialGradient id="paint10_radial_12759_7717" cx="0" cy="0" r="1" gradientUnits="userSpaceOnUse" gradientTransform="translate(57.8722 14.4962) rotate(90) scale(13.7463 23.8897)">
<stop stop-color="#FFBF00"/>
</radialGradient>
<radialGradient id="paint11_radial_12759_7717" cx="0" cy="0" r="1" gradientUnits="userSpaceOnUse" gradientTransform="translate(57.8722 14.4962) rotate(90) scale(13.7463 23.8897)">
<stop stop-color="#FFBF00"/>
</radialGradient>
</defs>
</svg>
