<svg width="184" height="88" viewBox="0 0 184 88" fill="none" xmlns="http://www.w3.org/2000/svg">
<g opacity="0.3" filter="url(#filter0_f_13912_29252)">
<path d="M111.674 11.8082C115.683 9.50045 122.167 9.50045 126.15 11.8082L135.026 16.9448C137.27 17.7177 139.386 18.6614 141.318 19.7765C143.271 20.9043 144.922 22.1412 146.27 23.4525L180.158 43.0712C184.14 45.3766 184.118 49.1151 180.109 51.4229L172.549 55.7671L180.109 60.1174C182.847 61.6933 183.723 63.9353 182.736 65.9337C182.786 65.8546 182.839 65.7767 182.883 65.6977C182.893 65.6779 182.902 65.6596 182.912 65.6398C182.965 65.5298 183.012 65.4159 183.053 65.3056C183.08 65.2289 183.099 65.1552 183.119 65.0782C183.139 65.015 183.154 64.9484 183.168 64.8852C183.182 64.8082 183.19 64.7265 183.197 64.646L183.18 64.6575C183.186 64.5808 183.2 64.5065 183.2 64.4327L182.889 120.039V120.108C182.888 120.158 182.875 120.211 182.871 120.261C182.864 120.338 182.859 120.42 182.845 120.5C182.842 120.513 182.842 120.527 182.842 120.541C182.832 120.594 182.81 120.643 182.796 120.693C182.776 120.77 182.76 120.847 182.733 120.921C182.726 120.937 182.725 120.95 182.718 120.967C182.682 121.064 182.639 121.162 182.592 121.255C182.582 121.275 182.57 121.292 182.56 121.313C182.544 121.339 182.531 121.369 182.514 121.399C182.463 121.489 182.405 121.577 182.344 121.664C182.334 121.681 182.32 121.699 182.307 121.716C182.273 121.759 182.243 121.805 182.206 121.851C182.162 121.911 182.107 121.97 182.056 122.027C182.04 122.043 182.023 122.062 182.007 122.082C181.923 122.175 181.831 122.268 181.733 122.358C181.72 122.372 181.698 122.385 181.684 122.399C181.61 122.465 181.529 122.528 181.448 122.592C181.381 122.648 181.312 122.706 181.238 122.759C181.15 122.819 181.053 122.88 180.958 122.94C180.891 122.984 180.83 123.026 180.76 123.07C180.729 123.087 180.695 123.108 180.665 123.125L123.978 155.782C123.813 155.876 123.638 155.967 123.462 156.05C123.415 156.073 123.365 156.096 123.318 156.116C123.16 156.19 122.997 156.26 122.828 156.324C122.808 156.333 122.788 156.34 122.765 156.349C122.613 156.41 122.457 156.464 122.298 156.514C122.271 156.523 122.241 156.527 122.215 156.537C122.083 156.577 121.952 156.612 121.82 156.649C121.722 156.676 121.622 156.706 121.52 156.73C121.382 156.763 121.239 156.792 121.097 156.819C121.016 156.836 120.934 156.86 120.849 156.874C120.836 156.877 120.819 156.88 120.806 156.88C120.519 156.93 120.229 156.97 119.936 157C119.912 157.004 119.89 157.009 119.87 157.009C119.799 157.016 119.733 157.017 119.662 157.024C119.49 157.037 119.316 157.051 119.144 157.058C119.103 157.058 119.063 157.064 119.023 157.064H118.239C118.175 157.064 118.108 157.052 118.043 157.052C117.912 157.049 117.783 157.042 117.654 157.032C117.6 157.029 117.542 157.027 117.485 157.024C117.424 157.02 117.363 157.01 117.303 157.003C117.175 156.99 117.051 156.977 116.923 156.96C116.862 156.954 116.799 156.947 116.741 156.94C116.684 156.934 116.63 156.924 116.577 156.914C116.442 156.894 116.306 156.869 116.171 156.842C116.111 156.829 116.044 156.824 115.984 156.81C115.94 156.804 115.898 156.789 115.854 156.779C115.692 156.742 115.537 156.701 115.379 156.661C115.314 156.644 115.247 156.631 115.183 156.615C115.145 156.605 115.11 156.593 115.073 156.583C115.019 156.566 114.966 156.548 114.912 156.531C114.753 156.481 114.597 156.43 114.445 156.373C114.401 156.356 114.356 156.343 114.313 156.326C114.293 156.317 114.272 156.31 114.252 156.303C114.134 156.257 114.024 156.204 113.909 156.154C113.842 156.123 113.772 156.097 113.708 156.067C113.515 155.977 113.331 155.877 113.149 155.773L56.0903 123.119C54.5772 122.255 53.8262 121.119 53.8262 119.987L54.1371 64.3781C54.135 65.0669 54.4159 65.7567 54.9755 66.3862C53.5798 64.2796 54.3383 61.8128 57.2688 60.1174L64.7763 55.7671L57.2688 51.4229C53.2843 49.1175 53.3055 45.3786 57.3148 43.0712L89.9289 24.3112C91.4083 22.6793 93.3358 21.1476 95.7109 19.7765C98.1139 18.3894 100.803 17.2696 103.668 16.4117L111.674 11.8082Z" fill="#0665FC"/>
</g>
<path d="M57.3143 68.4721C53.3047 66.1643 53.2826 62.4254 57.268 60.1203L111.274 28.8542C115.257 26.5467 121.739 26.5467 125.748 28.8542L180.108 60.1203C184.117 62.4278 184.14 66.1666 180.156 68.4721L126.148 99.7359C122.165 102.043 115.684 102.043 111.674 99.7359L57.3143 68.4721Z" fill="white" fill-opacity="0.45"/>
<path d="M57.3143 68.4721C53.3047 66.1643 53.2826 62.4254 57.268 60.1203L111.274 28.8542C115.257 26.5467 121.739 26.5467 125.748 28.8542L180.108 60.1203C184.117 62.4278 184.14 66.1666 180.156 68.4721L126.148 99.7359C122.165 102.043 115.684 102.043 111.674 99.7359L57.3143 68.4721Z" fill="url(#paint0_radial_13912_29252)" fill-opacity="0.5"/>
<path d="M165.439 47.9177H72.7881V119.691H165.439V47.9177Z" fill="url(#paint1_radial_13912_29252)"/>
<path d="M151.837 67.4907C169.92 57.0515 169.92 40.1262 151.837 29.687C133.754 19.2479 104.436 19.2479 86.3532 29.687C68.2703 40.1262 68.2703 57.0515 86.3532 67.4907C104.436 77.9302 133.754 77.9302 151.837 67.4907Z" fill="url(#paint2_radial_13912_29252)"/>
<path d="M57.3143 43.0718C53.3047 45.3793 53.2826 49.1181 57.268 51.4236L111.274 82.6897C115.257 84.9972 121.739 84.9972 125.748 82.6897L180.108 51.4236C184.117 49.1161 184.14 45.3772 180.156 43.0718L126.148 11.808C122.165 9.50052 115.684 9.50052 111.674 11.808L57.3143 43.0718Z" fill="white" fill-opacity="0.45"/>
<path d="M57.3143 43.0718C53.3047 45.3793 53.2826 49.1181 57.268 51.4236L111.274 82.6897C115.257 84.9972 121.739 84.9972 125.748 82.6897L180.108 51.4236C184.117 49.1161 184.14 45.3772 180.156 43.0718L126.148 11.808C122.165 9.50052 115.684 9.50052 111.674 11.808L57.3143 43.0718Z" fill="url(#paint3_radial_13912_29252)"/>
<path d="M183.196 64.649C183.189 64.7295 183.182 64.8097 183.169 64.8867C183.155 64.9504 183.138 65.0174 183.118 65.0811C183.098 65.1581 183.081 65.2316 183.054 65.3089C183.013 65.4192 182.966 65.5331 182.912 65.6437C182.902 65.6638 182.892 65.6806 182.882 65.7006C182.817 65.8178 182.746 65.9384 182.665 66.0523C182.652 66.0688 182.642 66.0856 182.628 66.1024C182.551 66.2095 182.466 66.3133 182.375 66.4139C182.358 66.434 182.341 66.4541 182.324 66.4709C182.226 66.578 182.118 66.6818 182 66.7856C181.925 66.8526 181.845 66.916 181.764 66.9798C181.692 67.0367 181.625 67.0936 181.551 67.1473C181.463 67.2107 181.368 67.2677 181.274 67.3281C181.176 67.3916 181.084 67.4553 180.983 67.5122L124.296 100.169C124.13 100.266 123.955 100.353 123.779 100.437C123.732 100.46 123.685 100.48 123.637 100.504C123.478 100.577 123.313 100.648 123.147 100.711C123.127 100.721 123.103 100.728 123.083 100.738C122.904 100.805 122.718 100.866 122.533 100.926C122.404 100.966 122.269 101.003 122.137 101.036C122.036 101.063 121.938 101.093 121.837 101.117C121.698 101.15 121.556 101.177 121.414 101.207C121.316 101.227 121.222 101.247 121.124 101.264C120.837 101.314 120.546 101.354 120.256 101.384C120.165 101.394 120.073 101.401 119.982 101.408C119.81 101.421 119.637 101.435 119.465 101.441C119.354 101.445 119.242 101.448 119.131 101.451C118.992 101.451 118.85 101.455 118.712 101.451C118.594 101.451 118.479 101.445 118.361 101.441C118.232 101.435 118.1 101.431 117.972 101.421C117.854 101.415 117.736 101.404 117.618 101.391C117.489 101.378 117.361 101.364 117.236 101.348C117.121 101.334 117.006 101.317 116.891 101.301C116.756 101.281 116.621 101.257 116.486 101.23C116.378 101.21 116.273 101.19 116.168 101.167C116.01 101.133 115.851 101.093 115.695 101.053C115.594 101.026 115.489 100.999 115.388 100.973C115.334 100.956 115.28 100.939 115.226 100.922C115.067 100.872 114.912 100.819 114.76 100.765C114.716 100.748 114.672 100.735 114.628 100.718C114.489 100.665 114.354 100.604 114.219 100.544C114.155 100.514 114.087 100.49 114.023 100.46C113.831 100.37 113.642 100.273 113.459 100.169L56.4 67.5122C54.8902 66.6482 54.1336 65.513 54.1368 64.3811L53.8262 119.989C53.8262 121.121 54.5761 122.256 56.0894 123.12L113.148 155.777C113.331 155.881 113.516 155.978 113.709 156.068C113.773 156.098 113.841 156.125 113.908 156.155C114.023 156.205 114.134 156.259 114.253 156.306C114.273 156.313 114.293 156.319 114.314 156.329C114.358 156.346 114.401 156.359 114.445 156.376C114.597 156.433 114.753 156.483 114.912 156.534C114.966 156.55 115.02 156.567 115.074 156.584C115.111 156.594 115.145 156.607 115.182 156.617C115.246 156.634 115.314 156.647 115.378 156.664C115.537 156.704 115.692 156.745 115.854 156.781C115.898 156.792 115.938 156.805 115.982 156.812C116.043 156.825 116.111 156.832 116.171 156.845C116.307 156.872 116.442 156.895 116.577 156.915C116.631 156.926 116.685 156.936 116.743 156.942C116.8 156.949 116.861 156.956 116.922 156.962C117.05 156.979 117.175 156.993 117.303 157.006C117.364 157.013 117.425 157.023 117.486 157.026C117.543 157.029 117.6 157.033 117.654 157.036C117.783 157.046 117.911 157.053 118.043 157.056C118.107 157.056 118.175 157.066 118.239 157.066C118.29 157.066 118.344 157.066 118.394 157.066C118.533 157.066 118.675 157.066 118.813 157.066C118.884 157.066 118.952 157.066 119.023 157.066C119.063 157.066 119.104 157.059 119.144 157.059C119.316 157.053 119.489 157.039 119.661 157.026C119.732 157.019 119.8 157.019 119.87 157.013C119.891 157.013 119.911 157.006 119.935 157.003C120.229 156.972 120.519 156.932 120.806 156.882C120.82 156.882 120.837 156.879 120.85 156.875C120.935 156.862 121.016 156.838 121.097 156.822C121.239 156.795 121.381 156.765 121.519 156.731C121.62 156.708 121.722 156.678 121.82 156.651C121.951 156.614 122.083 156.58 122.215 156.54C122.242 156.53 122.272 156.527 122.299 156.517C122.458 156.467 122.614 156.413 122.766 156.353C122.789 156.343 122.81 156.336 122.83 156.326C122.999 156.262 123.161 156.192 123.32 156.118C123.367 156.098 123.414 156.075 123.462 156.051C123.637 155.968 123.813 155.877 123.978 155.784L180.666 123.127C180.696 123.11 180.73 123.09 180.76 123.073C180.831 123.03 180.892 122.986 180.959 122.943C181.054 122.882 181.149 122.822 181.236 122.762C181.311 122.708 181.382 122.651 181.449 122.594C181.53 122.531 181.611 122.467 181.686 122.4C181.699 122.387 181.72 122.373 181.733 122.36C181.831 122.27 181.922 122.179 182.007 122.085C182.023 122.065 182.041 122.045 182.057 122.029C182.108 121.972 182.162 121.915 182.206 121.854C182.243 121.808 182.274 121.761 182.307 121.717C182.321 121.7 182.334 121.684 182.344 121.667C182.405 121.58 182.463 121.493 182.513 121.402C182.53 121.372 182.544 121.342 182.561 121.315C182.571 121.295 182.581 121.278 182.591 121.258C182.639 121.164 182.682 121.067 182.719 120.97C182.726 120.954 182.726 120.94 182.733 120.923C182.76 120.85 182.777 120.773 182.797 120.696C182.811 120.646 182.831 120.595 182.841 120.542C182.841 120.528 182.841 120.515 182.844 120.501C182.858 120.421 182.865 120.341 182.872 120.264C182.875 120.213 182.888 120.16 182.888 120.11C182.888 120.086 182.888 120.066 182.888 120.043L183.199 64.4348C183.199 64.5085 183.186 64.582 183.179 64.659L183.196 64.649Z" fill="white" fill-opacity="0.45"/>
<path d="M183.196 64.649C183.189 64.7295 183.182 64.8097 183.169 64.8867C183.155 64.9504 183.138 65.0174 183.118 65.0811C183.098 65.1581 183.081 65.2316 183.054 65.3089C183.013 65.4192 182.966 65.5331 182.912 65.6437C182.902 65.6638 182.892 65.6806 182.882 65.7006C182.817 65.8178 182.746 65.9384 182.665 66.0523C182.652 66.0688 182.642 66.0856 182.628 66.1024C182.551 66.2095 182.466 66.3133 182.375 66.4139C182.358 66.434 182.341 66.4541 182.324 66.4709C182.226 66.578 182.118 66.6818 182 66.7856C181.925 66.8526 181.845 66.916 181.764 66.9798C181.692 67.0367 181.625 67.0936 181.551 67.1473C181.463 67.2107 181.368 67.2677 181.274 67.3281C181.176 67.3916 181.084 67.4553 180.983 67.5122L124.296 100.169C124.13 100.266 123.955 100.353 123.779 100.437C123.732 100.46 123.685 100.48 123.637 100.504C123.478 100.577 123.313 100.648 123.147 100.711C123.127 100.721 123.103 100.728 123.083 100.738C122.904 100.805 122.718 100.866 122.533 100.926C122.404 100.966 122.269 101.003 122.137 101.036C122.036 101.063 121.938 101.093 121.837 101.117C121.698 101.15 121.556 101.177 121.414 101.207C121.316 101.227 121.222 101.247 121.124 101.264C120.837 101.314 120.546 101.354 120.256 101.384C120.165 101.394 120.073 101.401 119.982 101.408C119.81 101.421 119.637 101.435 119.465 101.441C119.354 101.445 119.242 101.448 119.131 101.451C118.992 101.451 118.85 101.455 118.712 101.451C118.594 101.451 118.479 101.445 118.361 101.441C118.232 101.435 118.1 101.431 117.972 101.421C117.854 101.415 117.736 101.404 117.618 101.391C117.489 101.378 117.361 101.364 117.236 101.348C117.121 101.334 117.006 101.317 116.891 101.301C116.756 101.281 116.621 101.257 116.486 101.23C116.378 101.21 116.273 101.19 116.168 101.167C116.01 101.133 115.851 101.093 115.695 101.053C115.594 101.026 115.489 100.999 115.388 100.973C115.334 100.956 115.28 100.939 115.226 100.922C115.067 100.872 114.912 100.819 114.76 100.765C114.716 100.748 114.672 100.735 114.628 100.718C114.489 100.665 114.354 100.604 114.219 100.544C114.155 100.514 114.087 100.49 114.023 100.46C113.831 100.37 113.642 100.273 113.459 100.169L56.4 67.5122C54.8902 66.6482 54.1336 65.513 54.1368 64.3811L53.8262 119.989C53.8262 121.121 54.5761 122.256 56.0894 123.12L113.148 155.777C113.331 155.881 113.516 155.978 113.709 156.068C113.773 156.098 113.841 156.125 113.908 156.155C114.023 156.205 114.134 156.259 114.253 156.306C114.273 156.313 114.293 156.319 114.314 156.329C114.358 156.346 114.401 156.359 114.445 156.376C114.597 156.433 114.753 156.483 114.912 156.534C114.966 156.55 115.02 156.567 115.074 156.584C115.111 156.594 115.145 156.607 115.182 156.617C115.246 156.634 115.314 156.647 115.378 156.664C115.537 156.704 115.692 156.745 115.854 156.781C115.898 156.792 115.938 156.805 115.982 156.812C116.043 156.825 116.111 156.832 116.171 156.845C116.307 156.872 116.442 156.895 116.577 156.915C116.631 156.926 116.685 156.936 116.743 156.942C116.8 156.949 116.861 156.956 116.922 156.962C117.05 156.979 117.175 156.993 117.303 157.006C117.364 157.013 117.425 157.023 117.486 157.026C117.543 157.029 117.6 157.033 117.654 157.036C117.783 157.046 117.911 157.053 118.043 157.056C118.107 157.056 118.175 157.066 118.239 157.066C118.29 157.066 118.344 157.066 118.394 157.066C118.533 157.066 118.675 157.066 118.813 157.066C118.884 157.066 118.952 157.066 119.023 157.066C119.063 157.066 119.104 157.059 119.144 157.059C119.316 157.053 119.489 157.039 119.661 157.026C119.732 157.019 119.8 157.019 119.87 157.013C119.891 157.013 119.911 157.006 119.935 157.003C120.229 156.972 120.519 156.932 120.806 156.882C120.82 156.882 120.837 156.879 120.85 156.875C120.935 156.862 121.016 156.838 121.097 156.822C121.239 156.795 121.381 156.765 121.519 156.731C121.62 156.708 121.722 156.678 121.82 156.651C121.951 156.614 122.083 156.58 122.215 156.54C122.242 156.53 122.272 156.527 122.299 156.517C122.458 156.467 122.614 156.413 122.766 156.353C122.789 156.343 122.81 156.336 122.83 156.326C122.999 156.262 123.161 156.192 123.32 156.118C123.367 156.098 123.414 156.075 123.462 156.051C123.637 155.968 123.813 155.877 123.978 155.784L180.666 123.127C180.696 123.11 180.73 123.09 180.76 123.073C180.831 123.03 180.892 122.986 180.959 122.943C181.054 122.882 181.149 122.822 181.236 122.762C181.311 122.708 181.382 122.651 181.449 122.594C181.53 122.531 181.611 122.467 181.686 122.4C181.699 122.387 181.72 122.373 181.733 122.36C181.831 122.27 181.922 122.179 182.007 122.085C182.023 122.065 182.041 122.045 182.057 122.029C182.108 121.972 182.162 121.915 182.206 121.854C182.243 121.808 182.274 121.761 182.307 121.717C182.321 121.7 182.334 121.684 182.344 121.667C182.405 121.58 182.463 121.493 182.513 121.402C182.53 121.372 182.544 121.342 182.561 121.315C182.571 121.295 182.581 121.278 182.591 121.258C182.639 121.164 182.682 121.067 182.719 120.97C182.726 120.954 182.726 120.94 182.733 120.923C182.76 120.85 182.777 120.773 182.797 120.696C182.811 120.646 182.831 120.595 182.841 120.542C182.841 120.528 182.841 120.515 182.844 120.501C182.858 120.421 182.865 120.341 182.872 120.264C182.875 120.213 182.888 120.16 182.888 120.11C182.888 120.086 182.888 120.066 182.888 120.043L183.199 64.4348C183.199 64.5085 183.186 64.582 183.179 64.659L183.196 64.649Z" fill="url(#paint4_linear_13912_29252)"/>
<path d="M92.8191 32.176C93.6965 31.5096 94.6567 30.8674 95.7107 30.2588C108.304 22.9888 128.722 22.9876 141.316 30.2573C142.368 30.8647 143.321 31.5093 144.198 32.1745H150.764L150.762 43.4624H150.757C150.739 48.2137 147.595 52.9617 141.316 56.5866C128.722 63.8572 108.302 63.8572 95.7081 56.5866C89.3856 52.9366 86.2386 48.147 86.2648 43.363L86.2672 32.176H92.8191Z" fill="url(#paint5_linear_13912_29252)"/>
<path d="M141.287 45.9297C153.825 38.6913 153.825 26.9556 141.287 19.7173C128.748 12.4789 108.42 12.4789 95.8813 19.7173C83.343 26.9556 83.343 38.6913 95.8813 45.9297C108.42 53.1681 128.748 53.1681 141.287 45.9297Z" fill="url(#paint6_radial_13912_29252)"/>
<path d="M140.58 42.1047C151.055 36.0577 151.039 26.2445 140.545 20.1863C130.051 14.1281 113.053 14.119 102.578 20.166C92.1036 26.213 92.1194 36.0261 102.613 42.0843C113.107 48.1425 130.106 48.1516 140.58 42.1047Z" fill="url(#paint7_radial_13912_29252)"/>
<path d="M132.366 41.2302C140.212 36.7006 140.228 29.3657 132.401 24.8474C124.575 20.329 111.869 20.3381 104.023 24.8678C96.177 29.3974 96.1612 36.7322 103.988 41.2505C111.815 45.7689 124.52 45.7598 132.366 41.2302Z" fill="url(#paint8_radial_13912_29252)"/>
<path d="M120.52 40.3327C124.628 37.9611 124.628 34.116 120.52 31.7445C116.412 29.3729 109.751 29.3729 105.643 31.7445C101.535 34.116 101.535 37.9611 105.643 40.3327C109.751 42.7043 116.412 42.7043 120.52 40.3327Z" fill="url(#paint9_radial_13912_29252)"/>
<defs>
<filter id="filter0_f_13912_29252" x="39.1492" y="-4.59953" width="158.727" height="176.34" filterUnits="userSpaceOnUse" color-interpolation-filters="sRGB">
<feFlood flood-opacity="0" result="BackgroundImageFix"/>
<feBlend mode="normal" in="SourceGraphic" in2="BackgroundImageFix" result="shape"/>
<feGaussianBlur stdDeviation="7.33846" result="effect1_foregroundBlur_13912_29252"/>
</filter>
<radialGradient id="paint0_radial_13912_29252" cx="0" cy="0" r="1" gradientTransform="matrix(-27.8222 76.8487 162.591 92.2247 118.675 45.6886)" gradientUnits="userSpaceOnUse">
<stop stop-color="#0665FC" stop-opacity="0.01"/>
<stop offset="1" stop-color="#0665FC"/>
</radialGradient>
<radialGradient id="paint1_radial_13912_29252" cx="0" cy="0" r="1" gradientUnits="userSpaceOnUse" gradientTransform="translate(119.114 55.6441) rotate(90.002) scale(63.9979 100.391)">
<stop stop-color="#0665FC"/>
<stop offset="0.611896" stop-color="#0665FC" stop-opacity="0.2"/>
<stop offset="1" stop-color="white" stop-opacity="0"/>
</radialGradient>
<radialGradient id="paint2_radial_13912_29252" cx="0" cy="0" r="1" gradientTransform="matrix(32.7421 23.8776 -37.0508 16.4137 119.095 43.6131)" gradientUnits="userSpaceOnUse">
<stop offset="0.645088" stop-color="white" stop-opacity="0.3"/>
<stop offset="1" stop-color="#0665FC"/>
</radialGradient>
<radialGradient id="paint3_radial_13912_29252" cx="0" cy="0" r="1" gradientTransform="matrix(-27.8222 -76.8487 162.591 -92.2247 118.675 65.8553)" gradientUnits="userSpaceOnUse">
<stop stop-color="#0665FC" stop-opacity="0.01"/>
<stop offset="1" stop-color="#0665FC"/>
</radialGradient>
<linearGradient id="paint4_linear_13912_29252" x1="-22.7929" y1="129.194" x2="257.934" y2="129.194" gradientUnits="userSpaceOnUse">
<stop stop-color="#131D52" stop-opacity="0.34"/>
<stop offset="0.332214" stop-color="#0665FC"/>
<stop offset="0.592213" stop-color="#0665FC" stop-opacity="0.21"/>
<stop offset="0.917213" stop-color="#0665FC" stop-opacity="0.5"/>
</linearGradient>
<linearGradient id="paint5_linear_13912_29252" x1="86.2646" y1="5.96358" x2="150.764" y2="52.2382" gradientUnits="userSpaceOnUse">
<stop stop-color="#5A9AFF"/>
<stop offset="1" stop-color="#0046B6"/>
</linearGradient>
<radialGradient id="paint6_radial_13912_29252" cx="0" cy="0" r="1" gradientTransform="matrix(22.7026 13.1062 -22.7026 13.1062 118.584 32.8235)" gradientUnits="userSpaceOnUse">
<stop stop-color="#0E122B"/>
<stop offset="0.252894" stop-color="#131D52"/>
<stop offset="0.608015" stop-color="#2750AA"/>
<stop offset="0.927083" stop-color="#A3EAFF"/>
</radialGradient>
<radialGradient id="paint7_radial_13912_29252" cx="0" cy="0" r="1" gradientTransform="matrix(19.0011 10.9693 -18.9659 10.949 121.579 31.1353)" gradientUnits="userSpaceOnUse">
<stop stop-color="#F85F97"/>
<stop offset="0.546875" stop-color="#330E18"/>
<stop offset="1" stop-color="#F00A38"/>
</radialGradient>
<radialGradient id="paint8_radial_13912_29252" cx="0" cy="0" r="1" gradientTransform="matrix(14.1715 8.1812 -14.2068 8.20158 118.195 33.049)" gradientUnits="userSpaceOnUse">
<stop stop-color="#23164B"/>
<stop offset="0.489583" stop-color="#15105D"/>
<stop offset="0.939782" stop-color="#2D68C6"/>
<stop offset="1" stop-color="white"/>
</radialGradient>
<radialGradient id="paint9_radial_13912_29252" cx="0" cy="0" r="1" gradientTransform="matrix(7.43829 4.29412 -7.43829 4.29412 113.082 36.0386)" gradientUnits="userSpaceOnUse">
<stop stop-color="#BB2354"/>
<stop offset="0.557292" stop-color="#CE2C65"/>
<stop offset="1" stop-color="#FF94CE"/>
</radialGradient>
</defs>
</svg>
