<svg width="20" height="20" viewBox="0 0 20 20" fill="none" xmlns="http://www.w3.org/2000/svg">
<rect width="20" height="20" rx="10" fill="black" fill-opacity="0.04"/>
<mask id="mask0_10520_12286" style="mask-type:luminance" maskUnits="userSpaceOnUse" x="3" y="4" width="14" height="12">
<path d="M16.4937 4.73043L14.0318 7.19245C13.7546 7.46965 13.4162 7.67108 13.048 7.78388C12.8248 7.85239 12.5908 7.88782 12.3531 7.88782L7.7681 7.88782C7.53042 7.88782 7.29637 7.85239 7.07319 7.78388C6.70497 7.67108 6.36653 7.46965 6.08939 7.19245C5.26837 6.37137 4.44813 5.55111 3.62751 4.73004C3.55097 4.65351 3.474 4.57656 3.39746 4.5C3.4148 4.66801 3.43975 4.84851 3.47562 5.03905C3.54329 5.40365 3.64926 5.80573 3.81362 6.22796C3.87967 6.39838 3.95139 6.56155 4.02712 6.71747C4.21931 7.11308 4.43845 7.4636 4.66649 7.77221C5.09592 8.35355 5.67846 8.78866 6.33632 9.04247C6.76901 9.20927 7.23391 9.29791 7.70928 9.29791L12.4119 9.29791C12.8873 9.29791 13.3522 9.20927 13.7849 9.04247C14.4427 8.78866 15.0253 8.35355 15.4547 7.77221C15.6823 7.46397 15.9019 7.11308 16.0937 6.71786C16.1698 6.56195 16.2415 6.39838 16.3076 6.22796C16.4719 5.80573 16.5779 5.40365 16.6456 5.03905C16.6814 4.84851 16.7064 4.66801 16.7238 4.5C16.6468 4.57696 16.5702 4.65351 16.4937 4.73043ZM3.90869 9.72875L5.52861 11.3491H8.09284L6.81091 12.6311L7.808 13.6282L10.087 11.3491L14.5414 11.3491L16.1622 9.72875C15.6115 9.17843 14.7187 9.17803 14.168 9.72875L13.9581 9.93907L6.11277 9.93907L5.90248 9.72875C5.62732 9.45359 5.26635 9.3158 4.90578 9.3158C4.54482 9.3158 4.18385 9.45359 3.90869 9.72875ZM10.4423 11.9901L8.2842 14.1045L9.21398 15.0343C9.66756 15.4879 10.403 15.4879 10.8566 15.0343L13.9006 11.9901L10.4423 11.9901Z" fill="white"/>
</mask>
<g mask="url(#mask0_10520_12286)">
<path d="M16.7497 4.50293L3.37305 4.50293L3.37305 15.372L16.7497 15.372V4.50293Z" fill="url(#paint0_linear_10520_12286)"/>
</g>
<defs>
<linearGradient id="paint0_linear_10520_12286" x1="3.37305" y1="9.77275" x2="16.7497" y2="9.77275" gradientUnits="userSpaceOnUse">
<stop offset="0.260417" stop-color="#4919F9"/>
<stop offset="0.713542" stop-color="#ED8620"/>
</linearGradient>
</defs>
</svg>
