<svg width="20" height="20" viewBox="0 0 20 20" fill="none" xmlns="http://www.w3.org/2000/svg">
<rect width="20" height="20" rx="10" fill="black" fill-opacity="0.04"/>
<g clip-path="url(#clip0_10520_12224)">
<path fill-rule="evenodd" clip-rule="evenodd" d="M10.125 17C13.991 17 17.125 13.866 17.125 10C17.125 6.134 13.991 3 10.125 3C6.259 3 3.125 6.134 3.125 10C3.125 13.866 6.259 17 10.125 17ZM5.27753 5.76435C5.12494 6.06383 5.12494 6.45587 5.12494 7.23994V12.7599C5.12494 13.544 5.12494 13.936 5.27753 14.2355C5.41175 14.499 5.62593 14.7131 5.88935 14.8473C6.18883 14.9999 6.58087 14.9999 7.36494 14.9999H12.8849C13.669 14.9999 14.061 14.9999 14.3605 14.8473C14.624 14.7131 14.8381 14.499 14.9723 14.2355C15.1249 13.936 15.1249 13.544 15.1249 12.7599V7.23993C15.1249 6.45587 15.1249 6.06383 14.9723 5.76435C14.8381 5.50093 14.624 5.28675 14.3605 5.15253C14.061 4.99994 13.669 4.99994 12.8849 4.99994H7.36493C6.58087 4.99994 6.18883 4.99994 5.88935 5.15253C5.62593 5.28675 5.41175 5.50093 5.27753 5.76435Z" fill="#1FFFA5"/>
</g>
<defs>
<clipPath id="clip0_10520_12224">
<rect width="14" height="14" fill="white" transform="translate(3.125 3)"/>
</clipPath>
</defs>
</svg>
