<svg width="16" height="16" viewBox="0 0 16 16" fill="none" xmlns="http://www.w3.org/2000/svg">
<path d="M8 2.40039C8.16719 2.40039 8.32894 2.45978 8.45605 2.56836C9.50605 3.48617 11.0002 4.2002 12.2002 4.2002C12.3593 4.20024 12.5115 4.26352 12.624 4.37598C12.7365 4.48846 12.7998 4.64073 12.7998 4.7998V8.99902C12.7998 11.9985 10.7001 13.4983 8.2041 14.3682C8.0734 14.4124 7.93108 14.4105 7.80176 14.3623C5.29985 13.4984 3.2002 11.9984 3.2002 8.99902V4.7998C3.20021 4.64074 3.26349 4.48846 3.37598 4.37598C3.48845 4.26352 3.64075 4.20025 3.7998 4.2002C4.99977 4.2002 6.49995 3.48017 7.54395 2.56836C7.67106 2.45978 7.83282 2.40039 8 2.40039ZM10.3662 6.63379C10.0539 6.32145 9.54683 6.32162 9.23438 6.63379L7.40039 8.46777L6.76562 7.83301C6.45334 7.52107 5.94711 7.5212 5.63477 7.83301C5.32238 8.14544 5.32235 8.65245 5.63477 8.96484L6.83496 10.1641C7.14737 10.4764 7.65341 10.4764 7.96582 10.1641L10.3662 7.76465C10.678 7.45229 10.6782 6.94607 10.3662 6.63379Z" fill="#53BA95"/>
</svg>
