<svg width="32" height="32" viewBox="0 0 32 32" fill="none" xmlns="http://www.w3.org/2000/svg">
<rect width="32" height="32" rx="16" fill="#00A3FF"/>
<path opacity="0.6" d="M22.5632 14.8633L22.7424 15.1381C24.7627 18.2374 24.3115 22.2964 21.6575 24.8968C20.0962 26.4266 18.0499 27.1916 16.0035 27.1918C16.0035 27.1918 16.0035 27.1918 22.5632 14.8633Z" fill="white"/>
<path opacity="0.2" d="M16.0028 18.6102L22.5625 14.8633C16.0028 27.1918 16.0028 27.1918 16.0028 27.1918C16.0028 24.5068 16.0028 21.43 16.0028 18.6102Z" fill="white"/>
<path d="M9.43678 14.8633L9.25764 15.1381C7.23727 18.2374 7.68849 22.2964 10.3425 24.8968C11.9038 26.4266 13.9501 27.1916 15.9965 27.1918C15.9965 27.1918 15.9965 27.1918 9.43678 14.8633Z" fill="white"/>
<path opacity="0.6" d="M15.9953 18.6102L9.43555 14.8633C15.9953 27.1918 15.9953 27.1918 15.9953 27.1918C15.9953 24.5068 15.9953 21.43 15.9953 18.6102Z" fill="white"/>
<path opacity="0.2" d="M16.0059 10.2397V16.7022L21.6563 13.4731L16.0059 10.2397Z" fill="white"/>
<path opacity="0.6" d="M16.0042 10.2397L10.3496 13.473L16.0042 16.7022V10.2397Z" fill="white"/>
<path d="M16.0042 4.80469L10.3496 13.475L16.0042 10.2326V4.80469Z" fill="white"/>
<path opacity="0.6" d="M16.0059 10.2314L21.6607 13.4739L16.0059 4.79932V10.2314Z" fill="white"/>
</svg>
