<svg width="20" height="20" viewBox="0 0 20 20" fill="none" xmlns="http://www.w3.org/2000/svg">
<g clip-path="url(#clip0_10520_12255)">
<rect width="20" height="20" rx="10" fill="#eee"/>
<g opacity="0.7" filter="url(#filter0_f_10520_12255)">
<path opacity="0.6" d="M13.4119 8.9668L13.5092 9.11608C14.6067 10.7998 14.3616 13.0048 12.9198 14.4175C12.0716 15.2485 10.96 15.6641 9.84831 15.6642C9.84831 15.6642 9.84831 15.6642 13.4119 8.9668Z" fill="#00A3FF"/>
<path opacity="0.2" d="M9.84758 11.0023L13.4111 8.9668C9.8476 15.6642 9.84758 15.6642 9.84758 15.6642C9.84758 14.2056 9.84758 12.5342 9.84758 11.0023Z" fill="#00A3FF"/>
<path d="M6.28053 8.9668L6.18321 9.11608C5.08565 10.7998 5.33077 13.0048 6.77254 14.4175C7.62073 15.2485 8.73239 15.6641 9.84408 15.6642C9.84408 15.6642 9.84408 15.6642 6.28053 8.9668Z" fill="#00A3FF"/>
<path opacity="0.6" d="M9.84285 11.0023L6.2793 8.9668C9.84285 15.6642 9.84285 15.6642 9.84285 15.6642C9.84285 14.2056 9.84285 12.5342 9.84285 11.0023Z" fill="#00A3FF"/>
<path opacity="0.2" d="M9.84863 6.45508V9.96579L12.9182 8.21157L9.84863 6.45508Z" fill="#00A3FF"/>
<path opacity="0.6" d="M9.84819 6.45508L6.77637 8.21154L9.84819 9.96579V6.45508Z" fill="#00A3FF"/>
<path d="M9.84819 3.50293L6.77637 8.21303L9.84819 6.45162V3.50293Z" fill="#00A3FF"/>
<path opacity="0.6" d="M9.84863 6.45099L12.9206 8.21243L9.84863 3.5V6.45099Z" fill="#00A3FF"/>
</g>
<path opacity="0.6" d="M13.6918 8.86816L13.7926 9.02156C14.929 10.7517 14.6752 13.0175 13.1824 14.4691C12.3041 15.3231 11.1531 15.7502 10.002 15.7503C10.002 15.7503 10.002 15.7503 13.6918 8.86816Z" fill="#00A3FF"/>
<path opacity="0.2" d="M10.0016 10.9598L13.6914 8.86816C10.0016 15.7503 10.0016 15.7503 10.0016 15.7503C10.0016 14.2514 10.0016 12.5339 10.0016 10.9598Z" fill="#00A3FF"/>
<path d="M6.30819 8.86816L6.20742 9.02156C5.07096 10.7517 5.32477 13.0175 6.81764 14.4691C7.69589 15.3231 8.84694 15.7502 9.99803 15.7503C9.99803 15.7503 9.99803 15.7503 6.30819 8.86816Z" fill="#00A3FF"/>
<path opacity="0.6" d="M9.99648 10.9598L6.30664 8.86816C9.99649 15.7503 9.99648 15.7503 9.99648 15.7503C9.99648 14.2514 9.99648 12.5339 9.99648 10.9598Z" fill="#00A3FF"/>
<path opacity="0.2" d="M10.0029 6.28711V9.89463L13.1813 8.09204L10.0029 6.28711Z" fill="#00A3FF"/>
<path opacity="0.6" d="M10.002 6.28711L6.82129 8.092L10.002 9.89463V6.28711Z" fill="#00A3FF"/>
<path d="M10.002 3.25293L6.82129 8.09291L10.002 6.28293V3.25293Z" fill="#00A3FF"/>
<path opacity="0.6" d="M10.0029 6.28236L13.1838 8.09238L10.0029 3.25V6.28236Z" fill="#00A3FF"/>
</g>
<defs>
<filter id="filter0_f_10520_12255" x="-12.5" y="-14.5" width="44.6924" height="48.1641" filterUnits="userSpaceOnUse" color-interpolation-filters="sRGB">
<feFlood flood-opacity="0" result="BackgroundImageFix"/>
<feBlend mode="normal" in="SourceGraphic" in2="BackgroundImageFix" result="shape"/>
<feGaussianBlur stdDeviation="9" result="effect1_foregroundBlur_10520_12255"/>
</filter>
<clipPath id="clip0_10520_12255">
<rect width="20" height="20" rx="10" fill="white"/>
</clipPath>
</defs>
</svg>
