<svg width="18" height="10" viewBox="0 0 18 10" fill="none" xmlns="http://www.w3.org/2000/svg">
<path d="M12.3462 9.9002C11.1723 9.9002 9.97397 9.4549 8.77098 8.56874C7.86805 7.90498 7.13649 7.3073 6.49073 6.7799L6.43082 6.73059L6.0876 7.05359C5.06509 8.0152 4.23465 8.61115 3.25431 8.61115C1.83113 8.61164 0.583008 7.44834 0.583008 6.12132C0.583008 4.71589 1.92556 3.62361 3.08072 3.62361C4.2889 3.62361 5.215 4.18331 6.36696 5.08525C7.98147 3.57109 9.58612 2.10402 10.8014 1.29627C12.3615 0.259459 14.7598 0.00302967 16.3245 1.51818C18.0998 3.23699 17.4457 6.54591 16.235 7.98018C15.7831 8.51548 14.8091 9.46229 13.3628 9.78603C13.0292 9.86146 12.6882 9.89975 12.3462 9.9002ZM7.3436 5.87328C7.96125 6.37775 8.66002 6.94609 9.50673 7.56891C10.5933 8.36803 11.55 8.65553 12.3634 8.65553C13.8216 8.65553 14.8195 7.73214 15.286 7.17958C16.5943 5.62992 16.2937 3.21875 15.4606 2.41173C14.2386 1.22822 12.4162 1.71518 11.4894 2.33111C10.3838 3.06587 8.87651 4.43728 7.3436 5.87328ZM3.08072 4.8663C2.52743 4.8663 1.82545 5.45806 1.82545 6.12157C1.82545 6.76264 2.51978 7.36993 3.25381 7.36993C3.74694 7.36993 4.30221 7.0277 5.23571 6.14968L5.45096 5.94725C4.55568 5.25982 3.86825 4.8663 3.08072 4.8663Z" fill="#2FE4AB"/>
<path opacity="0.92" d="M5.23543 6.14946C4.30193 7.02748 3.74617 7.36972 3.25353 7.36972C3.1323 7.36932 3.01163 7.35324 2.89453 7.32188V8.58677C3.01349 8.60318 3.13344 8.61142 3.25353 8.61142C4.23388 8.61142 5.06431 8.01547 6.08682 7.05386L6.43004 6.73086L5.45068 5.94629L5.23543 6.14946Z" fill="url(#paint0_linear_11199_3811)"/>
<g opacity="0.92">
<path opacity="0.92" d="M6.36719 5.08586L7.34384 5.87364C8.03866 5.22246 8.72831 4.58508 9.37776 4.01379L8.49801 3.1333C7.81207 3.73788 7.09086 4.40682 6.36719 5.08586Z" fill="url(#paint1_linear_11199_3811)"/>
</g>
<defs>
<linearGradient id="paint0_linear_11199_3811" x1="5.62476" y1="6.06439" x2="3.65913" y2="8.02977" gradientUnits="userSpaceOnUse">
<stop stop-color="#0F7C76"/>
<stop offset="1" stop-color="#2FE4AB"/>
</linearGradient>
<linearGradient id="paint1_linear_11199_3811" x1="6.90815" y1="5.51414" x2="8.84764" y2="3.57441" gradientUnits="userSpaceOnUse">
<stop stop-color="#0F7C76"/>
<stop offset="1" stop-color="#2FE4AB"/>
</linearGradient>
</defs>
</svg>
