<svg width="32" height="32" viewBox="0 0 32 32" fill="none" xmlns="http://www.w3.org/2000/svg">
<path d="M8.75738 32.0006C16.9689 32.0006 16.9689 31.8783 18.3612 31.465C20.1808 30.9249 13.224 26.1094 8.75738 26.1094C4.2908 26.1094 0.669922 27.4282 0.669922 29.055C0.669922 30.6818 4.29098 32.0006 8.75738 32.0006Z" fill="black"/>
<path d="M27.4029 6.95128L27.7806 7.3583L27.4504 7.80473C16.741 22.2846 10.5717 28.8407 7.95418 27.9614C6.35982 27.4258 4.76091 25.815 3.16195 23.4761C2.59993 22.654 2.07216 21.7883 1.59217 20.9268C1.27253 20.3531 1.00199 19.8299 0.861515 19.5352C0.682327 19.1592 0.606675 18.9276 0.546655 18.6235C0.542992 18.6049 0.542992 18.6049 0.539513 18.5869C0.514461 18.4578 0.505794 18.417 0.487069 18.3464C0.164819 17.1319 0 15.8736 0 14.5941C0 6.53402 6.53402 0 14.5941 0C17.1193 0 19.5527 0.642654 21.7092 1.84903L21.7649 1.88387C23.5305 3.11314 25.4086 4.80225 27.4029 6.95128ZM21.027 3.00159C19.076 1.91653 16.8778 1.33891 14.5941 1.33891C7.27348 1.33891 1.33891 7.27348 1.33891 14.5941C1.33891 15.7574 1.48861 16.9003 1.7812 18.0031C1.81014 18.1121 1.82322 18.1737 1.85391 18.3319C1.85714 18.3485 1.85714 18.3485 1.86023 18.3643C1.89897 18.5606 1.93984 18.6857 2.07015 18.9591C2.19829 19.2279 2.45581 19.7259 2.76178 20.2751C3.22312 21.1031 3.7301 21.9347 4.26727 22.7205C5.7119 24.8337 7.1446 26.277 8.38055 26.6922C10.029 27.2459 16.2346 20.6768 26.0417 7.45703C24.2612 5.57768 22.5886 4.09252 21.027 3.00159Z" fill="black"/>
<path d="M21.0259 3.00106C19.075 1.916 16.8767 1.33838 14.5931 1.33838C7.27246 1.33838 1.33789 7.27295 1.33789 14.5936C1.33789 15.7569 1.48759 16.8998 1.78018 18.0025C1.80911 18.1116 1.8222 18.1732 1.85289 18.3314C1.85611 18.348 1.85611 18.348 1.85921 18.3637C1.89795 18.56 1.93882 18.6851 2.06913 18.9585C2.19727 19.2274 2.45479 19.7254 2.76076 20.2746C3.2221 21.1026 3.72908 21.9342 4.26625 22.7199C5.71088 24.8331 7.14358 26.2764 8.37953 26.6916C10.0279 27.2454 16.2336 20.6763 26.0407 7.4565C24.2602 5.57715 22.5876 4.09198 21.0259 3.00106Z" fill="#EC1C79"/>
<path d="M17.2719 31.8655C9.21175 31.8655 2.67773 25.3315 2.67773 17.2714C2.67773 9.21127 9.21175 2.67725 17.2719 2.67725C25.332 2.67725 31.866 9.21127 31.866 17.2714C31.866 25.3315 25.332 31.8655 17.2719 31.8655ZM17.2719 30.5266C24.5925 30.5266 30.5271 24.592 30.5271 17.2714C30.5271 9.95073 24.5925 4.01616 17.2719 4.01616C9.95121 4.01616 4.01665 9.95073 4.01665 17.2714C4.01665 24.592 9.95121 30.5266 17.2719 30.5266Z" fill="black"/>
<path d="M0.623281 16.6754C0.247293 16.5019 0.0831622 16.0564 0.256685 15.6804C0.430208 15.3044 0.875674 15.1403 1.25166 15.3138L3.39392 16.3025C3.76991 16.476 3.93404 16.9215 3.76052 17.2975C3.58699 17.6735 3.14153 17.8376 2.76554 17.6641L0.623281 16.6754Z" fill="black"/>
<path d="M17.2709 30.5261C24.5915 30.5261 30.5261 24.5915 30.5261 17.2709C30.5261 9.95019 24.5915 4.01562 17.2709 4.01562C9.95019 4.01562 4.01562 9.95019 4.01562 17.2709C4.01562 24.5915 9.95019 30.5261 17.2709 30.5261Z" fill="white"/>
<path fill-rule="evenodd" clip-rule="evenodd" d="M7.35607 19.9885L5.60156 14.7025H7.13863L8.05338 17.7391L9.0656 14.6875H10.3177L11.33 17.7391L12.2447 14.7025H13.7518L11.9973 19.9885H10.7301L9.67293 16.9669L8.62322 19.9885H7.35607ZM14.3291 19.951V14.7025H18.5504V15.9396H15.7687V16.7344H18.288V17.8816H15.7687V18.7139H18.5879V19.951H14.3291ZM20.6124 19.951V15.9771H19.0378V14.7025H23.6415V15.9771H22.067V19.951H20.6124ZM24.2788 19.951V14.7025H25.7334V16.6669H27.6004V14.7025H29.055V19.951H27.6004V17.9566H25.7334V19.951H24.2788Z" fill="black"/>
<path d="M0.869716 13.1213C0.499336 12.9361 0.34921 12.4857 0.5344 12.1153C0.71959 11.7449 1.16997 11.5948 1.54035 11.78L3.68261 12.8511C4.05299 13.0363 4.20312 13.4867 4.01793 13.8571C3.83274 14.2275 3.38236 14.3776 3.01198 14.1924L0.869716 13.1213Z" fill="black"/>
</svg>
