<svg width="28" height="28" viewBox="0 0 28 28" fill="none" xmlns="http://www.w3.org/2000/svg">
<g clip-path="url(#clip0_10462_42758)">
<rect width="28" height="28" rx="14" fill="url(#paint0_radial_10462_42758)"/>
<rect width="28" height="28" rx="14" fill="url(#paint1_radial_10462_42758)" fill-opacity="0.4"/>
<rect width="28" height="28" rx="14" fill="url(#paint2_radial_10462_42758)" fill-opacity="0.8"/>
<path d="M-6.35689 20.5181C-7.67485 21.2675 -7.68199 22.4821 -6.37245 23.2311L11.3804 33.3878C12.69 34.1371 14.8204 34.1371 16.1384 33.3878L34.0069 23.2315C35.3248 22.4821 35.332 21.2675 34.0224 20.5185L16.2696 10.3618C14.96 9.61247 12.8296 9.61247 11.5116 10.3618L-6.35689 20.5181Z" fill="url(#paint3_radial_10462_42758)"/>
<path d="M-6.35689 20.5181C-7.67485 21.2675 -7.68199 22.4821 -6.37245 23.2311L11.3804 33.3878C12.69 34.1371 14.8204 34.1371 16.1384 33.3878L34.0069 23.2315C35.3248 22.4821 35.332 21.2675 34.0224 20.5185L16.2696 10.3618C14.96 9.61247 12.8296 9.61247 11.5116 10.3618L-6.35689 20.5181Z" fill="url(#paint4_radial_10462_42758)"/>
<path opacity="0.6" d="M33.3393 2.89217C34.6137 2.16454 34.6206 0.98507 33.3544 0.257847L16.1884 -9.60448C14.9221 -10.3321 12.8621 -10.3321 11.5877 -9.60448L-5.69011 0.25744C-6.96449 0.985064 -6.97141 2.16454 -5.70515 2.89176L11.4609 12.7541C12.7271 13.4817 14.7871 13.4817 16.0615 12.7541L33.3393 2.89217Z" fill="url(#paint5_radial_10462_42758)"/>
<path opacity="0.6" d="M33.3393 2.89217C34.6137 2.16454 34.6206 0.98507 33.3544 0.257847L16.1884 -9.60448C14.9221 -10.3321 12.8621 -10.3321 11.5877 -9.60448L-5.69011 0.25744C-6.96449 0.985064 -6.97141 2.16454 -5.70515 2.89176L11.4609 12.7541C12.7271 13.4817 14.7871 13.4817 16.0615 12.7541L33.3393 2.89217Z" fill="url(#paint6_radial_10462_42758)"/>
<path opacity="0.6" d="M18.6007 12.4858L18.7304 12.6834C20.1942 14.9118 19.8673 17.8302 17.9445 19.6999C16.8133 20.7998 15.3308 21.3498 13.8482 21.35C13.8482 21.35 13.8482 21.35 18.6007 12.4858Z" fill="#00A3FF"/>
<path opacity="0.2" d="M13.8481 15.1799L18.6006 12.4858C13.8481 21.35 13.8481 21.35 13.8481 21.35C13.8481 19.4194 13.8481 17.2073 13.8481 15.1799Z" fill="#00A3FF"/>
<path d="M9.09075 12.4858L8.96096 12.6834C7.49721 14.9118 7.82411 17.8302 9.74692 19.6999C10.8781 20.7998 12.3607 21.3498 13.8432 21.35C13.8432 21.35 13.8432 21.35 9.09075 12.4858Z" fill="#00A3FF"/>
<path opacity="0.6" d="M13.8423 15.1799L9.08984 12.4858C13.8424 21.35 13.8423 21.35 13.8423 21.35C13.8423 19.4194 13.8423 17.2073 13.8423 15.1799Z" fill="#00A3FF"/>
<path opacity="0.2" d="M13.8496 9.16162V13.8081L17.9434 11.4864L13.8496 9.16162Z" fill="#00A3FF"/>
<path opacity="0.6" d="M13.8487 9.16162L9.75195 11.4863L13.8487 13.8081V9.16162Z" fill="#00A3FF"/>
<path d="M13.8487 5.25391L9.75195 11.4878L13.8487 9.15654V5.25391Z" fill="#00A3FF"/>
<path opacity="0.6" d="M13.8496 9.15567L17.9465 11.487L13.8496 5.25V9.15567Z" fill="#00A3FF"/>
</g>
<defs>
<radialGradient id="paint0_radial_10462_42758" cx="0" cy="0" r="1" gradientUnits="userSpaceOnUse" gradientTransform="translate(14.4828 18.0185) rotate(-57.1946) scale(7.9786 7.95454)">
<stop stop-color="#87D4FF"/>
<stop offset="1" stop-color="white"/>
</radialGradient>
<radialGradient id="paint1_radial_10462_42758" cx="0" cy="0" r="1" gradientUnits="userSpaceOnUse" gradientTransform="translate(16.975 0.35) rotate(104.763) scale(14.118)">
<stop offset="0.00395421" stop-color="#FF955A"/>
<stop offset="0.427213" stop-color="#F5B469" stop-opacity="0"/>
</radialGradient>
<radialGradient id="paint2_radial_10462_42758" cx="0" cy="0" r="1" gradientUnits="userSpaceOnUse" gradientTransform="translate(14 14) rotate(90) scale(14)">
<stop offset="0.875498" stop-color="white" stop-opacity="0"/>
<stop offset="1" stop-color="#FEBA73"/>
</radialGradient>
<radialGradient id="paint3_radial_10462_42758" cx="0" cy="0" r="1" gradientUnits="userSpaceOnUse" gradientTransform="translate(14 16.9748) rotate(106.574) scale(15.3372 12.8543)">
<stop offset="0.508316" stop-color="#FF8A00" stop-opacity="0.01"/>
<stop offset="0.825401" stop-color="#FFA944" stop-opacity="0.677974"/>
<stop offset="1" stop-color="#FF9051"/>
</radialGradient>
<radialGradient id="paint4_radial_10462_42758" cx="0" cy="0" r="1" gradientUnits="userSpaceOnUse" gradientTransform="translate(15.05 9.7998) rotate(103.928) scale(22.5377 18.889)">
<stop offset="0.508316" stop-color="#FF8A00" stop-opacity="0.01"/>
<stop offset="0.825401" stop-color="#FFA944" stop-opacity="0.677974"/>
<stop offset="1" stop-color="#FF9051"/>
</radialGradient>
<radialGradient id="paint5_radial_10462_42758" cx="0" cy="0" r="1" gradientUnits="userSpaceOnUse" gradientTransform="translate(14.1746 12.4248) rotate(-85.2921) scale(14.9254 18.7952)">
<stop offset="0.407652" stop-color="#FF8A00" stop-opacity="0.01"/>
<stop offset="0.740114" stop-color="#FFA944" stop-opacity="0.677974"/>
<stop offset="1" stop-color="#FF9051"/>
</radialGradient>
<radialGradient id="paint6_radial_10462_42758" cx="0" cy="0" r="1" gradientUnits="userSpaceOnUse" gradientTransform="translate(14.1746 12.4248) rotate(-85.2921) scale(14.9254 18.7952)">
<stop offset="0.407652" stop-color="#FF8A00" stop-opacity="0.01"/>
<stop offset="0.740114" stop-color="#FFA944" stop-opacity="0.677974"/>
<stop offset="1" stop-color="#FF9051"/>
</radialGradient>
<clipPath id="clip0_10462_42758">
<rect width="28" height="28" rx="14" fill="white"/>
</clipPath>
</defs>
</svg>
