<svg width="28" height="28" viewBox="0 0 28 28" fill="none" xmlns="http://www.w3.org/2000/svg">
<rect data-id='background' width="28" height="28" rx="14" fill="#34343D"/>
<rect data-id='background-border' x="0.5" y="0.5" width="27" height="27" rx="13.5" stroke="#484850"/>
<path d="M17.3462 18.9C16.1723 18.9 14.974 18.4547 13.771 17.5685C12.8681 16.9047 12.1365 16.3071 11.4907 15.7797L11.4308 15.7303L11.0876 16.0533C10.0651 17.015 9.23465 17.6109 8.25431 17.6109C6.83113 17.6114 5.58301 16.4481 5.58301 15.1211C5.58301 13.7157 6.92556 12.6234 8.08072 12.6234C9.2889 12.6234 10.215 13.1831 11.367 14.085C12.9815 12.5708 14.5861 11.1038 15.8014 10.296C17.3615 9.25921 19.7598 9.00279 21.3245 10.5179C23.0998 12.2367 22.4457 15.5457 21.235 16.9799C20.7831 17.5152 19.8091 18.462 18.3628 18.7858C18.0292 18.8612 17.6882 18.8995 17.3462 18.9ZM12.3436 14.873C12.9613 15.3775 13.66 15.9458 14.5067 16.5687C15.5933 17.3678 16.55 17.6553 17.3634 17.6553C18.8216 17.6553 19.8195 16.7319 20.286 16.1793C21.5943 14.6297 21.2937 12.2185 20.4606 11.4115C19.2386 10.228 17.4162 10.7149 16.4894 11.3309C15.3838 12.0656 13.8765 13.437 12.3436 14.873ZM8.08072 13.8661C7.52743 13.8661 6.82545 14.4578 6.82545 15.1213C6.82545 15.7624 7.51978 16.3697 8.25381 16.3697C8.74694 16.3697 9.30221 16.0275 10.2357 15.1494L10.451 14.947C9.55568 14.2596 8.86825 13.8661 8.08072 13.8661Z" fill="#2FE4AB"/>
<path opacity="0.92" d="M10.2354 15.1495C9.30193 16.0275 8.74617 16.3697 8.25353 16.3697C8.1323 16.3693 8.01163 16.3532 7.89453 16.3219V17.5868C8.01349 17.6032 8.13344 17.6114 8.25353 17.6114C9.23388 17.6114 10.0643 17.0155 11.0868 16.0539L11.43 15.7309L10.4507 14.9463L10.2354 15.1495Z" fill="url(#paint0_linear_12095_8853)"/>
<g opacity="0.92">
<path opacity="0.92" d="M11.3672 14.0856L12.3438 14.8734C13.0387 14.2222 13.7283 13.5848 14.3778 13.0135L13.498 12.1331C12.8121 12.7376 12.0909 13.4066 11.3672 14.0856Z" fill="url(#paint1_linear_12095_8853)"/>
</g>
<defs>
<linearGradient id="paint0_linear_12095_8853" x1="10.6248" y1="15.0644" x2="8.65913" y2="17.0298" gradientUnits="userSpaceOnUse">
<stop stop-color="#0F7C76"/>
<stop offset="1" stop-color="#2FE4AB"/>
</linearGradient>
<linearGradient id="paint1_linear_12095_8853" x1="11.9082" y1="14.5139" x2="13.8476" y2="12.5742" gradientUnits="userSpaceOnUse">
<stop stop-color="#0F7C76"/>
<stop offset="1" stop-color="#2FE4AB"/>
</linearGradient>
</defs>
</svg>
