<svg width="20" height="20" viewBox="0 0 20 20" fill="none" xmlns="http://www.w3.org/2000/svg">
<g clip-path="url(#clip0_10520_12252)">
<rect width="20" height="20" rx="10" fill="black" fill-opacity="0.04"/>
<g filter="url(#filter0_f_10520_12252)">
<circle cx="9.625" cy="9.125" r="5.875" fill="#D23774"/>
</g>
<path d="M5.62682 14.569C4.84462 13.7693 4.2897 12.8677 3.77076 11.936C3.49993 11.4493 3.39387 10.9212 3.31432 10.3874C3.17796 9.467 3.25182 8.55411 3.53781 7.66385C4.05675 6.05874 5.04728 4.83086 6.53591 4.02547C8.09462 3.18425 9.73478 3.03713 11.4336 3.53696C12.2461 3.7765 12.9488 4.20466 13.5681 4.7705C14.2537 5.3967 14.981 5.98141 15.5738 6.69814C16.6003 7.94111 17.0814 9.38024 16.9905 10.9891C16.873 13.0469 15.9374 14.6709 14.2499 15.8459C13.1401 16.6193 11.8844 16.9305 10.5283 16.938C9.65144 16.9437 8.77455 16.9776 7.89576 16.9927C6.79728 17.0116 5.70068 16.9965 4.64387 16.6457C4.36546 16.5533 4.09462 16.4382 3.86167 16.2534C3.44879 15.9252 3.45637 15.4989 3.8825 15.1915C4.29538 14.8934 4.77076 14.7501 5.26129 14.6426C5.36925 14.6181 5.47909 14.5992 5.62872 14.569H5.62682ZM10.7045 16.3533C13.8333 16.3646 16.4223 13.8579 16.428 10.6628C16.4355 7.51861 13.8636 4.98552 10.7083 4.98363C7.54159 4.98363 4.96584 7.55257 4.98478 10.6987C5.00182 13.8221 7.55864 16.3514 10.7045 16.3533ZM12.3617 4.62527C12.3674 4.60641 12.3711 4.58754 12.3768 4.57057C12.2992 4.52719 12.2253 4.48003 12.1458 4.44043C11.0132 3.87647 9.81053 3.67654 8.57568 3.92173C6.20637 4.39327 4.68553 5.81354 4.0075 8.12595C3.96584 8.26741 3.98478 8.35229 4.12872 8.41076C4.27455 8.47112 4.41849 8.54091 4.55485 8.62201C4.68553 8.69934 4.74425 8.67859 4.79728 8.53147C5.16281 7.51107 5.76318 6.6491 6.58894 5.93991C7.81053 4.89121 9.23288 4.39893 10.8408 4.41591C11.3579 4.42156 11.8636 4.4989 12.3636 4.62527H12.3617ZM3.84273 9.55565C3.84273 9.69523 3.79728 9.8763 4.06811 9.96494C4.45258 10.0913 4.43364 10.1158 4.49425 9.70088C4.52644 9.48021 4.55296 9.32177 4.28212 9.2086C3.81432 9.01433 3.82379 8.99169 3.84273 9.55565ZM4.57379 12.1604C4.53212 11.77 4.41659 11.4531 4.44311 11.1249C4.46584 10.8552 4.30864 10.7552 4.10031 10.6704C3.97341 10.6176 3.95069 10.6628 3.96962 10.776C4.04917 11.2664 4.27455 11.6945 4.57379 12.1604Z" fill="#070506"/>
<path d="M10.7042 16.3531C7.56024 16.3493 5.00342 13.8219 4.98448 10.6984C4.96554 7.55422 7.5413 4.98151 10.708 4.9834C13.8633 4.9834 16.4352 7.51838 16.4277 10.6626C16.4201 13.8577 13.8311 16.3644 10.7042 16.3531ZM6.69849 10.7758C6.62652 10.5287 6.55266 10.2797 6.48069 10.0307C6.33675 9.5441 6.33675 9.54976 5.83675 9.5573C5.69471 9.55919 5.67577 9.58559 5.72312 9.72328C5.9466 10.3683 6.16061 11.0172 6.36895 11.6679C6.41061 11.7999 6.4769 11.8622 6.60758 11.8301C6.75342 11.7943 6.95607 11.9452 7.03561 11.6736C7.14357 11.3095 7.28372 10.9549 7.42766 10.5475C7.54887 10.8927 7.65683 11.1869 7.7591 11.4849C7.88031 11.8358 7.87842 11.8282 8.25342 11.8339C8.40493 11.8358 8.45796 11.7792 8.50152 11.6415C8.67766 11.0813 8.86705 10.5268 9.05266 9.97037C9.19092 9.5573 9.19092 9.57239 8.76668 9.55164C8.56781 9.54221 8.5091 9.62332 8.46365 9.7893C8.37084 10.1307 8.26289 10.4664 8.14357 10.8569C8.02615 10.5079 7.92387 10.2042 7.8216 9.90058C7.70228 9.5441 7.70228 9.54976 7.32918 9.54787C7.19849 9.54787 7.14546 9.58937 7.10948 9.71197C7.01668 10.0232 6.90872 10.3268 6.80645 10.6343C6.7894 10.6871 6.79698 10.7607 6.69849 10.7739V10.7758ZM15.8027 10.6909C15.8027 10.3665 15.7989 10.042 15.8046 9.71762C15.8064 9.60446 15.7761 9.56107 15.653 9.5573C15.1663 9.53844 15.1663 9.53467 15.1663 10.0119C15.1663 10.2759 15.0306 10.408 14.7591 10.408C14.4876 10.408 14.3532 10.2747 14.3557 10.0081C14.3557 9.53655 14.3557 9.54033 13.8822 9.5573C13.7591 9.56107 13.7307 9.60068 13.7307 9.71574C13.7345 10.3646 13.7364 11.0115 13.7307 11.6604C13.7307 11.7905 13.7743 11.8244 13.9011 11.8263C14.3557 11.8339 14.3557 11.8395 14.3557 11.3869C14.3557 11.3793 14.3557 11.3718 14.3557 11.3642C14.3557 11.1002 14.4914 10.9681 14.7629 10.9681C15.0318 10.9681 15.1669 11.1021 15.1682 11.3699C15.1682 11.8395 15.1682 11.832 15.636 11.8282C15.7856 11.8282 15.8102 11.7698 15.8064 11.6415C15.7989 11.3246 15.8046 11.0077 15.8046 10.6909H15.8027ZM9.43713 10.6777C9.43713 11.0021 9.44281 11.3265 9.43334 11.649C9.42955 11.7905 9.48069 11.8282 9.61705 11.8263C10.0489 11.8188 10.4788 11.8226 10.9106 11.8244C11.2837 11.8244 11.2761 11.8244 11.2761 11.4567C11.2761 11.3152 11.2345 11.2775 11.0943 11.2812C10.8064 11.2926 10.5186 11.2775 10.2326 11.2869C10.0924 11.2907 10.0527 11.2454 10.0546 11.1077C10.0546 10.9738 10.083 10.9153 10.2307 10.9248C10.4258 10.9361 10.6246 10.9285 10.8197 10.9266C11.1511 10.9266 11.1436 10.9266 11.1436 10.606C11.1436 10.4796 11.1095 10.4362 10.9788 10.44C10.7212 10.4494 10.4636 10.4362 10.208 10.4457C10.0564 10.4513 10.0602 10.3646 10.0583 10.2589C10.0546 10.1514 10.0735 10.0911 10.2042 10.0949C10.4921 10.1024 10.7799 10.0892 11.0659 10.1005C11.2269 10.1081 11.2894 10.0534 11.2667 9.89681C11.2591 9.84588 11.261 9.79118 11.2667 9.73837C11.2818 9.60634 11.2402 9.55164 11.0943 9.55542C10.5943 9.56296 10.0962 9.56296 9.59622 9.55542C9.46175 9.55353 9.43334 9.60257 9.43524 9.72517C9.44281 10.042 9.43713 10.357 9.43713 10.6739V10.6777ZM12.4693 9.56107C12.189 9.56107 11.9087 9.56485 11.6284 9.55919C11.5186 9.5573 11.4693 9.57428 11.4636 9.70254C11.4485 10.1137 11.4428 10.1118 11.8576 10.1118C11.8955 10.1118 11.9333 10.1175 11.9712 10.1118C12.1189 10.0873 12.1474 10.1609 12.1455 10.2929C12.1379 10.6475 12.1436 11.0021 12.1436 11.3567C12.1436 11.8395 12.1436 11.8339 12.6189 11.8282C12.7477 11.8282 12.7856 11.7905 12.7837 11.6622C12.7761 11.2548 12.778 10.8474 12.7818 10.44C12.7837 10.0647 12.725 10.1156 13.1 10.1137C13.475 10.1099 13.4693 10.1137 13.4674 9.73837C13.4674 9.60068 13.4277 9.55353 13.2875 9.55919C13.0148 9.56862 12.7421 9.56296 12.4693 9.56296V9.56107Z" fill="#FEFEFE"/>
<path d="M12.3618 4.62513C11.8618 4.50064 11.3561 4.42142 10.8391 4.41576C9.23111 4.39879 7.80876 4.89107 6.58717 5.93977C5.76141 6.64707 5.16103 7.50904 4.7955 8.53133C4.74247 8.67845 4.68376 8.6992 4.55308 8.62187C4.41671 8.54076 4.27277 8.47098 4.12694 8.41062C3.983 8.35215 3.96406 8.26539 4.00573 8.12581C4.68565 5.8134 6.20649 4.39313 8.57391 3.92159C9.81065 3.67451 11.0114 3.87444 12.144 4.44028C12.2235 4.47989 12.2974 4.52705 12.375 4.57043C12.3694 4.58929 12.3656 4.60815 12.3599 4.62513H12.3618Z" fill="#D23774"/>
<path d="M3.84252 9.55542C3.82358 8.99146 3.81411 9.01409 4.28191 9.20837C4.55274 9.32154 4.52623 9.47997 4.49403 9.70065C4.43343 10.1156 4.45237 10.093 4.0679 9.96471C3.79517 9.87606 3.84062 9.69311 3.84252 9.55542Z" fill="#D23774"/>
<path d="M4.57372 12.1606C4.27448 11.6947 4.0491 11.2666 3.96956 10.7762C3.95062 10.663 3.97524 10.6196 4.10024 10.6705C4.30857 10.7554 4.46577 10.8554 4.44304 11.1251C4.41463 11.4533 4.53206 11.7702 4.57372 12.1606Z" fill="#D23774"/>
<path d="M6.69881 10.7759C6.79729 10.7627 6.78972 10.6891 6.80676 10.6363C6.90904 10.3288 7.01889 10.0233 7.10979 9.71396C7.14578 9.59136 7.2007 9.54798 7.32949 9.54986C7.7026 9.54986 7.7026 9.54609 7.82192 9.90257C7.92419 10.2062 8.02646 10.5099 8.14389 10.8588C8.26131 10.4684 8.37116 10.1327 8.46396 9.79129C8.50942 9.62531 8.56813 9.5442 8.76699 9.55363C9.18934 9.57438 9.18934 9.55929 9.05298 9.97236C8.86737 10.5288 8.67798 11.0833 8.50184 11.6435C8.45828 11.7812 8.40525 11.8378 8.25373 11.8359C7.87684 11.8302 7.87873 11.8359 7.75942 11.4869C7.65714 11.1889 7.54919 10.8947 7.42798 10.5495C7.28404 10.9569 7.14199 11.3096 7.03593 11.6755C6.95639 11.9472 6.75373 11.7963 6.6079 11.8321C6.47722 11.8642 6.41093 11.8019 6.36926 11.6699C6.16093 11.0192 5.94692 10.3703 5.72343 9.72527C5.67608 9.58947 5.69502 9.56118 5.83707 9.55929C6.33896 9.55175 6.33896 9.54609 6.48101 10.0327C6.55487 10.2817 6.62684 10.5288 6.69881 10.7777V10.7759Z" fill="#070506"/>
<path d="M15.8034 10.6905C15.8034 11.0074 15.7977 11.3243 15.8053 11.6411C15.8091 11.7694 15.7826 11.826 15.6349 11.8279C15.167 11.8335 15.167 11.8392 15.167 11.3695C15.167 11.1017 15.0319 10.9678 14.7617 10.9678C14.4915 10.9678 14.3558 11.0998 14.3545 11.3639C14.3545 11.3639 14.3545 11.379 14.3545 11.3865C14.3545 11.8392 14.3545 11.8354 13.9 11.826C13.7731 11.8241 13.7277 11.7883 13.7295 11.66C13.7352 11.0112 13.7333 10.3642 13.7295 9.71538C13.7295 9.60033 13.758 9.56072 13.8811 9.55694C14.3545 9.54185 14.3545 9.5362 14.3545 10.0077C14.3545 10.2743 14.489 10.4076 14.758 10.4076C15.0294 10.4076 15.1652 10.2756 15.1652 10.0115C15.1652 9.53242 15.1652 9.53808 15.6519 9.55694C15.775 9.5626 15.8053 9.6041 15.8034 9.71727C15.7977 10.0417 15.8015 10.3661 15.8034 10.6905Z" fill="#070506"/>
<path d="M9.43758 10.6781C9.43758 10.3612 9.44326 10.0444 9.43568 9.72938C9.43189 9.60678 9.4622 9.55774 9.59667 9.55962C10.0967 9.56717 10.5948 9.56717 11.0948 9.55962C11.2406 9.55774 11.2842 9.61055 11.2671 9.74258C11.2614 9.79539 11.2595 9.8482 11.2671 9.90101C11.2898 10.0595 11.2273 10.1123 11.0664 10.1047C10.7785 10.0934 10.4906 10.1047 10.2046 10.0991C10.0739 10.0953 10.055 10.1575 10.0588 10.2632C10.0626 10.3669 10.0569 10.4555 10.2084 10.4499C10.466 10.4405 10.7236 10.4537 10.9792 10.4442C11.1099 10.4386 11.144 10.4819 11.144 10.6102C11.144 10.9309 11.1516 10.9309 10.8202 10.9309C10.6232 10.9309 10.4262 10.9403 10.2311 10.929C10.0834 10.9195 10.0569 10.978 10.055 11.1119C10.055 11.2496 10.0929 11.2968 10.233 11.2911C10.5209 11.2817 10.8088 11.2949 11.0948 11.2854C11.233 11.2798 11.2766 11.3194 11.2766 11.4609C11.2766 11.8287 11.2842 11.8287 10.9111 11.8287C10.4792 11.8287 10.0493 11.8249 9.6175 11.8305C9.48114 11.8324 9.43 11.7947 9.43379 11.6532C9.44326 11.3288 9.43758 11.0063 9.43758 10.6819V10.6781Z" fill="#070506"/>
<path d="M12.4697 9.56086C12.7424 9.56086 13.0151 9.56841 13.2879 9.55709C13.428 9.55143 13.4678 9.59859 13.4678 9.73627C13.4678 10.1116 13.4754 10.1078 13.1004 10.1116C12.7254 10.1154 12.786 10.0626 12.7822 10.4379C12.7803 10.8453 12.7765 11.2527 12.7841 11.6601C12.786 11.7884 12.7481 11.8242 12.6193 11.8261C12.1439 11.8318 12.1439 11.8374 12.1439 11.3546C12.1439 11 12.1383 10.6454 12.1458 10.2908C12.1477 10.1588 12.1212 10.0852 11.9716 10.1097C11.9356 10.1154 11.8958 10.1097 11.858 10.1097C11.4413 10.1097 11.4489 10.1097 11.464 9.70044C11.4697 9.57218 11.5189 9.5552 11.6288 9.55709C11.9091 9.56275 12.1894 9.55898 12.4697 9.55898V9.56086Z" fill="#070506"/>
</g>
<defs>
<filter id="filter0_f_10520_12252" x="-10.25" y="-10.75" width="39.75" height="39.75" filterUnits="userSpaceOnUse" color-interpolation-filters="sRGB">
<feFlood flood-opacity="0" result="BackgroundImageFix"/>
<feBlend mode="normal" in="SourceGraphic" in2="BackgroundImageFix" result="shape"/>
<feGaussianBlur stdDeviation="7" result="effect1_foregroundBlur_10520_12252"/>
</filter>
<clipPath id="clip0_10520_12252">
<rect width="20" height="20" rx="10" fill="white"/>
</clipPath>
</defs>
</svg>
