<svg width="28" height="28" viewBox="0 0 28 28" fill="none" xmlns="http://www.w3.org/2000/svg">
<g clip-path="url(#clip0_10525_15686)">
<rect width="28" height="28" rx="14" fill="#FFBF00" fill-opacity="0.1"/>
<path d="M13.9995 5.61426C16.0145 5.61426 17.7803 8.42967 18.7641 11.28L13.9997 14.0308L9.23535 11.278C10.2193 8.42831 11.9849 5.61426 13.9995 5.61426Z" fill="#FFBF00"/>
<path opacity="0.6" d="M19.1644 12.5801L19.3055 12.7965C20.8965 15.2372 20.5412 18.4336 18.4512 20.4815C17.2216 21.6862 15.6102 22.2886 13.9987 22.2888C13.9987 22.2888 13.9987 22.2888 19.1644 12.5801Z" fill="#FFBF00"/>
<path opacity="0.2" d="M14.0022 15.5308L19.168 12.5801C14.0022 22.2888 14.0022 22.2888 14.0022 22.2888C14.0022 20.1743 14.0022 17.7514 14.0022 15.5308Z" fill="#FFBF00"/>
<path d="M8.83263 12.5801L8.69157 12.7965C7.10052 15.2372 7.45586 18.4336 9.54587 20.4815C10.7754 21.6862 12.3869 22.2886 13.9984 22.2888C13.9984 22.2888 13.9984 22.2888 8.83263 12.5801Z" fill="#FFBF00"/>
<path opacity="0.6" d="M13.991 15.5308L8.8252 12.5801C13.991 22.2888 13.991 22.2888 13.991 22.2888C13.991 20.1743 13.991 17.7514 13.991 15.5308Z" fill="#FFBF00"/>
</g>
<defs>
<clipPath id="clip0_10525_15686">
<rect width="28" height="28" rx="14" fill="white"/>
</clipPath>
</defs>
</svg>
