<svg width="24" height="24" viewBox="0 0 24 24" fill="none" xmlns="http://www.w3.org/2000/svg">
<g clip-path="url(#clip0_11891_10606)">
<rect width="24" height="24" rx="12" fill="#34343D"/>
<g opacity="0.7" filter="url(#filter0_f_11891_10606)">
<path opacity="0.6" d="M16.0936 10.7603L16.2104 10.9394C17.5275 12.9598 17.2333 15.6058 15.5032 17.3011C14.4854 18.2983 13.1514 18.7971 11.8174 18.7972C11.8174 18.7972 11.8174 18.7972 16.0936 10.7603Z" fill="#00A3FF"/>
<path opacity="0.2" d="M11.8165 13.2029L16.0928 10.7603C11.8165 18.7972 11.8165 18.7972 11.8165 18.7972C11.8165 17.0468 11.8165 15.0411 11.8165 13.2029Z" fill="#00A3FF"/>
<path d="M7.53624 10.7603L7.41946 10.9394C6.10239 12.9598 6.39654 15.6058 8.12666 17.3011C9.14449 18.2983 10.4785 18.7971 11.8125 18.7972C11.8125 18.7972 11.8125 18.7972 7.53624 10.7603Z" fill="#00A3FF"/>
<path opacity="0.6" d="M11.8114 13.2029L7.53516 10.7603C11.8114 18.7972 11.8114 18.7972 11.8114 18.7972C11.8114 17.0468 11.8114 15.0411 11.8114 13.2029Z" fill="#00A3FF"/>
<path opacity="0.2" d="M11.8184 7.74658V11.9594L15.5019 9.85438L11.8184 7.74658Z" fill="#00A3FF"/>
<path opacity="0.6" d="M11.817 7.74658L8.13086 9.85433L11.817 11.9594V7.74658Z" fill="#00A3FF"/>
<path d="M11.817 4.20312L8.13086 9.85524L11.817 7.74156V4.20312Z" fill="#00A3FF"/>
<path opacity="0.6" d="M11.8184 7.74138L15.5047 9.85511L11.8184 4.2002V7.74138Z" fill="#00A3FF"/>
</g>
<path opacity="0.6" d="M16.4296 10.6416L16.5505 10.8257C17.9143 12.9018 17.6097 15.6208 15.8182 17.3628C14.7643 18.3876 13.3831 18.9 12.0018 18.9002C12.0018 18.9002 12.0018 18.9002 16.4296 10.6416Z" fill="#00A3FF"/>
<path opacity="0.2" d="M12.0019 13.1516L16.4297 10.6416C12.0019 18.9002 12.0019 18.9002 12.0019 18.9002C12.0019 17.1015 12.0019 15.0405 12.0019 13.1516Z" fill="#00A3FF"/>
<path d="M7.56943 10.6416L7.44852 10.8257C6.08477 12.9018 6.38934 15.6208 8.18078 17.3628C9.23468 18.3876 10.6159 18.9 11.9972 18.9002C11.9972 18.9002 11.9972 18.9002 7.56943 10.6416Z" fill="#00A3FF"/>
<path opacity="0.6" d="M11.9962 13.1516L7.56836 10.6416C11.9962 18.9002 11.9962 18.9002 11.9962 18.9002C11.9962 17.1015 11.9962 15.0405 11.9962 13.1516Z" fill="#00A3FF"/>
<path opacity="0.2" d="M12.0039 7.54443V11.8735L15.818 9.71035L12.0039 7.54443Z" fill="#00A3FF"/>
<path opacity="0.6" d="M12.0024 7.54443L8.18555 9.7103L12.0024 11.8735V7.54443Z" fill="#00A3FF"/>
<path d="M12.0024 3.90332L8.18555 9.71129L12.0024 7.53933V3.90332Z" fill="#00A3FF"/>
<path opacity="0.6" d="M12.0039 7.53874L15.8209 9.71076L12.0039 3.8999V7.53874Z" fill="#00A3FF"/>
</g>
<rect x="0.5" y="0.5" width="23" height="23" rx="11.5" stroke="white" stroke-opacity="0.1"/>
<defs>
<filter id="filter0_f_11891_10606" x="1.59961" y="-0.799804" width="20.4307" height="24.5972" filterUnits="userSpaceOnUse" color-interpolation-filters="sRGB">
<feFlood flood-opacity="0" result="BackgroundImageFix"/>
<feBlend mode="normal" in="SourceGraphic" in2="BackgroundImageFix" result="shape"/>
<feGaussianBlur stdDeviation="2.5" result="effect1_foregroundBlur_11891_10606"/>
</filter>
<clipPath id="clip0_11891_10606">
<rect width="24" height="24" rx="12" fill="white"/>
</clipPath>
</defs>
</svg>
