<svg width="28" height="28" viewBox="0 0 28 28" fill="none" xmlns="http://www.w3.org/2000/svg">
<g clip-path="url(#clip0_11522_8165)">
<path d="M14 28C21.732 28 28 21.732 28 14C28 6.26801 21.732 0 14 0C6.26801 0 0 6.26801 0 14C0 21.732 6.26801 28 14 28Z" fill="white"/>
<path d="M17.3462 18.9002C16.1723 18.9002 14.974 18.4549 13.771 17.5687C12.8681 16.905 12.1365 16.3073 11.4907 15.7799L11.4308 15.7306L11.0876 16.0536C10.0651 17.0152 9.23465 17.6111 8.25431 17.6111C6.83113 17.6116 5.58301 16.4483 5.58301 15.1213C5.58301 13.7159 6.92556 12.6236 8.08072 12.6236C9.2889 12.6236 10.215 13.1833 11.367 14.0853C12.9815 12.5711 14.5861 11.104 15.8014 10.2963C17.3615 9.25946 19.7598 9.00303 21.3245 10.5182C23.0998 12.237 22.4457 15.5459 21.235 16.9802C20.7831 17.5155 19.8091 18.4623 18.3628 18.786C18.0292 18.8615 17.6882 18.8997 17.3462 18.9002ZM12.3436 14.8733C12.9613 15.3778 13.66 15.9461 14.5067 16.5689C15.5933 17.368 16.55 17.6555 17.3634 17.6555C18.8216 17.6555 19.8195 16.7321 20.286 16.1796C21.5943 14.6299 21.2937 12.2187 20.4606 11.4117C19.2386 10.2282 17.4162 10.7152 16.4894 11.3311C15.3838 12.0659 13.8765 13.4373 12.3436 14.8733ZM8.08072 13.8663C7.52743 13.8663 6.82545 14.4581 6.82545 15.1216C6.82545 15.7626 7.51978 16.3699 8.25381 16.3699C8.74694 16.3699 9.30221 16.0277 10.2357 15.1497L10.451 14.9472C9.55568 14.2598 8.86825 13.8663 8.08072 13.8663Z" fill="#2FE4AB"/>
<path opacity="0.92" d="M10.2354 15.1495C9.30193 16.0275 8.74617 16.3697 8.25353 16.3697C8.1323 16.3693 8.01163 16.3532 7.89453 16.3219V17.5868C8.01349 17.6032 8.13344 17.6114 8.25353 17.6114C9.23388 17.6114 10.0643 17.0155 11.0868 16.0539L11.43 15.7309L10.4507 14.9463L10.2354 15.1495Z" fill="url(#paint0_linear_11522_8165)"/>
<g opacity="0.92">
<path opacity="0.92" d="M11.3672 14.0859L12.3438 14.8736C13.0387 14.2225 13.7283 13.5851 14.3778 13.0138L13.498 12.1333C12.8121 12.7379 12.0909 13.4068 11.3672 14.0859Z" fill="url(#paint1_linear_11522_8165)"/>
</g>
</g>
<defs>
<linearGradient id="paint0_linear_11522_8165" x1="10.6248" y1="15.0644" x2="8.65913" y2="17.0298" gradientUnits="userSpaceOnUse">
<stop stop-color="#0F7C76"/>
<stop offset="1" stop-color="#2FE4AB"/>
</linearGradient>
<linearGradient id="paint1_linear_11522_8165" x1="11.9082" y1="14.5141" x2="13.8476" y2="12.5744" gradientUnits="userSpaceOnUse">
<stop stop-color="#0F7C76"/>
<stop offset="1" stop-color="#2FE4AB"/>
</linearGradient>
<clipPath id="clip0_11522_8165">
<rect width="28" height="28" rx="14" fill="white"/>
</clipPath>
</defs>
</svg>
