<svg width="28" height="28" viewBox="0 0 28 28" fill="none" xmlns="http://www.w3.org/2000/svg">
<g clip-path="url(#clip0_12095_8805)">
<mask id="mask0_12095_8805" style="mask-type:luminance" maskUnits="userSpaceOnUse" x="0" y="0" width="28" height="28">
<path d="M28 0H0V28H28V0Z" fill="white"/>
</mask>
<g mask="url(#mask0_12095_8805)">
<path d="M14 28C21.732 28 28 21.732 28 14C28 6.26801 21.732 0 14 0C6.26801 0 0 6.26801 0 14C0 21.732 6.26801 28 14 28Z" data-id='background' fill="#34343D"/>
<path d="M14 0.5C21.4558 0.5 27.5 6.54416 27.5 14C27.5 21.4558 21.4558 27.5 14 27.5C6.54416 27.5 0.5 21.4558 0.5 14C0.5 6.54416 6.54416 0.5 14 0.5Z" data-id='background-border' stroke="#484850"/>
<path opacity="0.62" d="M11.0083 20.4505L13.4953 17.3929C13.755 17.0735 14.2438 17.0735 14.5035 17.3929L16.9905 20.4505C17.184 20.6885 17.184 21.0287 16.9905 21.2666L14.5035 24.3244C14.2438 24.6436 13.755 24.6436 13.4953 24.3244L11.0083 21.2666C10.8149 21.0287 10.8149 20.6885 11.0083 20.4505Z" fill="#2DB1FF"/>
<path d="M14.8736 12.973L17.3605 9.91518C17.6202 9.59598 18.1091 9.59598 18.3687 9.91518L20.8557 12.973C21.0492 13.211 21.0492 13.551 20.8557 13.789L18.3687 16.8468C18.1091 17.1661 17.6202 17.1661 17.3605 16.8468L14.8736 13.789C14.6802 13.551 14.6802 13.211 14.8736 12.973Z" fill="#2DB1FF"/>
<path d="M7.14509 12.973L9.63208 9.91518C9.89178 9.59598 10.3806 9.59598 10.6403 9.91518L13.1273 12.973C13.3206 13.211 13.3206 13.551 13.1273 13.789L10.6403 16.8468C10.3806 17.1661 9.89178 17.1661 9.63208 16.8468L7.14509 13.789C6.95164 13.551 6.95164 13.211 7.14509 12.973Z" fill="#2DB1FF"/>
<path d="M11.0083 8.19363L13.4953 5.13544C13.755 4.81618 14.2438 4.81618 14.5035 5.13544L16.9905 8.19326C17.184 8.43122 17.184 8.77123 16.9905 9.00923L14.5035 12.067C14.2438 12.3863 13.755 12.3863 13.4953 12.067L11.0083 9.00959C10.8149 8.77167 10.8149 8.43122 11.0083 8.19363Z" fill="#2DB1FF"/>
</g>
</g>
<defs>
<clipPath id="clip0_12095_8805">
<rect width="28" height="28" fill="white"/>
</clipPath>
</defs>
</svg>
