<svg width="32" height="32" viewBox="0 0 32 32" fill="none" xmlns="http://www.w3.org/2000/svg">
<path d="M16 32C24.8366 32 32 24.8366 32 16C32 7.16344 24.8366 0 16 0C7.16344 0 0 7.16344 0 16C0 24.8366 7.16344 32 16 32Z" fill="white"/>
<path opacity="0.6" d="M15.883 13.2209L9.33398 16.1994L15.883 20.0686L22.4295 16.1994L15.883 13.2209Z" fill="#010101"/>
<path opacity="0.45" d="M9.33398 16.1994L15.883 20.0686V5.33325L9.33398 16.1994Z" fill="#010101"/>
<path opacity="0.8" d="M15.8809 5.33325V20.0686L22.4273 16.1994L15.8809 5.33325Z" fill="#010101"/>
<path opacity="0.45" d="M9.33398 17.4404L15.883 26.6668V21.3096L9.33398 17.4404Z" fill="#010101"/>
<path opacity="0.8" d="M15.8809 21.3091V26.6663L22.4325 17.4399L15.8809 21.3091Z" fill="#010101"/>
</svg>
