<svg xmlns="http://www.w3.org/2000/svg" width="28" height="28" fill="none" viewBox="0 0 28 28"><g clip-path="url(#a)"><rect width="28" height="28" fill="#fff" rx="14"/><g clip-path="url(#b)" filter="url(#c)" opacity=".7"><mask id="d" width="16" height="16" x="5" y="4" maskUnits="userSpaceOnUse" style="mask-type:luminance"><path fill="#fff" d="M20.65 4.55H5.95v14.7h14.7z"/></mask><g mask="url(#d)"><path fill="url(#e)" d="M13.3 19.25a7.35 7.35 0 1 0 0-14.7 7.35 7.35 0 0 0 0 14.7"/><path fill="#fff" fill-rule="evenodd" d="M14.035 17.045a5.145 5.145 0 1 0 0-10.29 5.145 5.145 0 0 0 0 10.29m0 .735a5.88 5.88 0 1 0 0-11.76 5.88 5.88 0 0 0 0 11.76" clip-rule="evenodd"/><path fill="#fff" fill-rule="evenodd" d="M15.505 14.105a2.205 2.205 0 1 0 0-4.41 2.205 2.205 0 0 0 0 4.41m0 .735a2.94 2.94 0 1 0 0-5.88 2.94 2.94 0 0 0 0 5.88" clip-rule="evenodd"/></g></g><g clip-path="url(#f)"><mask id="g" width="28" height="28" x="0" y="0" maskUnits="userSpaceOnUse" style="mask-type:luminance"><path fill="#fff" d="M28 0H0v28h28z"/></mask><g mask="url(#g)"><path fill="url(#h)" d="M14 28c7.732 0 14-6.268 14-14S21.732 0 14 0 0 6.268 0 14s6.268 14 14 14"/><path fill="#fff" fill-rule="evenodd" d="M15.4 23.8c5.413 0 9.8-4.388 9.8-9.8s-4.387-9.8-9.8-9.8c-5.412 0-9.8 4.387-9.8 9.8 0 5.412 4.388 9.8 9.8 9.8m0 1.4c6.186 0 11.2-5.015 11.2-11.2 0-6.186-5.014-11.2-11.2-11.2S4.2 7.814 4.2 14s5.015 11.2 11.2 11.2" clip-rule="evenodd"/><path fill="#fff" fill-rule="evenodd" d="M18.2 18.2a4.2 4.2 0 1 0 0-8.4 4.2 4.2 0 0 0 0 8.4m0 1.4a5.6 5.6 0 1 0 0-11.2 5.6 5.6 0 0 0 0 11.2" clip-rule="evenodd"/></g></g></g><defs><clipPath id="a"><rect width="28" height="28" fill="#fff" rx="14"/></clipPath><clipPath id="b"><path fill="#fff" d="M5.95 4.55h14.7v14.7H5.95z"/></clipPath><clipPath id="f"><path fill="#fff" d="M0 0h28v28H0z"/></clipPath><linearGradient id="e" x1="13.3" x2="13.3" y1="4.55" y2="19.25" gradientUnits="userSpaceOnUse"><stop stop-color="#f50d3c"/><stop offset="1" stop-color="#d7002b"/></linearGradient><linearGradient id="h" x1="14" x2="14" y1="0" y2="28" gradientUnits="userSpaceOnUse"><stop stop-color="#f50d3c"/><stop offset="1" stop-color="#d7002b"/></linearGradient><filter id="c" width="42.7" height="42.7" x="-8.05" y="-9.45" color-interpolation-filters="sRGB" filterUnits="userSpaceOnUse"><feFlood flood-opacity="0" result="BackgroundImageFix"/><feBlend in="SourceGraphic" in2="BackgroundImageFix" result="shape"/><feGaussianBlur result="effect1_foregroundBlur_11382_8175" stdDeviation="7"/></filter></defs></svg>