<svg xmlns="http://www.w3.org/2000/svg" width="52" height="52" fill="none" viewBox="0 0 72 72">
  <g filter="url(#a)" opacity=".3">
    <path fill="red"
      d="M33.914 15.085c1.223-.704 3.201-.704 4.417 0l2.707 1.567c.685.236 1.33.524 1.92.864.596.344 1.1.722 1.51 1.122l10.34 5.985c1.215.703 1.208 1.844-.016 2.548l-2.306 1.325 2.307 1.328c.835.48 1.102 1.164.801 1.774q.024-.036.045-.072l.009-.018q.024-.05.043-.102.012-.034.02-.069a.7.7 0 0 0 .024-.132l-.006.004q.005-.035.007-.069l-.095 16.965v.02c0 .016-.005.032-.006.047q-.002.037-.008.073v.013q-.007.024-.015.046-.007.036-.019.07l-.004.014a1 1 0 0 1-.039.088l-.01.017-.014.027a1 1 0 0 1-.063.096l-.03.042q-.022.027-.046.053l-.015.017a1 1 0 0 1-.084.084l-.015.013q-.034.03-.072.058-.03.027-.064.051-.041.029-.085.056l-.06.04-.03.016-17.294 9.963a2.5 2.5 0 0 1-.35.166l-.02.008a2 2 0 0 1-.143.05l-.025.007-.12.034-.092.025q-.064.015-.129.027l-.076.017-.013.001a4 4 0 0 1-.265.037l-.02.003-.064.004q-.078.007-.158.01l-.037.002h-.239l-.06-.003-.118-.006-.052-.003q-.028-.002-.056-.006l-.116-.013-.055-.006-.05-.008-.124-.022-.057-.01q-.02-.004-.04-.01-.073-.016-.145-.035l-.06-.015-.033-.01-.05-.015-.142-.048-.04-.014q-.009-.005-.018-.008-.053-.022-.105-.045-.031-.013-.061-.027a3 3 0 0 1-.171-.09l-17.408-9.962c-.461-.263-.69-.61-.69-.955l.095-16.965c-.001.21.084.42.255.612-.425-.643-.194-1.395.7-1.912l2.29-1.328-2.29-1.325c-1.216-.703-1.21-1.844.014-2.548l9.95-5.723c.451-.498 1.04-.965 1.764-1.384a11.4 11.4 0 0 1 2.428-1.026z" />
  </g>
  <path fill="#fff" fill-opacity=".45"
    d="M17.329 32.37c-1.223-.703-1.23-1.844-.014-2.547l16.476-9.54c1.215-.703 3.193-.703 4.416 0l16.584 9.54c1.224.704 1.23 1.844.015 2.548L38.33 41.909c-1.215.704-3.192.704-4.416 0z" />
  <path fill="url(#b)" fill-opacity=".5"
    d="M17.329 32.37c-1.223-.703-1.23-1.844-.014-2.547l16.476-9.54c1.215-.703 3.193-.703 4.416 0l16.584 9.54c1.224.704 1.23 1.844.015 2.548L38.33 41.909c-1.215.704-3.192.704-4.416 0z" />
  <path fill="url(#c)" d="M50.316 26.1H22.05v21.897h28.266z" />
  <path fill="url(#d)"
    d="M46.167 32.072c5.516-3.185 5.516-8.349 0-11.533-5.517-3.185-14.462-3.185-19.979 0s-5.516 8.348 0 11.533c5.517 3.185 14.462 3.185 19.979 0" />
  <path fill="#fff" fill-opacity=".45"
    d="M17.329 24.624c-1.223.704-1.23 1.844-.014 2.548L33.79 36.71c1.215.704 3.193.704 4.416 0l16.584-9.538c1.224-.704 1.23-1.845.015-2.549L38.33 15.086c-1.215-.704-3.192-.704-4.416 0z" />
  <path fill="url(#e)"
    d="M17.329 24.624c-1.223.704-1.23 1.844-.014 2.548L33.79 36.71c1.215.704 3.193.704 4.416 0l16.584-9.538c1.224-.704 1.23-1.845.015-2.549L38.33 15.086c-1.215-.704-3.192-.704-4.416 0z" />
  <path fill="#fff" fill-opacity=".45"
    d="M55.734 31.205q-.003.037-.008.072l-.015.06q-.01.034-.02.069a1 1 0 0 1-.043.102l-.01.017q-.028.055-.066.108l-.01.015a1 1 0 0 1-.093.112q-.045.05-.1.096-.034.03-.072.06-.031.026-.065.05-.04.029-.084.056-.044.03-.089.056l-17.294 9.963q-.076.044-.158.082l-.043.02a2 2 0 0 1-.15.063q-.01.005-.02.009a4 4 0 0 1-.288.09q-.045.014-.091.025l-.13.028-.088.017a4 4 0 0 1-.265.037l-.083.007q-.079.007-.158.01l-.102.003h-.128q-.053 0-.107-.003-.06-.002-.118-.006l-.109-.009-.116-.013a3 3 0 0 1-.326-.056l-.144-.034-.094-.025-.05-.015-.142-.048-.04-.014-.124-.053q-.03-.014-.06-.026a3 3 0 0 1-.172-.089L17.05 32.078c-.46-.264-.692-.61-.69-.955l-.095 16.965c0 .345.228.692.69.955l17.408 9.963q.083.048.171.09l.06.026.106.046.018.007.04.014q.07.026.143.048l.05.015q.014.006.032.01l.06.015.145.036q.02.005.04.009l.057.01a3 3 0 0 0 .23.036q.056.008.116.013l.055.006.052.003q.058.005.118.006c.02 0 .04.004.06.004h.239l.037-.002.158-.01q.032-.003.064-.005l.02-.003a4 4 0 0 0 .279-.039q.037-.007.075-.016.064-.012.129-.028l.092-.024.12-.034.026-.007a2 2 0 0 0 .142-.05l.02-.008q.076-.03.149-.064l.043-.02q.082-.039.158-.082l17.294-9.963.03-.016.06-.04.084-.055.066-.051.072-.06.014-.012a1 1 0 0 0 .099-.1q.025-.027.045-.054.017-.022.031-.042l.012-.015a1 1 0 0 0 .051-.081l.014-.026.01-.018a1 1 0 0 0 .039-.088l.004-.014q.01-.034.02-.07.007-.022.013-.046l.001-.013q.005-.037.008-.072c.001-.016.006-.032.006-.047v-.02l.094-16.966q-.001.034-.006.069z" />
  <path fill="url(#f)"
    d="M55.734 31.205q-.003.037-.008.072l-.015.06q-.01.034-.02.069a1 1 0 0 1-.043.102l-.01.017q-.028.055-.066.108l-.01.015a1 1 0 0 1-.093.112q-.045.05-.1.096-.034.03-.072.06-.031.026-.065.05-.04.029-.084.056-.044.03-.089.056l-17.294 9.963q-.076.044-.158.082l-.043.02a2 2 0 0 1-.15.063q-.01.005-.02.009a4 4 0 0 1-.288.09q-.045.014-.091.025l-.13.028-.088.017a4 4 0 0 1-.265.037l-.083.007q-.079.007-.158.01l-.102.003h-.128q-.053 0-.107-.003-.06-.002-.118-.006l-.109-.009-.116-.013a3 3 0 0 1-.326-.056l-.144-.034-.094-.025-.05-.015-.142-.048-.04-.014-.124-.053q-.03-.014-.06-.026a3 3 0 0 1-.172-.089L17.05 32.078c-.46-.264-.692-.61-.69-.955l-.095 16.965c0 .345.228.692.69.955l17.408 9.963q.083.048.171.09l.06.026.106.046.018.007.04.014q.07.026.143.048l.05.015q.014.006.032.01l.06.015.145.036q.02.005.04.009l.057.01a3 3 0 0 0 .23.036q.056.008.116.013l.055.006.052.003q.058.005.118.006c.02 0 .04.004.06.004h.239l.037-.002.158-.01q.032-.003.064-.005l.02-.003a4 4 0 0 0 .279-.039q.037-.007.075-.016.064-.012.129-.028l.092-.024.12-.034.026-.007a2 2 0 0 0 .142-.05l.02-.008q.076-.03.149-.064l.043-.02q.082-.039.158-.082l17.294-9.963.03-.016.06-.04.084-.055.066-.051.072-.06.014-.012a1 1 0 0 0 .099-.1q.025-.027.045-.054.017-.022.031-.042l.012-.015a1 1 0 0 0 .051-.081l.014-.026.01-.018a1 1 0 0 0 .039-.088l.004-.014q.01-.034.02-.07.007-.022.013-.046l.001-.013q.005-.037.008-.072c.001-.016.006-.032.006-.047v-.02l.094-16.966q-.001.034-.006.069z" />
  <path fill="url(#g)"
    d="M28.162 21.298q.4-.306.882-.585c3.842-2.218 10.071-2.218 13.913 0q.48.279.88.584h2.003v3.444h-.002c-.006 1.45-.965 2.898-2.88 4.004-3.843 2.218-10.073 2.218-13.915 0-1.929-1.113-2.889-2.575-2.88-4.034v-3.413z" />
  <path fill="url(#h)"
    d="M42.958 25.549c3.843-2.218 3.843-5.815 0-8.033s-10.071-2.218-13.913 0-3.842 5.815 0 8.033 10.071 2.218 13.913 0" />
  <path fill="#fff" fill-rule="evenodd"
    d="M41.565 23.942c2.69-1.552 2.69-4.07 0-5.622-2.69-1.553-7.05-1.553-9.74 0s-2.69 4.07 0 5.622c2.69 1.553 7.05 1.553 9.74 0m.695.402c3.074-1.775 3.074-4.652 0-6.426s-8.057-1.775-11.13 0-3.074 4.651 0 6.426c3.073 1.774 8.057 1.774 11.13 0"
    clip-rule="evenodd" />
  <path fill="#fff" fill-rule="evenodd"
    d="M40.176 21.532c1.152-.665 1.152-1.744 0-2.41-1.153-.665-3.022-.665-4.174 0-1.153.666-1.153 1.745 0 2.41 1.152.666 3.021.666 4.174 0m.695.402c1.537-.887 1.537-2.326 0-3.213s-4.028-.887-5.565 0-1.537 2.326 0 3.213 4.029.887 5.565 0"
    clip-rule="evenodd" />
  <defs>
    <radialGradient id="b" cx="0" cy="0" r="1"
      gradientTransform="matrix(-8.48812 23.4454 49.604 28.1363 36.05 25.42)"
      gradientUnits="userSpaceOnUse">
      <stop stop-color="#FF4343" stop-opacity=".01" />
      <stop offset="1" stop-color="#FF2F2F" />
    </radialGradient>
    <radialGradient id="c" cx="0" cy="0" r="1"
      gradientTransform="rotate(90.002 3.863 32.32)scale(19.5248 30.6279)"
      gradientUnits="userSpaceOnUse">
      <stop stop-color="red" />
      <stop offset=".612" stop-color="#fff" stop-opacity=".8" />
      <stop offset="1" stop-color="#fff" stop-opacity="0" />
    </radialGradient>
    <radialGradient id="d" cx="0" cy="0" r="1"
      gradientTransform="matrix(9.9891 7.28469 -11.3036 5.00758 36.177 24.787)"
      gradientUnits="userSpaceOnUse">
      <stop offset=".645" stop-color="#fff" />
      <stop offset="1" stop-color="#FFCCCD" />
    </radialGradient>
    <radialGradient id="e" cx="0" cy="0" r="1"
      gradientTransform="matrix(-8.48812 -23.4454 49.604 -28.1363 36.05 31.574)"
      gradientUnits="userSpaceOnUse">
      <stop stop-color="#FF4343" stop-opacity=".01" />
      <stop offset="1" stop-color="#FF2F2F" />
    </radialGradient>
    <linearGradient id="f" x1="-7.11" x2="78.536" y1="50.896" y2="50.896"
      gradientUnits="userSpaceOnUse">
      <stop stop-color="#FF4747" stop-opacity=".34" />
      <stop offset=".332" stop-color="#FF2F2F" />
      <stop offset=".592" stop-color="#FF6565" stop-opacity=".21" />
      <stop offset=".917" stop-color="#FF6565" stop-opacity=".5" />
    </linearGradient>
    <linearGradient id="g" x1="29.003" x2="36" y1="19.412" y2="31.532"
      gradientUnits="userSpaceOnUse">
      <stop stop-color="#B30024" />
      <stop offset="1" stop-color="#FF083A" />
    </linearGradient>
    <linearGradient id="h" x1="29.045" x2="36.001" y1="17.516" y2="29.565"
      gradientUnits="userSpaceOnUse">
      <stop stop-color="#F50D3C" />
      <stop offset="1" stop-color="#D7002B" />
    </linearGradient>
    <filter id="a" width="61.07" height="66.443" x="5.466" y="3.757"
      color-interpolation-filters="sRGB" filterUnits="userSpaceOnUse">
      <feFlood flood-opacity="0" result="BackgroundImageFix" />
      <feBlend in="SourceGraphic" in2="BackgroundImageFix" result="shape" />
      <feGaussianBlur result="effect1_foregroundBlur_12434_41340" stdDeviation="5.4" />
    </filter>
  </defs>
</svg>