<svg width="72" height="72" viewBox="0 0 72 72" fill="none" xmlns="http://www.w3.org/2000/svg">
<g clip-path="url(#clip0_13079_10032)">
<g opacity="0.3" filter="url(#filter0_f_13079_10032)">
<path d="M34.0702 17.4841C35.2935 16.78 37.2716 16.78 38.4868 17.4841L41.1947 19.0512C41.8792 19.287 42.5248 19.5749 43.1143 19.9151C43.7102 20.2592 44.214 20.6365 44.6251 21.0366L54.9636 27.0219C56.1787 27.7253 56.1719 28.8659 54.9487 29.5699L52.6425 30.8953L54.9487 32.2225C55.7841 32.7033 56.0514 33.3873 55.7503 33.9969C55.7656 33.9728 55.7818 33.9491 55.7951 33.9249C55.7981 33.9189 55.8008 33.9133 55.8039 33.9073C55.8203 33.8737 55.8346 33.839 55.8469 33.8053C55.8552 33.7819 55.861 33.7594 55.8672 33.7359C55.8733 33.7167 55.878 33.6963 55.8821 33.6771C55.8862 33.6536 55.8889 33.6287 55.8909 33.6041L55.8856 33.6076C55.8877 33.5842 55.8917 33.5615 55.8917 33.539L55.7969 50.5038V50.5248C55.7968 50.54 55.7926 50.5562 55.7916 50.5714C55.7895 50.5949 55.7878 50.6199 55.7836 50.6443C55.7826 50.6484 55.7827 50.6526 55.7827 50.6567C55.7797 50.6729 55.7728 50.688 55.7687 50.7032C55.7626 50.7267 55.7576 50.7502 55.7494 50.7727C55.7474 50.7777 55.7469 50.7817 55.7449 50.7867C55.7337 50.8162 55.7206 50.8461 55.7063 50.8746C55.7032 50.8808 55.6998 50.8861 55.6966 50.8922C55.6916 50.9003 55.6876 50.9095 55.6826 50.9186C55.6671 50.9461 55.6493 50.9728 55.6307 50.9994C55.6277 51.0045 55.6234 51.0101 55.6193 51.0152C55.6091 51.0284 55.5998 51.0424 55.5885 51.0565C55.5751 51.0749 55.5583 51.0928 55.5428 51.1102C55.5379 51.1151 55.5328 51.121 55.5279 51.1268C55.5021 51.1554 55.4743 51.1836 55.4444 51.2113C55.4403 51.2153 55.4335 51.2194 55.4295 51.2236C55.4069 51.2438 55.382 51.2631 55.3574 51.2824C55.337 51.2996 55.3157 51.3172 55.2932 51.3334C55.2664 51.3518 55.2368 51.3704 55.208 51.3888C55.1875 51.4021 55.1689 51.4151 55.1473 51.4283C55.1381 51.4335 55.1276 51.4399 55.1184 51.4451L37.8241 61.4083C37.7737 61.4369 37.7203 61.4646 37.6667 61.4901C37.6523 61.4972 37.6372 61.5041 37.6228 61.5102C37.5745 61.5326 37.5248 61.5541 37.4734 61.5736C37.4673 61.5765 37.4612 61.5784 37.4541 61.5814C37.4077 61.5999 37.3601 61.6162 37.3117 61.6315C37.3035 61.6345 37.2943 61.6356 37.2862 61.6386C37.246 61.6508 37.2059 61.6616 37.1658 61.6728C37.136 61.681 37.1052 61.6903 37.0744 61.6975C37.0321 61.7077 36.9884 61.7165 36.9452 61.7247C36.9205 61.7298 36.8953 61.7373 36.8696 61.7414C36.8656 61.7424 36.8604 61.7431 36.8564 61.7431C36.769 61.7584 36.6805 61.7709 36.591 61.78C36.5838 61.7811 36.5769 61.7827 36.5708 61.7827C36.5493 61.7847 36.529 61.7851 36.5074 61.7872C36.4549 61.7912 36.4019 61.7956 36.3493 61.7977C36.337 61.7977 36.3247 61.7994 36.3124 61.7994H36.0733C36.0538 61.7994 36.0331 61.7959 36.0135 61.7959C35.9734 61.7949 35.9341 61.7928 35.8949 61.7898C35.8784 61.7888 35.8605 61.7881 35.8431 61.7872C35.8246 61.7861 35.8061 61.783 35.7876 61.7809C35.7487 61.7769 35.7107 61.7728 35.6716 61.7678C35.6531 61.7657 35.6338 61.7637 35.6163 61.7616C35.5989 61.7596 35.5825 61.7567 35.5662 61.7538C35.5249 61.7476 35.4835 61.7399 35.4423 61.7317C35.4239 61.7277 35.4035 61.7261 35.3851 61.7221C35.3717 61.72 35.359 61.7155 35.3455 61.7125C35.2961 61.7012 35.2489 61.6886 35.2006 61.6764C35.181 61.6713 35.1603 61.6674 35.1408 61.6623C35.1295 61.6593 35.1187 61.6557 35.1074 61.6526C35.0909 61.6476 35.0746 61.6419 35.0582 61.6369C35.0098 61.6215 34.9621 61.6059 34.9158 61.5885C34.9025 61.5834 34.8887 61.5795 34.8754 61.5744C34.8693 61.5714 34.863 61.5694 34.8569 61.5674C34.821 61.5532 34.7872 61.5369 34.7524 61.5216C34.7317 61.5125 34.7104 61.5046 34.6908 61.4953C34.6321 61.4677 34.5759 61.4373 34.5202 61.4056L17.1126 51.4433C16.651 51.1797 16.4219 50.8332 16.4219 50.4879L16.5167 33.5224C16.5161 33.7325 16.6018 33.9429 16.7725 34.135C16.3467 33.4923 16.5781 32.7397 17.4722 32.2225L19.7626 30.8953L17.4722 29.5699C16.2565 28.8666 16.263 27.7259 17.4862 27.0219L27.4363 21.2986C27.8876 20.8007 28.4757 20.3334 29.2003 19.9151C29.9334 19.4919 30.7539 19.1503 31.6278 18.8886L34.0702 17.4841Z" fill="#0665FC"/>
</g>
<path d="M17.4862 34.7711C16.2629 34.067 16.2562 32.9263 17.4721 32.2231L33.9485 22.6842C35.1637 21.9803 37.1411 21.9803 38.3643 22.6842L54.9486 32.2231C56.1719 32.927 56.1787 34.0677 54.9635 34.7711L38.4864 44.3092C37.2712 45.0131 35.2938 45.0131 34.0705 44.3092L17.4862 34.7711Z" fill="white" fill-opacity="0.45"/>
<path d="M17.4862 34.7711C16.2629 34.067 16.2562 32.9263 17.4721 32.2231L33.9485 22.6842C35.1637 21.9803 37.1411 21.9803 38.3643 22.6842L54.9486 32.2231C56.1719 32.927 56.1787 34.0677 54.9635 34.7711L38.4864 44.3092C37.2712 45.0131 35.2938 45.0131 34.0705 44.3092L17.4862 34.7711Z" fill="url(#paint0_radial_13079_10032)" fill-opacity="0.5"/>
<path d="M50.4735 28.5005H22.207V50.3975H50.4735V28.5005Z" fill="url(#paint1_radial_13079_10032)"/>
<path d="M46.3228 34.4717C51.8396 31.2869 51.8396 26.1233 46.3228 22.9384C40.8059 19.7536 31.8614 19.7536 26.3446 22.9384C20.8278 26.1233 20.8278 31.2869 26.3446 34.4717C31.8614 37.6567 40.8059 37.6567 46.3228 34.4717Z" fill="url(#paint2_radial_13079_10032)"/>
<path d="M17.4862 27.0222C16.2629 27.7261 16.2562 28.8668 17.4721 29.5701L33.9485 39.109C35.1637 39.813 37.1411 39.813 38.3643 39.109L54.9486 29.5701C56.1719 28.8662 56.1787 27.7255 54.9635 27.0222L38.4864 17.484C37.2712 16.7801 35.2938 16.7801 34.0705 17.484L17.4862 27.0222Z" fill="white" fill-opacity="0.45"/>
<path d="M17.4862 27.0222C16.2629 27.7261 16.2562 28.8668 17.4721 29.5701L33.9485 39.109C35.1637 39.813 37.1411 39.813 38.3643 39.109L54.9486 29.5701C56.1719 28.8662 56.1787 27.7255 54.9635 27.0222L38.4864 17.484C37.2712 16.7801 35.2938 16.7801 34.0705 17.484L17.4862 27.0222Z" fill="url(#paint3_radial_13079_10032)"/>
<path d="M55.8906 33.6047C55.8885 33.6292 55.8864 33.6537 55.8823 33.6772C55.8782 33.6966 55.873 33.7171 55.8669 33.7365C55.8607 33.76 55.8556 33.7824 55.8473 33.806C55.8349 33.8397 55.8205 33.8744 55.804 33.9081C55.8009 33.9143 55.7978 33.9194 55.7947 33.9255C55.7751 33.9612 55.7535 33.9981 55.7287 34.0328C55.7246 34.0378 55.7215 34.043 55.7174 34.0481C55.6937 34.0808 55.668 34.1124 55.6401 34.1431C55.635 34.1493 55.6298 34.1554 55.6247 34.1605C55.5948 34.1932 55.5618 34.2249 55.5257 34.2565C55.503 34.277 55.4784 34.2963 55.4536 34.3158C55.4319 34.3331 55.4113 34.3505 55.3886 34.3669C55.3619 34.3862 55.333 34.4036 55.3041 34.422C55.2742 34.4414 55.2464 34.4608 55.2155 34.4782L37.9211 44.4412C37.8706 44.4709 37.817 44.4975 37.7634 44.523C37.749 44.5301 37.7346 44.5362 37.7201 44.5434C37.6717 44.5659 37.6212 44.5874 37.5707 44.6067C37.5645 44.6098 37.5573 44.6118 37.5511 44.6149C37.4965 44.6353 37.4398 44.6538 37.3831 44.6721C37.344 44.6844 37.3028 44.6956 37.2625 44.7059C37.2317 44.714 37.2017 44.7233 37.1708 44.7304C37.1285 44.7406 37.0852 44.7487 37.042 44.7579C37.0121 44.7641 36.9833 44.7702 36.9534 44.7753C36.8657 44.7907 36.7772 44.8029 36.6885 44.8121C36.6607 44.8152 36.6328 44.8172 36.605 44.8193C36.5524 44.8233 36.4999 44.8274 36.4473 44.8295C36.4133 44.8305 36.3793 44.8315 36.3454 44.8325C36.3031 44.8325 36.2598 44.8336 36.2176 44.8325C36.1815 44.8325 36.1465 44.8305 36.1104 44.8295C36.0712 44.8274 36.031 44.8264 35.9918 44.8233C35.9557 44.8213 35.9197 44.8182 35.8837 44.8142C35.8444 44.81 35.8053 44.806 35.7672 44.8008C35.7321 44.7968 35.6971 44.7917 35.6621 44.7865C35.6209 44.7804 35.5795 44.7733 35.5383 44.7651C35.5054 44.759 35.4734 44.7529 35.4415 44.7457C35.3931 44.7355 35.3446 44.7233 35.2972 44.7109C35.2663 44.7028 35.2343 44.6946 35.2034 44.6865C35.187 44.6813 35.1704 44.6762 35.1539 44.6712C35.1055 44.6558 35.0581 44.6395 35.0117 44.6231C34.9983 44.618 34.9849 44.6139 34.9715 44.6088C34.9293 44.5925 34.8881 44.574 34.8469 44.5557C34.8272 44.5465 34.8066 44.5393 34.7871 44.5301C34.7283 44.5026 34.6706 44.4729 34.6149 44.4412L17.2071 34.4782C16.7465 34.2146 16.5157 33.8683 16.5166 33.5229L16.4219 50.4881C16.4219 50.8335 16.6507 51.1798 17.1124 51.4433L34.5202 61.4064C34.5758 61.4381 34.6325 61.4677 34.6912 61.4953C34.7108 61.5045 34.7314 61.5127 34.752 61.5219C34.7871 61.5372 34.821 61.5535 34.8571 61.5679C34.8633 61.5698 34.8695 61.5719 34.8757 61.575C34.8891 61.5801 34.9025 61.5841 34.9159 61.5893C34.9622 61.6066 35.0097 61.6219 35.0581 61.6372C35.0746 61.6424 35.0911 61.6475 35.1076 61.6526C35.1189 61.6557 35.1292 61.6597 35.1405 61.6628C35.1601 61.6679 35.1808 61.672 35.2003 61.6771C35.2488 61.6894 35.2961 61.7017 35.3456 61.7128C35.359 61.716 35.3714 61.72 35.3848 61.7221C35.4033 61.7262 35.4239 61.7282 35.4425 61.7323C35.4837 61.7405 35.525 61.7476 35.5662 61.7537C35.5827 61.7568 35.5992 61.7599 35.6167 61.7619C35.6342 61.764 35.6527 61.766 35.6713 61.768C35.7105 61.7731 35.7486 61.7773 35.7878 61.7813C35.8063 61.7834 35.8249 61.7865 35.8434 61.7874C35.861 61.7884 35.8784 61.7895 35.8949 61.7905C35.9341 61.7936 35.9733 61.7956 36.0134 61.7966C36.0331 61.7966 36.0537 61.7997 36.0733 61.7997C36.0887 61.7997 36.1051 61.7997 36.1206 61.7997C36.1629 61.7997 36.2062 61.7997 36.2484 61.7997C36.2701 61.7997 36.2907 61.7997 36.3123 61.7997C36.3247 61.7997 36.3371 61.7977 36.3494 61.7977C36.402 61.7956 36.4545 61.7916 36.5071 61.7874C36.5288 61.7854 36.5494 61.7854 36.571 61.7834C36.5772 61.7834 36.5834 61.7813 36.5906 61.7803C36.6802 61.7711 36.7689 61.7588 36.8565 61.7435C36.8606 61.7435 36.8657 61.7425 36.8699 61.7415C36.8956 61.7374 36.9204 61.7302 36.9451 61.7252C36.9884 61.717 37.0317 61.7078 37.0739 61.6975C37.1049 61.6904 37.1358 61.6812 37.1657 61.6731C37.2058 61.6618 37.2461 61.6516 37.2862 61.6393C37.2945 61.6363 37.3038 61.6353 37.312 61.6322C37.3605 61.6168 37.4079 61.6005 37.4542 61.5821C37.4614 61.579 37.4677 61.577 37.4739 61.574C37.5253 61.5545 37.5748 61.5331 37.6233 61.5106C37.6377 61.5045 37.6522 61.4973 37.6666 61.4902C37.7201 61.4646 37.7737 61.4371 37.8242 61.4085L55.1186 51.4454C55.1279 51.4402 55.1383 51.4341 55.1475 51.429C55.1691 51.4158 55.1877 51.4024 55.2083 51.3892C55.2372 51.3708 55.2661 51.3524 55.2928 51.334C55.3155 51.3177 55.3372 51.3003 55.3578 51.2829C55.3825 51.2636 55.4072 51.2441 55.4299 51.2237C55.434 51.2196 55.4402 51.2155 55.4443 51.2115C55.4742 51.1838 55.502 51.1563 55.5278 51.1277C55.5329 51.1215 55.5381 51.1154 55.5433 51.1103C55.5587 51.0929 55.5752 51.0756 55.5886 51.0572C55.6 51.0429 55.6092 51.0286 55.6195 51.0153C55.6236 51.0101 55.6278 51.0051 55.6308 51C55.6494 50.9734 55.6669 50.9469 55.6824 50.9192C55.6875 50.91 55.6917 50.9009 55.6968 50.8927C55.6999 50.8866 55.703 50.8814 55.7061 50.8753C55.7206 50.8467 55.7339 50.8171 55.7452 50.7875C55.7473 50.7823 55.7473 50.7783 55.7494 50.7732C55.7576 50.7507 55.7628 50.7272 55.769 50.7037C55.7731 50.6884 55.7792 50.673 55.7824 50.6567C55.7824 50.6526 55.7824 50.6485 55.7834 50.6444C55.7875 50.6199 55.7896 50.5954 55.7917 50.5719C55.7926 50.5565 55.7968 50.5402 55.7968 50.5249C55.7968 50.5177 55.7968 50.5116 55.7968 50.5044L55.8916 33.5393C55.8916 33.5618 55.8875 33.5842 55.8854 33.6077L55.8906 33.6047Z" fill="white" fill-opacity="0.45"/>
<path d="M55.8906 33.6047C55.8885 33.6292 55.8864 33.6537 55.8823 33.6772C55.8782 33.6966 55.873 33.7171 55.8669 33.7365C55.8607 33.76 55.8556 33.7824 55.8473 33.806C55.8349 33.8397 55.8205 33.8744 55.804 33.9081C55.8009 33.9143 55.7978 33.9194 55.7947 33.9255C55.7751 33.9612 55.7535 33.9981 55.7287 34.0328C55.7246 34.0378 55.7215 34.043 55.7174 34.0481C55.6937 34.0808 55.668 34.1124 55.6401 34.1431C55.635 34.1493 55.6298 34.1554 55.6247 34.1605C55.5948 34.1932 55.5618 34.2249 55.5257 34.2565C55.503 34.277 55.4784 34.2963 55.4536 34.3158C55.4319 34.3331 55.4113 34.3505 55.3886 34.3669C55.3619 34.3862 55.333 34.4036 55.3041 34.422C55.2742 34.4414 55.2464 34.4608 55.2155 34.4782L37.9211 44.4412C37.8706 44.4709 37.817 44.4975 37.7634 44.523C37.749 44.5301 37.7346 44.5362 37.7201 44.5434C37.6717 44.5659 37.6212 44.5874 37.5707 44.6067C37.5645 44.6098 37.5573 44.6118 37.5511 44.6149C37.4965 44.6353 37.4398 44.6538 37.3831 44.6721C37.344 44.6844 37.3028 44.6956 37.2625 44.7059C37.2317 44.714 37.2017 44.7233 37.1708 44.7304C37.1285 44.7406 37.0852 44.7487 37.042 44.7579C37.0121 44.7641 36.9833 44.7702 36.9534 44.7753C36.8657 44.7907 36.7772 44.8029 36.6885 44.8121C36.6607 44.8152 36.6328 44.8172 36.605 44.8193C36.5524 44.8233 36.4999 44.8274 36.4473 44.8295C36.4133 44.8305 36.3793 44.8315 36.3454 44.8325C36.3031 44.8325 36.2598 44.8336 36.2176 44.8325C36.1815 44.8325 36.1465 44.8305 36.1104 44.8295C36.0712 44.8274 36.031 44.8264 35.9918 44.8233C35.9557 44.8213 35.9197 44.8182 35.8837 44.8142C35.8444 44.81 35.8053 44.806 35.7672 44.8008C35.7321 44.7968 35.6971 44.7917 35.6621 44.7865C35.6209 44.7804 35.5795 44.7733 35.5383 44.7651C35.5054 44.759 35.4734 44.7529 35.4415 44.7457C35.3931 44.7355 35.3446 44.7233 35.2972 44.7109C35.2663 44.7028 35.2343 44.6946 35.2034 44.6865C35.187 44.6813 35.1704 44.6762 35.1539 44.6712C35.1055 44.6558 35.0581 44.6395 35.0117 44.6231C34.9983 44.618 34.9849 44.6139 34.9715 44.6088C34.9293 44.5925 34.8881 44.574 34.8469 44.5557C34.8272 44.5465 34.8066 44.5393 34.7871 44.5301C34.7283 44.5026 34.6706 44.4729 34.6149 44.4412L17.2071 34.4782C16.7465 34.2146 16.5157 33.8683 16.5166 33.5229L16.4219 50.4881C16.4219 50.8335 16.6507 51.1798 17.1124 51.4433L34.5202 61.4064C34.5758 61.4381 34.6325 61.4677 34.6912 61.4953C34.7108 61.5045 34.7314 61.5127 34.752 61.5219C34.7871 61.5372 34.821 61.5535 34.8571 61.5679C34.8633 61.5698 34.8695 61.5719 34.8757 61.575C34.8891 61.5801 34.9025 61.5841 34.9159 61.5893C34.9622 61.6066 35.0097 61.6219 35.0581 61.6372C35.0746 61.6424 35.0911 61.6475 35.1076 61.6526C35.1189 61.6557 35.1292 61.6597 35.1405 61.6628C35.1601 61.6679 35.1808 61.672 35.2003 61.6771C35.2488 61.6894 35.2961 61.7017 35.3456 61.7128C35.359 61.716 35.3714 61.72 35.3848 61.7221C35.4033 61.7262 35.4239 61.7282 35.4425 61.7323C35.4837 61.7405 35.525 61.7476 35.5662 61.7537C35.5827 61.7568 35.5992 61.7599 35.6167 61.7619C35.6342 61.764 35.6527 61.766 35.6713 61.768C35.7105 61.7731 35.7486 61.7773 35.7878 61.7813C35.8063 61.7834 35.8249 61.7865 35.8434 61.7874C35.861 61.7884 35.8784 61.7895 35.8949 61.7905C35.9341 61.7936 35.9733 61.7956 36.0134 61.7966C36.0331 61.7966 36.0537 61.7997 36.0733 61.7997C36.0887 61.7997 36.1051 61.7997 36.1206 61.7997C36.1629 61.7997 36.2062 61.7997 36.2484 61.7997C36.2701 61.7997 36.2907 61.7997 36.3123 61.7997C36.3247 61.7997 36.3371 61.7977 36.3494 61.7977C36.402 61.7956 36.4545 61.7916 36.5071 61.7874C36.5288 61.7854 36.5494 61.7854 36.571 61.7834C36.5772 61.7834 36.5834 61.7813 36.5906 61.7803C36.6802 61.7711 36.7689 61.7588 36.8565 61.7435C36.8606 61.7435 36.8657 61.7425 36.8699 61.7415C36.8956 61.7374 36.9204 61.7302 36.9451 61.7252C36.9884 61.717 37.0317 61.7078 37.0739 61.6975C37.1049 61.6904 37.1358 61.6812 37.1657 61.6731C37.2058 61.6618 37.2461 61.6516 37.2862 61.6393C37.2945 61.6363 37.3038 61.6353 37.312 61.6322C37.3605 61.6168 37.4079 61.6005 37.4542 61.5821C37.4614 61.579 37.4677 61.577 37.4739 61.574C37.5253 61.5545 37.5748 61.5331 37.6233 61.5106C37.6377 61.5045 37.6522 61.4973 37.6666 61.4902C37.7201 61.4646 37.7737 61.4371 37.8242 61.4085L55.1186 51.4454C55.1279 51.4402 55.1383 51.4341 55.1475 51.429C55.1691 51.4158 55.1877 51.4024 55.2083 51.3892C55.2372 51.3708 55.2661 51.3524 55.2928 51.334C55.3155 51.3177 55.3372 51.3003 55.3578 51.2829C55.3825 51.2636 55.4072 51.2441 55.4299 51.2237C55.434 51.2196 55.4402 51.2155 55.4443 51.2115C55.4742 51.1838 55.502 51.1563 55.5278 51.1277C55.5329 51.1215 55.5381 51.1154 55.5433 51.1103C55.5587 51.0929 55.5752 51.0756 55.5886 51.0572C55.6 51.0429 55.6092 51.0286 55.6195 51.0153C55.6236 51.0101 55.6278 51.0051 55.6308 51C55.6494 50.9734 55.6669 50.9469 55.6824 50.9192C55.6875 50.91 55.6917 50.9009 55.6968 50.8927C55.6999 50.8866 55.703 50.8814 55.7061 50.8753C55.7206 50.8467 55.7339 50.8171 55.7452 50.7875C55.7473 50.7823 55.7473 50.7783 55.7494 50.7732C55.7576 50.7507 55.7628 50.7272 55.769 50.7037C55.7731 50.6884 55.7792 50.673 55.7824 50.6567C55.7824 50.6526 55.7824 50.6485 55.7834 50.6444C55.7875 50.6199 55.7896 50.5954 55.7917 50.5719C55.7926 50.5565 55.7968 50.5402 55.7968 50.5249C55.7968 50.5177 55.7968 50.5116 55.7968 50.5044L55.8916 33.5393C55.8916 33.5618 55.8875 33.5842 55.8854 33.6077L55.8906 33.6047Z" fill="url(#paint4_linear_13079_10032)"/>
<path d="M28.318 23.6978C28.5857 23.4945 28.8786 23.2986 29.2002 23.1129C33.0422 20.8949 39.2715 20.8946 43.1137 23.1124C43.4346 23.2977 43.7255 23.4944 43.9928 23.6973H45.9962L45.9955 27.1411H45.9939C45.9886 28.5906 45.0294 30.0392 43.1137 31.1451C39.2715 33.3633 33.0416 33.3633 29.1994 31.1451C27.2705 30.0315 26.3104 28.5703 26.3184 27.1108L26.3191 23.6978H28.318Z" fill="url(#paint5_linear_13079_10032)"/>
<path d="M43.1049 27.894C46.9301 25.6857 46.9301 22.1053 43.1049 19.897C39.2796 17.6887 33.0776 17.6887 29.2524 19.897C25.4271 22.1053 25.4271 25.6857 29.2524 27.894C33.0776 30.1023 39.2796 30.1023 43.1049 27.894Z" fill="url(#paint6_radial_13079_10032)"/>
<path d="M42.8879 26.7273C46.0836 24.8825 46.0787 21.8886 42.8772 20.0403C39.6756 18.1921 34.4897 18.1893 31.294 20.0341C28.0984 21.879 28.1032 24.8728 31.3048 26.7211C34.5063 28.5694 39.6923 28.5721 42.8879 26.7273Z" fill="url(#paint7_radial_13079_10032)"/>
<path d="M40.3817 26.4604C42.7754 25.0785 42.7803 22.8408 40.3924 21.4623C38.0046 20.0838 34.1284 20.0866 31.7347 21.4685C29.3409 22.8504 29.3361 25.0882 31.7239 26.4667C34.1117 27.8451 37.9879 27.8424 40.3817 26.4604Z" fill="url(#paint8_radial_13079_10032)"/>
<path d="M36.7689 26.1865C38.0222 25.463 38.0222 24.2899 36.7689 23.5664C35.5156 22.8429 33.4835 22.8429 32.2302 23.5664C30.9769 24.2899 30.9769 25.463 32.2302 26.1865C33.4835 26.9101 35.5156 26.9101 36.7689 26.1865Z" fill="url(#paint9_radial_13079_10032)"/>
</g>
<defs>
<filter id="filter0_f_13079_10032" x="1.74495" y="2.27913" width="68.8245" height="74.1971" filterUnits="userSpaceOnUse" color-interpolation-filters="sRGB">
<feFlood flood-opacity="0" result="BackgroundImageFix"/>
<feBlend mode="normal" in="SourceGraphic" in2="BackgroundImageFix" result="shape"/>
<feGaussianBlur stdDeviation="7.33846" result="effect1_foregroundBlur_13079_10032"/>
</filter>
<radialGradient id="paint0_radial_13079_10032" cx="0" cy="0" r="1" gradientTransform="matrix(-8.48812 23.4454 49.604 28.1363 36.2064 27.8202)" gradientUnits="userSpaceOnUse">
<stop stop-color="#0665FC" stop-opacity="0.01"/>
<stop offset="1" stop-color="#0665FC"/>
</radialGradient>
<radialGradient id="paint1_radial_13079_10032" cx="0" cy="0" r="1" gradientUnits="userSpaceOnUse" gradientTransform="translate(36.3403 30.8577) rotate(90.002) scale(19.5248 30.6279)">
<stop stop-color="#0665FC"/>
<stop offset="0.611896" stop-color="#0665FC" stop-opacity="0.2"/>
<stop offset="1" stop-color="white" stop-opacity="0"/>
</radialGradient>
<radialGradient id="paint2_radial_13079_10032" cx="0" cy="0" r="1" gradientTransform="matrix(9.9891 7.28469 -11.3036 5.00758 36.3337 27.1871)" gradientUnits="userSpaceOnUse">
<stop offset="0.645088" stop-color="white" stop-opacity="0.3"/>
<stop offset="1" stop-color="#0665FC"/>
</radialGradient>
<radialGradient id="paint3_radial_13079_10032" cx="0" cy="0" r="1" gradientTransform="matrix(-8.48812 -23.4454 49.604 -28.1363 36.2064 33.973)" gradientUnits="userSpaceOnUse">
<stop stop-color="#0665FC" stop-opacity="0.01"/>
<stop offset="1" stop-color="#0665FC"/>
</radialGradient>
<linearGradient id="paint4_linear_13079_10032" x1="-6.95345" y1="53.2964" x2="78.6921" y2="53.2964" gradientUnits="userSpaceOnUse">
<stop stop-color="#131D52" stop-opacity="0.34"/>
<stop offset="0.332214" stop-color="#0665FC"/>
<stop offset="0.592213" stop-color="#0665FC" stop-opacity="0.21"/>
<stop offset="0.917213" stop-color="#0665FC" stop-opacity="0.5"/>
</linearGradient>
<linearGradient id="paint5_linear_13079_10032" x1="26.3184" y1="15.7008" x2="45.9962" y2="29.8185" gradientUnits="userSpaceOnUse">
<stop stop-color="#5A9AFF"/>
<stop offset="1" stop-color="#0046B6"/>
</linearGradient>
<radialGradient id="paint6_radial_13079_10032" cx="0" cy="0" r="1" gradientTransform="matrix(6.92623 3.99851 -6.92623 3.99851 36.1786 23.8955)" gradientUnits="userSpaceOnUse">
<stop stop-color="#0E122B"/>
<stop offset="0.252894" stop-color="#131D52"/>
<stop offset="0.608015" stop-color="#2750AA"/>
<stop offset="0.927083" stop-color="#A3EAFF"/>
</radialGradient>
<radialGradient id="paint7_radial_13079_10032" cx="0" cy="0" r="1" gradientTransform="matrix(5.79695 3.34658 -5.78621 3.34038 37.091 23.3807)" gradientUnits="userSpaceOnUse">
<stop stop-color="#F85F97"/>
<stop offset="0.546875" stop-color="#330E18"/>
<stop offset="1" stop-color="#F00A38"/>
</radialGradient>
<radialGradient id="paint8_radial_13079_10032" cx="0" cy="0" r="1" gradientTransform="matrix(4.32351 2.49596 -4.33428 2.50218 36.0582 23.9645)" gradientUnits="userSpaceOnUse">
<stop stop-color="#23164B"/>
<stop offset="0.489583" stop-color="#15105D"/>
<stop offset="0.939782" stop-color="#2D68C6"/>
<stop offset="1" stop-color="white"/>
</radialGradient>
<radialGradient id="paint9_radial_13079_10032" cx="0" cy="0" r="1" gradientTransform="matrix(2.26931 1.31007 -2.26931 1.31007 34.4996 24.8765)" gradientUnits="userSpaceOnUse">
<stop stop-color="#BB2354"/>
<stop offset="0.557292" stop-color="#CE2C65"/>
<stop offset="1" stop-color="#FF94CE"/>
</radialGradient>
<clipPath id="clip0_13079_10032">
<rect width="72" height="72" fill="white"/>
</clipPath>
</defs>
</svg>
