<svg xmlns="http://www.w3.org/2000/svg" width="52" height="52" fill="none" viewBox="0 0 52 52"><g filter="url(#a)"><path fill="url(#b)" d="M40.317 23.461 30.15 29.353c-1.546.896-4.06.896-5.617 0L14.3 23.461c-1.556-.896-1.564-2.348-.018-3.245l10.167-5.892c1.546-.896 4.06-.896 5.617 0l10.233 5.892c1.557.897 1.565 2.349.018 3.245"/><path fill="#ffbf00" d="M31.353 16.11q-.015-.005-.029-.009l.029-.013z"/><path fill="#806000" d="m25.102 11.976-.002.002v-.002z"/><path fill="#dca500" d="m25.099 11.978-2.505 4.765z"/><path fill="url(#c)" d="m27.186 14.098-.039 13.398-1.135-2.41.038-13.397z"/><path fill="url(#d)" d="m31.382 14.743-.039 13.399-4.195-.646.038-13.398z"/><path fill="url(#e)" d="m32.483 12.455-.003.078-.007.094-.006.057-.026.148q-.018.09-.045.18l-.011.034a2 2 0 0 1-.053.157l-.02.054-.028.068-.032.076-.03.068-.036.075q-.016.035-.034.07l-.04.075-.037.07-.038.065a4 4 0 0 1-.107.177 8 8 0 0 1-.238.35l-.04.056-.099.128-.036.047-.132.161-.038 13.397.143-.174q.014-.016.026-.033l.098-.128q.02-.027.04-.056.05-.067.098-.137l.028-.04q.06-.086.113-.173l.027-.043.08-.135.017-.028.021-.039.038-.069.04-.075.034-.07.036-.075a2 2 0 0 0 .063-.143l.028-.068.01-.028.01-.027q.03-.079.053-.158l.01-.034q.027-.09.046-.18l.004-.016.006-.036.015-.097.007-.057.007-.093.002-.035v-.043l.038-13.397z"/><path fill="#ffd966" d="m25.099 11.978 1.257 2.607c-1.234.71-2.588 1.48-3.762 2.158z"/><path fill="#fff2cc" d="m30.881 15.296-8.29 1.457c1.176-.679 2.53-1.455 3.766-2.167z"/><path fill="url(#f)" d="M21.106 14.74c.018.778.588 1.49 1.49 2.007q.084.048.172.095l.063.03.119.06.076.035.112.05.088.035q.052.024.106.044l.004.002q.128.05.262.095l.07.023a9 9 0 0 0 .52.15l.072.016.177.04.104.02q.065.014.13.024l.11.02.133.02.117.016.118.015.122.014q.06.006.12.01.063.007.126.01.059.006.118.008.064.006.128.007l.12.004q.103.005.21.005.152 0 .304-.004l.072-.003.193-.009q.028 0 .055-.003a9 9 0 0 0 .29-.025l.242-.029.06-.008q.136-.019.268-.042l.068-.013.147-.029.08-.017.139-.032.075-.019q.075-.018.15-.04l.056-.014.201-.06.018-.007a6 6 0 0 0 .555-.21l.045-.02q.12-.054.235-.113l.04-.02q.117-.06.227-.127l.032-.02.119-.074.05-.035.094-.066.052-.038q.046-.033.087-.068.025-.019.048-.039l.09-.078.035-.03q.07-.066.137-.135l.03-.034q.06-.064.112-.13l.014-.017q.05-.063.094-.127.012-.018.022-.035.033-.048.062-.098l.027-.047q.021-.04.04-.08.014-.024.025-.049l.037-.085v-.001l.024-.06-.039 13.398-.01.026-.014.033q-.016.044-.037.086l-.023.05-.042.079-.013.027-.013.02-.061.099-.023.033q-.044.065-.093.128l-.003.005-.012.013a2 2 0 0 1-.112.13l-.031.032q-.066.07-.137.136l-.006.006q-.016.012-.028.025l-.09.078-.047.038-.088.068-.052.038-.093.066q-.026.016-.052.034l-.117.074-.029.019-.004.002a4 4 0 0 1-.266.147 5 5 0 0 1-.282.133 5 5 0 0 1-.253.104l-.033.012a6 6 0 0 1-.268.094l-.013.004-.005.002q-.099.03-.2.06l-.058.016-.15.04-.075.017q-.068.017-.139.033l-.079.017q-.073.016-.147.028l-.051.011-.018.002q-.132.024-.267.043l-.059.008q-.12.016-.244.028l-.032.005h-.014q-.122.012-.243.02l-.054.003q-.098.007-.195.01-.017.002-.035.003h-.037a10 10 0 0 1-.514 0l-.119-.005-.129-.006-.117-.008q-.039-.002-.076-.006c-.017 0-.033-.004-.05-.004l-.12-.012-.123-.013a4 4 0 0 1-.188-.024l-.047-.007-.131-.02-.11-.02-.13-.024-.073-.014-.032-.006-.178-.04-.07-.017a6 6 0 0 1-.521-.149l-.07-.023q-.134-.044-.262-.095h-.004l-.111-.047-.084-.033-.103-.048-.085-.038-.181-.09-.172-.094v-.053c-.855-.512-1.474-1.201-1.492-1.955v-.044z"/><path fill="url(#g)" d="m30.847 28.689-.042.115.039-13.399.042-.114z"/><path fill="url(#h)" d="m38.222 19.266-.003.036q-.012.135-.035.269l-.005.031a3 3 0 0 1-.057.273l-.007.024q-.035.14-.082.278l-.006.017q-.049.144-.109.284v.002q-.06.14-.132.279l-.009.018a5 5 0 0 1-.146.26q-.011.02-.024.04a5 5 0 0 1-.164.25l-.033.046q-.087.124-.185.246l-.038.045q-.086.105-.18.209l-.05.057q-.11.12-.232.238l-.044.041q-.116.113-.242.223l-.02.018q-.14.12-.289.238l-.028.022q-.147.115-.305.228l-.036.025a9 9 0 0 1-.738.47q-.18.105-.365.2-.048.027-.097.051a16 16 0 0 1-.383.19 11 11 0 0 1-.49.216q-.167.07-.339.135l-.074.029q-.202.076-.409.147l-.1.032q-.139.047-.28.09l-.268.082a18 18 0 0 1-.736.194l-.281.065q-.118.027-.234.05-.145.03-.289.056l-.258.049-.117.02a16 16 0 0 1-.399.06l-.066.01a22 22 0 0 1-.572.07 23 23 0 0 1-.864.073q-.186.011-.371.019l-.21.008q-.161.005-.323.007l-.225.003-.346-.003q-.102 0-.203-.003-.158-.005-.317-.012l-.22-.01q-.171-.01-.342-.022l-.193-.013q-.204-.017-.407-.04l-.126-.012q-.264-.03-.528-.066l-.085-.013q-.226-.033-.448-.07-.093-.016-.187-.034-.172-.03-.341-.064-.09-.019-.177-.039a14 14 0 0 1-.911-.222l-.285-.081-.106-.032a14 14 0 0 1-.422-.135l-.08-.027a18 18 0 0 1-.46-.167l-.268-.107-.184-.076a18 18 0 0 1-.425-.19q-.139-.066-.276-.135l-.136-.068q-.202-.105-.398-.217c-1.225-.701-2.105-1.526-2.64-2.405a4.7 4.7 0 0 1-.365-.743q-.058-.15-.102-.302-.021-.075-.04-.153a3.7 3.7 0 0 1-.113-.917l-.035 13.402c-.005 1.635 1.083 3.272 3.26 4.519q.195.111.398.216.068.035.137.069.135.07.275.134.083.039.168.076.127.058.256.114.09.038.183.075.088.038.176.073l.091.035.116.044q.17.063.344.122l.08.028q.209.07.421.135l.106.031.184.054q.05.014.101.026.166.046.335.088l.204.051q.185.044.372.084.07.016.14.03l.037.007q.17.034.341.065c.062.01.124.024.187.034q.224.037.449.07l.081.013h.005q.262.037.528.066l.126.012.405.04h.01q.09.006.183.011.171.013.342.023.11.006.22.009.158.008.316.012h.027q.089 0 .178.002.172.004.345.004.112-.001.226-.004.161 0 .322-.006.03 0 .06-.002l.15-.007q.185-.008.371-.019.113-.007.223-.015.179-.013.356-.03l.125-.01.16-.017.115-.012q.23-.026.457-.058l.066-.01q.2-.029.4-.061l.116-.02.094-.016.163-.031q.146-.027.29-.057l.234-.05q.141-.031.282-.065l.232-.058q.137-.036.275-.073.114-.03.228-.064l.27-.081.117-.035.163-.055.1-.033q.207-.071.408-.147l.074-.029q.17-.065.34-.135l.101-.043q.197-.084.389-.173l.044-.022q.17-.081.338-.168l.098-.05q.187-.098.366-.2l.135-.08a10 10 0 0 0 .603-.39l.035-.026a7 7 0 0 0 .306-.228l.029-.023q.15-.118.288-.238l.021-.018.117-.104.124-.119.044-.042q.12-.119.23-.238.028-.03.052-.057.093-.105.18-.21l.037-.044.018-.021a7 7 0 0 0 .201-.27q.087-.124.163-.25.014-.02.025-.04l.056-.094q.046-.082.09-.166l.008-.018q.072-.14.132-.279v-.002q.034-.079.065-.158l.045-.126.007-.017q.045-.139.082-.277l.006-.025a3 3 0 0 0 .057-.272l.005-.032q.02-.135.034-.269l.004-.036q.007-.095.01-.192l.002-.096.038-13.397q0 .143-.013.288z"/><path fill="url(#i)" d="M41.467 21.93q0 .03-.004.059l-.007.05-.009.06-.01.052-.015.057-.015.052-.02.057-.044.11q-.01.027-.023.05l-.031.059q-.013.024-.027.047l-.044.07-.028.042-.056.076-.025.033a2 2 0 0 1-.103.118l-.03.03-.09.088-.043.04-.057.049-.054.044-.063.049-.058.043-.067.047-.064.043-.072.044q-.044.03-.093.056l-.007 2.468.008-2.467-10.16 5.83-.016 12.395.016-12.395a5 5 0 0 1-.384.194l-.05.023a5 5 0 0 1-.198.079l-.035.012q-.085.032-.173.06l-.072.024-.096.03-.083.022-.098.026-.083.02-.102.024-.083.018-.104.02q-.038.008-.08.015a6 6 0 0 1-.224.035l-.032.004-.198.023q-.037.005-.075.007l-.128.011-.08.006-.134.006-.074.002-.116.002-.081.001h-.124q-.038 0-.074-.002-.057 0-.114-.004l-.078-.004-.122-.008-.07-.004q-.073-.007-.146-.015l-.045-.004-.19-.024-.03-.005-.163-.025-.067-.012-.186-.037-.133-.03-.194-.05q-.035-.008-.068-.018l-.188-.057-.033-.01a5 5 0 0 1-.21-.077l-.043-.017a5 5 0 0 1-.289-.126 4 4 0 0 1-.26-.136l-10.228-5.83c-.783-.446-1.174-1.032-1.172-1.616l-.019 13.6c-.002.584.389 1.17 1.172 1.615l.016-12.842-.016 12.843 10.227 5.83q.126.072.26.136l.025.012q.129.06.264.114.012.004.022.01l.02.007a5 5 0 0 0 .43.144l.032.01.037.01.12.031.073.018.133.03.05.011.014.003a6 6 0 0 0 .379.065h.002q.094.014.19.024l.045.005.145.014h.004l.068.004q.06.005.121.008l.081.004.112.005h.278l.116-.002h.022l.054-.003.133-.006.08-.006q.065-.004.128-.01l.045-.004.03-.003q.1-.011.199-.024l.031-.003a6 6 0 0 0 .245-.04l.06-.011.103-.02.084-.018.102-.024.083-.02.099-.026.082-.023.097-.03.042-.012.03-.011q.087-.029.172-.06l.036-.013q.1-.036.198-.079l.051-.022q.075-.034.147-.07l.055-.026q.093-.046.183-.097l10.16-5.83.048-.029q.023-.012.044-.026l.072-.045.13-.09.06-.043.062-.048.054-.045q.03-.024.057-.05l.023-.02q.01-.01.02-.02a3 3 0 0 0 .223-.236l.004-.005.021-.028q.03-.037.056-.076a1 1 0 0 0 .072-.112l.012-.018.014-.03.03-.058a1 1 0 0 0 .05-.109l.011-.027.009-.024.019-.057.015-.052.014-.057.008-.031q.001-.012.003-.02a1 1 0 0 0 .016-.112l.004-.059.003-.035v-.034l.019-13.6-.003.069"/><path fill="url(#j)" d="M32.48 13.435c.885.281 1.718.637 2.47 1.068l.025-.01c4.327 2.478 4.35 6.497.05 8.976-.78.45-1.651.818-2.578 1.105q-.534.165-1.094.295a18.4 18.4 0 0 1-4.199.458c-2.802-.01-5.603-.63-7.748-1.858a10 10 0 0 1-.977-.639 7.6 7.6 0 0 1-.804-.691l-.024.01c-2.438-2.425-1.865-5.574 1.73-7.646.685-.396 1.44-.728 2.241-.997-.3.36-.464.765-.466 1.19l-.01 4.018c-.283.5-.335 1.115-.006 1.853l.015.038c1.142 1.755 3.617 1.874 4.974 1.881a8 8 0 0 0 1.084-.063c1.821-.227 3.275-1.042 3.666-2.127l.043-.113.496-.546.002-.002c.635-.755 1.099-1.602 1.099-2.291l.005-1.75zm-6.434.511-.59-1.228q.297-.027.593-.043z"/><path fill="url(#k)" d="M31.866 11.4c1.128.646.55 2.115-.484 3.344l-4.196-.646-1.135-2.41c2.135-.598 4.687-.934 5.815-.287"/><path fill="url(#l)" d="M22.592 16.744c-.902-.516-1.468-1.226-1.486-2.006-.031-1.327 1.547-2.465 3.795-2.737l.199-.024z"/><path fill="url(#m)" d="m30.885 15.291-.042.115c-.466 1.293-2.443 2.204-4.751 2.19-1.359-.008-2.595-.332-3.497-.849z"/></g><path fill="url(#n)" d="m39.538 22.008-10.573 6.128c-1.609.931-4.223.931-5.842 0L12.48 22.008c-1.618-.933-1.627-2.442-.019-3.375l10.574-6.128c1.608-.931 4.223-.931 5.841 0l10.643 6.128c1.619.933 1.627 2.442.019 3.375"/><path fill="#ffbf00" d="m30.215 14.362-.03-.01.03-.013z"/><path fill="#806000" d="m23.713 10.063-.002.002v-.002z"/><path fill="#dca500" d="M23.71 10.065c-2.4 4.568-2.59 4.928-2.605 4.955z"/><path fill="url(#o)" d="m25.881 12.27-.04 13.934-1.18-2.506.04-13.934z"/><path fill="url(#p)" d="m30.246 12.94-.04 13.935-4.364-.671.04-13.934z"/><path fill="url(#q)" d="m31.39 10.56-.003.082-.007.098-.007.059-.027.154a2 2 0 0 1-.047.187l-.011.035a3 3 0 0 1-.055.163l-.021.057q-.014.035-.029.07-.016.04-.033.08l-.032.07-.037.079-.036.071-.04.079-.04.072-.04.068q-.04.07-.083.14l-.027.045q-.058.09-.119.181l-.027.04-.102.142q-.02.03-.042.058l-.102.134-.038.049-.137.167-.04 13.934.15-.182.026-.034.102-.133.043-.058.1-.143.03-.04.118-.182.027-.044.084-.14.017-.03.022-.04.04-.072.04-.078.036-.072.038-.079a2 2 0 0 0 .066-.15l.028-.07.012-.028q.004-.015.009-.029.03-.083.055-.164l.011-.035q.028-.095.048-.187.001-.01.004-.017l.006-.038.016-.1.007-.06q.005-.048.007-.096l.002-.037v-.044l.04-13.933z"/><path fill="#ffd966" d="m23.71 10.065 1.308 2.712c-1.283.74-2.692 1.539-3.913 2.244z"/><path fill="#fff2cc" d="m29.725 13.516-8.622 1.515c1.223-.706 2.632-1.513 3.916-2.254z"/><path fill="url(#r)" d="M19.557 12.937c.02.81.612 1.55 1.55 2.087q.088.05.18.1l.064.031.124.062.08.036q.058.027.116.052l.092.037q.054.025.11.046l.004.002q.133.051.273.098l.072.025a9 9 0 0 0 .542.155l.073.017q.093.021.186.04.053.013.108.023l.135.025.114.02.138.02.122.018q.06.008.122.015.064.008.128.014l.124.012.13.01q.062.005.124.008.066.006.133.007l.124.005q.109.004.218.004.16 0 .317-.003l.075-.004.201-.009.057-.003a9 9 0 0 0 .302-.027l.252-.029.062-.009q.14-.02.278-.043l.072-.014.152-.03q.042-.008.083-.018a6 6 0 0 0 .38-.094l.057-.015q.107-.03.21-.063l.018-.007a7 7 0 0 0 .577-.218l.047-.02q.126-.057.244-.119l.042-.02q.121-.064.236-.132l.034-.02.123-.078.052-.037q.051-.034.098-.068l.054-.04a2 2 0 0 0 .14-.11q.048-.04.093-.082l.037-.03q.075-.07.142-.142l.032-.035q.06-.067.117-.134l.014-.019q.052-.064.098-.132l.023-.036q.034-.05.064-.102l.028-.049a1 1 0 0 0 .068-.134q.02-.045.038-.089l.025-.064-.04 13.935-.01.027-.015.034q-.017.045-.038.09l-.024.052-.044.081-.014.03-.014.02-.063.102-.024.035q-.045.068-.097.133 0 .003-.003.005l-.012.014q-.055.069-.117.134l-.032.035a3 3 0 0 1-.142.141l-.006.006-.03.026-.093.08-.05.04q-.045.036-.09.071l-.054.04-.097.068-.054.036-.122.077-.03.02q-.003 0-.005.002a4 4 0 0 1-.276.153 5 5 0 0 1-.246.117l-.047.02a5 5 0 0 1-.264.109l-.034.012q-.136.052-.279.098-.006.002-.013.005l-.006.001a6 6 0 0 1-.207.063l-.06.017-.157.04-.077.019-.145.034-.082.017-.153.03q-.026.005-.053.012-.01 0-.019.002-.138.023-.278.044l-.06.008a6 6 0 0 1-.255.03q-.016.001-.033.004l-.015.002-.253.02-.056.003-.202.01q-.019.002-.037.003h-.038a10 10 0 0 1-.534 0l-.124-.005-.135-.007-.121-.007-.08-.006q-.025-.004-.051-.005l-.125-.012-.25-.03a2 2 0 0 1-.122-.016l-.137-.021-.115-.02-.134-.026-.076-.014-.034-.007-.185-.042-.073-.017a6 6 0 0 1-.541-.155l-.074-.024q-.139-.046-.272-.099h-.003l-.116-.048q-.044-.016-.088-.035l-.106-.05-.089-.04-.188-.093-.18-.097v-.056c-.888-.532-1.532-1.25-1.55-2.033v-.046z"/><path fill="url(#s)" d="m29.689 27.444-.044.12.04-13.935.044-.118z"/><path fill="url(#t)" d="M37.358 17.646q-.001.018-.004.037-.012.14-.035.28-.004.015-.006.032-.024.143-.06.284l-.007.025a4 4 0 0 1-.204.602l-.001.002a4 4 0 0 1-.137.29l-.01.019q-.07.135-.15.27l-.026.042a5 5 0 0 1-.17.259l-.035.049a6 6 0 0 1-.192.255l-.04.047a7 7 0 0 1-.48.524l-.046.043q-.12.117-.251.232l-.022.02a8 8 0 0 1-.3.246l-.029.023q-.154.12-.318.237-.018.014-.037.026a10 10 0 0 1-.767.49q-.187.106-.38.208l-.101.052a17 17 0 0 1-.398.197 12 12 0 0 1-.51.225 12 12 0 0 1-.352.141l-.077.03q-.21.08-.425.152l-.104.035-.291.093-.28.085-.237.067q-.143.039-.286.075l-.242.06-.293.068q-.122.028-.243.052-.15.03-.3.058l-.269.05-.121.02a16 16 0 0 1-.484.075 23 23 0 0 1-.476.06q-.06.008-.119.013a25 25 0 0 1-.898.075 22 22 0 0 1-.604.028q-.168.005-.336.007-.117.002-.234.004-.18-.001-.36-.004-.105 0-.211-.003-.165-.004-.33-.013l-.23-.009-.355-.024-.2-.013q-.212-.019-.423-.041l-.131-.013q-.276-.03-.55-.068l-.088-.014a20 20 0 0 1-.466-.073l-.194-.035q-.179-.032-.355-.068l-.184-.04a14 14 0 0 1-.948-.23q-.147-.041-.296-.085l-.11-.033a14 14 0 0 1-.44-.14q-.04-.015-.083-.029-.18-.061-.357-.127l-.12-.046q-.142-.054-.28-.112-.095-.037-.19-.078a19 19 0 0 1-.443-.197q-.144-.07-.287-.142-.071-.035-.141-.07-.21-.11-.414-.226c-1.274-.73-2.19-1.587-2.745-2.501a5 5 0 0 1-.38-.773 4 4 0 0 1-.266-1.427l-.037 13.938c-.004 1.7 1.127 3.403 3.391 4.7q.204.115.414.225l.142.071q.142.073.286.14l.175.079q.132.06.267.118.095.041.19.079l.183.075q.047.018.095.037l.12.045q.178.067.358.128.041.015.083.028.216.074.439.14.054.017.11.033l.19.056.106.028q.173.047.348.09.106.03.213.054.191.047.387.087.071.017.145.032l.039.007q.176.035.354.067.098.018.195.035.232.039.466.073l.085.014h.005q.272.038.549.068l.13.013q.211.022.422.04h.01q.096.008.191.013l.355.024q.115.006.23.01.166.007.328.012h.028q.093 0 .185.002.18.004.36.004.117-.001.234-.004.167 0 .335-.007h.062l.156-.009a22 22 0 0 0 .619-.035l.37-.03.13-.011q.081-.01.166-.018l.12-.013a17 17 0 0 0 .958-.134l.122-.02q.049-.01.098-.017.086-.016.17-.033c.1-.02.2-.037.3-.06q.123-.024.244-.052.147-.031.293-.067l.241-.06.286-.075a19 19 0 0 0 .518-.152l.122-.036.17-.057.104-.035q.214-.073.425-.152l.077-.03q.177-.067.352-.141l.106-.045q.205-.087.404-.18l.046-.022q.178-.084.352-.175l.102-.052q.194-.1.38-.209l.14-.082a10 10 0 0 0 .627-.407l.037-.026q.165-.115.319-.237l.03-.024q.155-.121.3-.247l.021-.02q.063-.053.122-.108l.128-.123.046-.044q.125-.122.24-.248.028-.03.053-.059.098-.107.188-.217l.038-.047.019-.022q.09-.116.174-.232l.035-.05q.09-.127.17-.258.014-.021.025-.042l.059-.098.093-.172.01-.02q.073-.143.136-.289v-.002q.035-.083.068-.164l.047-.131.006-.019q.049-.143.085-.288l.007-.025a3 3 0 0 0 .059-.284q.004-.016.006-.033a5 5 0 0 0 .035-.279l.004-.038q.008-.1.011-.199l.002-.1.04-13.933q0 .15-.014.3z"/><path fill="url(#u)" d="m40.735 20.415-.005.061-.007.053-.009.062-.011.053-.015.06-.016.054-.02.06-.02.052-.026.063-.025.05q-.014.031-.032.062-.013.025-.028.05l-.045.072q-.014.022-.03.043l-.058.08-.026.034a2 2 0 0 1-.231.246l-.045.04-.06.052a3 3 0 0 1-.121.097l-.061.045-.07.048-.141.091q-.047.03-.096.058l-.008 2.567.008-2.566-10.566 6.063-.017 12.89.017-12.89a5 5 0 0 1-.4.202l-.051.024a5 5 0 0 1-.206.082l-.037.013q-.09.033-.18.063-.037.011-.074.024l-.1.03q-.043.014-.086.024-.051.015-.103.027l-.086.022-.106.024q-.043.01-.086.018l-.108.022-.083.015a7 7 0 0 1-.55.072l-.134.011-.083.006q-.07.005-.14.006-.038.002-.077.003l-.12.002-.085.001-.129-.001h-.076l-.118-.005-.082-.004q-.064-.004-.127-.009l-.073-.004-.151-.015-.047-.005-.198-.025-.03-.005q-.086-.011-.17-.026-.035-.005-.07-.012l-.128-.025-.066-.014-.138-.03-.202-.052-.07-.02-.196-.06-.034-.01a5 5 0 0 1-.219-.08l-.045-.017a5 5 0 0 1-.3-.131 4 4 0 0 1-.271-.141L12.499 22c-.814-.464-1.22-1.073-1.219-1.68l-.02 14.143c-.001.607.405 1.217 1.22 1.68l.016-13.355-.017 13.356 10.636 6.063q.132.075.271.141l.027.014q.134.061.273.117.013.006.024.01l.02.008q.108.041.219.08l.034.01q.097.032.195.06l.033.01q.02.006.038.011a5 5 0 0 0 .34.082l.052.012.014.003.196.037q.085.015.17.026.013.001.028.005h.002l.197.025.047.004q.075.008.152.015h.004l.07.005.126.008.085.004.116.004h.077l.128.001h.084l.12-.002h.023q.03 0 .057-.003l.138-.007.084-.005.133-.011.046-.004.032-.004.206-.024.033-.004a7 7 0 0 0 .255-.04l.06-.013.11-.021.087-.019.105-.024q.044-.01.086-.021.053-.013.103-.027l.086-.024.1-.03q.022-.008.045-.014l.03-.011q.09-.03.18-.062l.037-.013q.105-.04.206-.083l.053-.023q.077-.034.153-.072l.057-.028q.097-.048.19-.1l10.567-6.064.05-.03.045-.027.075-.047a3 3 0 0 0 .136-.093l.061-.045.065-.05.056-.047.06-.051.024-.021.02-.02.095-.093.03-.03a3 3 0 0 0 .107-.124l.005-.006q.011-.015.022-.028a3 3 0 0 0 .087-.123l.045-.072.012-.02.016-.03.032-.061a1 1 0 0 0 .05-.113l.013-.028.008-.025q.01-.03.02-.06l.016-.054.015-.06q.005-.014.007-.032l.004-.021a2 2 0 0 0 .016-.115l.005-.062.003-.036v-.036l.02-14.144q0 .037-.003.072z"/><path fill="url(#v)" d="M31.387 11.581c.92.293 1.786.664 2.568 1.111l.026-.011c4.5 2.577 4.524 6.757.052 9.335-.812.468-1.717.852-2.68 1.15q-.558.172-1.138.306a19 19 0 0 1-4.367.476c-2.915-.01-5.827-.655-8.058-1.932a10 10 0 0 1-1.017-.664 8 8 0 0 1-.836-.72l-.025.012c-2.535-2.523-1.939-5.797 1.799-7.952a13 13 0 0 1 2.331-1.037c-.311.375-.483.796-.484 1.237l-.012 4.18c-.294.52-.348 1.158-.006 1.926q.007.02.017.04c1.186 1.825 3.76 1.95 5.173 1.957a9 9 0 0 0 1.127-.066c1.895-.236 3.406-1.084 3.813-2.212l.045-.118.515-.568.002-.003c.66-.785 1.142-1.666 1.142-2.382l.006-1.819zm-6.693.531-.613-1.277q.31-.028.617-.045z"/><path fill="url(#w)" d="M30.749 9.464c1.173.672.572 2.2-.503 3.477l-4.364-.671L24.7 9.764c2.22-.622 4.875-.972 6.048-.3"/><path fill="url(#x)" d="M21.103 15.022c-.937-.537-1.527-1.276-1.545-2.087-.032-1.38 1.61-2.564 3.947-2.846l.207-.026-2.608 4.959"/><path fill="url(#y)" d="m29.729 13.51-.044.12c-.485 1.345-2.541 2.292-4.942 2.277-1.413-.008-2.698-.345-3.636-.882l8.62-1.514z"/><defs><linearGradient id="b" x1="27.17" x2="27.297" y1="15.477" y2="30.025" gradientUnits="userSpaceOnUse"><stop stop-color="#ffbf00"/><stop offset="1" stop-color="#ffbf00" stop-opacity=".3"/></linearGradient><linearGradient id="c" x1="26.599" x2="26.599" y1="14.73" y2="30.474" gradientUnits="userSpaceOnUse"><stop stop-color="#624b06"/><stop offset=".322" stop-color="#ffbf00" stop-opacity="0"/></linearGradient><linearGradient id="d" x1="29.084" x2="29.262" y1="15.482" y2="30.787" gradientUnits="userSpaceOnUse"><stop stop-color="#896908"/><stop offset=".387" stop-color="#d5a61c"/><stop offset=".529" stop-color="#ecbd34" stop-opacity="0"/></linearGradient><linearGradient id="e" x1="31.914" x2="31.914" y1="15.472" y2="31.096" gradientUnits="userSpaceOnUse"><stop stop-color="#bd8f04"/><stop offset=".321" stop-color="#ffbf00"/><stop offset=".517" stop-color="#ffbf00" stop-opacity="0"/></linearGradient><linearGradient id="f" x1="25.955" x2="25.955" y1="17.866" y2="34.054" gradientUnits="userSpaceOnUse"><stop stop-color="#bd8f04"/><stop offset=".321" stop-color="#ffbf00"/><stop offset=".517" stop-color="#ffbf00" stop-opacity="0"/></linearGradient><linearGradient id="g" x1="25.955" x2="25.955" y1="17.866" y2="34.054" gradientUnits="userSpaceOnUse"><stop stop-color="#bd8f04"/><stop offset=".321" stop-color="#ffbf00"/><stop offset=".517" stop-color="#ffbf00" stop-opacity="0"/></linearGradient><linearGradient id="i" x1="27.17" x2="28.635" y1="28.564" y2="51.573" gradientUnits="userSpaceOnUse"><stop stop-color="#ffbf00"/><stop offset="1" stop-color="#ffbf00" stop-opacity="0"/></linearGradient><linearGradient id="n" x1="25.865" x2="25.997" y1="13.705" y2="28.834" gradientUnits="userSpaceOnUse"><stop stop-color="#ffbf00"/><stop offset="1" stop-color="#ffbf00" stop-opacity=".3"/></linearGradient><linearGradient id="o" x1="25.271" x2="25.271" y1="12.927" y2="29.301" gradientUnits="userSpaceOnUse"><stop stop-color="#624b06"/><stop offset=".322" stop-color="#ffbf00" stop-opacity="0"/></linearGradient><linearGradient id="p" x1="27.856" x2="28.041" y1="13.709" y2="29.627" gradientUnits="userSpaceOnUse"><stop stop-color="#896908"/><stop offset=".387" stop-color="#d5a61c"/><stop offset=".529" stop-color="#ecbd34" stop-opacity="0"/></linearGradient><linearGradient id="q" x1="30.798" x2="30.798" y1="13.698" y2="29.947" gradientUnits="userSpaceOnUse"><stop stop-color="#bd8f04"/><stop offset=".321" stop-color="#ffbf00"/><stop offset=".517" stop-color="#ffbf00" stop-opacity="0"/></linearGradient><linearGradient id="r" x1="24.601" x2="24.601" y1="16.189" y2="33.024" gradientUnits="userSpaceOnUse"><stop stop-color="#bd8f04"/><stop offset=".321" stop-color="#ffbf00"/><stop offset=".517" stop-color="#ffbf00" stop-opacity="0"/></linearGradient><linearGradient id="s" x1="24.601" x2="24.601" y1="16.189" y2="33.024" gradientUnits="userSpaceOnUse"><stop stop-color="#bd8f04"/><stop offset=".321" stop-color="#ffbf00"/><stop offset=".517" stop-color="#ffbf00" stop-opacity="0"/></linearGradient><linearGradient id="u" x1="25.865" x2="27.39" y1="27.315" y2="51.244" gradientUnits="userSpaceOnUse"><stop stop-color="#ffbf00"/><stop offset="1" stop-color="#ffbf00" stop-opacity="0"/></linearGradient><radialGradient id="h" cx="0" cy="0" r="1" gradientTransform="matrix(0 13.8229 -15.4388 0 27.17 24.848)" gradientUnits="userSpaceOnUse"><stop stop-color="#ffbf00"/><stop offset=".655" stop-color="#fff" stop-opacity=".8"/><stop offset="1" stop-color="#fff" stop-opacity="0"/></radialGradient><radialGradient id="j" cx="0" cy="0" r="1" gradientTransform="rotate(88.48 4.874 22.86)scale(8.02355 14.0236)" gradientUnits="userSpaceOnUse"><stop stop-color="#ffe391"/><stop offset="1" stop-color="#fff"/></radialGradient><radialGradient id="k" cx="0" cy="0" r="1" gradientTransform="matrix(0 3.27292 -5.68803 0 26.794 14.323)" gradientUnits="userSpaceOnUse"><stop stop-color="#ffbf00"/></radialGradient><radialGradient id="l" cx="0" cy="0" r="1" gradientTransform="matrix(0 3.27292 -5.68803 0 26.794 14.323)" gradientUnits="userSpaceOnUse"><stop stop-color="#ffbf00"/></radialGradient><radialGradient id="m" cx="0" cy="0" r="1" gradientTransform="matrix(0 3.27292 -5.68803 0 26.794 14.323)" gradientUnits="userSpaceOnUse"><stop stop-color="#ffbf00"/></radialGradient><radialGradient id="t" cx="0" cy="0" r="1" gradientTransform="matrix(0 14.3758 -16.0564 0 25.864 23.45)" gradientUnits="userSpaceOnUse"><stop stop-color="#ffbf00"/><stop offset=".655" stop-color="#fff" stop-opacity=".8"/><stop offset="1" stop-color="#fff" stop-opacity="0"/></radialGradient><radialGradient id="v" cx="0" cy="0" r="1" gradientTransform="rotate(88.48 5.1 21.35)scale(8.34434 14.5844)" gradientUnits="userSpaceOnUse"><stop stop-color="#ffe391"/><stop offset="1" stop-color="#fff"/></radialGradient><radialGradient id="w" cx="0" cy="0" r="1" gradientTransform="matrix(0 3.40384 -5.91555 0 25.473 12.504)" gradientUnits="userSpaceOnUse"><stop stop-color="#ffbf00"/></radialGradient><radialGradient id="x" cx="0" cy="0" r="1" gradientTransform="matrix(0 3.40384 -5.91555 0 25.473 12.504)" gradientUnits="userSpaceOnUse"><stop stop-color="#ffbf00"/></radialGradient><radialGradient id="y" cx="0" cy="0" r="1" gradientTransform="matrix(0 3.40384 -5.91555 0 25.473 12.504)" gradientUnits="userSpaceOnUse"><stop stop-color="#ffbf00"/></radialGradient><filter id="a" width="44.344" height="48.501" x="5.127" y="3.05" color-interpolation-filters="sRGB" filterUnits="userSpaceOnUse"><feFlood flood-opacity="0" result="BackgroundImageFix"/><feBlend in="SourceGraphic" in2="BackgroundImageFix" result="shape"/><feGaussianBlur result="effect1_foregroundBlur_11403_8347" stdDeviation="4"/></filter></defs></svg>