<svg xmlns="http://www.w3.org/2000/svg" width="52" height="52" fill="none" viewBox="0 0 52 52"><g filter="url(#a)"><path fill="#fff" fill-opacity=".45" d="M14.335 18.04c-.85.49-.855 1.281-.01 1.77l11.442 6.624c.843.489 2.217.489 3.066 0L40.35 19.81c.85-.49.854-1.281.01-1.77l-11.442-6.623c-.844-.49-2.217-.49-3.067 0z"/><path fill="url(#b)" d="M14.335 18.04c-.85.49-.855 1.281-.01 1.77l11.442 6.624c.843.489 2.217.489 3.066 0L40.35 19.81c.85-.49.854-1.281.01-1.77l-11.442-6.623c-.844-.49-2.217-.49-3.067 0z"/><path fill="#fff" fill-opacity=".45" d="M41.005 25.736a1 1 0 0 1-.017.092q-.005.024-.014.048l-.03.071-.006.012a1 1 0 0 1-.046.075l-.008.01a1 1 0 0 1-.053.066l-.011.012a1 1 0 0 1-.119.108l-.045.036-.059.038q-.03.021-.061.039l-12.01 6.919q-.053.03-.11.057l-.03.014-.104.044-.013.005a3 3 0 0 1-.2.064l-.064.017-.09.019-.061.012q-.092.015-.184.025-.03.004-.058.005a3 3 0 0 1-.18.01h-.09l-.074-.003-.082-.004-.075-.006-.081-.01a3 3 0 0 1-.326-.062l-.066-.017-.034-.01-.099-.034-.028-.01-.086-.037-.042-.017q-.06-.03-.12-.062l-12.088-6.919c-.32-.183-.48-.424-.48-.663l-.065 9.906c0 .24.159.48.48.663l12.088 6.92q.058.032.119.06l.042.02.073.031.013.005.028.01q.048.018.099.033l.034.011.023.007.041.01.101.025.027.006.04.008.086.014q.018.004.035.006l.12.014.038.004.118.006.041.002h.167l.025-.001.11-.007.044-.003.014-.002a3 3 0 0 0 .194-.027q.027-.005.052-.012.045-.008.09-.019l.063-.017.084-.023.018-.005q.05-.015.098-.035l.014-.005q.053-.021.104-.044l.03-.015q.056-.026.11-.056l12.01-6.92.02-.01.042-.028.058-.039.046-.035.05-.041.01-.009q.03-.028.058-.058l.01-.012q.017-.018.032-.037l.021-.029.008-.01.036-.057.01-.018.006-.012q.015-.03.028-.061l.002-.01q.009-.024.014-.048l.01-.033v-.008l.006-.05.003-.033v-.015l.066-9.906q-.001.023-.004.048z"/><path fill="url(#c)" d="M41.005 25.736a1 1 0 0 1-.017.092q-.005.024-.014.048l-.03.071-.006.012a1 1 0 0 1-.046.075l-.008.01a1 1 0 0 1-.053.066l-.011.012a1 1 0 0 1-.119.108l-.045.036-.059.038q-.03.021-.061.039l-12.01 6.919q-.053.03-.11.057l-.03.014-.104.044-.013.005a3 3 0 0 1-.2.064l-.064.017-.09.019-.061.012q-.092.015-.184.025-.03.004-.058.005a3 3 0 0 1-.18.01h-.09l-.074-.003-.082-.004-.075-.006-.081-.01a3 3 0 0 1-.326-.062l-.066-.017-.034-.01-.099-.034-.028-.01-.086-.037-.042-.017q-.06-.03-.12-.062l-12.088-6.919c-.32-.183-.48-.424-.48-.663l-.065 9.906c0 .24.159.48.48.663l12.088 6.92q.058.032.119.06l.042.02.073.031.013.005.028.01q.048.018.099.033l.034.011.023.007.041.01.101.025.027.006.04.008.086.014q.018.004.035.006l.12.014.038.004.118.006.041.002h.167l.025-.001.11-.007.044-.003.014-.002a3 3 0 0 0 .194-.027q.027-.005.052-.012.045-.008.09-.019l.063-.017.084-.023.018-.005q.05-.015.098-.035l.014-.005q.053-.021.104-.044l.03-.015q.056-.026.11-.056l12.01-6.92.02-.01.042-.028.058-.039.046-.035.05-.041.01-.009q.03-.028.058-.058l.01-.012q.017-.018.032-.037l.021-.029.008-.01.036-.057.01-.018.006-.012q.015-.03.028-.061l.002-.01q.009-.024.014-.048l.01-.033v-.008l.006-.05.003-.033v-.015l.066-9.906q-.001.023-.004.048z"/><path fill="#fff" fill-opacity=".45" d="M14.335 18.15c-.85.489-.855 1.28-.01 1.769l11.442 6.624c.843.49 2.217.49 3.066 0L40.35 19.92c.85-.489.854-1.281.01-1.77l-11.442-6.623c-.844-.489-2.217-.489-3.067 0z"/><path fill="url(#d)" d="M14.335 18.15c-.85.489-.855 1.28-.01 1.769l11.442 6.624c.843.49 2.217.49 3.066 0L40.35 19.92c.85-.489.854-1.281.01-1.77l-11.442-6.623c-.844-.489-2.217-.489-3.067 0z"/><path fill="#fff" fill-opacity=".45" d="M41.005 25.845a1 1 0 0 1-.017.091q-.005.024-.014.049l-.03.07-.006.013a1 1 0 0 1-.046.074l-.008.01a1 1 0 0 1-.053.067l-.011.012a1 1 0 0 1-.119.108l-.045.035q-.029.02-.059.038l-.061.04-12.01 6.918q-.053.03-.11.057l-.03.014q-.051.023-.104.044l-.013.006a3 3 0 0 1-.2.063l-.064.017-.09.02-.061.011a3 3 0 0 1-.352.038l-.07.002h-.09l-.074-.002-.082-.004-.075-.007q-.041-.004-.081-.009a3 3 0 0 1-.326-.062l-.066-.017-.034-.011-.099-.034-.028-.01-.086-.036-.042-.018q-.06-.03-.12-.062l-12.088-6.919c-.32-.183-.48-.423-.48-.663l-.065 9.906c0 .24.159.48.48.664l12.088 6.919q.058.033.119.061.02.01.042.019l.073.032.013.005.028.01q.048.017.099.033l.034.01.023.008.041.01q.05.013.101.024l.027.007.04.007a2 2 0 0 0 .122.02l.037.005.081.009q.02.003.039.004l.118.007.041.002h.167l.025-.002q.055-.002.11-.007.023 0 .044-.003l.014-.002a3 3 0 0 0 .194-.027l.052-.011q.045-.008.09-.02.03-.006.063-.016l.084-.024.018-.005q.05-.016.098-.034l.014-.006q.053-.021.104-.044l.03-.014q.056-.027.11-.057l12.01-6.919.02-.011.042-.028q.03-.019.058-.038l.046-.036.05-.04q.004-.005.01-.01.03-.028.058-.057l.01-.013q.017-.018.032-.036l.021-.03.008-.01.036-.056.01-.019.006-.012q.015-.03.028-.06l.002-.01q.009-.024.014-.049l.01-.032v-.009l.006-.05.003-.033v-.014l.066-9.907q-.001.024-.004.048z"/><path fill="url(#e)" d="M41.005 25.845a1 1 0 0 1-.017.091q-.005.024-.014.049l-.03.07-.006.013a1 1 0 0 1-.046.074l-.008.01a1 1 0 0 1-.053.067l-.011.012a1 1 0 0 1-.119.108l-.045.035q-.029.02-.059.038l-.061.04-12.01 6.918q-.053.03-.11.057l-.03.014q-.051.023-.104.044l-.013.006a3 3 0 0 1-.2.063l-.064.017-.09.02-.061.011a3 3 0 0 1-.352.038l-.07.002h-.09l-.074-.002-.082-.004-.075-.007q-.041-.004-.081-.009a3 3 0 0 1-.326-.062l-.066-.017-.034-.011-.099-.034-.028-.01-.086-.036-.042-.018q-.06-.03-.12-.062l-12.088-6.919c-.32-.183-.48-.423-.48-.663l-.065 9.906c0 .24.159.48.48.664l12.088 6.919q.058.033.119.061.02.01.042.019l.073.032.013.005.028.01q.048.017.099.033l.034.01.023.008.041.01q.05.013.101.024l.027.007.04.007a2 2 0 0 0 .122.02l.037.005.081.009q.02.003.039.004l.118.007.041.002h.167l.025-.002q.055-.002.11-.007.023 0 .044-.003l.014-.002a3 3 0 0 0 .194-.027l.052-.011q.045-.008.09-.02.03-.006.063-.016l.084-.024.018-.005q.05-.016.098-.034l.014-.006q.053-.021.104-.044l.03-.014q.056-.027.11-.057l12.01-6.919.02-.011.042-.028q.03-.019.058-.038l.046-.036.05-.04q.004-.005.01-.01.03-.028.058-.057l.01-.013q.017-.018.032-.036l.021-.03.008-.01.036-.056.01-.019.006-.012q.015-.03.028-.06l.002-.01q.009-.024.014-.049l.01-.032v-.009l.006-.05.003-.033v-.014l.066-9.907q-.001.024-.004.048z"/><path fill="#fff" fill-opacity=".45" d="M14.335 26.655c-.85-.489-.855-1.28-.01-1.77l11.442-6.623c.843-.49 2.217-.49 3.066 0l11.517 6.624c.85.489.854 1.28.01 1.77l-11.442 6.623c-.844.489-2.217.489-3.067 0z"/><path fill="url(#f)" fill-opacity=".5" d="M14.335 26.655c-.85-.489-.855-1.28-.01-1.77l11.442-6.623c.843-.49 2.217-.49 3.066 0l11.517 6.624c.85.489.854 1.28.01 1.77l-11.442 6.623c-.844.489-2.217.489-3.067 0z"/><path fill="url(#g)" fill-opacity=".7" d="m26.192 23.439-.003.023v.008l-.011.035-.01.02-.015.023q-.002.001-.004.004l-.027.03-.012.01-.014.012-.015.011-.016.01-.012.007-.037.02-.012.005-.051.02-.006.002a.6.6 0 0 1-.138.029l-.023.002-.027.002h-.051q-.022 0-.045-.002l-2.93-.194-.076-.009-.015-.002-.07-.016-.007-.003-.06-.021-.01-.004-.057-.028c-.077-.045-.13-.104-.143-.17l-.343-1.704-.003-.035-.038 14.668.003.035.344 1.704c.013.066.065.125.143.17l.056.028q.005 0 .01.004l.007.003.053.018.008.002.054.014.016.002.015.003.018.003.049.006h.008l2.93.194q.02 0 .037.002h.059l.027-.003h.016l.006-.002.055-.007h.001a1 1 0 0 0 .083-.021l.004-.001.002-.001.051-.02.012-.006.037-.019.007-.004.004-.003.016-.01q.008-.006.015-.01l.014-.012.01-.009.002-.002.027-.03.003-.003.016-.024.01-.02.002-.007.008-.026q0-.006.002-.01l.002-.017v-.004l.037-14.668z"/><path fill="url(#h)" d="m26.192 23.439-.003.023v.008l-.011.035-.01.02-.015.023q-.002.001-.004.004l-.027.03-.012.01-.014.012-.015.011-.016.01-.012.007-.037.02-.012.005-.051.02-.006.002a.6.6 0 0 1-.138.029l-.023.002-.027.002h-.051q-.022 0-.045-.002l-2.93-.194-.076-.009-.015-.002-.07-.016-.007-.003-.06-.021-.01-.004-.057-.028c-.077-.045-.13-.104-.143-.17l-.343-1.704-.003-.035-.038 14.668.003.035.344 1.704c.013.066.065.125.143.17l.056.028q.005 0 .01.004l.007.003.053.018.008.002.054.014.016.002.015.003.018.003.049.006h.008l2.93.194q.02 0 .037.002h.059l.027-.003h.016l.006-.002.055-.007h.001a1 1 0 0 0 .083-.021l.004-.001.002-.001.051-.02.012-.006.037-.019.007-.004.004-.003.016-.01q.008-.006.015-.01l.014-.012.01-.009.002-.002.027-.03.003-.003.016-.024.01-.02.002-.007.008-.026q0-.006.002-.01l.002-.017v-.004l.037-14.668z"/><path fill="url(#i)" d="m26.192 23.439-.003.023v.008l-.011.035-.01.02-.015.023q-.002.001-.004.004l-.027.03-.012.01-.014.012-.015.011-.016.01-.012.007-.037.02-.012.005-.051.02-.006.002a.6.6 0 0 1-.138.029l-.023.002-.027.002h-.051q-.022 0-.045-.002l-2.93-.194-.076-.009-.015-.002-.07-.016-.007-.003-.06-.021-.01-.004-.057-.028c-.077-.045-.13-.104-.143-.17l-.343-1.704-.003-.035-.038 14.668.003.035.344 1.704c.013.066.065.125.143.17l.056.028q.005 0 .01.004l.007.003.053.018.008.002.054.014.016.002.015.003.018.003.049.006h.008l2.93.194q.02 0 .037.002h.059l.027-.003h.016l.006-.002.055-.007h.001a1 1 0 0 0 .083-.021l.004-.001.002-.001.051-.02.012-.006.037-.019.007-.004.004-.003.016-.01q.008-.006.015-.01l.014-.012.01-.009.002-.002.027-.03.003-.003.016-.024.01-.02.002-.007.008-.026q0-.006.002-.01l.002-.017v-.004l.037-14.668z"/><path fill="url(#j)" fill-opacity=".7" d="m30.755 23.772-.001.009-.008.028q0 .003-.004.006l-.01.022-.015.023-.002.004-.027.029-.014.011-.029.022-.015.01-.012.007-.036.02-.012.005-.051.02-.006.002a.6.6 0 0 1-.16.03l-.029.003h-.05l-.045-.002-2.93-.194-.076-.009q-.008 0-.015-.003l-.07-.016h-.005l-.063-.023-.01-.004-.056-.027c-.077-.045-.13-.104-.143-.17l-.344-1.704a.1.1 0 0 1-.003-.035l-.037 14.668q0 .016.003.035l.344 1.704c.013.065.064.125.142.17l.057.027.01.004.006.003q.027.012.056.02h.004l.053.014q.008.002.017.003l.015.002.018.004.057.006 2.93.194.038.002h.057l.028-.002q.008 0 .016-.002h.007l.047-.007.007-.001h.002a1 1 0 0 0 .082-.02q.002 0 .004-.002h.002l.05-.02.012-.007.044-.023.004-.002.016-.011.015-.01q.007-.007.014-.012l.01-.008.002-.003.027-.03.002-.002.016-.024v-.001l.01-.02.002-.007.008-.027v-.001q0-.005.002-.009l.002-.018v-.003l.037-14.668-.002.022z"/><path fill="url(#k)" d="m30.755 23.772-.001.009-.008.028q0 .003-.004.006l-.01.022-.015.023-.002.004-.027.029-.014.011-.029.022-.015.01-.012.007-.036.02-.012.005-.051.02-.006.002a.6.6 0 0 1-.16.03l-.029.003h-.05l-.045-.002-2.93-.194-.076-.009q-.008 0-.015-.003l-.07-.016h-.005l-.063-.023-.01-.004-.056-.027c-.077-.045-.13-.104-.143-.17l-.344-1.704a.1.1 0 0 1-.003-.035l-.037 14.668q0 .016.003.035l.344 1.704c.013.065.064.125.142.17l.057.027.01.004.006.003q.027.012.056.02h.004l.053.014q.008.002.017.003l.015.002.018.004.057.006 2.93.194.038.002h.057l.028-.002q.008 0 .016-.002h.007l.047-.007.007-.001h.002a1 1 0 0 0 .082-.02q.002 0 .004-.002h.002l.05-.02.012-.007.044-.023.004-.002.016-.011.015-.01q.007-.007.014-.012l.01-.008.002-.003.027-.03.002-.002.016-.024v-.001l.01-.02.002-.007.008-.027v-.001q0-.005.002-.009l.002-.018v-.003l.037-14.668-.002.022z"/><path fill="url(#l)" d="m30.755 23.772-.001.009-.008.028q0 .003-.004.006l-.01.022-.015.023-.002.004-.027.029-.014.011-.029.022-.015.01-.012.007-.036.02-.012.005-.051.02-.006.002a.6.6 0 0 1-.16.03l-.029.003h-.05l-.045-.002-2.93-.194-.076-.009q-.008 0-.015-.003l-.07-.016h-.005l-.063-.023-.01-.004-.056-.027c-.077-.045-.13-.104-.143-.17l-.344-1.704a.1.1 0 0 1-.003-.035l-.037 14.668q0 .016.003.035l.344 1.704c.013.065.064.125.142.17l.057.027.01.004.006.003q.027.012.056.02h.004l.053.014q.008.002.017.003l.015.002.018.004.057.006 2.93.194.038.002h.057l.028-.002q.008 0 .016-.002h.007l.047-.007.007-.001h.002a1 1 0 0 0 .082-.02q.002 0 .004-.002h.002l.05-.02.012-.007.044-.023.004-.002.016-.011.015-.01q.007-.007.014-.012l.01-.008.002-.003.027-.03.002-.002.016-.024v-.001l.01-.02.002-.007.008-.027v-.001q0-.005.002-.009l.002-.018v-.003l.037-14.668-.002.022z"/><path fill="url(#m)" fill-opacity=".7" d="M26.736 26.12v.008l-.008.028-.004.007q-.003.01-.009.02-.007.011-.015.023l-.003.005-.027.029-.013.011-.014.011-.015.012-.015.01-.012.007-.037.02-.012.005-.05.02-.007.002a1 1 0 0 1-.091.022l-.047.006-.023.002-.028.002-.027.001h-.024q-.023 0-.045-.002l-2.93-.194-.076-.01-.015-.002-.076-.018-.062-.021-.009-.004-.057-.028c-.077-.045-.129-.104-.142-.17l-.344-1.703-.003-.035-.038 14.667.003.035.344 1.704c.014.066.066.125.143.17q.027.016.056.028l.01.004.007.003.054.019q.004 0 .006.002h.001l.07.015.015.003.018.003.049.006h.008l2.93.194.037.002h.06l.027-.002q.007 0 .016-.002h.006l.047-.007.008-.001a1 1 0 0 0 .083-.02l.004-.001.002-.001.052-.02.012-.006.044-.023.004-.003.015-.01.016-.012.013-.01.011-.01.03-.031q0-.003.003-.005l.015-.022v-.001l.01-.02q0-.004.003-.007l.008-.026v-.01l.002-.017v-.004l.038-14.668-.002.023z"/><path fill="url(#n)" d="M26.736 26.12v.008l-.008.028-.004.007q-.003.01-.009.02-.007.011-.015.023l-.003.005-.027.029-.013.011-.014.011-.015.012-.015.01-.012.007-.037.02-.012.005-.05.02-.007.002a1 1 0 0 1-.091.022l-.047.006-.023.002-.028.002-.027.001h-.024q-.023 0-.045-.002l-2.93-.194-.076-.01-.015-.002-.076-.018-.062-.021-.009-.004-.057-.028c-.077-.045-.129-.104-.142-.17l-.344-1.703-.003-.035-.038 14.667.003.035.344 1.704c.014.066.066.125.143.17q.027.016.056.028l.01.004.007.003.054.019q.004 0 .006.002h.001l.07.015.015.003.018.003.049.006h.008l2.93.194.037.002h.06l.027-.002q.007 0 .016-.002h.006l.047-.007.008-.001a1 1 0 0 0 .083-.02l.004-.001.002-.001.052-.02.012-.006.044-.023.004-.003.015-.01.016-.012.013-.01.011-.01.03-.031q0-.003.003-.005l.015-.022v-.001l.01-.02q0-.004.003-.007l.008-.026v-.01l.002-.017v-.004l.038-14.668-.002.023z"/><path fill="url(#o)" d="M26.736 26.12v.008l-.008.028-.004.007q-.003.01-.009.02-.007.011-.015.023l-.003.005-.027.029-.013.011-.014.011-.015.012-.015.01-.012.007-.037.02-.012.005-.05.02-.007.002a1 1 0 0 1-.091.022l-.047.006-.023.002-.028.002-.027.001h-.024q-.023 0-.045-.002l-2.93-.194-.076-.01-.015-.002-.076-.018-.062-.021-.009-.004-.057-.028c-.077-.045-.129-.104-.142-.17l-.344-1.703-.003-.035-.038 14.667.003.035.344 1.704c.014.066.066.125.143.17q.027.016.056.028l.01.004.007.003.054.019q.004 0 .006.002h.001l.07.015.015.003.018.003.049.006h.008l2.93.194.037.002h.06l.027-.002q.007 0 .016-.002h.006l.047-.007.008-.001a1 1 0 0 0 .083-.02l.004-.001.002-.001.052-.02.012-.006.044-.023.004-.003.015-.01.016-.012.013-.01.011-.01.03-.031q0-.003.003-.005l.015-.022v-.001l.01-.02q0-.004.003-.007l.008-.026v-.01l.002-.017v-.004l.038-14.668-.002.023z"/><path fill="url(#p)" fill-opacity=".7" d="M32.753 27.269v.008a.2.2 0 0 1-.022.055l-.016.023-.002.004-.027.03-.013.01-.014.012-.015.011-.016.01-.012.007-.037.02-.012.005-.05.02-.007.002a1 1 0 0 1-.082.02l-.01.002-.045.007-.023.002-.028.002h-.05q-.022 0-.046-.002l-2.93-.194-.075-.009q-.008 0-.015-.003l-.07-.015-.007-.002-.061-.021-.01-.005-.056-.027c-.077-.045-.13-.104-.143-.17l-.344-1.704a.1.1 0 0 1-.003-.035L28.475 40q0 .017.003.035l.343 1.704c.013.065.066.125.143.17q.027.015.057.027l.01.004.007.004.054.018.006.002q.027.008.054.013.007.002.016.003l.015.003.019.003.048.005h.008l2.93.194.038.002h.059l.027-.002.016-.001h.006l.047-.008h.008a1 1 0 0 0 .083-.021q.003 0 .004-.002h.002l.05-.02.013-.006.037-.02.007-.003.004-.003.016-.01.015-.011.014-.011.01-.009.002-.003.027-.029.003-.004.015-.023.01-.02.003-.007.008-.027v-.009l.003-.018v-.004l.037-14.667-.002.022z"/><path fill="url(#q)" d="M32.753 27.269v.008a.2.2 0 0 1-.022.055l-.016.023-.002.004-.027.03-.013.01-.014.012-.015.011-.016.01-.012.007-.037.02-.012.005-.05.02-.007.002a1 1 0 0 1-.082.02l-.01.002-.045.007-.023.002-.028.002h-.05q-.022 0-.046-.002l-2.93-.194-.075-.009q-.008 0-.015-.003l-.07-.015-.007-.002-.061-.021-.01-.005-.056-.027c-.077-.045-.13-.104-.143-.17l-.344-1.704a.1.1 0 0 1-.003-.035L28.475 40q0 .017.003.035l.343 1.704c.013.065.066.125.143.17q.027.015.057.027l.01.004.007.004.054.018.006.002q.027.008.054.013.007.002.016.003l.015.003.019.003.048.005h.008l2.93.194.038.002h.059l.027-.002.016-.001h.006l.047-.008h.008a1 1 0 0 0 .083-.021q.003 0 .004-.002h.002l.05-.02.013-.006.037-.02.007-.003.004-.003.016-.01.015-.011.014-.011.01-.009.002-.003.027-.029.003-.004.015-.023.01-.02.003-.007.008-.027v-.009l.003-.018v-.004l.037-14.667-.002.022z"/><path fill="url(#r)" d="M32.753 27.269v.008a.2.2 0 0 1-.022.055l-.016.023-.002.004-.027.03-.013.01-.014.012-.015.011-.016.01-.012.007-.037.02-.012.005-.05.02-.007.002a1 1 0 0 1-.082.02l-.01.002-.045.007-.023.002-.028.002h-.05q-.022 0-.046-.002l-2.93-.194-.075-.009q-.008 0-.015-.003l-.07-.015-.007-.002-.061-.021-.01-.005-.056-.027c-.077-.045-.13-.104-.143-.17l-.344-1.704a.1.1 0 0 1-.003-.035L28.475 40q0 .017.003.035l.343 1.704c.013.065.066.125.143.17q.027.015.057.027l.01.004.007.004.054.018.006.002q.027.008.054.013.007.002.016.003l.015.003.019.003.048.005h.008l2.93.194.038.002h.059l.027-.002.016-.001h.006l.047-.008h.008a1 1 0 0 0 .083-.021q.003 0 .004-.002h.002l.05-.02.013-.006.037-.02.007-.003.004-.003.016-.01.015-.011.014-.011.01-.009.002-.003.027-.029.003-.004.015-.023.01-.02.003-.007.008-.027v-.009l.003-.018v-.004l.037-14.667-.002.022z"/><path fill="#fff" fill-opacity=".8" d="M32.263 25.335c.078.045.13.104.145.171l.344 1.704c.037.179-.217.327-.524.306l-2.93-.194a.7.7 0 0 1-.295-.084c-.077-.045-.13-.104-.143-.17l-.344-1.704c-.037-.178.217-.326.524-.305l2.93.194a.7.7 0 0 1 .293.082"/><path fill="url(#s)" d="M32.263 25.335c.078.045.13.104.145.171l.344 1.704c.037.179-.217.327-.524.306l-2.93-.194a.7.7 0 0 1-.295-.084c-.077-.045-.13-.104-.143-.17l-.344-1.704c-.037-.178.217-.326.524-.305l2.93.194a.7.7 0 0 1 .293.082"/><path fill="#fff" fill-opacity=".8" d="M26.734 26.06c.037.18-.217.328-.525.307l-2.93-.194a.7.7 0 0 1-.295-.084c-.077-.045-.129-.104-.142-.17l-.344-1.703c-.037-.18.217-.327.524-.307l2.93.195a.7.7 0 0 1 .295.083c.078.044.13.104.143.17l.343 1.704"/><path fill="url(#t)" d="M26.734 26.06c.037.18-.217.328-.525.307l-2.93-.194a.7.7 0 0 1-.295-.084c-.077-.045-.129-.104-.142-.17l-.344-1.703c-.037-.18.217-.327.524-.307l2.93.195a.7.7 0 0 1 .295.083c.078.044.13.104.143.17l.343 1.704"/><path fill="#fff" fill-opacity=".8" d="M26.517 21.869c-.037-.179.217-.327.525-.306l2.93.194a.7.7 0 0 1 .295.084c.078.045.13.104.142.17l.344 1.704c.037.18-.217.327-.525.306l-2.93-.194a.7.7 0 0 1-.295-.084c-.077-.045-.13-.104-.142-.17z"/><path fill="url(#u)" d="M26.517 21.869c-.037-.179.217-.327.525-.306l2.93.194a.7.7 0 0 1 .295.084c.078.045.13.104.142.17l.344 1.704c.037.18-.217.327-.525.306l-2.93-.194a.7.7 0 0 1-.295-.084c-.077-.045-.13-.104-.142-.17z"/><g opacity=".62"><path fill="#fff" fill-opacity=".8" d="M25.407 21.446a.7.7 0 0 1 .292.082c.078.045.131.104.146.171l.343 1.704c.036.18-.217.328-.525.307l-2.93-.194a.7.7 0 0 1-.294-.084c-.078-.045-.13-.104-.144-.17l-.343-1.703c-.037-.18.217-.328.525-.307z"/><path fill="url(#v)" d="M25.407 21.446a.7.7 0 0 1 .292.082c.078.045.131.104.146.171l.343 1.704c.036.18-.217.328-.525.307l-2.93-.194a.7.7 0 0 1-.294-.084c-.078-.045-.13-.104-.144-.17l-.343-1.703c-.037-.18.217-.328.525-.307z"/></g><g clip-path="url(#w)"><path fill="#187256" d="m21.892 14.604.01.006z"/><path fill="url(#x)" d="M27.929 14.532zl-.274-.01-.14-.004-.155-.005-.368-.01-.214-.006-.324-.008-.327-.007-.328-.006-.165-.003.11.583c.756.015 1.502.032 2.187.058z"/><path fill="#2fe4ab" d="M33.245 16.587c-.017-.506-.394-.935-.948-1.26-.562-.33-1.307-.553-2.042-.64a31 31 0 0 0-2.326-.155l.002.583c.827.03 1.567.075 2.133.142.48.056 1.093.218 1.55.485.367.216.632.5.643.855.018.543-1.163 1.44-2.769 1.52-.572.028-1.651.004-2.473-.479a2.09 2.09 0 0 1-1.003-1.304 15 15 0 0 1-.27-1.277l-.109-.584c-.144-.68-.352-1.17-1.034-1.57-.65-.383-2.02-.466-2.807 0-.68.401-.694 1.103-.077 1.58l.708-.418c-.244-.245-.23-.574.07-.751.371-.22 1.098-.184 1.41 0 .444.26.611.618.732 1.141l.113.584.006.036c.069.388.146.828.284 1.346.181.691.607 1.235 1.27 1.623q.29.17.636.299c.997.371 2.077.38 2.631.352 1.486-.073 3.708-.952 3.67-2.108"/><path fill="url(#y)" d="M33.245 16.587v.06l-.005.063-.002.018-.009.055-.002.013-.016.066-.005.016-.017.054-.006.016-.029.07-.007.014q-.014.03-.032.063l-.005.01-.01.018-.018.03-.013.019-.018.027-.014.02-.034.047q-.009.013-.019.024l-.03.038-.013.015-.05.058-.044.045-.017.017-.035.034-.021.02-.03.027-.023.02-.031.028-.023.018q-.018.016-.035.028l-.022.018-.04.03-.018.014-.06.044-.01.007-.053.036-.022.015-.042.028-.027.016-.04.025-.019.012-.113.066-.015.008a6 6 0 0 1-.256.134l-.016.007-.126.059-.016.007-.13.055-.016.007a7 7 0 0 1-.436.16l-.012.005q-.104.034-.212.065l-.004.001a7 7 0 0 1-.649.154l-.02.004-.11.02-.095.014-.024.003-.1.014-.012.001-.089.01-.022.002a6 6 0 0 1-.287.02h-.022l-.035.002-.056.002h-.01l-.049.001h-.02l-.041.001h-.227l-.044-.001h-.027l-.024-.001-.076-.003h-.028l-.1-.006h-.004l-.099-.005-.029-.002-.085-.007-.021-.002-.199-.02h-.013l-.196-.026q-.01 0-.02-.003l-.182-.029-.015-.002-.196-.038h-.003l-.198-.046-.012-.003-.188-.05-.02-.006-.158-.049-.014-.005a5 5 0 0 1-.307-.113l-.06-.025-.096-.043-.056-.025-.099-.05-.046-.023-.138-.076c-.662-.389-1.088-.933-1.27-1.624a16 16 0 0 1-.284-1.346l-.006-.036-.007 2.515.006.036c.069.389.147.828.284 1.346.182.692.608 1.236 1.27 1.624q.068.039.138.076l.046.024.1.049.055.026.097.042.058.025.036.015a4 4 0 0 0 .271.098l.015.005q.079.026.157.049.007.001.013.004.004 0 .008.002.094.026.188.05l.012.003.198.045h.003a7 7 0 0 0 .394.07q.003 0 .008.002h.01q.1.015.197.026l.013.001q.101.011.199.02h.004l.016.001.086.007.03.002.098.006h.004l.1.004.027.001.077.003h.052l.042.001h.288l.048-.002h.011l.054-.001h.002l.035-.001.023-.001.055-.003.107-.006.02-.002.104-.01h.01l.013-.002.088-.01h.013l.1-.014.024-.004.104-.016.102-.017.012-.002.007-.002q.102-.018.206-.041l.011-.003q.105-.023.212-.05l.006-.001q.106-.028.213-.059h.005q.106-.032.211-.066l.007-.002.006-.002.136-.047.016-.006a7 7 0 0 0 .284-.108l.016-.007a7 7 0 0 0 .271-.121l.017-.008.122-.061.015-.008.118-.064.016-.009q.057-.032.112-.066l.01-.005.01-.007.066-.041.042-.028.022-.015.055-.037.008-.006.06-.043.017-.014.042-.031.021-.017.035-.029.023-.018.032-.028.022-.02.03-.027.012-.011.009-.009.096-.096.005-.006.046-.052.013-.016.036-.045q.007-.007.012-.016l.016-.02.019-.027q.007-.01.013-.02l.018-.028.013-.02.017-.029.011-.018.002-.003.003-.006.032-.064.007-.014.031-.075.004-.01.017-.054.005-.016.016-.067v-.003q.003-.006.002-.01l.009-.055.002-.018.005-.065v-.007l.007-2.51v-.055z"/><path fill="url(#z)" d="m24.747 15.038-.374-.006-.168-.004-.043-.001q-.09-.002-.176-.006h-.025l-.165-.007-.036-.002-.113-.006-.053-.003-.01-.001q-.01 0-.021-.002l-.082-.006-.06-.004-.081-.007-.045-.004-.145-.015-.039-.005a7 7 0 0 1-.27-.039l-.065-.012-.078-.015h-.006l-.064-.015-.033-.007a3 3 0 0 1-.385-.116l-.075-.03-.008-.003-.011-.005-.097-.046-.02-.01-.096-.051-.065-.041-.039-.025q-.029-.02-.056-.04l-.028-.021c-.3-.231-.45-.514-.45-.79l-.006 2.515c-.001.276.15.56.448.79l.03.021q.025.02.054.04.003 0 .006.004l.033.02.044.029.01.006.011.007.02.011.017.01.017.009.01.005h.001l.002.002q.003 0 .007.003l.017.009.016.008h.002l.02.01.003.002.003.001.012.006.018.008.032.015.004.002h.001l.003.001.014.007h.003l.02.01.019.006.005.003h.002l.006.003.006.002.009.004.01.003.004.002.017.006.017.006h.003l.01.004.004.002.014.005h.002l.011.004.012.005h.003q.003.002.007.003l.022.007.02.006.017.006h.004l.006.003h.004l.013.005.02.006.011.003h.002l.002.001.007.002.023.007.02.005.007.002h.003l.007.002.006.002.024.005.007.002.013.003h.003l.024.006.01.003h.003l.008.002.038.009h.008l.023.006.012.002h.002l.002.001.032.007h.006l.005.002.013.002.003.001.014.003.057.01.01.002.013.002.007.001.011.002.01.002h.002l.01.001h.003l.02.003.018.003q.01 0 .019.003l.02.003.01.002h.01l.003.001h.007l.016.003.008.001.036.005q.015 0 .03.004h.009l.006.002.036.004.02.002.007.001h.004l.015.002h.006l.036.003.027.003.037.004.012.001h.003l.022.002h.001l.011.002.045.003.012.002h.016l.017.002.021.001.027.002.027.002.012.001.021.002.022.001.024.002h.013l.012.002.035.002.024.001.06.004h.023q.018.002.037.003.021 0 .043.002l.062.002.027.002q.025 0 .05.002h.04l.087.003.036.001q.027 0 .054.002h.071l.131.004.375.006.007-2.515z"/><path fill="url(#A)" d="M22.423 14.064a.53.53 0 0 1-.17-.37v-.01a.4.4 0 0 1 .015-.1.4.4 0 0 1 .036-.084l.007-.011.004-.008.012-.018.005-.007.008-.01q0-.002.002-.003l.002-.003.007-.008.033-.036.005-.005.048-.04.008-.006.033-.022.015-.01a.7.7 0 0 1 .14-.065l.026-.01.009-.002.006-.002.075-.022.011-.002.04-.01.04-.008h.005l.01-.002a1 1 0 0 1 .118-.017l.015-.001.06-.006.06-.003h.007a2 2 0 0 1 .248.007l.057.005.056.008h.008a1.5 1.5 0 0 1 .314.08l.005.002.025.01.022.01.01.006.023.01.02.012c.444.26.612.618.732 1.142l-.236-.004c-1.018-.019-1.522-.09-1.8-.252a1 1 0 0 1-.175-.135"/><path fill="url(#B)" d="M32.176 16.284A1 1 0 0 0 32 16.04a1.8 1.8 0 0 0-.479-.35l-.032-.016-.064-.032-.04-.018a3 3 0 0 0-.21-.09l-.047-.019-.05-.019-.028-.01-.021-.006-.051-.018-.1-.032-.049-.015-.02-.005-.016-.005a6 6 0 0 0-.243-.062l-.074-.017h-.004q-.004-.002-.01-.003h-.005l-.012-.003-.055-.012-.065-.012-.03-.005-.113-.018-.014-.002h-.005l-.099-.014-.057-.006-.058-.007-.038-.004-.01-.001-.071-.007-.125-.012-.036-.003-.21-.018-.071-.006h-.012a33 33 0 0 0-.858-.053q-.07-.004-.142-.006l-.03-.002-.166-.007q-.018 0-.037-.002h-.016l-.097-.004-.099-.004-.37-.013-.157-.005-.11-.003-.161-.005-.109-.002-.165-.005h-.005l-.169-.004-.1-.003-.186-.004-.094-.002-.151-.003-.41-.008v.002c.065.37.14.79.269 1.274.157.595.508.997.938 1.266l.175.005.187.005.083.002.178.006.089.003.261.01.197.007.051.002.169.008h.028l.187.01.047.002.149.008.041.002.214.013.142.009.044.003.166.012q.01 0 .023.002l.14.01.048.005.076.006.052.005.077.007.048.005.08.008.04.005.232.029q.056.007.113.017l.03.006a6 6 0 0 1 .3.064q.008 0 .014.003l.058.015c.937-.311 1.552-.875 1.568-1.269v-.027a.75.75 0 0 0-.08-.313"/><path fill="url(#C)" d="m24.399 14.451.235.004.113.584-.375-.007c-1.115-.02-1.917-.098-2.47-.422a2 2 0 0 1-.188-.127l.708-.418a1 1 0 0 0 .176.134c.277.163.783.234 1.8.252"/><path fill="url(#D)" d="m24.399 14.451.235.004.113.584-.375-.007c-1.115-.02-1.917-.098-2.47-.422a2 2 0 0 1-.188-.127l.708-.418a1 1 0 0 0 .176.134c.277.163.783.234 1.8.252"/></g></g><path fill="#fff" fill-opacity=".45" d="M12.516 16.37c-.883.508-.888 1.332-.01 1.84l11.9 6.889c.877.508 2.306.508 3.189 0l11.978-6.89c.883-.508.888-1.331.01-1.84l-11.9-6.888c-.878-.509-2.306-.509-3.19 0z"/><path fill="url(#E)" d="M12.516 16.37c-.883.508-.888 1.332-.01 1.84l11.9 6.889c.877.508 2.306.508 3.189 0l11.978-6.89c.883-.508.888-1.331.01-1.84l-11.9-6.888c-.878-.509-2.306-.509-3.19 0z"/><path fill="#fff" fill-opacity=".45" d="M40.253 24.375q-.002.026-.006.052l-.01.043-.015.05a1 1 0 0 1-.031.074l-.007.012a1 1 0 0 1-.048.078l-.008.01a1 1 0 0 1-.056.07l-.01.012a1 1 0 0 1-.072.07l-.052.042q-.023.018-.047.037l-.061.04q-.032.021-.064.04l-12.49 7.196a2 2 0 0 1-.115.059l-.03.015a2 2 0 0 1-.109.045q-.007.004-.014.006-.06.022-.121.042l-.087.024-.067.018-.093.02-.064.012a3 3 0 0 1-.251.032q-.057.005-.114.007l-.074.002h-.092l-.078-.002-.085-.004-.078-.007-.084-.01q-.039-.004-.076-.01a2 2 0 0 1-.16-.03l-.104-.024-.067-.018-.139-.046-.029-.01-.09-.039q-.021-.008-.043-.018a2 2 0 0 1-.125-.064l-12.572-7.196c-.332-.19-.5-.44-.498-.69l-.069 10.303c0 .25.165.5.499.69l12.572 7.196q.06.033.124.064l.043.019q.038.016.076.033l.014.005.029.01q.05.019.103.035l.035.011.024.008.043.01.105.026q.014.004.029.006l.041.008.09.015q.017.005.036.006l.123.014.04.005.124.006.043.003h.172l.027-.002q.057-.002.114-.007l.046-.003q.008 0 .014-.003a3 3 0 0 0 .202-.028q.029-.005.054-.011l.093-.02q.034-.008.067-.018l.087-.024.018-.005q.053-.016.103-.037.008-.002.014-.006a2 2 0 0 0 .108-.045l.031-.015q.06-.028.114-.06l12.49-7.195.022-.011.044-.03.06-.039.047-.037q.027-.02.052-.043l.01-.009a1 1 0 0 0 .061-.06l.011-.013q.018-.018.033-.038l.023-.03.008-.011.037-.059.01-.019.007-.012q.015-.031.028-.064l.003-.01q.009-.024.014-.05.006-.016.01-.034v-.01q.005-.026.007-.051.002-.018.003-.034v-.015l.069-10.303q-.001.024-.005.05z"/><path fill="url(#F)" d="M40.253 24.375q-.002.026-.006.052l-.01.043-.015.05a1 1 0 0 1-.031.074l-.007.012a1 1 0 0 1-.048.078l-.008.01a1 1 0 0 1-.056.07l-.01.012a1 1 0 0 1-.072.07l-.052.042q-.023.018-.047.037l-.061.04q-.032.021-.064.04l-12.49 7.196a2 2 0 0 1-.115.059l-.03.015a2 2 0 0 1-.109.045q-.007.004-.014.006-.06.022-.121.042l-.087.024-.067.018-.093.02-.064.012a3 3 0 0 1-.251.032q-.057.005-.114.007l-.074.002h-.092l-.078-.002-.085-.004-.078-.007-.084-.01q-.039-.004-.076-.01a2 2 0 0 1-.16-.03l-.104-.024-.067-.018-.139-.046-.029-.01-.09-.039q-.021-.008-.043-.018a2 2 0 0 1-.125-.064l-12.572-7.196c-.332-.19-.5-.44-.498-.69l-.069 10.303c0 .25.165.5.499.69l12.572 7.196q.06.033.124.064l.043.019q.038.016.076.033l.014.005.029.01q.05.019.103.035l.035.011.024.008.043.01.105.026q.014.004.029.006l.041.008.09.015q.017.005.036.006l.123.014.04.005.124.006.043.003h.172l.027-.002q.057-.002.114-.007l.046-.003q.008 0 .014-.003a3 3 0 0 0 .202-.028q.029-.005.054-.011l.093-.02q.034-.008.067-.018l.087-.024.018-.005q.053-.016.103-.037.008-.002.014-.006a2 2 0 0 0 .108-.045l.031-.015q.06-.028.114-.06l12.49-7.195.022-.011.044-.03.06-.039.047-.037q.027-.02.052-.043l.01-.009a1 1 0 0 0 .061-.06l.011-.013q.018-.018.033-.038l.023-.03.008-.011.037-.059.01-.019.007-.012q.015-.031.028-.064l.003-.01q.009-.024.014-.05.006-.016.01-.034v-.01q.005-.026.007-.051.002-.018.003-.034v-.015l.069-10.303q-.001.024-.005.05z"/><path fill="#fff" fill-opacity=".45" d="M12.516 16.483c-.883.508-.888 1.332-.01 1.84l11.9 6.89c.877.508 2.306.508 3.189 0l11.978-6.89c.883-.508.888-1.332.01-1.84l-11.9-6.889c-.878-.508-2.306-.508-3.19 0z"/><path fill="url(#G)" d="M12.516 16.483c-.883.508-.888 1.332-.01 1.84l11.9 6.89c.877.508 2.306.508 3.189 0l11.978-6.89c.883-.508.888-1.332.01-1.84l-11.9-6.889c-.878-.508-2.306-.508-3.19 0z"/><path fill="#fff" fill-opacity=".45" d="M40.253 24.487q-.002.027-.006.052l-.01.043-.015.05a1 1 0 0 1-.031.074l-.007.012a1 1 0 0 1-.048.078l-.008.011a1 1 0 0 1-.056.069l-.01.012a1 1 0 0 1-.072.07l-.052.042q-.023.02-.047.037l-.061.04q-.032.021-.064.04l-12.49 7.196a2 2 0 0 1-.115.06l-.03.014a2 2 0 0 1-.109.046q-.007.002-.014.006-.06.022-.121.04l-.087.025q-.034.01-.067.018l-.093.02q-.031.007-.064.012a3 3 0 0 1-.251.032l-.114.008-.074.002h-.092l-.078-.002-.085-.005-.078-.006-.084-.01-.076-.01a2 2 0 0 1-.16-.03l-.104-.025-.067-.018-.139-.046-.029-.01-.09-.038-.043-.019a2 2 0 0 1-.125-.064l-12.572-7.195c-.332-.19-.5-.44-.498-.69l-.069 10.302c0 .25.165.5.499.69l12.572 7.196q.06.034.124.064l.043.02.076.032.014.005.029.01q.05.019.103.035l.035.012.024.007.043.01q.052.014.105.026l.029.007.041.007.09.016.036.006.123.014.04.004.038.002.086.005.043.002h.172l.027-.002q.057-.002.114-.007l.046-.003.014-.002a3 3 0 0 0 .202-.028q.029-.005.054-.012l.093-.02q.034-.008.067-.018l.087-.024.018-.005q.053-.017.103-.036l.014-.006q.056-.022.108-.046l.031-.015q.06-.027.114-.059l12.49-7.195.022-.012.044-.029q.03-.02.06-.04l.047-.037.052-.042q.006-.004.01-.01a1 1 0 0 0 .061-.06l.011-.012q.018-.019.033-.039l.023-.03.008-.011.037-.058.01-.02.007-.012q.015-.03.028-.063l.003-.01q.009-.025.014-.051.006-.016.01-.034v-.009q.005-.027.007-.052l.003-.034v-.015l.069-10.302q-.001.024-.005.049z"/><path fill="url(#H)" d="M40.253 24.487q-.002.027-.006.052l-.01.043-.015.05a1 1 0 0 1-.031.074l-.007.012a1 1 0 0 1-.048.078l-.008.011a1 1 0 0 1-.056.069l-.01.012a1 1 0 0 1-.072.07l-.052.042q-.023.02-.047.037l-.061.04q-.032.021-.064.04l-12.49 7.196a2 2 0 0 1-.115.06l-.03.014a2 2 0 0 1-.109.046q-.007.002-.014.006-.06.022-.121.04l-.087.025q-.034.01-.067.018l-.093.02q-.031.007-.064.012a3 3 0 0 1-.251.032l-.114.008-.074.002h-.092l-.078-.002-.085-.005-.078-.006-.084-.01-.076-.01a2 2 0 0 1-.16-.03l-.104-.025-.067-.018-.139-.046-.029-.01-.09-.038-.043-.019a2 2 0 0 1-.125-.064l-12.572-7.195c-.332-.19-.5-.44-.498-.69l-.069 10.302c0 .25.165.5.499.69l12.572 7.196q.06.034.124.064l.043.02.076.032.014.005.029.01q.05.019.103.035l.035.012.024.007.043.01q.052.014.105.026l.029.007.041.007.09.016.036.006.123.014.04.004.038.002.086.005.043.002h.172l.027-.002q.057-.002.114-.007l.046-.003.014-.002a3 3 0 0 0 .202-.028q.029-.005.054-.012l.093-.02q.034-.008.067-.018l.087-.024.018-.005q.053-.017.103-.036l.014-.006q.056-.022.108-.046l.031-.015q.06-.027.114-.059l12.49-7.195.022-.012.044-.029q.03-.02.06-.04l.047-.037.052-.042q.006-.004.01-.01a1 1 0 0 0 .061-.06l.011-.012q.018-.019.033-.039l.023-.03.008-.011.037-.058.01-.02.007-.012q.015-.03.028-.063l.003-.01q.009-.025.014-.051.006-.016.01-.034v-.009q.005-.027.007-.052l.003-.034v-.015l.069-10.302q-.001.024-.005.049z"/><path fill="#fff" fill-opacity=".45" d="M12.516 25.329c-.883-.509-.888-1.333-.01-1.84l11.9-6.89c.877-.508 2.306-.508 3.189 0l11.978 6.89c.883.508.888 1.332.01 1.84l-11.9 6.888c-.878.509-2.306.509-3.19 0z"/><path fill="url(#I)" fill-opacity=".5" d="M12.516 25.329c-.883-.509-.888-1.333-.01-1.84l11.9-6.89c.877-.508 2.306-.508 3.189 0l11.978 6.89c.883.508.888 1.332.01 1.84l-11.9 6.888c-.878.509-2.306.509-3.19 0z"/><path fill="url(#J)" fill-opacity=".7" d="m24.846 21.983-.002.024v.009l-.012.036-.01.02-.016.024-.004.005-.028.03-.013.012-.014.012-.016.011q-.008.006-.017.011l-.012.007-.038.02-.013.007-.053.02-.006.002a.7.7 0 0 1-.168.032l-.028.002h-.052l-.048-.001-3.047-.202-.078-.01-.016-.002-.073-.017q-.004 0-.008-.003a1 1 0 0 1-.131-.055c-.081-.047-.135-.108-.149-.176l-.357-1.772a.2.2 0 0 1-.003-.037l-.04 15.255q0 .017.004.036l.357 1.772c.014.069.068.13.149.177q.027.015.059.029.004 0 .01.004l.007.003.055.019.008.002.073.017.015.003.02.003.05.006h.009l3.047.201.038.002h.061q.015 0 .029-.002l.016-.001h.007l.057-.009h.001a1 1 0 0 0 .086-.021q.002 0 .004-.002h.002l.054-.021.012-.006.046-.024.004-.003.017-.011.015-.011.015-.012.01-.009.003-.003a.3.3 0 0 0 .047-.058l.01-.02.003-.008.008-.028q0-.005.002-.01l.002-.018v-.004l.039-15.255z"/><path fill="url(#K)" d="m24.846 21.983-.002.024v.009l-.012.036-.01.02-.016.024-.004.005-.028.03-.013.012-.014.012-.016.011q-.008.006-.017.011l-.012.007-.038.02-.013.007-.053.02-.006.002a.7.7 0 0 1-.168.032l-.028.002h-.052l-.048-.001-3.047-.202-.078-.01-.016-.002-.073-.017q-.004 0-.008-.003a1 1 0 0 1-.131-.055c-.081-.047-.135-.108-.149-.176l-.357-1.772a.2.2 0 0 1-.003-.037l-.04 15.255q0 .017.004.036l.357 1.772c.014.069.068.13.149.177q.027.015.059.029.004 0 .01.004l.007.003.055.019.008.002.073.017.015.003.02.003.05.006h.009l3.047.201.038.002h.061q.015 0 .029-.002l.016-.001h.007l.057-.009h.001a1 1 0 0 0 .086-.021q.002 0 .004-.002h.002l.054-.021.012-.006.046-.024.004-.003.017-.011.015-.011.015-.012.01-.009.003-.003a.3.3 0 0 0 .047-.058l.01-.02.003-.008.008-.028q0-.005.002-.01l.002-.018v-.004l.039-15.255z"/><path fill="url(#L)" d="m24.846 21.983-.002.024v.009l-.012.036-.01.02-.016.024-.004.005-.028.03-.013.012-.014.012-.016.011q-.008.006-.017.011l-.012.007-.038.02-.013.007-.053.02-.006.002a.7.7 0 0 1-.168.032l-.028.002h-.052l-.048-.001-3.047-.202-.078-.01-.016-.002-.073-.017q-.004 0-.008-.003a1 1 0 0 1-.131-.055c-.081-.047-.135-.108-.149-.176l-.357-1.772a.2.2 0 0 1-.003-.037l-.04 15.255q0 .017.004.036l.357 1.772c.014.069.068.13.149.177q.027.015.059.029.004 0 .01.004l.007.003.055.019.008.002.073.017.015.003.02.003.05.006h.009l3.047.201.038.002h.061q.015 0 .029-.002l.016-.001h.007l.057-.009h.001a1 1 0 0 0 .086-.021q.002 0 .004-.002h.002l.054-.021.012-.006.046-.024.004-.003.017-.011.015-.011.015-.012.01-.009.003-.003a.3.3 0 0 0 .047-.058l.01-.02.003-.008.008-.028q0-.005.002-.01l.002-.018v-.004l.039-15.255z"/><path fill="url(#M)" fill-opacity=".7" d="m29.593 22.33-.001.01-.008.028-.004.007-.01.022-.017.025-.002.003-.028.03q-.006.007-.014.012l-.014.012-.016.011-.016.011-.012.007-.038.02-.065.027-.006.002a.6.6 0 0 1-.168.032q-.015 0-.029.002h-.052q-.023 0-.047-.002l-3.048-.201-.079-.01-.015-.003-.073-.017h-.005l-.066-.024q-.004 0-.01-.004l-.058-.029c-.08-.046-.134-.108-.148-.176l-.358-1.772a.1.1 0 0 1-.003-.037l-.04 15.255q0 .018.004.036l.358 1.773c.014.068.067.13.148.176q.027.015.059.029l.01.004.006.003q.029.012.058.02.004.001.005.002.027.008.055.013l.017.003q.008 0 .016.003l.019.003q.024.004.05.006h.01l3.047.202.039.002h.06l.028-.002.018-.001h.006l.05-.008.007-.001h.001a1 1 0 0 0 .086-.021l.004-.002h.002l.053-.021.012-.006.045-.024.004-.003.017-.011.016-.011.014-.012q.006-.004.01-.009.002 0 .003-.003l.028-.03.002-.003.017-.025.01-.022.003-.007.008-.028v-.001l.001-.009.002-.018v-.005l.04-15.254q0 .012-.003.023z"/><path fill="url(#N)" d="m29.593 22.33-.001.01-.008.028-.004.007-.01.022-.017.025-.002.003-.028.03q-.006.007-.014.012l-.014.012-.016.011-.016.011-.012.007-.038.02-.065.027-.006.002a.6.6 0 0 1-.168.032q-.015 0-.029.002h-.052q-.023 0-.047-.002l-3.048-.201-.079-.01-.015-.003-.073-.017h-.005l-.066-.024q-.004 0-.01-.004l-.058-.029c-.08-.046-.134-.108-.148-.176l-.358-1.772a.1.1 0 0 1-.003-.037l-.04 15.255q0 .018.004.036l.358 1.773c.014.068.067.13.148.176q.027.015.059.029l.01.004.006.003q.029.012.058.02.004.001.005.002.027.008.055.013l.017.003q.008 0 .016.003l.019.003q.024.004.05.006h.01l3.047.202.039.002h.06l.028-.002.018-.001h.006l.05-.008.007-.001h.001a1 1 0 0 0 .086-.021l.004-.002h.002l.053-.021.012-.006.045-.024.004-.003.017-.011.016-.011.014-.012q.006-.004.01-.009.002 0 .003-.003l.028-.03.002-.003.017-.025.01-.022.003-.007.008-.028v-.001l.001-.009.002-.018v-.005l.04-15.254q0 .012-.003.023z"/><path fill="url(#O)" d="m29.593 22.33-.001.01-.008.028-.004.007-.01.022-.017.025-.002.003-.028.03q-.006.007-.014.012l-.014.012-.016.011-.016.011-.012.007-.038.02-.065.027-.006.002a.6.6 0 0 1-.168.032q-.015 0-.029.002h-.052q-.023 0-.047-.002l-3.048-.201-.079-.01-.015-.003-.073-.017h-.005l-.066-.024q-.004 0-.01-.004l-.058-.029c-.08-.046-.134-.108-.148-.176l-.358-1.772a.1.1 0 0 1-.003-.037l-.04 15.255q0 .018.004.036l.358 1.773c.014.068.067.13.148.176q.027.015.059.029l.01.004.006.003q.029.012.058.02.004.001.005.002.027.008.055.013l.017.003q.008 0 .016.003l.019.003q.024.004.05.006h.01l3.047.202.039.002h.06l.028-.002.018-.001h.006l.05-.008.007-.001h.001a1 1 0 0 0 .086-.021l.004-.002h.002l.053-.021.012-.006.045-.024.004-.003.017-.011.016-.011.014-.012q.006-.004.01-.009.002 0 .003-.003l.028-.03.002-.003.017-.025.01-.022.003-.007.008-.028v-.001l.001-.009.002-.018v-.005l.04-15.254q0 .012-.003.023z"/><path fill="url(#P)" fill-opacity=".7" d="M25.413 24.771v.009l-.009.029q0 .004-.003.008l-.01.02-.015.024-.004.005-.028.03-.013.012-.014.012-.016.011-.016.011-.012.007-.038.02-.013.006-.053.021-.006.002a1 1 0 0 1-.096.023l-.048.007-.024.002-.03.002h-.052l-.047-.001-3.048-.202-.078-.01-.016-.002-.08-.02-.063-.021-.01-.004-.059-.03c-.08-.046-.134-.107-.148-.175l-.358-1.773a.2.2 0 0 1-.003-.036l-.04 15.254q0 .018.004.037l.358 1.772c.014.068.068.13.148.176l.06.03.009.003.007.004.056.019.007.002h.001l.072.017.016.002.019.004.05.005h.009l3.048.202.038.002h.062l.029-.002.016-.001.007-.001.049-.007.007-.001a1 1 0 0 0 .087-.022h.004l.002-.001.054-.02.012-.007.046-.024.004-.003.017-.01.015-.013.015-.011.01-.01.003-.002.029-.03q0-.003.003-.005l.016-.023v-.001l.01-.02q0-.005.003-.008l.008-.027v-.01l.003-.018v-.005l.039-15.254-.002.023z"/><path fill="url(#Q)" d="M25.413 24.771v.009l-.009.029q0 .004-.003.008l-.01.02-.015.024-.004.005-.028.03-.013.012-.014.012-.016.011-.016.011-.012.007-.038.02-.013.006-.053.021-.006.002a1 1 0 0 1-.096.023l-.048.007-.024.002-.03.002h-.052l-.047-.001-3.048-.202-.078-.01-.016-.002-.08-.02-.063-.021-.01-.004-.059-.03c-.08-.046-.134-.107-.148-.175l-.358-1.773a.2.2 0 0 1-.003-.036l-.04 15.254q0 .018.004.037l.358 1.772c.014.068.068.13.148.176l.06.03.009.003.007.004.056.019.007.002h.001l.072.017.016.002.019.004.05.005h.009l3.048.202.038.002h.062l.029-.002.016-.001.007-.001.049-.007.007-.001a1 1 0 0 0 .087-.022h.004l.002-.001.054-.02.012-.007.046-.024.004-.003.017-.01.015-.013.015-.011.01-.01.003-.002.029-.03q0-.003.003-.005l.016-.023v-.001l.01-.02q0-.005.003-.008l.008-.027v-.01l.003-.018v-.005l.039-15.254-.002.023z"/><path fill="url(#R)" d="M25.413 24.771v.009l-.009.029q0 .004-.003.008l-.01.02-.015.024-.004.005-.028.03-.013.012-.014.012-.016.011-.016.011-.012.007-.038.02-.013.006-.053.021-.006.002a1 1 0 0 1-.096.023l-.048.007-.024.002-.03.002h-.052l-.047-.001-3.048-.202-.078-.01-.016-.002-.08-.02-.063-.021-.01-.004-.059-.03c-.08-.046-.134-.107-.148-.175l-.358-1.773a.2.2 0 0 1-.003-.036l-.04 15.254q0 .018.004.037l.358 1.772c.014.068.068.13.148.176l.06.03.009.003.007.004.056.019.007.002h.001l.072.017.016.002.019.004.05.005h.009l3.048.202.038.002h.062l.029-.002.016-.001.007-.001.049-.007.007-.001a1 1 0 0 0 .087-.022h.004l.002-.001.054-.02.012-.007.046-.024.004-.003.017-.01.015-.013.015-.011.01-.01.003-.002.029-.03q0-.003.003-.005l.016-.023v-.001l.01-.02q0-.005.003-.008l.008-.027v-.01l.003-.018v-.005l.039-15.254-.002.023z"/><path fill="url(#S)" fill-opacity=".7" d="M31.671 25.966v.009a.2.2 0 0 1-.022.057l-.017.024q0 .003-.003.004l-.028.03-.013.012-.015.012-.016.012-.016.01-.012.008a.5.5 0 0 1-.104.047q-.003 0-.006.002a1 1 0 0 1-.086.02l-.01.002-.047.007-.024.002-.03.002-.027.001h-.024q-.024 0-.047-.002l-3.048-.202-.078-.01-.016-.002-.073-.017-.007-.002-.063-.022-.01-.004-.059-.029c-.08-.047-.135-.108-.149-.176l-.357-1.772a.1.1 0 0 1-.003-.037l-.04 15.255.004.036.357 1.772c.014.069.068.13.149.176l.059.03q.004 0 .01.004l.007.003.056.02.007.001.056.014.017.003.016.003.019.003.05.006h.009l3.047.201.039.002h.061l.029-.002.016-.001h.007l.048-.008.008-.001h.002a1 1 0 0 0 .085-.021q.003 0 .004-.002h.002l.053-.021.013-.006.038-.02.007-.004.005-.003.016-.011.016-.011.014-.012q.006-.004.01-.009l.003-.002.028-.03.003-.005.016-.024.01-.021q0-.004.003-.007l.008-.028.001-.01.002-.018V41.2l.04-15.255-.002.024z"/><path fill="url(#T)" d="M31.671 25.966v.009a.2.2 0 0 1-.022.057l-.017.024q0 .003-.003.004l-.028.03-.013.012-.015.012-.016.012-.016.01-.012.008a.5.5 0 0 1-.104.047q-.003 0-.006.002a1 1 0 0 1-.086.02l-.01.002-.047.007-.024.002-.03.002-.027.001h-.024q-.024 0-.047-.002l-3.048-.202-.078-.01-.016-.002-.073-.017-.007-.002-.063-.022-.01-.004-.059-.029c-.08-.047-.135-.108-.149-.176l-.357-1.772a.1.1 0 0 1-.003-.037l-.04 15.255.004.036.357 1.772c.014.069.068.13.149.176l.059.03q.004 0 .01.004l.007.003.056.02.007.001.056.014.017.003.016.003.019.003.05.006h.009l3.047.201.039.002h.061l.029-.002.016-.001h.007l.048-.008.008-.001h.002a1 1 0 0 0 .085-.021q.003 0 .004-.002h.002l.053-.021.013-.006.038-.02.007-.004.005-.003.016-.011.016-.011.014-.012q.006-.004.01-.009l.003-.002.028-.03.003-.005.016-.024.01-.021q0-.004.003-.007l.008-.028.001-.01.002-.018V41.2l.04-15.255-.002.024z"/><path fill="url(#U)" d="M31.671 25.966v.009a.2.2 0 0 1-.022.057l-.017.024q0 .003-.003.004l-.028.03-.013.012-.015.012-.016.012-.016.01-.012.008a.5.5 0 0 1-.104.047q-.003 0-.006.002a1 1 0 0 1-.086.02l-.01.002-.047.007-.024.002-.03.002-.027.001h-.024q-.024 0-.047-.002l-3.048-.202-.078-.01-.016-.002-.073-.017-.007-.002-.063-.022-.01-.004-.059-.029c-.08-.047-.135-.108-.149-.176l-.357-1.772a.1.1 0 0 1-.003-.037l-.04 15.255.004.036.357 1.772c.014.069.068.13.149.176l.059.03q.004 0 .01.004l.007.003.056.02.007.001.056.014.017.003.016.003.019.003.05.006h.009l3.047.201.039.002h.061l.029-.002.016-.001h.007l.048-.008.008-.001h.002a1 1 0 0 0 .085-.021q.003 0 .004-.002h.002l.053-.021.013-.006.038-.02.007-.004.005-.003.016-.011.016-.011.014-.012q.006-.004.01-.009l.003-.002.028-.03.003-.005.016-.024.01-.021q0-.004.003-.007l.008-.028.001-.01.002-.018V41.2l.04-15.255-.002.024z"/><path fill="#fff" fill-opacity=".8" d="M31.163 23.955c.08.047.135.109.15.179l.357 1.772c.039.186-.225.34-.545.318l-3.047-.202a.7.7 0 0 1-.307-.087c-.08-.047-.135-.108-.148-.176l-.358-1.773c-.038-.186.226-.34.545-.318l3.048.202a.7.7 0 0 1 .304.086"/><path fill="url(#V)" d="M31.163 23.955c.08.047.135.109.15.179l.357 1.772c.039.186-.225.34-.545.318l-3.047-.202a.7.7 0 0 1-.307-.087c-.08-.047-.135-.108-.148-.176l-.358-1.773c-.038-.186.226-.34.545-.318l3.048.202a.7.7 0 0 1 .304.086"/><path fill="#fff" fill-opacity=".8" d="M25.412 24.71c.04.186-.225.34-.545.32l-3.048-.203a.7.7 0 0 1-.306-.087c-.08-.047-.135-.108-.149-.176l-.357-1.773c-.039-.185.226-.34.545-.318l3.048.202c.12.008.226.04.306.087s.135.108.149.177z"/><path fill="url(#W)" d="M25.412 24.71c.04.186-.225.34-.545.32l-3.048-.203a.7.7 0 0 1-.306-.087c-.08-.047-.135-.108-.149-.176l-.357-1.773c-.039-.185.226-.34.545-.318l3.048.202c.12.008.226.04.306.087s.135.108.149.177z"/><path fill="#fff" fill-opacity=".8" d="M25.185 20.351c-.038-.186.226-.34.546-.319l3.048.203a.7.7 0 0 1 .306.087c.081.047.135.108.148.176l.357 1.773c.039.186-.225.34-.545.318l-3.048-.201a.7.7 0 0 1-.306-.088c-.08-.047-.135-.108-.148-.176z"/><path fill="url(#X)" d="M25.185 20.351c-.038-.186.226-.34.546-.319l3.048.203a.7.7 0 0 1 .306.087c.081.047.135.108.148.176l.357 1.773c.039.186-.225.34-.545.318l-3.048-.201a.7.7 0 0 1-.306-.088c-.08-.047-.135-.108-.148-.176z"/><g opacity=".62"><path fill="#fff" fill-opacity=".8" d="M24.031 19.911a.7.7 0 0 1 .304.085c.08.046.136.11.151.179l.357 1.772c.038.186-.225.34-.545.319l-3.048-.201a.7.7 0 0 1-.307-.088c-.08-.047-.134-.108-.148-.176l-.358-1.773c-.038-.186.227-.34.546-.319z"/><path fill="url(#Y)" d="M24.031 19.911a.7.7 0 0 1 .304.085c.08.046.136.11.151.179l.357 1.772c.038.186-.225.34-.545.319l-3.048-.201a.7.7 0 0 1-.307-.088c-.08-.047-.134-.108-.148-.176l-.358-1.773c-.038-.186.227-.34.546-.319z"/></g><g clip-path="url(#Z)"><path fill="#187256" d="m20.375 12.795.01.006z"/><path fill="url(#aa)" d="M26.654 12.72h-.001l-.43-.014-.163-.005-.2-.006-.182-.005-.223-.006-.676-.015-.342-.007-.171-.003.114.607c.786.015 1.562.033 2.275.06z"/><path fill="#2fe4ab" d="M32.182 14.858c-.017-.527-.41-.973-.986-1.312-.585-.342-1.359-.574-2.123-.665a32 32 0 0 0-2.42-.16l.002.605c.86.033 1.63.078 2.218.148.5.059 1.138.227 1.612.505.382.224.658.52.67.889.018.564-1.21 1.497-2.88 1.58-.595.03-1.718.004-2.573-.498a2.17 2.17 0 0 1-1.042-1.356 16 16 0 0 1-.28-1.328l-.114-.607c-.15-.706-.367-1.218-1.075-1.634-.678-.397-2.101-.483-2.92 0-.707.418-.722 1.148-.08 1.644l.736-.435c-.253-.255-.239-.597.073-.78.386-.23 1.142-.191 1.467 0 .461.27.635.642.76 1.186l.118.607.006.038c.072.403.153.86.296 1.4.189.718.632 1.284 1.32 1.688q.301.177.663.31c1.036.387 2.159.396 2.735.367 1.546-.077 3.857-.99 3.817-2.192"/><path fill="url(#ab)" d="M32.183 14.857v.062l-.005.065-.002.02-.01.056q0 .008-.002.014-.007.034-.017.069l-.004.017-.019.056-.005.016-.03.072-.008.015-.039.076-.01.02-.032.05q-.009.015-.019.028l-.014.022-.036.048-.019.025-.031.039-.014.016a2 2 0 0 1-.116.125l-.036.036-.022.02q-.015.015-.031.028l-.023.021-.034.029-.023.02-.036.028-.023.018-.042.033-.019.014-.063.045-.01.007-.055.038-.023.016-.044.028-.027.017-.042.026-.02.012-.117.07-.016.008-.122.067-.017.008-.127.064-.017.008a5 5 0 0 1-.282.126l-.017.006a7 7 0 0 1-.294.114l-.017.005-.143.049-.012.004-.22.068-.005.001-.223.06-.005.002-.22.052-.012.003a6 6 0 0 1-.341.065l-.01.002-.098.015-.025.004-.104.014-.013.001q-.045.006-.092.01l-.023.003a6 6 0 0 1-.321.021l-.037.002q-.028 0-.058.002h-.083l-.042.002h-.236l-.045-.002h-.053q-.04-.002-.08-.003l-.029-.002-.103-.004h-.004l-.103-.006-.03-.002-.09-.007-.021-.002-.207-.02-.013-.002-.205-.026-.02-.003-.189-.03-.016-.003-.204-.04h-.003a6 6 0 0 1-.206-.047l-.012-.003-.196-.052-.021-.007-.164-.05-.015-.005a6 6 0 0 1-.32-.118l-.06-.026-.1-.044-.059-.027-.103-.051-.048-.024a3 3 0 0 1-.144-.08c-.688-.404-1.131-.97-1.32-1.688a16 16 0 0 1-.296-1.4l-.006-.038-.007 2.616.006.037c.072.404.152.861.295 1.4q.287 1.081 1.321 1.689l.144.08.048.024.103.05.058.028.1.044.061.026q.02.007.037.015a5 5 0 0 0 .282.103l.016.005.163.05.014.004.008.002q.097.028.196.053l.012.002q.102.026.206.048h.003l.204.04q.007 0 .016.002l.19.03q.003 0 .008.002h.01q.105.016.205.027l.014.002.207.02h.004l.017.001.089.007.03.002.103.006h.004l.104.005.028.001.08.003h.054l.044.001h.3l.05-.002h.011l.056-.001h.003l.116-.005q.055-.002.112-.007l.02-.001.11-.01h.009l.014-.002.092-.01.013-.002.104-.014.025-.004.097-.015q.006 0 .01-.002.054-.008.107-.018l.012-.002q.004 0 .008-.002a7 7 0 0 0 .674-.16h.005q.11-.033.22-.069.003 0 .006-.002.004 0 .006-.002.072-.023.143-.048l.016-.006.14-.052.017-.006.138-.055.017-.007a7 7 0 0 0 .282-.127l.017-.008a5 5 0 0 0 .266-.138l.016-.009q.06-.034.117-.069l.01-.005.01-.007.042-.026.027-.017.044-.029.023-.015.057-.04.008-.005.063-.045.018-.014.043-.033.022-.018.037-.03.023-.019.034-.029.022-.02.032-.029.012-.011.01-.009.099-.1.005-.006a2 2 0 0 0 .1-.118l.012-.017.016-.02.02-.028.014-.022.019-.028.013-.02.018-.03.011-.02.002-.003.003-.007.034-.066.007-.015.03-.072.002-.006.004-.01.018-.056.005-.017.017-.07v-.003q.002-.005.002-.01l.01-.057q0-.01.002-.02l.004-.067v-.007l.008-2.61v-.058z"/><path fill="url(#ac)" d="m23.344 13.247-.389-.007q-.09 0-.174-.003l-.045-.002-.183-.005-.026-.001-.171-.007-.038-.002-.117-.006-.055-.004h-.01l-.023-.002-.085-.006-.063-.005-.084-.007-.046-.004-.151-.016-.04-.005-.146-.019h-.006l-.13-.022-.067-.012-.087-.017-.068-.014-.033-.008-.078-.019-.195-.057-.066-.021-.062-.023q-.04-.014-.078-.032-.004 0-.008-.003l-.012-.005-.1-.047-.022-.01-.099-.054-.068-.043-.04-.026-.058-.042-.03-.021c-.31-.24-.468-.535-.467-.822l-.007 2.615c-.001.288.156.583.466.822l.03.023.057.04.007.005.034.021.046.03.01.006.012.007q.006.005.021.012l.017.01.017.01.01.005h.002l.002.002.008.003.017.01.017.008h.002l.02.01.004.002q.002 0 .003.002l.012.005.02.01.02.01.012.004.004.002h.002l.003.002.015.007h.002l.022.01.019.007.005.002.002.001.006.002h.001l.006.003.01.004.01.004h.003q.007.004.018.007l.018.007h.003l.01.004.004.002.015.005h.002l.012.005q.006.001.013.004l.003.001.006.002.023.008.02.007.019.005h.001l.003.001.006.002.005.002.013.004.02.006.012.003h.002l.002.001.008.002.024.007.021.006.007.001.003.001.007.002.006.002H21l.024.006.007.001.014.004h.004l.024.006.011.002h.002l.009.003.04.009h.005l.002.001.025.005.012.003h.004l.034.008h.006l.005.002.014.002.003.001.014.003.06.01.01.002.013.003h.008l.012.003.01.002h.001l.01.001h.004q.011.002.022.003l.018.003.02.004q.01 0 .02.003l.011.001h.003l.007.001h.004l.005.001h.001q.008 0 .017.003h.009l.037.006q.015 0 .032.004h.008l.006.002.039.004.02.003h.011l.016.002h.006l.038.004.028.003.038.004.013.001h.003l.023.002h.001l.011.002q.024 0 .047.004h.013l.008.002h.025q.012.003.023.002l.028.003.028.002h.012l.022.002.023.002q.012 0 .025.002h.014l.012.001.037.003.024.001.08.005h.006l.04.002.044.002q.032 0 .065.003l.028.001.051.002h.042l.09.004h.038l.056.002h.015l.022.001h.037l.136.004.39.007.007-2.616z"/><path fill="url(#ad)" d="M20.928 12.234a.55.55 0 0 1-.177-.384v-.012q0-.021.004-.042l.001-.01v-.001l.003-.016a.5.5 0 0 1 .045-.122l.007-.011.005-.009.012-.018.005-.008.008-.01q.001-.002.002-.003l.003-.003.007-.009.034-.037.005-.005a1 1 0 0 1 .05-.042l.01-.006.033-.023.016-.01a.8.8 0 0 1 .145-.067l.027-.01.01-.003.006-.002.078-.023.012-.003.04-.01.043-.008h.005l.01-.002a1 1 0 0 1 .123-.018l.015-.001.063-.005.063-.004h.006a2 2 0 0 1 .194.002l.058.004h.007l.117.014h.003l.005.001a2 2 0 0 1 .141.027l.024.005a1 1 0 0 1 .12.036l.042.015q.002 0 .005.002l.026.01q.01.006.023.01l.011.007.023.011.022.012c.461.271.635.643.76 1.187l-.245-.004c-1.058-.02-1.583-.092-1.872-.262a1 1 0 0 1-.183-.14"/><path fill="url(#ae)" d="m31.071 14.543-.033-.06a1 1 0 0 0-.15-.195 1.8 1.8 0 0 0-.5-.363l-.032-.017-.068-.034-.04-.019a4 4 0 0 0-.22-.094l-.048-.019-.053-.02-.028-.01-.022-.007-.053-.018-.052-.017-.052-.016-.05-.015-.02-.006-.018-.005-.154-.042-.02-.004-.079-.02-.077-.016-.004-.001-.01-.002-.006-.001-.012-.003-.057-.011-.068-.013-.031-.005-.117-.02q-.008 0-.015-.002h-.006l-.102-.014-.06-.007-.06-.006-.04-.005-.01-.001-.18-.018-.024-.002-.037-.003-.219-.018-.074-.006-.012-.001a35 35 0 0 0-1.04-.061l-.031-.002-.173-.007-.038-.002h-.017l-.101-.005-.103-.004-.27-.01q-.059 0-.114-.003l-.164-.005q-.056-.002-.113-.003l-.169-.005q-.056-.003-.113-.003l-.172-.005h-.004l-.176-.005-.106-.002-.193-.005q-.048 0-.096-.002-.079 0-.158-.003l-.427-.008v.002c.068.386.147.821.28 1.325a2.16 2.16 0 0 0 .977 1.317l.082.002.099.002.194.006q.044 0 .087.003l.185.006.093.002.271.01.205.008.053.002.175.008.03.001.194.01.049.002.155.008.043.003.184.01.038.003.148.01.045.002.173.013q.012 0 .024.002l.146.011.05.005.079.006.054.005.08.008.05.005.084.008.04.005.242.03.117.018.032.006a6 6 0 0 1 .312.066l.014.004.06.015c.975-.323 1.614-.91 1.631-1.319v-.029a.8.8 0 0 0-.084-.325"/><path fill="url(#af)" d="m22.983 12.636.244.004.118.606-.39-.007c-1.16-.02-1.994-.101-2.568-.439a2 2 0 0 1-.197-.132l.737-.435q.076.077.183.14c.289.17.814.243 1.873.263"/><path fill="url(#ag)" d="m22.983 12.636.244.004.118.606-.39-.007c-1.16-.02-1.994-.101-2.568-.439a2 2 0 0 1-.197-.132l.737-.435q.076.077.183.14c.289.17.814.243 1.873.263"/></g><defs><radialGradient id="b" cx="0" cy="0" r="1" gradientTransform="rotate(250.098 21.688 1.846)scale(17.3157 39.0413)" gradientUnits="userSpaceOnUse"><stop stop-color="#ffa843" stop-opacity=".01"/><stop offset="1" stop-color="#ff862f"/></radialGradient><radialGradient id="d" cx="0" cy="0" r="1" gradientTransform="rotate(250.098 21.726 1.9)scale(17.3157 39.0413)" gradientUnits="userSpaceOnUse"><stop stop-color="#ffa843" stop-opacity=".01"/><stop offset="1" stop-color="#ff862f"/></radialGradient><radialGradient id="f" cx="0" cy="0" r="1" gradientTransform="rotate(109.902 6.011 20.501)scale(17.3157 39.0413)" gradientUnits="userSpaceOnUse"><stop stop-color="#ffa843" stop-opacity=".01"/><stop offset="1" stop-color="#ff862f"/></radialGradient><radialGradient id="g" cx="0" cy="0" r="1" gradientTransform="rotate(84.725 -1.53 24.266)scale(13.5371 3.72895)" gradientUnits="userSpaceOnUse"><stop stop-color="#fff"/><stop offset="1" stop-color="#fff" stop-opacity="0"/></radialGradient><radialGradient id="h" cx="0" cy="0" r="1" gradientTransform="rotate(-88.738 31.586 6.62)scale(14.7899 12.4633)" gradientUnits="userSpaceOnUse"><stop offset=".673" stop-color="#287eff" stop-opacity="0"/><stop offset="1" stop-color="#17d5ff"/></radialGradient><radialGradient id="i" cx="0" cy="0" r="1" gradientTransform="rotate(33.986 -18.556 31.766)scale(16.3509 10.6157)" gradientUnits="userSpaceOnUse"><stop stop-color="#2238ff"/><stop offset="1" stop-color="#3d73ff" stop-opacity="0"/></radialGradient><radialGradient id="j" cx="0" cy="0" r="1" gradientTransform="rotate(84.728 .583 26.924)scale(13.5376 3.72724)" gradientUnits="userSpaceOnUse"><stop stop-color="#fff"/><stop offset="1" stop-color="#fff" stop-opacity="0"/></radialGradient><radialGradient id="k" cx="0" cy="0" r="1" gradientTransform="rotate(-88.738 34.028 4.443)scale(14.7905 12.4576)" gradientUnits="userSpaceOnUse"><stop offset=".673" stop-color="#287eff" stop-opacity="0"/><stop offset="1" stop-color="#17d5ff"/></radialGradient><radialGradient id="l" cx="0" cy="0" r="1" gradientTransform="rotate(34 -16.77 39.384)scale(16.3459 10.6144)" gradientUnits="userSpaceOnUse"><stop stop-color="#2238ff"/><stop offset="1" stop-color="#3d73ff" stop-opacity="0"/></radialGradient><radialGradient id="m" cx="0" cy="0" r="1" gradientTransform="rotate(84.726 -2.714 25.895)scale(13.5371 3.72838)" gradientUnits="userSpaceOnUse"><stop stop-color="#fff"/><stop offset="1" stop-color="#fff" stop-opacity="0"/></radialGradient><radialGradient id="n" cx="0" cy="0" r="1" gradientTransform="rotate(-88.738 33.218 7.67)scale(14.7899 12.4614)" gradientUnits="userSpaceOnUse"><stop offset=".673" stop-color="#287eff" stop-opacity="0"/><stop offset="1" stop-color="#17d5ff"/></radialGradient><radialGradient id="o" cx="0" cy="0" r="1" gradientTransform="rotate(33.99 -22.63 33.989)scale(16.3492 10.6152)" gradientUnits="userSpaceOnUse"><stop stop-color="#2238ff"/><stop offset="1" stop-color="#3d73ff" stop-opacity="0"/></radialGradient><radialGradient id="p" cx="0" cy="0" r="1" gradientTransform="rotate(84.728 -.335 29.767)scale(13.5371 3.72724)" gradientUnits="userSpaceOnUse"><stop stop-color="#fff"/><stop offset="1" stop-color="#fff" stop-opacity="0"/></radialGradient><radialGradient id="q" cx="0" cy="0" r="1" gradientTransform="rotate(-88.738 36.813 5.17)scale(14.7899 12.4576)" gradientUnits="userSpaceOnUse"><stop offset=".673" stop-color="#287eff" stop-opacity="0"/><stop offset="1" stop-color="#17d5ff"/></radialGradient><radialGradient id="r" cx="0" cy="0" r="1" gradientTransform="rotate(33.998 -21.49 44.4)scale(16.3457 10.6141)" gradientUnits="userSpaceOnUse"><stop stop-color="#2238ff"/><stop offset="1" stop-color="#3d73ff" stop-opacity="0"/></radialGradient><radialGradient id="s" cx="0" cy="0" r="1" gradientTransform="rotate(105.543 8.35 24.763)scale(16.858 7.03365)" gradientUnits="userSpaceOnUse"><stop stop-color="#78ceff"/><stop offset="1" stop-color="#78ceff" stop-opacity="0"/></radialGradient><radialGradient id="t" cx="0" cy="0" r="1" gradientTransform="rotate(72.968 -1.035 25.491)scale(11.6224 14.4194)" gradientUnits="userSpaceOnUse"><stop stop-color="#00a3ff"/><stop offset="1" stop-color="#00a3ff" stop-opacity="0"/></radialGradient><radialGradient id="u" cx="0" cy="0" r="1" gradientTransform="rotate(76.816 3.053 24.82)scale(13.7772 17.0803)" gradientUnits="userSpaceOnUse"><stop stop-color="#00a3ff"/><stop offset="1" stop-color="#00a3ff" stop-opacity="0"/></radialGradient><radialGradient id="v" cx="0" cy="0" r="1" gradientTransform="rotate(79.575 .208 23.866)scale(24.6026 30.5108)" gradientUnits="userSpaceOnUse"><stop stop-color="#00a3ff"/><stop offset="1" stop-color="#00a3ff" stop-opacity="0"/></radialGradient><radialGradient id="x" cx="0" cy="0" r="1" gradientTransform="matrix(-2.60555 0 0 -28.4967 27.708 14.808)" gradientUnits="userSpaceOnUse"><stop stop-color="#2fe4ab"/><stop offset=".327" stop-color="#2fe4ab"/><stop offset="1" stop-color="#0f7c76"/></radialGradient><radialGradient id="y" cx="0" cy="0" r="1" gradientTransform="rotate(192.791 17.489 7.922)scale(9.75227 277.392)" gradientUnits="userSpaceOnUse"><stop stop-color="#2fe4ab" stop-opacity=".4"/><stop offset="1" stop-color="#0f7c76"/></radialGradient><radialGradient id="z" cx="0" cy="0" r="1" gradientTransform="rotate(25.375 -23.426 52.145)scale(5.1908 223.148)" gradientUnits="userSpaceOnUse"><stop stop-color="#2fe4ab" stop-opacity=".4"/><stop offset=".412" stop-color="#2fe4ab" stop-opacity=".7"/><stop offset="1" stop-color="#0f7c76"/></radialGradient><radialGradient id="A" cx="0" cy="0" r="1" gradientTransform="rotate(222.399 17.701 4.061)scale(7.76235 164.388)" gradientUnits="userSpaceOnUse"><stop stop-color="#2fe4ab"/><stop offset=".327" stop-color="#2fe4ab"/><stop offset="1" stop-color="#0f7c76"/></radialGradient><radialGradient id="B" cx="0" cy="0" r="1" gradientTransform="rotate(182.538 16.461 7.996)scale(7.17431 122.593)" gradientUnits="userSpaceOnUse"><stop stop-color="#2fe4ab" stop-opacity="0"/><stop offset=".5" stop-color="#24b185" stop-opacity=".7"/><stop offset="1" stop-color="#0f7c76"/></radialGradient><radialGradient id="C" cx="0" cy="0" r="1" gradientTransform="rotate(15.847 -39.73 86.96)scale(3.11476 39.163)" gradientUnits="userSpaceOnUse"><stop stop-color="#2fe4ab"/><stop offset=".321" stop-color="#2fe4ab"/><stop offset="1" stop-color="#0f7c76"/></radialGradient><radialGradient id="D" cx="0" cy="0" r="1" gradientTransform="rotate(15.847 -39.73 86.96)scale(3.11476 39.163)" gradientUnits="userSpaceOnUse"><stop stop-color="#2fe4ab"/><stop offset=".321" stop-color="#2fe4ab"/><stop offset="1" stop-color="#0f7c76"/></radialGradient><radialGradient id="E" cx="0" cy="0" r="1" gradientTransform="rotate(250.098 20.52 1.563)scale(18.0083 40.6029)" gradientUnits="userSpaceOnUse"><stop stop-color="#ffa843" stop-opacity=".01"/><stop offset="1" stop-color="#ff862f"/></radialGradient><radialGradient id="G" cx="0" cy="0" r="1" gradientTransform="rotate(250.098 20.56 1.62)scale(18.0083 40.6029)" gradientUnits="userSpaceOnUse"><stop stop-color="#ffa843" stop-opacity=".01"/><stop offset="1" stop-color="#ff862f"/></radialGradient><radialGradient id="I" cx="0" cy="0" r="1" gradientTransform="rotate(109.902 5.895 19.286)scale(18.0083 40.6029)" gradientUnits="userSpaceOnUse"><stop stop-color="#ffa843" stop-opacity=".01"/><stop offset="1" stop-color="#ff862f"/></radialGradient><radialGradient id="J" cx="0" cy="0" r="1" gradientTransform="rotate(84.725 -1.475 22.728)scale(14.0786 3.87811)" gradientUnits="userSpaceOnUse"><stop stop-color="#fff"/><stop offset="1" stop-color="#fff" stop-opacity="0"/></radialGradient><radialGradient id="K" cx="0" cy="0" r="1" gradientTransform="rotate(-88.738 30.43 6.911)scale(15.3815 12.9619)" gradientUnits="userSpaceOnUse"><stop offset=".673" stop-color="#287eff" stop-opacity="0"/><stop offset="1" stop-color="#17d5ff"/></radialGradient><radialGradient id="L" cx="0" cy="0" r="1" gradientTransform="rotate(33.986 -16.58 27.924)scale(17.0049 11.0403)" gradientUnits="userSpaceOnUse"><stop stop-color="#2238ff"/><stop offset="1" stop-color="#3d73ff" stop-opacity="0"/></radialGradient><radialGradient id="M" cx="0" cy="0" r="1" gradientTransform="rotate(84.728 .722 25.493)scale(14.0791 3.87633)" gradientUnits="userSpaceOnUse"><stop stop-color="#fff"/><stop offset="1" stop-color="#fff" stop-opacity="0"/></radialGradient><radialGradient id="N" cx="0" cy="0" r="1" gradientTransform="rotate(-88.738 32.97 4.647)scale(15.3821 12.9559)" gradientUnits="userSpaceOnUse"><stop offset=".673" stop-color="#287eff" stop-opacity="0"/><stop offset="1" stop-color="#17d5ff"/></radialGradient><radialGradient id="O" cx="0" cy="0" r="1" gradientTransform="rotate(34 -14.724 35.85)scale(16.9997 11.039)" gradientUnits="userSpaceOnUse"><stop stop-color="#2238ff"/><stop offset="1" stop-color="#3d73ff" stop-opacity="0"/></radialGradient><radialGradient id="P" cx="0" cy="0" r="1" gradientTransform="matrix(1.29401 14.019 -3.8611 .3564 21.86 24.873)" gradientUnits="userSpaceOnUse"><stop stop-color="#fff"/><stop offset="1" stop-color="#fff" stop-opacity="0"/></radialGradient><radialGradient id="Q" cx="0" cy="0" r="1" gradientTransform="rotate(-88.738 32.128 8.003)scale(15.3815 12.9599)" gradientUnits="userSpaceOnUse"><stop offset=".673" stop-color="#287eff" stop-opacity="0"/><stop offset="1" stop-color="#17d5ff"/></radialGradient><radialGradient id="R" cx="0" cy="0" r="1" gradientTransform="rotate(33.99 -20.816 30.238)scale(17.0031 11.0398)" gradientUnits="userSpaceOnUse"><stop stop-color="#2238ff"/><stop offset="1" stop-color="#3d73ff" stop-opacity="0"/></radialGradient><radialGradient id="S" cx="0" cy="0" r="1" gradientTransform="rotate(84.728 -.233 28.45)scale(14.0786 3.87633)" gradientUnits="userSpaceOnUse"><stop stop-color="#fff"/><stop offset="1" stop-color="#fff" stop-opacity="0"/></radialGradient><radialGradient id="T" cx="0" cy="0" r="1" gradientTransform="rotate(-88.738 35.867 5.402)scale(15.3815 12.9559)" gradientUnits="userSpaceOnUse"><stop offset=".673" stop-color="#287eff" stop-opacity="0"/><stop offset="1" stop-color="#17d5ff"/></radialGradient><radialGradient id="U" cx="0" cy="0" r="1" gradientTransform="rotate(33.998 -19.632 41.068)scale(16.9995 11.0387)" gradientUnits="userSpaceOnUse"><stop stop-color="#2238ff"/><stop offset="1" stop-color="#3d73ff" stop-opacity="0"/></radialGradient><radialGradient id="V" cx="0" cy="0" r="1" gradientTransform="rotate(105.543 8.397 23.648)scale(17.5323 7.31499)" gradientUnits="userSpaceOnUse"><stop stop-color="#78ceff"/><stop offset="1" stop-color="#78ceff" stop-opacity="0"/></radialGradient><radialGradient id="W" cx="0" cy="0" r="1" gradientTransform="rotate(72.968 -.654 23.698)scale(12.0872 14.9961)" gradientUnits="userSpaceOnUse"><stop stop-color="#00a3ff"/><stop offset="1" stop-color="#00a3ff" stop-opacity="0"/></radialGradient><radialGradient id="X" cx="0" cy="0" r="1" gradientTransform="rotate(76.816 3.487 23.108)scale(14.3283 17.7635)" gradientUnits="userSpaceOnUse"><stop stop-color="#00a3ff"/><stop offset="1" stop-color="#00a3ff" stop-opacity="0"/></radialGradient><radialGradient id="Y" cx="0" cy="0" r="1" gradientTransform="rotate(79.575 .457 22.188)scale(25.5898 31.7342)" gradientUnits="userSpaceOnUse"><stop stop-color="#00a3ff"/><stop offset="1" stop-color="#00a3ff" stop-opacity="0"/></radialGradient><radialGradient id="aa" cx="0" cy="0" r="1" gradientTransform="matrix(-2.70977 0 0 -29.6365 26.424 13.008)" gradientUnits="userSpaceOnUse"><stop stop-color="#2fe4ab"/><stop offset=".327" stop-color="#2fe4ab"/><stop offset="1" stop-color="#0f7c76"/></radialGradient><radialGradient id="ab" cx="0" cy="0" r="1" gradientTransform="rotate(192.791 16.858 7.176)scale(10.1424 288.488)" gradientUnits="userSpaceOnUse"><stop stop-color="#2fe4ab" stop-opacity=".4"/><stop offset="1" stop-color="#0f7c76"/></radialGradient><radialGradient id="ac" cx="0" cy="0" r="1" gradientTransform="rotate(25.375 -20.246 47.721)scale(5.39843 232.074)" gradientUnits="userSpaceOnUse"><stop stop-color="#2fe4ab" stop-opacity=".4"/><stop offset=".412" stop-color="#2fe4ab" stop-opacity=".7"/><stop offset="1" stop-color="#0f7c76"/></radialGradient><radialGradient id="ad" cx="0" cy="0" r="1" gradientTransform="rotate(222.399 16.749 3.491)scale(8.07285 170.963)" gradientUnits="userSpaceOnUse"><stop stop-color="#2fe4ab"/><stop offset=".327" stop-color="#2fe4ab"/><stop offset="1" stop-color="#0f7c76"/></radialGradient><radialGradient id="ae" cx="0" cy="0" r="1" gradientTransform="rotate(182.538 15.897 7.146)scale(7.46129 127.497)" gradientUnits="userSpaceOnUse"><stop stop-color="#2fe4ab" stop-opacity="0"/><stop offset=".5" stop-color="#24b185" stop-opacity=".7"/><stop offset="1" stop-color="#0f7c76"/></radialGradient><radialGradient id="af" cx="0" cy="0" r="1" gradientTransform="rotate(15.847 -33.917 80.65)scale(3.23935 40.7295)" gradientUnits="userSpaceOnUse"><stop stop-color="#2fe4ab"/><stop offset=".321" stop-color="#2fe4ab"/><stop offset="1" stop-color="#0f7c76"/></radialGradient><radialGradient id="ag" cx="0" cy="0" r="1" gradientTransform="rotate(15.847 -33.917 80.65)scale(3.23935 40.7295)" gradientUnits="userSpaceOnUse"><stop stop-color="#2fe4ab"/><stop offset=".321" stop-color="#2fe4ab"/><stop offset="1" stop-color="#0f7c76"/></radialGradient><linearGradient id="c" x1="-2.637" x2="56.839" y1="37.536" y2="37.536" gradientUnits="userSpaceOnUse"><stop stop-color="#ffac47" stop-opacity=".34"/><stop offset=".332" stop-color="#ff932f"/><stop offset=".592" stop-color="#ffcb65" stop-opacity=".21"/><stop offset=".917" stop-color="#ffc165" stop-opacity=".5"/></linearGradient><linearGradient id="e" x1="-2.637" x2="56.839" y1="37.645" y2="37.645" gradientUnits="userSpaceOnUse"><stop stop-color="#ffac47" stop-opacity=".34"/><stop offset=".332" stop-color="#ff932f"/><stop offset=".592" stop-color="#ffcb65" stop-opacity=".21"/><stop offset=".917" stop-color="#ffc165" stop-opacity=".5"/></linearGradient><linearGradient id="F" x1="-5.134" x2="56.721" y1="36.646" y2="36.646" gradientUnits="userSpaceOnUse"><stop stop-color="#ffac47" stop-opacity=".34"/><stop offset=".332" stop-color="#ff932f"/><stop offset=".592" stop-color="#ffcb65" stop-opacity=".21"/><stop offset=".917" stop-color="#ffc165" stop-opacity=".5"/></linearGradient><linearGradient id="H" x1="-5.134" x2="56.721" y1="36.758" y2="36.758" gradientUnits="userSpaceOnUse"><stop stop-color="#ffac47" stop-opacity=".34"/><stop offset=".332" stop-color="#ff932f"/><stop offset=".592" stop-color="#ffcb65" stop-opacity=".21"/><stop offset=".917" stop-color="#ffc165" stop-opacity=".5"/></linearGradient><clipPath id="w"><path fill="#fff" d="M21.259 12.584h11.986v8.636H21.259z"/></clipPath><clipPath id="Z"><path fill="#fff" d="M19.717 10.694h12.465v8.982H19.717z"/></clipPath><filter id="a" width="41.409" height="46.5" x="6.596" y="4.05" color-interpolation-filters="sRGB" filterUnits="userSpaceOnUse"><feFlood flood-opacity="0" result="BackgroundImageFix"/><feBlend in="SourceGraphic" in2="BackgroundImageFix" result="shape"/><feGaussianBlur result="effect1_foregroundBlur_11403_8426" stdDeviation="3.5"/></filter></defs></svg>