<svg width="20" height="20" viewBox="0 0 20 20" fill="none" xmlns="http://www.w3.org/2000/svg">
<rect width="20" height="20" rx="10" fill="#65D9FF"/>
<path fill-rule="evenodd" clip-rule="evenodd" d="M7.85042 15.8696C7.46503 15.8699 7.08953 15.7476 6.7782 15.5205C6.46687 15.2933 6.23585 14.9731 6.11853 14.606L4.8871 10.7364H4.13076C3.74522 10.7369 3.36955 10.6146 3.0581 10.3874C2.74666 10.1601 2.51562 9.83966 2.39842 9.47237L1.66699 7.17391H4.41065L2.96364 5H16.6747L15.2277 7.17391H17.9713L17.2399 9.47283C17.1226 9.84003 16.8916 10.1604 16.5801 10.3876C16.2687 10.6147 15.8931 10.7369 15.5076 10.7364H14.7512L13.5193 14.606C13.4021 14.9731 13.1711 15.2934 12.8597 15.5206C12.5484 15.7477 12.1729 15.87 11.7875 15.8696H7.85042ZM6.92062 9.6798C6.92062 10.2636 7.35766 10.7369 7.89706 10.7369C8.43601 10.7369 8.87306 10.2636 8.87306 9.6798C8.87306 9.09647 8.43601 8.62319 7.89706 8.62319C7.35812 8.62319 6.92062 9.09647 6.92062 9.6798ZM12.7177 9.6798C12.7177 10.2636 12.2807 10.7369 11.7413 10.7369C11.2023 10.7369 10.7653 10.2636 10.7653 9.6798C10.7653 9.09647 11.2023 8.62319 11.7413 8.62319C12.2802 8.62319 12.7177 9.09647 12.7177 9.6798Z" fill="#002E7A"/>
</svg>
