<svg width="46" height="46" viewBox="0 0 46 46" fill="none" xmlns="http://www.w3.org/2000/svg">
<path d="M23 0.5C10.5736 0.5 0.5 10.5736 0.5 23C0.5 35.4264 10.5736 45.5 23 45.5C35.4264 45.5 45.5 35.4264 45.5 23C45.5 10.5736 35.4264 0.5 23 0.5Z" fill="url(#paint0_linear_4641_27757)"/>
<path d="M23 0.5C10.5736 0.5 0.5 10.5736 0.5 23C0.5 35.4264 10.5736 45.5 23 45.5C35.4264 45.5 45.5 35.4264 45.5 23C45.5 10.5736 35.4264 0.5 23 0.5Z" fill="#17122B"/>
<path fill-rule="evenodd" clip-rule="evenodd" d="M30.993 23.4799C30.9935 23.467 30.9939 23.4541 30.9946 23.4413C30.9964 23.4068 30.9983 23.3724 31.0002 23.3379C31.0066 23.2259 31.0131 23.1138 31.0131 23.0001C31.0131 22.9452 31.0114 22.8906 31.0098 22.836C31.0091 22.8161 31.0086 22.7962 31.008 22.7762C31.0078 22.7695 31.0077 22.7628 31.0075 22.7561C31.0072 22.7428 31.0069 22.7294 31.0063 22.716C30.9946 22.6445 30.9508 22.584 30.8869 22.5558C30.8827 22.5539 30.8781 22.5531 30.8734 22.5522C30.8702 22.5517 30.8671 22.551 30.8639 22.5501C30.6181 22.4921 30.3703 22.4246 30.1206 22.3412L30.0129 22.3045C27.6774 21.488 25.4397 21.8656 24.4048 22.1275C24.344 22.1426 24.2874 22.1575 24.2352 22.172C24.2324 22.1721 24.2297 22.1725 24.227 22.1729C24.2238 22.1734 24.2206 22.1739 24.2173 22.1739C24.014 22.1739 23.8442 22.028 23.8055 21.8345V21.6651V19.9034V19.7341C23.8307 19.6067 23.9139 19.5018 24.0255 19.4436C24.053 19.4323 24.0813 19.4213 24.1146 19.4088C24.8087 19.1533 26.6904 18.6903 29.8626 19.5052C29.8686 19.508 29.875 19.5092 29.8813 19.5103C29.8851 19.5111 29.889 19.5118 29.8927 19.5128C29.8964 19.5138 29.9001 19.5149 29.9038 19.516C29.9179 19.5201 29.932 19.5241 29.9473 19.5241C30.0636 19.5241 30.1576 19.4292 30.1576 19.3122C30.1576 19.2978 30.154 19.2849 30.1504 19.272C30.1493 19.2679 30.1482 19.2638 30.1471 19.2596C30.1402 19.2324 30.1286 19.2084 30.1127 19.1867C28.7277 16.4199 25.887 14.5208 22.6038 14.5208C17.9597 14.5208 14.1946 18.317 14.1946 23.0001C14.1946 27.6832 17.9597 31.4794 22.6038 31.4794C25.9562 31.4794 28.8457 29.4989 30.1962 26.6372L30.2034 26.6221C30.2181 26.5916 30.2327 26.5612 30.2469 26.5303C30.2478 26.5258 30.249 26.5214 30.2501 26.5169C30.2522 26.5091 30.2542 26.5012 30.2542 26.4924C30.2542 26.4082 30.2046 26.3367 30.134 26.3025C30.1311 26.3015 30.128 26.3007 30.125 26.2997L30.1206 26.2982L30.1046 26.2929L30.0129 26.2615C27.6073 25.4203 25.3043 25.8463 24.3139 26.1077C24.3103 26.1085 24.3071 26.1094 24.3036 26.1104C24.3036 26.1104 24.3005 26.1113 24.2988 26.1117C24.2727 26.1171 24.2453 26.1202 24.2173 26.1202C24.014 26.1202 23.8442 25.9743 23.8055 25.7808V25.6114V23.8641V23.6945C23.8327 23.5583 23.9252 23.4464 24.0485 23.3915C24.0514 23.3901 24.0546 23.389 24.0579 23.3879C24.0602 23.3871 24.0625 23.3863 24.0648 23.3853C24.7226 23.1312 26.6621 22.6069 30.0129 23.4995C30.25 23.5628 30.4773 23.6165 30.7005 23.666C30.7333 23.6734 30.7661 23.6807 30.7986 23.6875C30.8923 23.6843 30.967 23.6193 30.9909 23.5315C30.9918 23.5145 30.9925 23.4972 30.993 23.4799ZM35.6981 19.7432C35.7251 19.7378 35.7528 19.735 35.7808 19.735C36.0107 19.735 36.1968 19.9201 36.2019 20.1502V20.1703V21.9611V22.0377C36.1881 22.1895 36.0967 22.3178 35.9667 22.3813C35.9274 22.3932 35.8842 22.406 35.8358 22.4198C35.4658 22.5249 34.8347 22.6739 34.0443 22.7508L33.9661 22.7576C33.8834 22.7813 33.8229 22.8522 33.8156 22.941C33.8156 22.9471 33.8156 22.953 33.8157 22.959C33.8158 22.9649 33.8159 22.9709 33.8159 22.9769C33.8159 22.9809 33.8159 22.9848 33.816 22.9887C33.8161 22.9925 33.8161 22.9963 33.8161 23.0001C33.8161 23.2575 33.805 23.5119 33.7884 23.7649C33.7883 23.7672 33.7882 23.7695 33.788 23.7718C33.7878 23.7758 33.7874 23.7796 33.7873 23.7836C33.7907 23.8918 33.8736 23.9772 33.9795 23.986L33.9825 23.9858C33.9955 23.9853 34.0091 23.9847 34.0222 23.9839C34.7339 23.9441 35.2665 23.8302 35.6266 23.7222C35.6522 23.7146 35.679 23.7067 35.7026 23.6994C35.729 23.6945 35.7558 23.6911 35.7839 23.6911C35.9938 23.6911 36.167 23.8449 36.2019 24.0464V24.1942V25.9285V25.9803C36.1923 26.1416 36.0944 26.2784 35.9557 26.3418L35.9437 26.3454C35.9139 26.3542 35.8826 26.3635 35.8478 26.3734C35.3772 26.508 34.4684 26.7177 33.3391 26.751C33.3341 26.7512 33.3291 26.7514 33.3242 26.7517C33.3195 26.7518 33.3148 26.7521 33.3102 26.7522C33.2364 26.7584 33.1751 26.8017 33.1426 26.8641C33.1366 26.8758 33.1327 26.888 33.1288 26.9007L33.1282 26.9023C31.5521 31.223 27.436 34.3059 22.6038 34.3059C16.1399 34.3059 10.9534 28.7903 11.4209 22.172C11.8147 16.5954 16.2972 12.0954 21.8293 11.7206C27.2824 11.3512 31.97 14.917 33.3814 19.8791C33.3845 19.8941 33.3873 19.9088 33.3937 19.9223C33.4254 19.9885 33.4893 20.0337 33.5658 20.0402C33.5773 20.0399 33.5885 20.0399 33.5998 20.0397C34.5169 20.0298 35.1868 19.8958 35.6157 19.7689C35.6449 19.7601 35.6715 19.7517 35.6981 19.7432Z" fill="white"/>
<defs>
<linearGradient id="paint0_linear_4641_27757" x1="1" y1="1" x2="45.002" y2="45.002" gradientUnits="userSpaceOnUse">
<stop stop-color="#742A31"/>
<stop offset="1" stop-color="#175180"/>
</linearGradient>
</defs>
</svg>
