<svg width="58" height="51" viewBox="0 0 58 51" fill="none" xmlns="http://www.w3.org/2000/svg">
<path fill-rule="evenodd" clip-rule="evenodd" d="M6.17632 51C5.08315 50.9998 4.00961 50.7022 3.0653 50.1377C2.12099 49.5731 1.33974 48.7618 0.801302 47.7865C0.262864 46.8113 -0.0134739 45.707 0.000505227 44.5865C0.0144843 43.466 0.318276 42.3693 0.880868 41.4085L23.7253 3.07341C24.2741 2.13601 25.0504 1.36026 25.9784 0.821668C26.9065 0.283077 27.9548 0 29.0213 0C30.0877 0 31.136 0.283077 32.0641 0.821668C32.9922 1.36026 33.7684 2.13601 34.3172 3.07341L57.1191 41.4085C57.6817 42.3693 57.9855 43.466 57.9995 44.5865C58.0135 45.707 57.7371 46.8113 57.1987 47.7865C56.6603 48.7618 55.879 49.5731 54.9347 50.1377C53.9904 50.7022 52.9169 50.9998 51.8237 51H6.17632ZM25.1475 16.99C25.0002 14.6948 26.7752 12.75 29.0174 12.75C31.2624 12.75 33.0385 14.6995 32.8868 16.9974L31.6515 27.2082C31.5571 28.639 30.3982 29.75 29.0003 29.75C27.6005 29.75 26.4408 28.636 26.3488 27.2031L25.1475 16.99ZM29.0213 34C26.7332 34 24.8754 35.9028 24.8754 38.25C24.8754 40.5972 26.7332 42.5 29.0213 42.5C31.3093 42.5 33.1672 40.5972 33.1672 38.25C33.1672 35.9028 31.3093 34 29.0213 34Z" fill="#FFB350"/>
</svg>
