<svg width="49" height="48" viewBox="0 0 49 48" fill="none" xmlns="http://www.w3.org/2000/svg">
<path d="M24.0146 48C37.2695 48 48.0146 37.2548 48.0146 24C48.0146 10.7452 37.2695 0 24.0146 0C10.7598 0 0.0146484 10.7452 0.0146484 24C0.0146484 37.2548 10.7598 48 24.0146 48Z" fill="#D4FF00"/>
<path fill-rule="evenodd" clip-rule="evenodd" d="M34.701 30.5074L34.4996 30.6923C30.1196 34.7116 23.0616 32.4718 21.7619 26.6499L21.38 24.9388C21.3146 24.6465 21.282 24.5001 21.2632 24.4439C20.9184 23.4156 19.4741 23.4156 19.1293 24.4439C19.1105 24.5001 19.0778 24.6464 19.0125 24.9388L18.6306 26.6499C17.3309 32.4717 10.2729 34.7116 5.89291 30.6923L5.69148 30.5074C3.8125 28.7831 2.7417 26.3416 2.7417 23.7818C2.7417 21.4923 4.58489 19.6364 6.85857 19.6364H25.1053H44.1962C44.469 19.6364 44.7417 19.9091 44.7417 20.1818C44.7417 22.0323 43.2294 23.4545 41.469 23.4545H37.9657C37.789 23.4545 37.6508 23.6051 37.6508 23.7818C37.6508 26.3416 36.58 28.7831 34.701 30.5074Z" fill="black"/>
</svg>
