<svg width="44" height="44" viewBox="0 0 44 44" fill="none" xmlns="http://www.w3.org/2000/svg">
<g clip-path="url(#clip0_5719_24871)">
<path d="M44 0H0V44H44V0Z" fill="#001716"/>
<path d="M34.082 23.8051C34.0648 23.3754 34.0305 22.9457 33.9617 22.5332C33.893 22.1207 33.807 21.7254 33.6953 21.3301L29.4758 22.473C29.5445 22.7051 29.5961 22.9457 29.6391 23.1863C29.682 23.4441 29.7078 23.702 29.7164 23.9598C29.7164 24.0371 29.725 24.1145 29.725 24.1918C29.725 24.3637 29.7164 24.527 29.6992 24.6902C29.682 24.948 29.6477 25.2145 29.5875 25.4637C29.5359 25.7043 29.4758 25.9363 29.3984 26.1684C29.3125 26.4176 29.218 26.6582 29.1063 26.8902C29.0031 27.1137 28.8828 27.3199 28.7539 27.5262L32.5094 29.7691C32.7242 29.4168 32.9219 29.0559 33.0938 28.6863C33.2742 28.2996 33.4289 27.9043 33.5664 27.4918C33.6953 27.1051 33.7984 26.7012 33.8844 26.2973C33.9703 25.8848 34.0219 25.4551 34.0562 25.0254C34.0734 24.7504 34.0906 24.4754 34.0906 24.1918C34.0906 24.0629 34.082 23.934 34.082 23.8051Z" fill="#FFA7AB"/>
<path d="M28.7631 27.5264C28.6256 27.7412 28.4709 27.9561 28.3076 28.1537C28.1529 28.3428 27.9897 28.5146 27.8178 28.6865C27.6373 28.867 27.4396 29.0303 27.2334 29.185C27.0443 29.3311 26.8467 29.46 26.6404 29.5889C26.4256 29.7178 26.1936 29.8381 25.9615 29.9412C25.7467 30.0357 25.5232 30.1217 25.2998 30.1904L26.7693 34.3068C27.1561 34.1779 27.5342 34.0318 27.8951 33.86C28.2818 33.6795 28.6514 33.4818 29.0123 33.267C29.3561 33.0521 29.6912 32.8201 30.0092 32.5709C30.3443 32.3131 30.6623 32.0295 30.9631 31.7287C31.2553 31.4365 31.5217 31.1357 31.7795 30.8178C32.0459 30.4826 32.2865 30.1389 32.51 29.7779L28.7631 27.5264Z" fill="#1834DB"/>
<path d="M25.3078 30.1902C25.0672 30.2676 24.8266 30.3191 24.5773 30.3707C24.3539 30.4137 24.1219 30.4395 23.8812 30.4566C23.7352 30.4652 23.5977 30.4738 23.4516 30.4738H23.1336H22.8586C22.7125 30.4738 22.575 30.4652 22.4375 30.4566C22.1883 30.4395 21.9391 30.4051 21.6898 30.3621C21.4578 30.3191 21.2258 30.259 21.0023 30.1902C20.7617 30.1129 20.5211 30.027 20.2977 29.9238L18.3555 33.8168C18.7336 33.9973 19.1203 34.1605 19.5242 34.2895C19.9023 34.4184 20.2891 34.5215 20.693 34.6074C21.0969 34.6934 21.5094 34.7535 21.9305 34.7965C22.2398 34.8223 22.5492 34.8395 22.8586 34.8395H23.125H23.4516C23.7609 34.8395 24.0703 34.8223 24.3711 34.7965C24.775 34.7621 25.1703 34.7105 25.5656 34.6246C25.9781 34.5387 26.3906 34.427 26.7859 34.298L25.3078 30.1902Z" fill="#FF4C00"/>
<path d="M27.1906 14.2318C26.7953 14.0857 26.4 13.9654 25.9875 13.8623C25.6008 13.7678 25.2055 13.699 24.8016 13.6475C24.3891 13.5959 23.9766 13.5701 23.5555 13.5615C23.5211 13.5615 23.4867 13.5615 23.4523 13.5615H22.8594C22.6961 13.5615 22.5242 13.5701 22.3609 13.5787C21.9398 13.5959 21.5273 13.6475 21.1148 13.7162C20.7109 13.785 20.3242 13.8795 19.9375 13.9912L21.2523 18.1506C21.4758 18.0904 21.7078 18.0475 21.9398 18.0131C22.1805 17.9787 22.4383 17.9529 22.6875 17.9529C22.7477 17.9529 22.7992 17.9443 22.8594 17.9443H23.3922H23.4609C23.693 17.9443 23.9164 17.9615 24.1398 17.9787C24.3719 18.0045 24.6039 18.0475 24.8359 18.099C25.0852 18.1506 25.3258 18.2279 25.5578 18.3053C25.7812 18.3826 26.0047 18.4771 26.2109 18.5803L28.3078 14.7389C27.9383 14.5412 27.5687 14.3693 27.1906 14.2318Z" fill="#FDA0FD"/>
<path d="M19.6531 29.5889C19.4297 29.46 19.2234 29.3139 19.0172 29.1592C18.8281 29.0131 18.6477 28.8584 18.4758 28.6865C18.2867 28.5061 18.1148 28.317 17.9516 28.1107C17.7969 27.9217 17.6594 27.724 17.5305 27.5178C17.393 27.3029 17.2727 27.0709 17.1609 26.8389L13.1992 28.6178C13.3797 29.0045 13.5773 29.3826 13.8008 29.7436C14.0156 30.0959 14.2477 30.4225 14.5055 30.749C14.7633 31.0842 15.0469 31.3936 15.3477 31.6943C15.6312 31.9779 15.9406 32.2529 16.2586 32.5022C16.3617 32.5795 16.4562 32.6568 16.5594 32.7342C16.8 32.9061 17.0406 33.0779 17.2898 33.2326C17.6336 33.4475 17.9859 33.6451 18.3555 33.817L20.2977 29.924C20.0742 29.8209 19.8594 29.7178 19.6531 29.5889Z" fill="#6CC4DF"/>
<path d="M33.2748 20.11C33.1201 19.7318 32.9396 19.3623 32.7334 19.0014C32.5271 18.6318 32.2951 18.2709 32.0459 17.9271C31.8053 17.6006 31.5475 17.2826 31.2725 16.9818C30.9889 16.6725 30.6795 16.3803 30.3615 16.1053C30.0521 15.8389 29.7342 15.5896 29.3904 15.3662C29.0381 15.1342 28.6771 14.9193 28.299 14.7217L26.2021 18.5631C26.4342 18.6748 26.649 18.8037 26.8639 18.9412C27.0615 19.0701 27.2592 19.2162 27.4396 19.3623C27.6373 19.5256 27.8264 19.7061 27.9982 19.8865C28.1615 20.0584 28.3248 20.2475 28.4623 20.4365C28.617 20.6428 28.7545 20.8576 28.8834 21.0811C29.0037 21.2873 29.1154 21.5107 29.21 21.7342C29.3131 21.9662 29.399 22.2154 29.4678 22.4646L33.6873 21.3131C33.5756 20.9092 33.4381 20.5053 33.2748 20.11Z" fill="#00B439"/>
<path d="M16.8949 26.1686C16.8176 25.9279 16.7488 25.6787 16.6973 25.4209C16.6543 25.1803 16.6199 24.9396 16.5941 24.699L16.5855 23.4272L12.2285 22.9287C12.2285 23.8998 12.2285 24.5014 12.2285 24.5271C12.2371 24.6904 12.2457 24.8537 12.2543 25.017C12.2887 25.4295 12.3402 25.8334 12.4176 26.2373C12.5035 26.6584 12.6066 27.0709 12.7355 27.4748C12.8645 27.8701 13.0105 28.2482 13.1824 28.6178L17.1527 26.8475C17.0668 26.6326 16.9723 26.4006 16.8949 26.1686Z" fill="#EEB900"/>
<path d="M16.5514 6.96973H12.2373C12.2373 6.96973 12.2373 18.5971 12.2373 22.9283L16.5943 23.4268L16.5514 6.96973Z" fill="white"/>
<path d="M16.5943 23.4272L12.2373 22.9287L16.5943 23.4272Z" fill="white"/>
</g>
<defs>
<clipPath id="clip0_5719_24871">
<rect width="44" height="44" rx="22" fill="white"/>
</clipPath>
</defs>
</svg>
