<svg width="44" height="45" viewBox="0 0 44 45" fill="none" xmlns="http://www.w3.org/2000/svg">
<path d="M22 44.002C34.1503 44.002 44 34.1518 44 22.001C44 9.85019 34.1503 0 22 0C9.84974 0 0 9.85019 0 22.001C0 34.1518 9.84974 44.002 22 44.002Z" fill="#052B65"/>
<path fill-rule="evenodd" clip-rule="evenodd" d="M28.2886 11.0835C29.8096 10.804 35.4991 9.7592 35.7529 11.5398C36.0124 13.3632 33.6677 15.8777 31.2146 17.008C31.0853 17.0675 30.9708 17.1492 30.8557 17.2314C30.7602 17.2999 30.6647 17.3683 30.5601 17.424C30.1742 17.6307 29.9441 18.1465 30.0007 18.6118V25.1267C28.0661 23.7882 25.2228 22.9554 22.0002 22.9554C18.7776 22.9554 15.9343 23.7882 13.9998 25.1267V18.6118C14.0563 18.1465 13.8258 17.6307 13.4398 17.424C13.3376 17.3664 13.2391 17.3022 13.1452 17.2319C13.0301 17.1497 12.9151 17.0675 12.7853 17.008C10.3323 15.8777 7.98802 13.3632 8.24707 11.5398C8.50088 9.7592 14.1918 10.804 15.7118 11.0835C15.8326 11.1053 15.9272 11.1229 15.9908 11.1334C16.0346 11.141 16.0759 11.1039 16.0669 11.0607C15.9794 10.63 15.9162 9.46544 16.7551 9.21352C17.2913 9.0519 17.6449 9.34946 17.8545 9.64987C17.9487 9.78487 18.23 10.3672 18.4045 10.7717C18.4986 10.9898 18.7182 11.3088 18.9587 11.3031C19.9437 10.9976 20.9689 10.841 22.0002 10.8387C23.0155 10.8387 24.0307 10.9936 25.0413 11.3031C25.2822 11.3088 25.5014 10.9894 25.5959 10.7712C25.7704 10.3672 26.0518 9.78487 26.1454 9.64987C26.3555 9.34946 26.7091 9.0519 27.2453 9.21352C28.0837 9.46544 28.0205 10.63 27.9331 11.0607C27.9245 11.1034 27.9654 11.141 28.0091 11.1334C28.0728 11.1229 28.1679 11.1053 28.2886 11.083V11.0835ZM20.792 18.2952C20.8205 18.1303 20.5505 17.7125 19.7092 17.1449C19.1152 16.7502 18.4645 16.4484 17.7794 16.2499C17.6192 16.2 17.452 16.1759 17.2842 16.1786C16.9785 16.19 16.6853 16.2927 16.4286 16.4742C16.0859 16.7081 15.8487 17.0209 15.777 17.4249C15.7033 17.8289 15.8178 18.203 16.0588 18.5386C16.2366 18.7953 16.4761 18.9907 16.7594 19.1043C16.9149 19.166 17.0826 19.1936 17.2499 19.2041C17.9624 19.2473 18.6821 19.1836 19.3746 19.0125C20.3623 18.762 20.7611 18.4597 20.792 18.2952ZM27.2405 19.1043C27.525 18.9891 27.7689 18.7923 27.9416 18.5386C28.1821 18.203 28.2967 17.8294 28.2235 17.4254C28.1522 17.0213 27.9145 16.7081 27.5713 16.4742C27.3213 16.294 27.0238 16.1912 26.7158 16.1786C26.548 16.1759 26.3808 16.2 26.2205 16.2499C25.5355 16.4482 24.8848 16.7499 24.2907 17.1445C23.4494 17.7125 23.1804 18.1303 23.208 18.2952C23.2394 18.4597 23.6377 18.762 24.6258 19.0125C25.3179 19.1836 26.0375 19.2473 26.7505 19.2041C26.9173 19.1936 27.0856 19.166 27.2405 19.1043Z" fill="white"/>
<path fill-rule="evenodd" clip-rule="evenodd" d="M12.4691 29.4374C12.4691 26.4561 16.736 24.0391 22.0001 24.0391C27.2637 24.0391 31.531 26.4561 31.531 29.4374C31.531 32.4187 27.2641 34.8358 22.0001 34.8358C16.736 34.8358 12.4691 32.4192 12.4691 29.4374ZM15.7678 29.1014C15.9137 29.9893 16.6732 30.3805 17.4884 29.9893C17.8766 29.8117 18.209 29.5315 18.4496 29.1788C18.6902 28.8261 18.8298 28.4144 18.8535 27.9881C18.8497 27.5304 18.6035 27.7063 18.2993 27.923C17.8929 28.213 17.3829 28.5771 17.2108 27.5993C16.9114 25.89 15.6081 28.1507 15.7678 29.1014ZM26.5108 29.9893C27.3264 30.3805 28.086 29.9893 28.2314 29.1014C28.3911 28.1507 27.0883 25.89 26.7884 27.5993C26.6172 28.5771 26.1068 28.213 25.6999 27.9225C25.3962 27.7058 25.15 27.5304 25.1466 27.9881C25.1701 28.4143 25.3095 28.826 25.55 29.1787C25.7904 29.5314 26.1226 29.8117 26.5108 29.9893Z" fill="white"/>
</svg>
