<svg width="16" height="16" viewBox="0 0 16 16" fill="none" xmlns="http://www.w3.org/2000/svg">
<path d="M7.48665 4.86043V2.18775C7.48665 1.90357 7.71332 1.66675 7.99999 1.66675C8.25665 1.66675 8.47411 1.86574 8.50857 2.1178L8.51332 2.18775V4.86043L11.6999 4.86063C13.2866 4.86063 14.5901 6.15994 14.6633 7.78035L14.6666 7.92414V11.2837C14.6666 12.9154 13.4084 14.2549 11.8453 14.3301L11.7066 14.3334H4.29325C2.70659 14.3334 1.40931 13.0406 1.33648 11.4142L1.33325 11.2699L1.33325 7.91726C1.33325 6.28548 2.58519 4.93956 4.14792 4.86398L4.28659 4.86063H7.48659V9.12889L6.41992 8.02741C6.21992 7.82088 5.89325 7.82088 5.69325 8.02741C5.59325 8.13067 5.54659 8.26836 5.54659 8.40604C5.54659 8.51068 5.57645 8.61973 5.6396 8.71203L5.69325 8.77779L7.63325 10.788C7.72659 10.8913 7.85992 10.9463 7.99992 10.9463C8.11103 10.9463 8.22214 10.9081 8.3101 10.8356L8.35992 10.788L10.2999 8.77779C10.4999 8.57126 10.4999 8.23393 10.2999 8.02741C10.1181 7.83965 9.8316 7.82258 9.63075 7.9762L9.57325 8.02741L8.51325 9.12889V4.86063L7.48665 4.86043Z" fill="#7A8AA0"/>
</svg>
