<svg width="24" height="24" viewBox="0 0 24 24" fill="none" xmlns="http://www.w3.org/2000/svg">
<path fill-rule="evenodd" clip-rule="evenodd" d="M6.49084 18C6.22697 18 5.96784 17.9299 5.7399 17.7971C5.51196 17.6643 5.32339 17.4734 5.19342 17.2439C5.06345 17.0144 4.99675 16.7546 5.00012 16.4909C5.0035 16.2273 5.07683 15.9693 5.21262 15.7432L10.7268 6.72315C10.8593 6.50259 11.0466 6.32006 11.2707 6.19333C11.4947 6.06661 11.7477 6 12.0051 6C12.2626 6 12.5156 6.06661 12.7396 6.19333C12.9636 6.32006 13.151 6.50259 13.2835 6.72315L18.7874 15.7432C18.9232 15.9693 18.9965 16.2273 18.9999 16.4909C19.0033 16.7546 18.9366 17.0144 18.8066 17.2439C18.6766 17.4734 18.488 17.6643 18.2601 17.7971C18.0322 17.9299 17.773 18 17.5092 18H6.49084ZM11.0701 9.99764C11.0345 9.45759 11.463 9 12.0042 9C12.5461 9 12.9748 9.45871 12.9382 9.99938L12.64 12.4019C12.6172 12.7386 12.3375 13 12.0001 13C11.6622 13 11.3823 12.7379 11.3601 12.4007L11.0701 9.99764ZM12.0051 14C11.4528 14 11.0044 14.4477 11.0044 15C11.0044 15.5523 11.4528 16 12.0051 16C12.5574 16 13.0059 15.5523 13.0059 15C13.0059 14.4477 12.5574 14 12.0051 14Z" fill="#E14D4D"/>
</svg>
