<svg width="12" height="12" viewBox="0 0 12 12" fill="none" xmlns="http://www.w3.org/2000/svg">
<path fill-rule="evenodd" clip-rule="evenodd" d="M2.33333 1.75C2.01117 1.75 1.75 2.01117 1.75 2.33333V9.66667C1.75 9.98883 2.01117 10.25 2.33333 10.25H9.66667C9.98883 10.25 10.25 9.98883 10.25 9.66667V7.66667C10.25 7.25245 10.5858 6.91667 11 6.91667C11.4142 6.91667 11.75 7.25245 11.75 7.66667V9.66667C11.75 10.8173 10.8173 11.75 9.66667 11.75H2.33333C1.18274 11.75 0.25 10.8173 0.25 9.66667V2.33333C0.25 1.18274 1.18274 0.25 2.33333 0.25H4.33333C4.74755 0.25 5.08333 0.585786 5.08333 1C5.08333 1.41421 4.74755 1.75 4.33333 1.75H2.33333ZM8 1.75C7.58579 1.75 7.25 1.41421 7.25 1C7.25 0.585786 7.58579 0.25 8 0.25H10.9993H11C11.4142 0.25 11.75 0.585786 11.75 1V4C11.75 4.41421 11.4142 4.75 11 4.75C10.5858 4.75 10.25 4.41421 10.25 4V2.81001L6.19635 6.86366C5.90345 7.15656 5.42858 7.15656 5.13569 6.86366C4.84279 6.57077 4.84279 6.0959 5.13569 5.803L9.18869 1.75H8Z" fill="#00A3FF"/>
</svg>
