<svg width="44" height="44" viewBox="0 0 44 44" fill="none" xmlns="http://www.w3.org/2000/svg">
<path d="M22.001 44.002C34.1518 44.002 44.002 34.1518 44.002 22.001C44.002 9.85019 34.1518 0 22.001 0C9.85019 0 0 9.85019 0 22.001C0 34.1518 9.85019 44.002 22.001 44.002Z" fill="#0B071E"/>
<path d="M23.0546 21.5095L13 31.5632L15.513 34.0762C16.7695 35.3327 19.2833 35.3327 20.5398 34.0762L30.5944 24.0225C31.8509 22.766 31.8509 20.2531 30.5944 18.9966L25.5675 13.9697L20.5407 18.9966L23.0546 21.5095Z" fill="#BE9FEA"/>
<path d="M13.0009 11.4553L15.5148 8.94237C16.7721 7.68588 19.2851 7.68588 20.5416 8.94237L23.0555 11.4553L18.0286 16.4822L13.0009 11.4553Z" fill="#D15BFF"/>
</svg>
