<svg width="41" height="40" viewBox="0 0 41 40" fill="none" xmlns="http://www.w3.org/2000/svg">
<path d="M13.0006 26.0013C20.1806 26.0013 26.0012 20.1807 26.0012 13.0007C26.0012 5.82063 20.1806 6.10352e-05 13.0006 6.10352e-05C5.82056 6.10352e-05 0 5.82063 0 13.0007C0 20.1807 5.82056 26.0013 13.0006 26.0013Z" fill="#2D374B"/>
<path d="M15.034 12.2453L16.3598 9.99569L19.9332 15.5615L19.9349 16.6296L19.9232 9.27948C19.9148 9.09982 19.8194 8.93544 19.6672 8.83852L13.2336 5.13783C13.0831 5.06388 12.8922 5.06467 12.742 5.14013C12.7218 5.15033 12.7027 5.16136 12.6844 5.17341L12.662 5.18753L6.41721 8.80637L6.39295 8.81735C6.3618 8.83169 6.33032 8.8499 6.30074 8.87107C6.18236 8.956 6.1037 9.08155 6.07827 9.2224C6.07446 9.24374 6.07166 9.26548 6.07031 9.28738L6.08012 15.277L9.40864 10.118C9.8277 9.43389 10.7408 9.21354 11.5883 9.22553L12.5832 9.25181L6.72175 18.6518L7.41269 19.0496L13.3444 9.26133L15.9661 9.25181L10.0498 19.2871L12.5153 20.7052L12.8098 20.8746C12.9344 20.9253 13.0813 20.9278 13.207 20.8825L19.731 17.1017L18.4837 17.8245L15.034 12.2453ZM15.5398 19.5305L13.0496 15.6222L14.5697 13.0428L17.8401 18.1974L15.5398 19.5305Z" fill="#2D374B"/>
<path d="M13.0508 15.6222L15.541 19.5305L17.8413 18.1975L14.5709 13.0428L13.0508 15.6222Z" fill="#28A0F0"/>
<path d="M19.9361 16.6296L19.9344 15.5616L16.361 9.99573L15.0352 12.2453L18.4849 17.8245L19.7322 17.1017C19.8545 17.0024 19.9285 16.8566 19.9363 16.6992L19.9361 16.6296Z" fill="#28A0F0"/>
<path d="M4.96099 17.6369L6.72237 18.6518L12.5838 9.25183L11.589 9.22556C10.7414 9.21357 9.82837 9.43391 9.40926 10.118L6.08074 15.277L4.96094 16.9976V17.6369H4.96099Z" fill="white"/>
<path d="M15.9675 9.25183L13.3457 9.26135L7.41406 19.0497L9.48732 20.2434L10.0511 19.2872L15.9675 9.25183Z" fill="white"/>
<path d="M21.0404 9.23831C21.0185 8.69001 20.7216 8.18803 20.2565 7.89582L13.7386 4.14756C13.2786 3.91591 12.7039 3.91563 12.2432 4.14739C12.1888 4.17485 5.90465 7.8194 5.90465 7.8194C5.81771 7.86108 5.73395 7.91077 5.65512 7.96713C5.23999 8.26467 4.98693 8.72698 4.96094 9.23495V16.9976L6.08073 15.2771L6.07093 9.28744C6.07228 9.26554 6.07502 9.24402 6.07889 9.22273C6.10415 9.08178 6.18287 8.95606 6.30136 8.87113C6.33094 8.84995 12.7223 5.15038 12.7427 5.14019C12.8929 5.06472 13.0838 5.06394 13.2342 5.13789L19.6678 8.83858C19.82 8.9355 19.9154 9.09987 19.9239 9.27954V16.6992C19.9161 16.8566 19.8539 17.0024 19.7315 17.1018L18.4842 17.8245L17.8407 18.1975L15.5404 19.5306L13.2075 20.8825C13.0819 20.9279 12.935 20.9254 12.8104 20.8747L10.0503 19.2872L9.48652 20.2434L11.9669 21.6715C12.0489 21.7181 12.122 21.7595 12.182 21.7932C12.2749 21.8453 12.3381 21.8801 12.3605 21.8909C12.5368 21.9765 12.7904 22.0263 13.019 22.0263C13.2286 22.0263 13.4329 21.9879 13.6263 21.9121L20.402 17.9881C20.7909 17.6868 21.0197 17.2324 21.0404 16.7401V9.23831V9.23831Z" fill="#96BEDC"/>
<path d="M27.002 40C34.1817 40 40.002 34.1797 40.002 27C40.002 19.8203 34.1817 14 27.002 14C19.8223 14 14.002 19.8203 14.002 27C14.002 34.1797 19.8223 40 27.002 40Z" fill="#FF0420"/>
<path d="M23.2106 30.4551C22.4365 30.4551 21.8023 30.2729 21.308 29.9087C20.8201 29.5379 20.5762 29.011 20.5762 28.328C20.5762 28.1849 20.5924 28.0093 20.6249 27.8011C20.7096 27.3328 20.8299 26.7701 20.986 26.1131C21.4283 24.3243 22.5699 23.4299 24.4108 23.4299C24.9116 23.4299 25.3604 23.5145 25.7572 23.6836C26.1541 23.8462 26.4663 24.0934 26.6939 24.4252C26.9216 24.7504 27.0355 25.1407 27.0355 25.596C27.0355 25.7326 27.0192 25.905 26.9866 26.1131C26.8891 26.692 26.772 27.2547 26.6354 27.8011C26.4077 28.6923 26.0142 29.359 25.4548 29.8013C24.8953 30.2371 24.1473 30.4551 23.2106 30.4551ZM23.3472 29.05C23.7115 29.05 24.0204 28.9427 24.2742 28.7281C24.5344 28.5134 24.7197 28.1849 24.8303 27.7426C24.9799 27.1311 25.0938 26.5977 25.1718 26.1424C25.1978 26.0058 25.2108 25.866 25.2108 25.7228C25.2108 25.1309 24.9018 24.8349 24.2839 24.8349C23.9196 24.8349 23.6074 24.9422 23.3472 25.1569C23.0935 25.3716 22.9114 25.7001 22.8008 26.1424C22.6837 26.5782 22.5666 27.1116 22.4496 27.7426C22.4235 27.8727 22.4105 28.0093 22.4105 28.1524C22.4105 28.7508 22.7228 29.05 23.3472 29.05Z" fill="white"/>
<path d="M27.4859 30.3577C27.4143 30.3577 27.359 30.3349 27.32 30.2894C27.2875 30.2373 27.2777 30.1788 27.2907 30.1138L28.6372 23.7716C28.6502 23.7 28.686 23.6415 28.7445 23.5959C28.8031 23.5504 28.8649 23.5276 28.9299 23.5276H31.5254C32.2474 23.5276 32.8263 23.6773 33.2621 23.9765C33.7045 24.2757 33.9256 24.7083 33.9256 25.2742C33.9256 25.4368 33.9061 25.6059 33.8671 25.7815C33.7045 26.5296 33.376 27.0825 32.8816 27.4403C32.3938 27.798 31.7237 27.9769 30.8716 27.9769H29.5544L29.1056 30.1138C29.0925 30.1853 29.0568 30.2438 28.9983 30.2894C28.9397 30.3349 28.8779 30.3577 28.8129 30.3577H27.4859ZM30.9399 26.6304C31.2131 26.6304 31.4505 26.5556 31.6522 26.406C31.8603 26.2564 31.9969 26.0417 32.062 25.762C32.0815 25.6514 32.0913 25.5539 32.0913 25.4693C32.0913 25.2807 32.036 25.1376 31.9254 25.04C31.8148 24.9359 31.6262 24.8839 31.3595 24.8839H30.1886L29.8178 26.6304H30.9399Z" fill="white"/>
</svg>
