<svg width="214" height="32" viewBox="0 0 214 32" fill="none" xmlns="http://www.w3.org/2000/svg">
<g clip-path="url(#clip0_21758_50518)">
<path d="M22.8247 9.48604V9.47039C22.7152 9.18873 22.324 9.18873 22.2145 9.47039L20.3211 14.6655C20.2741 14.8063 20.2741 14.9628 20.3211 15.1193L25.3722 28.9692C24.9007 29.3104 24.4099 29.6267 23.9016 29.9159L19.6326 18.2019C19.523 17.9202 19.1318 17.9202 19.0223 18.2019L17.1289 23.397C17.082 23.5378 17.082 23.6943 17.1289 23.8508L19.9211 31.516C18.6665 31.8321 17.353 32 16.0001 32C14.7364 32 13.5069 31.8535 12.3277 31.5764L21.5886 6.16869C21.6668 5.94962 21.5103 5.73055 21.2912 5.73055V5.7462H17.6453C17.3793 5.7462 17.1289 5.91833 17.035 6.16869L8.3234 30.0415C7.81219 29.7616 7.31803 29.4544 6.8428 29.122L15.2199 6.16869C15.2981 5.94962 15.1416 5.73055 14.9226 5.73055L14.9069 5.7462H11.261C10.995 5.7462 10.7446 5.91833 10.6507 6.16869L3.44597 25.9203C1.28813 23.1935 0 19.7473 0 16.0001C0 7.16343 7.16343 0 16.0001 0C24.8367 0 32 7.16343 32 16.0001C32 19.6398 30.7848 22.9954 28.7377 25.6837L22.8247 9.48604Z" fill="#213147"/>
<path d="M23.9017 29.9155C22.668 30.6176 21.3318 31.1602 19.9212 31.5156L17.129 23.8504C17.082 23.6939 17.082 23.5374 17.129 23.3966L19.0223 18.2015C19.1319 17.9198 19.5231 17.9198 19.6326 18.2015L23.9017 29.9155Z" fill="#12AAFF"/>
<path d="M28.738 25.6844C27.784 26.9374 26.6492 28.0456 25.3725 28.9698L20.3213 15.1199C20.2744 14.9634 20.2744 14.8069 20.3213 14.6661L22.2147 9.47101C22.3243 9.18935 22.7155 9.18935 22.825 9.47101V9.48666L28.738 25.6844Z" fill="#12AAFF"/>
<path d="M15.22 6.16861L6.84288 29.122C5.56038 28.2253 4.41527 27.1455 3.44604 25.9203L10.6508 6.16861C10.7447 5.91824 10.995 5.74612 11.261 5.74612H14.907L14.9226 5.73047C15.1417 5.73047 15.2982 5.94954 15.22 6.16861Z" fill="white"/>
<path d="M21.5884 6.16861L12.3275 31.5763C10.9109 31.2438 9.56693 30.7229 8.32324 30.0414L17.0349 6.16861C17.1288 5.91824 17.3791 5.74612 17.6451 5.74612H21.2911V5.73047C21.5102 5.73047 21.6666 5.94954 21.5884 6.16861Z" fill="white"/>
</g>
<rect x="0.5" y="0.5" width="31" height="31" rx="15.5" stroke="#A7EBFF"/>
<g clip-path="url(#clip1_21758_50518)">
<path d="M42 32C50.8366 32 58 24.8366 58 16C58 7.16345 50.8366 0 42 0C33.1634 0 26 7.16345 26 16C26 24.8366 33.1634 32 42 32Z" fill="#FF0420"/>
<path d="M37.3336 20.2519C36.3809 20.2519 35.6004 20.0276 34.992 19.5794C34.3915 19.123 34.0913 18.4745 34.0913 17.6339C34.0913 17.4578 34.1112 17.2417 34.1512 16.9854C34.2555 16.409 34.4036 15.7165 34.5957 14.9079C35.14 12.7063 36.5451 11.6055 38.8108 11.6055C39.4272 11.6055 39.9796 11.7096 40.4679 11.9177C40.9564 12.1178 41.3407 12.4221 41.6208 12.8305C41.901 13.2307 42.0412 13.7111 42.0412 14.2714C42.0412 14.4396 42.0212 14.6517 41.981 14.9079C41.861 15.6204 41.7169 16.3129 41.5488 16.9854C41.2685 18.0823 40.7842 18.9028 40.0957 19.4472C39.4071 19.9836 38.4865 20.2519 37.3336 20.2519ZM37.5018 18.5225C37.9501 18.5225 38.3303 18.3905 38.6427 18.1263C38.9629 17.8621 39.191 17.4578 39.3271 16.9134C39.5112 16.1608 39.6514 15.5043 39.7474 14.9439C39.7794 14.7758 39.7954 14.6037 39.7954 14.4275C39.7954 13.699 39.4151 13.3347 38.6546 13.3347C38.2063 13.3347 37.822 13.4668 37.5018 13.731C37.1895 13.9953 36.9654 14.3996 36.8293 14.9439C36.6852 15.4803 36.541 16.1368 36.397 16.9134C36.3649 17.0735 36.3489 17.2417 36.3489 17.4178C36.3489 18.1543 36.7333 18.5225 37.5018 18.5225Z" fill="white"/>
<path d="M42.5955 20.1328C42.5074 20.1328 42.4393 20.1048 42.3913 20.0488C42.3513 19.9847 42.3392 19.9127 42.3552 19.8327L44.0125 12.0269C44.0285 11.9387 44.0725 11.8667 44.1445 11.8106C44.2166 11.7546 44.2927 11.7266 44.3727 11.7266H47.5672C48.4558 11.7266 49.1683 11.9108 49.7047 12.2791C50.2491 12.6473 50.5213 13.1797 50.5213 13.8762C50.5213 14.0763 50.4973 14.2845 50.4493 14.5006C50.2491 15.4213 49.8448 16.1018 49.2363 16.5422C48.636 16.9824 47.8112 17.2026 46.7625 17.2026H45.1413L44.589 19.8327C44.5728 19.9207 44.5289 19.9927 44.4569 20.0488C44.3848 20.1048 44.3087 20.1328 44.2287 20.1328H42.5955ZM46.8466 15.5454C47.1828 15.5454 47.475 15.4533 47.7232 15.2692C47.9794 15.0851 48.1475 14.8208 48.2276 14.4766C48.2516 14.3405 48.2637 14.2205 48.2637 14.1163C48.2637 13.8842 48.1956 13.7081 48.0595 13.588C47.9234 13.4599 47.6912 13.3959 47.363 13.3959H45.9219L45.4655 15.5454H46.8466Z" fill="white"/>
</g>
<rect x="26.5" y="0.5" width="31" height="31" rx="15.5" stroke="#A7EBFF"/>
<g clip-path="url(#clip2_21758_50518)">
<rect x="52" width="32" height="32" rx="16" fill="white"/>
<path d="M72.617 13.0283C72.284 12.8403 71.8512 12.8403 71.485 13.0283L68.8881 14.4698L67.1236 15.41L64.5267 16.8515C64.1938 17.0395 63.7609 17.0395 63.3947 16.8515L61.3305 15.7233C60.9976 15.5353 60.7645 15.1906 60.7645 14.8145V12.5896C60.7645 12.2135 60.9643 11.8688 61.3305 11.6808L63.3614 10.584C63.6944 10.3959 64.1272 10.3959 64.4934 10.584L66.5243 11.6808C66.8572 11.8688 67.0903 12.2135 67.0903 12.5896V14.0311L68.8548 13.0596V11.6181C68.8548 11.242 68.6551 10.8973 68.2888 10.7093L64.5267 8.64102C64.1938 8.45299 63.7609 8.45299 63.3947 8.64102L59.566 10.7093C59.1998 10.8973 59 11.242 59 11.6181V15.786C59 16.162 59.1998 16.5068 59.566 16.6948L63.3947 18.7631C63.7276 18.9511 64.1605 18.9511 64.5267 18.7631L67.1236 17.3529L68.8881 16.3814L71.485 14.9712C71.8179 14.7832 72.2507 14.7832 72.617 14.9712L74.6479 16.068C74.9808 16.2561 75.2138 16.6008 75.2138 16.9768V19.2018C75.2138 19.5779 75.0141 19.9226 74.6479 20.1106L72.617 21.2388C72.284 21.4268 71.8512 21.4268 71.485 21.2388L69.4541 20.1419C69.1212 19.9539 68.8881 19.6092 68.8881 19.2331V17.7916L67.1236 18.7631V20.2046C67.1236 20.5806 67.3234 20.9254 67.6895 21.1134L71.5183 23.1817C71.8512 23.3697 72.284 23.3697 72.6503 23.1817L76.479 21.1134C76.8119 20.9254 77.045 20.5806 77.045 20.2046V16.0367C77.045 15.6606 76.8452 15.316 76.479 15.1279L72.617 13.0283Z" fill="#8347E5"/>
</g>
<rect x="52.5" y="0.5" width="31" height="31" rx="15.5" stroke="#A7EBFF"/>
<g clip-path="url(#clip3_21758_50518)">
<circle cx="94" cy="16" r="16" fill="#0052FF"/>
<path d="M93.9804 27.1476C100.148 27.1476 105.147 22.1573 105.147 16.0005C105.147 9.84381 100.148 4.85352 93.9804 4.85352C88.1296 4.85352 83.3301 9.34621 82.853 15.0633H97.6126V16.9378H82.853C83.3301 22.6549 88.1296 27.1476 93.9804 27.1476Z" fill="white"/>
</g>
<rect x="78.5" y="0.5" width="31" height="31" rx="15.5" stroke="#A7EBFF"/>
<g clip-path="url(#clip4_21758_50518)">
<circle cx="120" cy="16" r="16" fill="black"/>
<path fill-rule="evenodd" clip-rule="evenodd" d="M129 15.6948L123.729 10.4473V14.2881L118.497 18.1368H123.729V20.9423L129 15.6948Z" fill="white"/>
<path fill-rule="evenodd" clip-rule="evenodd" d="M110.428 15.6949L115.699 20.9424V17.1253L120.931 13.245H115.699V10.4395L110.428 15.6949Z" fill="white"/>
</g>
<rect x="104.5" y="0.5" width="31" height="31" rx="15.5" stroke="#A7EBFF"/>
<g clip-path="url(#clip5_21758_50518)">
<circle cx="146" cy="16" r="16" fill="black"/>
<mask id="mask0_21758_50518" style="mask-type:luminance" maskUnits="userSpaceOnUse" x="139" y="8" width="16" height="16">
<path d="M154.833 8.26172H139.333V23.606H154.833V8.26172Z" fill="white"/>
</mask>
<g mask="url(#mask0_21758_50518)">
<path d="M152.205 23.6064H139.333V10.752H142.278V21.1151H152.205V23.605V23.6064Z" fill="white"/>
<path d="M152.205 13.2415C153.656 13.2415 154.833 12.1267 154.833 10.7516C154.833 9.37647 153.656 8.26172 152.205 8.26172C150.755 8.26172 149.578 9.37647 149.578 10.7516C149.578 12.1267 150.755 13.2415 152.205 13.2415Z" fill="white"/>
</g>
</g>
<rect x="130.5" y="0.5" width="31" height="31" rx="15.5" stroke="#A7EBFF"/>
<g clip-path="url(#clip6_21758_50518)">
<path d="M188 0H156V32H188V0Z" fill="black"/>
<path d="M172 28V23.9136C171.59 23.9136 171.171 23.8778 170.762 23.8152L170.12 27.848C170.744 27.9553 171.376 28 172 28ZM173.871 27.8569C174.494 27.7586 175.109 27.6155 175.706 27.4188L174.45 23.5291C174.058 23.6542 173.648 23.7526 173.238 23.8152L173.871 27.8569ZM168.294 27.4188L169.55 23.538C169.158 23.4128 168.775 23.2519 168.401 23.0641L166.548 26.7034C167.109 26.9806 167.697 27.2221 168.294 27.4188ZM177.443 26.7034C178.004 26.4173 178.539 26.0864 179.047 25.7198L176.641 22.4203C176.312 22.6617 175.955 22.8852 175.581 23.0641L177.443 26.7034ZM164.944 25.7109L167.35 22.4113C167.02 22.1699 166.699 21.9016 166.405 21.6066L163.519 24.4948C163.964 24.9329 164.445 25.3443 164.944 25.7109ZM180.463 24.5127L180.49 24.4858C180.935 24.0477 181.345 23.5648 181.71 23.0641L178.414 20.6587C178.174 20.9896 177.898 21.3115 177.612 21.5976L177.568 21.6423L178.958 22.9568L180.463 24.5127ZM162.298 23.0551L165.595 20.6498C165.354 20.3189 165.131 19.9613 164.944 19.5946L161.31 21.4456C161.595 22.0089 161.924 22.5455 162.298 23.0551ZM182.69 21.4545C182.975 20.9001 183.216 20.31 183.412 19.7109L179.528 18.459C179.403 18.8525 179.243 19.237 179.056 19.6036L182.69 21.4545ZM160.588 19.7109L164.472 18.4501C164.347 18.0566 164.249 17.6542 164.187 17.2429L160.151 17.8778C160.249 18.4948 160.401 19.1118 160.588 19.7109ZM183.849 17.8867C183.947 17.2697 184 16.6349 184 16.0089H179.92C179.92 16.4203 179.884 16.8405 179.822 17.2519L183.849 17.8867ZM164.089 16C164.089 15.5887 164.125 15.1684 164.187 14.7571L160.151 14.1222C160.053 14.7392 160.009 15.3741 160 16H164.089ZM179.822 14.766L183.857 14.1311C183.759 13.5142 183.617 12.8972 183.421 12.2981L179.537 13.5499C179.661 13.9523 179.759 14.3547 179.822 14.766ZM164.472 13.5499C164.597 13.1565 164.757 12.772 164.944 12.4054L161.31 10.5544C161.024 11.1088 160.784 11.699 160.588 12.2981L164.472 13.5499ZM179.065 12.4143L182.708 10.5633C182.423 10 182.094 9.46349 181.719 8.9538L178.414 11.3592C178.655 11.69 178.878 12.0477 179.065 12.4143ZM165.595 11.3502C165.835 11.0194 166.111 10.6975 166.405 10.4024L166.414 10.3934L163.528 7.50522L163.519 7.51416C163.073 7.96125 162.664 8.43517 162.298 8.94486L165.595 11.3502ZM177.612 10.4203L178.486 9.53502L180.49 7.53204L180.481 7.5231C180.036 7.08495 179.563 6.67362 179.065 6.307L176.659 9.60656C176.989 9.84799 177.31 10.1162 177.595 10.4113L177.612 10.4203ZM167.359 9.58867C167.688 9.34724 168.045 9.13264 168.419 8.94486L166.566 5.30551C166.004 5.59165 165.47 5.9225 164.962 6.28912L167.359 9.58867ZM175.608 8.9538L177.47 5.31446C176.909 5.02832 176.33 4.78689 175.733 4.59016L174.468 8.47094C174.851 8.60507 175.234 8.76602 175.608 8.9538ZM169.568 8.47094C169.96 8.34575 170.37 8.24739 170.78 8.1848L170.147 4.15201C169.532 4.25037 168.909 4.39344 168.312 4.59016L169.568 8.47094ZM173.247 8.1848L173.889 4.15201C173.274 4.05365 172.641 4 172.018 4V8.08644C172.428 8.08644 172.846 8.12221 173.247 8.1848Z" fill="white"/>
<path d="M171.996 24V19.9086C171.651 19.9086 171.316 19.8641 170.981 19.7749L169.922 23.7237C170.601 23.9019 171.298 24 171.996 24ZM174.069 23.7237C174.749 23.5454 175.393 23.278 176.002 22.9214L173.955 19.3827C173.664 19.5521 173.346 19.6858 173.019 19.7749L174.069 23.7237ZM167.998 22.9214L170.045 19.3827C169.754 19.2134 169.48 18.9994 169.233 18.7588L169.198 18.7231L167.91 20.0869L166.321 21.629L166.347 21.6557C166.842 22.146 167.398 22.5738 167.998 22.9214ZM177.653 21.6557C178.147 21.1565 178.579 20.6039 178.923 19.9978L175.384 17.9476C175.217 18.2418 175.005 18.5092 174.758 18.7588L177.653 21.6557ZM165.068 19.9889L168.607 17.9476C168.439 17.6535 168.307 17.3415 168.218 17.0117L164.274 18.0635C164.45 18.732 164.724 19.3827 165.068 19.9889ZM179.726 18.0724C179.903 17.395 180 16.6997 180 16.0045H175.914C175.914 16.3432 175.87 16.6908 175.782 17.0206L179.726 18.0724ZM168.095 15.9955C168.095 15.6568 168.139 15.3092 168.227 14.9794L164.274 13.9276C164.097 14.605 164 15.3003 164 15.9955H168.095ZM175.773 14.9883L179.726 13.9365C179.55 13.2591 179.276 12.6084 178.932 12.0022L175.393 14.0435C175.552 14.3465 175.685 14.6585 175.773 14.9883ZM168.616 14.0435C168.783 13.7582 168.986 13.4819 169.233 13.2412L169.242 13.2323L167.777 11.7705L166.374 10.3175L166.347 10.3443C165.853 10.8345 165.43 11.3961 165.077 11.9933L168.616 14.0435ZM174.758 13.2412L176.205 11.7883L177.688 10.3799L177.653 10.3443C177.158 9.84513 176.602 9.42618 176.002 9.06964L173.955 12.6084C174.246 12.7777 174.511 12.9827 174.758 13.2234V13.2412ZM170.045 12.6084C170.336 12.439 170.654 12.3053 170.981 12.2162L169.939 8.26741C169.26 8.44568 168.616 8.71309 168.007 9.06964L170.045 12.6084ZM173.01 12.2251L174.069 8.27632C173.399 8.09805 172.702 8 172.004 8V12.0914C172.34 12.0914 172.684 12.1359 173.01 12.2251Z" fill="white"/>
</g>
<rect x="156.5" y="0.5" width="31" height="31" rx="15.5" stroke="#A7EBFF"/>
<g clip-path="url(#clip7_21758_50518)">
<rect x="182" width="32" height="32" rx="16" fill="#FFF8F3"/>
<path d="M204.513 18.6865V9.40213C204.501 8.62527 203.897 8 203.138 8H193.681C191.64 8.03158 190 9.74319 190 11.8401C190 12.5475 190.185 13.1538 190.469 13.6843C190.709 14.1264 191.085 14.5433 191.455 14.8528C191.56 14.9412 191.511 14.9033 191.831 15.1054C192.275 15.3833 192.781 15.5222 192.781 15.5222L192.774 21.0739C192.787 21.3392 192.811 21.5918 192.879 21.8255C193.089 22.6087 193.619 23.2087 194.34 23.4992C194.643 23.6192 194.982 23.7013 195.345 23.7077L202.898 23.7329C204.402 23.7329 205.623 22.4824 205.623 20.935C205.629 20.0192 205.185 19.1981 204.513 18.6865Z" fill="#FFEEDA"/>
<path d="M204.698 21.0046C204.667 21.9962 203.872 22.792 202.898 22.792L197.7 22.773C198.113 22.2804 198.366 21.6425 198.366 20.9477C198.366 19.8551 197.731 19.1035 197.731 19.1035H202.904C203.897 19.1035 204.704 19.9309 204.704 20.9477L204.698 21.0046Z" fill="#EBC28E"/>
<path d="M191.948 14.0691C191.35 13.4881 190.931 12.7365 190.931 11.8459V11.7512C190.98 10.2291 192.201 9.00377 193.687 8.95956H203.145C203.391 8.97219 203.589 9.14904 203.589 9.40799V17.606C203.804 17.644 203.909 17.6755 204.119 17.7513C204.285 17.8145 204.513 17.9471 204.513 17.9471V9.40799C204.501 8.63113 203.897 8.00586 203.138 8.00586H193.681C191.64 8.03744 190 9.74905 190 11.8459C190 13.0649 190.543 14.107 191.43 14.8396C191.492 14.8902 191.548 14.9534 191.708 14.9534C191.985 14.9534 192.183 14.726 192.17 14.4797C192.164 14.2712 192.078 14.1954 191.948 14.0691Z" fill="#101010"/>
<path d="M202.898 18.1429H195.481C194.982 18.1492 194.581 18.5598 194.581 19.0714V20.164C194.593 20.6693 195.013 21.0988 195.512 21.0988H196.061V20.164H195.512V19.0966C195.512 19.0966 195.648 19.0966 195.814 19.0966C196.751 19.0966 197.442 19.9871 197.442 20.9409C197.442 21.7872 196.69 22.8672 195.432 22.7788C194.316 22.703 193.712 21.6861 193.712 20.9409V11.6817C193.712 11.2649 193.379 10.9238 192.972 10.9238H192.232V11.8712H192.781V20.9472C192.75 22.7915 194.063 23.7199 195.432 23.7199L202.904 23.7451C204.409 23.7451 205.629 22.4946 205.629 20.9472C205.629 19.3998 204.402 18.1429 202.898 18.1429ZM204.698 21.004C204.668 21.9956 203.872 22.7915 202.898 22.7915L197.701 22.7725C198.114 22.2798 198.367 21.6419 198.367 20.9472C198.367 19.8545 197.731 19.1029 197.731 19.1029H202.904C203.897 19.1029 204.705 19.9303 204.705 20.9472L204.698 21.004Z" fill="#101010"/>
<path d="M200.9 12.0431H195.308V11.0957H200.9C201.153 11.0957 201.363 11.3041 201.363 11.5694C201.363 11.8283 201.159 12.0431 200.9 12.0431Z" fill="#101010"/>
<path d="M200.9 16.5002H195.308V15.5527H200.9C201.153 15.5527 201.363 15.7612 201.363 16.0265C201.363 16.2854 201.159 16.5002 200.9 16.5002Z" fill="#101010"/>
<path d="M201.887 14.2716H195.308V13.3242H201.881C202.133 13.3242 202.343 13.5326 202.343 13.7979C202.349 14.0569 202.14 14.2716 201.887 14.2716Z" fill="#101010"/>
</g>
<rect x="182.5" y="0.5" width="31" height="31" rx="15.5" stroke="#A7EBFF"/>
<defs>
<clipPath id="clip0_21758_50518">
<rect width="32" height="32" rx="16" fill="white"/>
</clipPath>
<clipPath id="clip1_21758_50518">
<rect x="26" width="32" height="32" rx="16" fill="white"/>
</clipPath>
<clipPath id="clip2_21758_50518">
<rect x="52" width="32" height="32" rx="16" fill="white"/>
</clipPath>
<clipPath id="clip3_21758_50518">
<rect x="78" width="32" height="32" rx="16" fill="white"/>
</clipPath>
<clipPath id="clip4_21758_50518">
<rect x="104" width="32" height="32" rx="16" fill="white"/>
</clipPath>
<clipPath id="clip5_21758_50518">
<rect x="130" width="32" height="32" rx="16" fill="white"/>
</clipPath>
<clipPath id="clip6_21758_50518">
<rect x="156" width="32" height="32" rx="16" fill="white"/>
</clipPath>
<clipPath id="clip7_21758_50518">
<rect x="182" width="32" height="32" rx="16" fill="white"/>
</clipPath>
</defs>
</svg>
