<svg xmlns="http://www.w3.org/2000/svg" width="44" height="120" fill="none"><g clip-path="url(#a)"><g clip-path="url(#b)"><path fill="#213147" d="M31.384 13.043v-.021a.448.448 0 0 0-.84 0l-2.602 7.143a1.028 1.028 0 0 0 0 .624l6.945 19.044c-.648.469-1.324.904-2.022 1.301l-5.87-16.106a.448.448 0 0 0-.84 0l-2.603 7.143a1.028 1.028 0 0 0 0 .624l3.84 10.54A22.044 22.044 0 0 1 22 44c-1.738 0-3.428-.201-5.05-.582L29.685 8.482a.443.443 0 0 0-.409-.602V7.9h-5.013a.91.91 0 0 0-.839.58L11.445 41.308a21.936 21.936 0 0 1-2.036-1.264L20.927 8.482a.443.443 0 0 0-.409-.602l-.021.021h-5.013a.91.91 0 0 0-.84.58l-9.906 27.16A21.905 21.905 0 0 1 0 22C0 9.85 9.85 0 22 0s22 9.85 22 22c0 5.005-1.67 9.619-4.486 13.315l-8.13-22.272Z"/><path fill="#12AAFF" d="M32.865 41.134a21.851 21.851 0 0 1-5.473 2.2l-3.84-10.54a1.03 1.03 0 0 1 0-.623l2.604-7.143a.448.448 0 0 1 .839 0l5.87 16.106ZM39.514 35.315a22.124 22.124 0 0 1-4.627 4.518l-6.945-19.044a1.028 1.028 0 0 1 0-.624l2.603-7.143a.448.448 0 0 1 .839 0v.021l8.13 22.272Z"/><path fill="#fff" d="M20.927 8.482 9.41 40.042a22.118 22.118 0 0 1-4.67-4.402l9.906-27.158a.91.91 0 0 1 .839-.581h5.013l.022-.022c.3 0 .516.302.408.603ZM29.684 8.482 16.951 43.417a21.838 21.838 0 0 1-5.506-2.11L23.423 8.482a.91.91 0 0 1 .84-.581h5.012v-.022c.302 0 .517.302.41.603Z"/><circle cx="22" cy="22" r="21" stroke="#5AB4F5" stroke-width="2"/></g><path fill="#FF0420" stroke="#5AB4F5" stroke-width="2" d="M43 60c0 11.598-9.402 21-21 21S1 71.598 1 60s9.402-21 21-21 21 9.402 21 21Z"/><path fill="#fff" d="M15.584 65.847c-1.31 0-2.383-.308-3.22-.925-.825-.627-1.238-1.52-1.238-2.675 0-.242.027-.54.082-.892.143-.792.347-1.744.611-2.856.749-3.027 2.68-4.541 5.796-4.541.848 0 1.607.143 2.279.43.671.275 1.2.693 1.585 1.254.385.55.578 1.211.578 1.982 0 .23-.028.523-.083.875a37.39 37.39 0 0 1-.594 2.856c-.386 1.509-1.052 2.637-1.998 3.385-.947.738-2.213 1.107-3.798 1.107Zm.231-2.378c.617 0 1.14-.182 1.569-.545.44-.363.754-.92.941-1.668.253-1.034.446-1.937.578-2.708a3.79 3.79 0 0 0 .066-.71c0-1.001-.523-1.502-1.569-1.502-.616 0-1.144.181-1.585.545-.43.363-.737.919-.925 1.667-.198.738-.396 1.64-.594 2.708-.044.22-.066.452-.066.694 0 1.013.528 1.519 1.585 1.519ZM22.819 65.682a.35.35 0 0 1-.281-.115.395.395 0 0 1-.05-.298l2.28-10.733a.473.473 0 0 1 .18-.297.504.504 0 0 1 .314-.115h4.393c1.222 0 2.201.253 2.939.76.748.506 1.123 1.238 1.123 2.195 0 .276-.033.562-.1.859-.274 1.266-.83 2.201-1.667 2.807-.826.605-1.96.908-3.402.908H26.32l-.76 3.616a.474.474 0 0 1-.18.298.504.504 0 0 1-.315.115H22.82Zm5.845-6.308c.462 0 .864-.126 1.205-.38.353-.252.584-.616.694-1.09.033-.186.05-.351.05-.495 0-.319-.094-.56-.281-.726-.187-.176-.507-.264-.958-.264h-1.981l-.628 2.955h1.899Z"/><circle cx="22" cy="98" r="21" fill="#0052FF" stroke="#5AB4F5" stroke-width="2"/><g clip-path="url(#c)"><path fill="#fff" d="M21.973 113.328c8.48 0 15.354-6.862 15.354-15.328 0-8.465-6.874-15.327-15.354-15.327-8.045 0-14.644 6.178-15.3 14.039h20.294v2.577H6.673c.656 7.861 7.255 14.039 15.3 14.039Z"/></g></g><defs><clipPath id="a"><path fill="#fff" d="M0 0h44v120H0z"/></clipPath><clipPath id="b"><path fill="#fff" d="M0 0h44v44H0z"/></clipPath><clipPath id="c"><path fill="#fff" d="M6.188 82.188h31.625v31.624H6.186z"/></clipPath></defs></svg>
