<svg xmlns="http://www.w3.org/2000/svg" width="162" height="33" fill="none"><g clip-path="url(#a)"><path fill="#213147" d="M22.825 10.046v-.016a.326.326 0 0 0-.61 0l-1.894 5.196a.747.747 0 0 0 0 .453l5.051 13.85c-.471.341-.962.658-1.47.947l-4.27-11.714a.326.326 0 0 0-.61 0l-1.893 5.195a.749.749 0 0 0 0 .454l2.792 7.665a16.03 16.03 0 0 1-3.92.484c-1.265 0-2.494-.146-3.673-.424l9.26-25.407a.322.322 0 0 0-.297-.438v.015h-3.646a.661.661 0 0 0-.61.423L8.323 30.602a15.958 15.958 0 0 1-1.48-.92L15.22 6.73a.322.322 0 0 0-.297-.438l-.016.015H11.26a.661.661 0 0 0-.61.423L3.446 26.48A15.93 15.93 0 0 1 0 16.56c0-8.837 7.163-16 16-16s16 7.163 16 16c0 3.64-1.215 6.995-3.262 9.684l-5.913-16.198Z"/><path fill="#12AAFF" d="M23.902 30.476a15.898 15.898 0 0 1-3.98 1.6l-2.793-7.665a.747.747 0 0 1 0-.454l1.893-5.195c.11-.282.501-.282.61 0l4.27 11.714ZM28.738 26.244a16.086 16.086 0 0 1-3.366 3.285l-5.051-13.85a.747.747 0 0 1 0-.454l1.893-5.195c.11-.281.501-.281.61 0v.016l5.913 16.198Z"/><path fill="#fff" d="M15.22 6.729 6.843 29.682a16.084 16.084 0 0 1-3.397-3.202L10.65 6.73a.661.661 0 0 1 .61-.423h3.647l.015-.015c.22 0 .376.219.298.438ZM21.588 6.729l-9.26 25.407a15.88 15.88 0 0 1-4.005-1.535L17.035 6.73a.661.661 0 0 1 .61-.423h3.646v-.015c.22 0 .376.219.297.438Z"/><circle cx="16" cy="16.56" r="15.5" stroke="#302682"/></g><path fill="#FF0420" stroke="#302682" d="M57.5 16.56c0 8.56-6.94 15.5-15.5 15.5-8.56 0-15.5-6.94-15.5-15.5C26.5 8 33.44 1.06 42 1.06c8.56 0 15.5 6.94 15.5 15.5Z"/><path fill="#fff" d="M37.334 20.813c-.953 0-1.734-.225-2.342-.673-.6-.456-.9-1.105-.9-1.945 0-.176.02-.393.06-.649.103-.576.252-1.269.444-2.077.544-2.202 1.95-3.303 4.215-3.303.616 0 1.169.104 1.657.313.488.2.873.504 1.153.912.28.4.42.88.42 1.441 0 .168-.02.38-.06.637a27.18 27.18 0 0 1-.432 2.077c-.28 1.097-.765 1.918-1.453 2.462-.689.536-1.61.805-2.762.805Zm.168-1.73c.448 0 .828-.132 1.14-.396.32-.264.549-.668.685-1.213.184-.752.324-1.409.42-1.97.032-.167.048-.34.048-.516 0-.728-.38-1.092-1.14-1.092-.449 0-.833.132-1.153.396-.313.264-.537.668-.673 1.213a26.077 26.077 0 0 0-.432 1.97c-.032.16-.048.327-.048.504 0 .736.384 1.104 1.153 1.104ZM42.595 20.693a.254.254 0 0 1-.204-.084.287.287 0 0 1-.036-.217l1.657-7.805a.344.344 0 0 1 .132-.217.366.366 0 0 1 .228-.084h3.194c.89 0 1.601.185 2.138.553.544.368.816.9.816 1.597 0 .2-.024.408-.072.624-.2.921-.604 1.602-1.212 2.042-.6.44-1.425.66-2.474.66H45.14l-.553 2.63a.344.344 0 0 1-.132.217.367.367 0 0 1-.228.084h-1.633Zm4.25-4.588c.337 0 .63-.092.877-.276.257-.184.425-.448.505-.793.024-.136.036-.256.036-.36 0-.232-.068-.408-.204-.528-.136-.128-.368-.192-.697-.192h-1.44l-.457 2.15h1.38Z"/><circle cx="68" cy="16.56" r="15.5" fill="#0052FF" stroke="#302682"/><g clip-path="url(#b)"><path fill="#fff" d="M67.983 26.253c5.363 0 9.71-4.34 9.71-9.693s-4.347-9.693-9.71-9.693c-5.088 0-9.261 3.907-9.676 8.878h12.834v1.63H58.307c.415 4.972 4.588 8.878 9.676 8.878Z"/></g><circle cx="94" cy="16.56" r="15.5" fill="#000" stroke="#302682"/><path fill="#fff" fill-rule="evenodd" d="m103 17.152-5.271-5.248v3.841l-5.232 3.849h5.232v2.805L103 17.152ZM84.428 17.152l5.271 5.247v-3.817l5.232-3.88H89.7v-2.806l-5.27 5.256Z" clip-rule="evenodd"/><g clip-path="url(#c)"><path fill="#000" d="M136 .56h-32v32h32v-32Z"/><path fill="#fff" d="M120 28.56v-4.086a8.24 8.24 0 0 1-1.238-.099l-.642 4.033c.624.107 1.256.152 1.88.152Zm1.871-.143a11.68 11.68 0 0 0 1.835-.438l-1.256-3.89a7.958 7.958 0 0 1-1.212.286l.633 4.042Zm-5.577-.438 1.256-3.88a7.967 7.967 0 0 1-1.149-.475l-1.853 3.64a13.48 13.48 0 0 0 1.746.715Zm9.149-.715a12.28 12.28 0 0 0 1.604-.984l-2.406-3.3a6.677 6.677 0 0 1-1.06.644l1.862 3.64Zm-12.499-.993 2.406-3.3a8.008 8.008 0 0 1-.945-.804l-2.886 2.888c.445.438.926.85 1.425 1.216Zm15.519-1.198.027-.027c.445-.438.855-.921 1.22-1.422l-3.296-2.405a7.96 7.96 0 0 1-.802.939l-.044.044 1.39 1.315 1.505 1.556Zm-18.165-1.458 3.297-2.405a7.924 7.924 0 0 1-.651-1.055l-3.634 1.85c.285.564.614 1.1.988 1.61Zm20.392-1.6c.285-.555.526-1.145.722-1.744l-3.884-1.252a7.577 7.577 0 0 1-.472 1.145l3.634 1.85Zm-22.102-1.744 3.884-1.26a7.85 7.85 0 0 1-.285-1.208l-4.036.635c.098.617.25 1.234.437 1.833Zm23.261-1.824a12.04 12.04 0 0 0 .151-1.878h-4.08c0 .411-.036.832-.098 1.243l4.027.635Zm-19.76-1.887c0-.411.036-.831.098-1.243l-4.036-.635A13.244 13.244 0 0 0 108 16.56h4.089Zm15.733-1.234 4.035-.635a11.915 11.915 0 0 0-.436-1.833l-3.884 1.252c.124.402.222.805.285 1.216Zm-15.35-1.216c.125-.393.285-.778.472-1.145l-3.634-1.85a11.86 11.86 0 0 0-.722 1.743l3.884 1.252Zm14.593-1.136 3.643-1.85c-.285-.564-.614-1.1-.989-1.61l-3.305 2.405c.241.331.464.689.651 1.055Zm-13.47-1.064c.24-.33.516-.652.81-.948l.009-.008-2.886-2.889-.009.01c-.446.446-.855.92-1.221 1.43l3.297 2.405Zm12.017-.93.874-.885 2.004-2.003-.009-.009c-.445-.438-.918-.85-1.416-1.216l-2.406 3.3c.33.241.651.51.936.804l.017.01Zm-10.253-.831a7.423 7.423 0 0 1 1.06-.644l-1.853-3.64c-.562.287-1.096.618-1.604.984l2.397 3.3Zm8.249-.635 1.862-3.64a12.266 12.266 0 0 0-1.737-.724l-1.265 3.881c.383.134.766.295 1.14.483Zm-6.04-.483a7.958 7.958 0 0 1 1.212-.286l-.633-4.033a11.9 11.9 0 0 0-1.835.438l1.256 3.881Zm3.679-.286.642-4.033a11.92 11.92 0 0 0-1.871-.152v4.087c.41 0 .828.035 1.229.098Z"/><path fill="#fff" d="M119.996 24.56V20.47c-.345 0-.68-.045-1.015-.134l-1.059 3.949a8.175 8.175 0 0 0 2.074.276Zm2.073-.276a7.64 7.64 0 0 0 1.933-.802l-2.047-3.54c-.291.17-.609.304-.936.393l1.05 3.949Zm-6.071-.802 2.047-3.54a4.21 4.21 0 0 1-.812-.623l-.035-.036-1.288 1.364-1.589 1.542.026.027c.495.49 1.051.918 1.651 1.265Zm9.655-1.266a7.93 7.93 0 0 0 1.27-1.658l-3.539-2.05a3.88 3.88 0 0 1-.626.81l2.895 2.898Zm-12.585-1.667 3.539-2.041a3.97 3.97 0 0 1-.389-.936l-3.944 1.052c.176.668.45 1.319.794 1.925Zm14.658-1.916a8.192 8.192 0 0 0 .274-2.069h-4.086c0 .34-.044.687-.132 1.017l3.944 1.052Zm-11.631-2.077c0-.34.044-.687.132-1.017l-3.953-1.051a8.192 8.192 0 0 0-.274 2.068h4.095Zm7.678-1.008 3.953-1.052a8.02 8.02 0 0 0-.794-1.934l-3.539 2.042c.159.303.292.615.38.944Zm-7.157-.944c.167-.286.37-.562.617-.803l.009-.009-1.465-1.461-1.403-1.453-.027.026a8.195 8.195 0 0 0-1.27 1.65l3.539 2.05Zm6.142-.803 1.447-1.453 1.483-1.408-.035-.036a8.226 8.226 0 0 0-1.651-1.274l-2.047 3.538c.291.17.556.375.803.616v.017Zm-4.713-.633c.291-.169.609-.303.936-.392l-1.042-3.949a7.654 7.654 0 0 0-1.932.803l2.038 3.538Zm2.965-.383 1.059-3.949a8.054 8.054 0 0 0-2.065-.276v4.091c.336 0 .68.045 1.006.134Z"/></g><rect width="31" height="31" x="104.5" y="1.06" stroke="#302682" rx="15.5"/><rect width="31" height="31" x="130.5" y="1.06" fill="#000" rx="15.5"/><rect width="31" height="31" x="130.5" y="1.06" stroke="#302682" rx="15.5"/><mask id="d" width="16" height="17" x="139" y="8" maskUnits="userSpaceOnUse" style="mask-type:luminance"><path fill="#fff" d="M154.833 8.822h-15.5v15.344h15.5V8.822Z"/></mask><g fill="#fff" mask="url(#d)"><path d="M152.206 24.166h-12.873V11.312h2.946v10.363h9.927v2.491ZM152.206 13.802c1.451 0 2.627-1.115 2.627-2.49 0-1.375-1.176-2.49-2.627-2.49-1.451 0-2.627 1.115-2.627 2.49 0 1.375 1.176 2.49 2.627 2.49Z"/></g><defs><clipPath id="a"><path fill="#fff" d="M0 .56h32v32H0z"/></clipPath><clipPath id="b"><path fill="#fff" d="M58 6.56h20v20H58z"/></clipPath><clipPath id="c"><rect width="32" height="32" x="104" y=".56" fill="#fff" rx="16"/></clipPath></defs></svg>
