<svg xmlns="http://www.w3.org/2000/svg" width="110" height="33" fill="none"><g clip-path="url(#a)"><path fill="#213147" d="M22.825 10.046v-.016a.326.326 0 0 0-.61 0l-1.894 5.196a.747.747 0 0 0 0 .453l5.051 13.85c-.471.341-.962.658-1.47.947l-4.27-11.714a.326.326 0 0 0-.61 0l-1.893 5.195a.749.749 0 0 0 0 .454l2.792 7.665a16.03 16.03 0 0 1-3.92.484c-1.265 0-2.494-.146-3.673-.424l9.26-25.407a.322.322 0 0 0-.297-.438v.015h-3.646a.661.661 0 0 0-.61.423L8.323 30.602a15.958 15.958 0 0 1-1.48-.92L15.22 6.73a.322.322 0 0 0-.297-.438l-.016.015H11.26a.661.661 0 0 0-.61.423L3.446 26.48A15.93 15.93 0 0 1 0 16.56c0-8.837 7.163-16 16-16s16 7.163 16 16c0 3.64-1.215 6.995-3.262 9.684l-5.913-16.198Z"/><path fill="#12AAFF" d="M23.902 30.476a15.898 15.898 0 0 1-3.98 1.6l-2.793-7.665a.747.747 0 0 1 0-.454l1.893-5.195c.11-.282.501-.282.61 0l4.27 11.714ZM28.738 26.244a16.086 16.086 0 0 1-3.366 3.285l-5.051-13.85a.747.747 0 0 1 0-.454l1.893-5.195c.11-.281.501-.281.61 0v.016l5.913 16.198Z"/><path fill="#fff" d="M15.22 6.729 6.843 29.682a16.084 16.084 0 0 1-3.397-3.202L10.65 6.73a.661.661 0 0 1 .61-.423h3.647l.015-.015c.22 0 .376.219.298.438ZM21.588 6.729l-9.26 25.407a15.88 15.88 0 0 1-4.005-1.535L17.035 6.73a.661.661 0 0 1 .61-.423h3.646v-.015c.22 0 .376.219.297.438Z"/><circle cx="16" cy="16.56" r="15.5" stroke="#302682"/></g><path fill="#FF0420" stroke="#302682" d="M57.5 16.56c0 8.56-6.94 15.5-15.5 15.5-8.56 0-15.5-6.94-15.5-15.5C26.5 8 33.44 1.06 42 1.06c8.56 0 15.5 6.94 15.5 15.5Z"/><path fill="#fff" d="M37.334 20.813c-.953 0-1.734-.225-2.342-.673-.6-.456-.9-1.105-.9-1.945 0-.176.02-.393.06-.649.103-.576.252-1.269.444-2.077.544-2.202 1.95-3.303 4.215-3.303.616 0 1.169.104 1.657.313.488.2.873.504 1.153.912.28.4.42.88.42 1.441 0 .168-.02.38-.06.637a27.18 27.18 0 0 1-.432 2.077c-.28 1.097-.765 1.918-1.453 2.462-.689.536-1.61.805-2.762.805Zm.168-1.73c.448 0 .828-.132 1.14-.396.32-.264.549-.668.685-1.213.184-.752.324-1.409.42-1.97.032-.167.048-.34.048-.516 0-.728-.38-1.092-1.14-1.092-.449 0-.833.132-1.153.396-.313.264-.537.668-.673 1.213a26.077 26.077 0 0 0-.432 1.97c-.032.16-.048.327-.048.504 0 .736.384 1.104 1.153 1.104ZM42.595 20.693a.254.254 0 0 1-.204-.084.287.287 0 0 1-.036-.217l1.657-7.805a.344.344 0 0 1 .132-.217.366.366 0 0 1 .228-.084h3.194c.89 0 1.601.185 2.138.553.544.368.816.9.816 1.597 0 .2-.024.408-.072.624-.2.921-.604 1.602-1.212 2.042-.6.44-1.425.66-2.474.66H45.14l-.553 2.63a.344.344 0 0 1-.132.217.367.367 0 0 1-.228.084h-1.633Zm4.25-4.588c.337 0 .63-.092.877-.276.257-.184.425-.448.505-.793.024-.136.036-.256.036-.36 0-.232-.068-.408-.204-.528-.136-.128-.368-.192-.697-.192h-1.44l-.457 2.15h1.38Z"/><circle cx="68" cy="16.56" r="15.5" fill="#0052FF" stroke="#302682"/><g clip-path="url(#b)"><path fill="#fff" d="M67.983 26.253c5.363 0 9.71-4.34 9.71-9.693s-4.347-9.693-9.71-9.693c-5.088 0-9.261 3.907-9.676 8.878h12.834v1.63H58.307c.415 4.972 4.588 8.878 9.676 8.878Z"/></g><circle cx="94" cy="16.56" r="15.5" fill="#000" stroke="#302682"/><path fill="#fff" fill-rule="evenodd" d="m103 17.152-5.271-5.248v3.841l-5.232 3.849h5.232v2.805L103 17.152ZM84.428 17.152l5.271 5.247v-3.817l5.232-3.88H89.7v-2.806l-5.27 5.256Z" clip-rule="evenodd"/><defs><clipPath id="a"><path fill="#fff" d="M0 .56h32v32H0z"/></clipPath><clipPath id="b"><path fill="#fff" d="M58 6.56h20v20H58z"/></clipPath></defs></svg>
