<svg width="28" height="72" viewBox="0 0 28 72" fill="none" xmlns="http://www.w3.org/2000/svg">
<g clip-path="url(#clip0_20597_747)">
<path d="M19.9716 8.30028V8.28659C19.8758 8.04014 19.5335 8.04014 19.4377 8.28659L17.7809 12.8323C17.7399 12.9555 17.7399 13.0924 17.7809 13.2294L22.2007 25.348C21.7881 25.6466 21.3586 25.9234 20.9139 26.1764L17.1785 15.9267C17.0827 15.6802 16.7404 15.6802 16.6445 15.9267L14.9878 20.4723C14.9467 20.5956 14.9467 20.7325 14.9878 20.8694L17.431 27.5765C16.3332 27.8531 15.1839 28 14.0001 28C12.8943 28 11.8185 27.8718 10.7867 27.6294L18.89 5.39761C18.9584 5.20592 18.8215 5.01424 18.6298 5.01424V5.02793H15.4396C15.2069 5.02793 14.9878 5.17854 14.9056 5.39761L7.28298 26.2863C6.83566 26.0414 6.40327 25.7726 5.98745 25.4818L13.3174 5.39761C13.3859 5.20592 13.2489 5.01424 13.0572 5.01424L13.0436 5.02793H9.85335C9.62059 5.02793 9.40152 5.17854 9.31937 5.39761L3.01522 22.6803C1.12711 20.2944 0 17.2789 0 14.0001C0 6.268 6.268 0 14.0001 0C21.7321 0 28 6.268 28 14.0001C28 17.1848 26.9367 20.121 25.1455 22.4733L19.9716 8.30028Z" fill="#213147"/>
<path d="M20.9139 26.1763C19.8345 26.7906 18.6653 27.2655 17.431 27.5764L14.9878 20.8693C14.9468 20.7324 14.9468 20.5955 14.9878 20.4722L16.6446 15.9265C16.7404 15.6801 17.0827 15.6801 17.1785 15.9265L20.9139 26.1763Z" fill="#12AAFF"/>
<path d="M25.1454 22.4733C24.3106 23.5698 23.3177 24.5394 22.2005 25.3481L17.7808 13.2294C17.7397 13.0925 17.7397 12.9556 17.7808 12.8323L19.4375 8.28665C19.5334 8.04019 19.8757 8.04019 19.9715 8.28665V8.30034L25.1454 22.4733Z" fill="#12AAFF"/>
<path d="M13.3173 5.39753L5.98737 25.4817C4.86518 24.6972 3.86321 23.7523 3.01514 22.6802L9.31928 5.39753C9.40143 5.17846 9.6205 5.02785 9.85326 5.02785H13.0435L13.0572 5.01416C13.2488 5.01416 13.3858 5.20585 13.3173 5.39753Z" fill="white"/>
<path d="M18.8902 5.39753L10.787 27.6293C9.54743 27.3383 8.37143 26.8825 7.2832 26.2863L14.9059 5.39753C14.988 5.17846 15.2071 5.02785 15.4399 5.02785H18.6301V5.01416C18.8217 5.01416 18.9587 5.20585 18.8902 5.39753Z" fill="white"/>
<circle cx="14" cy="14" r="13.5" stroke="#36459C"/>
</g>
<path d="M27.5 36C27.5 43.4558 21.4558 49.5 14 49.5C6.54416 49.5 0.5 43.4558 0.5 36C0.5 28.5442 6.54416 22.5 14 22.5C21.4558 22.5 27.5 28.5442 27.5 36Z" fill="#FF0420" stroke="#36459C"/>
<path d="M9.91712 39.7211C9.08348 39.7211 8.40049 39.5249 7.86817 39.1327C7.34274 38.7334 7.08008 38.1659 7.08008 37.4304C7.08008 37.2763 7.09752 37.0872 7.13252 36.863C7.22374 36.3586 7.35329 35.7527 7.5214 35.0451C7.99772 33.1187 9.22714 32.1555 11.2096 32.1555C11.749 32.1555 12.2323 32.2466 12.6596 32.4287C13.087 32.6038 13.4233 32.8701 13.6684 33.2274C13.9136 33.5776 14.0362 33.9979 14.0362 34.4882C14.0362 34.6353 14.0187 34.821 13.9836 35.0451C13.8786 35.6685 13.7525 36.2745 13.6054 36.863C13.3602 37.8227 12.9364 38.5407 12.334 39.017C11.7314 39.4863 10.9259 39.7211 9.91712 39.7211ZM10.0642 38.2079C10.4566 38.2079 10.7892 38.0924 11.0625 37.8613C11.3428 37.6301 11.5423 37.2763 11.6614 36.8C11.8225 36.1414 11.9452 35.567 12.0292 35.0767C12.0572 34.9296 12.0712 34.779 12.0712 34.6248C12.0712 33.9874 11.7384 33.6686 11.073 33.6686C10.6807 33.6686 10.3444 33.7841 10.0642 34.0154C9.79102 34.2466 9.59491 34.6003 9.4758 35.0767C9.34969 35.546 9.22359 36.1204 9.09759 36.8C9.06948 36.9401 9.05548 37.0872 9.05548 37.2413C9.05548 37.8857 9.3918 38.2079 10.0642 38.2079Z" fill="white"/>
<path d="M14.5204 39.616C14.4433 39.616 14.3837 39.5914 14.3417 39.5424C14.3067 39.4863 14.2962 39.4233 14.3102 39.3533L15.7603 32.5233C15.7743 32.4462 15.8128 32.3832 15.8758 32.3341C15.9389 32.2851 16.0055 32.2605 16.0755 32.2605H18.8706C19.6482 32.2605 20.2716 32.4217 20.7409 32.7439C21.2174 33.0661 21.4555 33.532 21.4555 34.1415C21.4555 34.3166 21.4345 34.4987 21.3925 34.6878C21.2174 35.4934 20.8636 36.0889 20.3312 36.4742C19.8058 36.8594 19.0842 37.0521 18.1665 37.0521H16.748L16.2647 39.3533C16.2506 39.4303 16.2121 39.4933 16.1491 39.5424C16.086 39.5914 16.0195 39.616 15.9495 39.616H14.5204ZM18.2401 35.602C18.5343 35.602 18.79 35.5214 19.0072 35.3603C19.2313 35.1992 19.3784 34.968 19.4485 34.6668C19.4695 34.5477 19.4801 34.4427 19.4801 34.3516C19.4801 34.1485 19.4205 33.9943 19.3014 33.8892C19.1823 33.7771 18.9792 33.7211 18.692 33.7211H17.431L17.0317 35.602H18.2401Z" fill="white"/>
<circle cx="14" cy="58" r="13.5" fill="#0052FF" stroke="#36459C"/>
<path d="M13.9831 67.7539C19.3795 67.7539 23.7539 63.3874 23.7539 58.0002C23.7539 52.6131 19.3795 48.2466 13.9831 48.2466C8.86356 48.2466 4.66404 52.1777 4.24658 57.1801H17.1612V58.8203H4.24658C4.66404 63.8228 8.86356 67.7539 13.9831 67.7539Z" fill="white"/>
<defs>
<clipPath id="clip0_20597_747">
<rect width="28" height="28" fill="white"/>
</clipPath>
</defs>
</svg>
