<svg width="45" height="44" viewBox="0 0 45 44" fill="none" xmlns="http://www.w3.org/2000/svg">
<path d="M0 22C0 9.84974 9.84974 0 22 0C34.1503 0 44 9.84974 44 22C44 34.1503 34.1503 44 22 44C9.84974 44 0 34.1503 0 22Z" fill="url(#paint0_linear_1293_24345)"/>
<path d="M15.7551 23.3613L16.3846 18.6205L10.9159 14.8239L15.9125 16.5156L17.0927 14.7058L21.4008 12.0305L30.9022 17.2631L31.394 25.2498L27.1646 31.1316L23.8204 31.643L25.5515 28.4759V25.4268L24.2925 23.0466L23.0139 22.2007L21.0467 24.2269V26.3711L19.5123 27.8071L17.5649 28.0431L16.6993 28.5349L15.283 28.0825L14.6928 25.958L15.7551 24.4629V23.3613Z" fill="white"/>
<path d="M24.4892 14.7844C23.4466 14.568 22.3057 14.627 22.3057 14.627C22.3057 14.627 21.9319 16.3581 19.6107 16.8105C19.6304 16.8105 22.6795 17.8531 24.4892 14.7844Z" fill="#94A6C3"/>
<path d="M25.4334 30.4823C26.6924 29.4987 27.6366 28.1414 28.0694 26.607C28.089 26.548 28.2661 26.4496 28.3841 26.3709C28.5808 26.2529 28.7775 26.1545 28.8169 25.9972C28.8956 25.5447 28.9349 25.0726 28.9349 24.6005C28.9349 24.4234 28.7579 24.2464 28.5808 24.0694C28.4431 23.9513 28.3054 23.8136 28.3054 23.7153C28.1087 21.9252 27.2825 20.2531 25.9645 19.0334L25.8268 19.1711C27.1055 20.3711 27.9317 22.0038 28.1087 23.7349C28.1284 23.8923 28.2857 24.0497 28.4431 24.2071C28.5808 24.3251 28.7382 24.5021 28.7382 24.5808C28.7382 25.0333 28.6989 25.4857 28.6202 25.9381C28.6005 26.0168 28.4234 26.0955 28.2857 26.1742C28.089 26.2726 27.912 26.3709 27.8726 26.5283C27.4005 28.2004 26.3186 29.6561 24.8826 30.6003C25.1383 30.0495 25.9448 28.2594 26.3776 27.3545L26.2989 24.4431L23.8006 22.0235L22.3843 22.2202L20.8302 24.7382C20.8302 24.7382 21.5581 25.6627 20.5352 26.7447C19.5319 27.8069 18.7451 28.043 18.7451 28.043L18.0172 27.6496C18.2336 27.3742 18.6664 26.9611 19.0008 26.6857C19.5713 26.2135 20.1417 26.1742 20.1417 25.6627C20.1614 24.6005 19.0205 24.8956 19.0205 24.8956L18.6073 25.289L18.4303 26.7447L17.5648 27.8266L17.4664 27.8069L16.05 27.4922C16.05 27.4922 16.9156 27.0398 17.0533 26.5283C17.191 26.0365 16.7779 24.4038 16.7582 24.3054C16.7779 24.3251 17.1713 24.6595 17.3484 25.2103C17.6631 24.3448 18.0762 23.5185 18.1942 23.4399C18.3123 23.3612 19.9057 22.5153 19.9057 22.5153L19.3745 23.912L19.768 23.6956L20.7122 21.3743C20.7122 21.3743 21.6368 20.9219 22.3253 20.9219C23.5646 20.9022 25.394 19.3875 24.5678 16.6729C24.8039 16.7712 28.8956 18.817 29.6037 22.83C30.1349 25.9185 28.3841 28.8102 25.4334 30.4823Z" fill="#94A6C3"/>
<path d="M16.3253 25.8596L16.4827 25.0728C16.4827 25.0728 15.8335 26.2137 15.7745 26.3711C15.7155 26.5481 15.8139 26.8629 16.0696 26.8432C16.3253 26.8235 16.6401 26.4498 16.6401 26.1744C16.6401 25.8203 16.3253 25.8596 16.3253 25.8596Z" fill="#1B314F"/>
<path d="M20.7521 15.2172C21.2046 14.686 21.0275 13.8992 21.0275 13.8992L19.7096 15.8467C19.6899 15.8467 20.1817 15.8663 20.7521 15.2172Z" fill="#1B314F"/>
<path d="M28.0108 13.3484C28.0108 13.3484 28.9944 13.3877 30.0173 13.5058C27.7157 11.696 25.5322 11.1648 23.7618 11.1648C21.3225 11.1648 19.6701 12.1681 19.5717 12.2271L20.3389 11.0075C20.3389 11.0075 17.2701 10.7124 16.1882 13.9582C15.9128 13.2697 15.6571 12.2665 15.6571 12.2665C15.6571 12.2665 14.0637 13.6631 14.8112 15.9844C12.9818 15.3156 10.3654 14.391 10.2671 14.3713C10.1294 14.3516 10.09 14.4107 10.09 14.4107C10.09 14.4107 10.0507 14.4697 10.1687 14.568C10.3851 14.7451 14.5161 17.7942 15.421 18.3843C15.2243 19.0925 15.2243 19.4269 15.421 19.7613C15.6964 20.2138 15.7161 20.4498 15.6768 20.7842C15.6374 21.1187 15.2833 24.0104 15.2046 24.3644C15.126 24.7185 14.2997 25.9775 14.3391 26.3513C14.3784 26.725 14.8899 28.3184 15.3423 28.4955C15.6768 28.6135 16.503 28.8692 17.0538 28.8692C17.2505 28.8692 17.4275 28.8299 17.5062 28.7512C17.8406 28.4561 17.939 28.3971 18.175 28.3971C18.1947 28.3971 18.2144 28.3971 18.2341 28.3971C18.3324 28.3971 18.4504 28.4168 18.5881 28.4168C18.9029 28.4168 19.316 28.3578 19.6111 28.0824C20.0438 27.6496 20.7914 27.0594 21.0274 26.784C21.3225 26.4103 21.4799 25.8988 21.4012 25.3874C21.3422 24.9152 21.5979 24.5021 21.893 24.089C22.2667 23.5972 22.9552 22.7121 22.9552 22.7121C24.3126 23.735 25.1584 25.289 25.1584 27.0201C25.1584 30.0889 22.4831 32.5675 19.1783 32.5675C18.6668 32.5675 18.175 32.5085 17.6833 32.3904C19.198 32.9216 20.4766 33.0986 21.5192 33.0986C23.7421 33.0986 24.9224 32.2921 24.9224 32.2921C24.9224 32.2921 24.5093 32.8232 23.8404 33.433C23.8601 33.433 23.8601 33.433 23.8601 33.433C27.5387 32.9216 29.3288 29.8921 29.3288 29.8921C29.3288 29.8921 29.1911 30.8757 29.0141 31.5445C33.9123 27.866 33.0861 23.2629 33.0664 23.1055C33.1057 23.1645 33.5975 23.7546 33.8533 24.0694C34.6402 15.9647 28.0108 13.3484 28.0108 13.3484ZM20.4766 26.2922C20.3979 26.3906 20.0635 26.6857 19.8274 26.9021C19.5914 27.1185 19.3357 27.3348 19.1389 27.5316C19.0603 27.6102 18.9029 27.6496 18.6668 27.6496C18.5881 27.6496 18.5095 27.6496 18.4504 27.6496C18.4111 27.6496 18.3718 27.6496 18.3324 27.6496C18.2931 27.6496 18.2734 27.6496 18.2537 27.6496C18.1947 27.6496 18.1357 27.6496 18.0767 27.6496C18.3718 27.2562 19.2373 26.3513 19.5324 26.1545C19.8865 25.9185 20.0635 25.6824 19.8471 25.2693C19.6307 24.8562 19.0603 24.9546 19.0603 24.9546C19.0603 24.9546 19.3947 24.8169 19.6897 24.8169C19.316 24.7185 18.8439 24.8169 18.6275 25.0333C18.3914 25.2497 18.4308 26.0169 18.3324 26.5087C18.2341 27.0201 17.8996 27.2758 17.3882 27.7479C17.1128 28.0037 16.9161 28.0824 16.7587 28.0824C16.4243 28.0234 16.0308 27.925 15.7554 27.8266C15.5587 27.5709 15.2637 26.725 15.185 26.3709C15.244 26.1742 15.48 25.7611 15.5981 25.5251C15.8341 25.0726 15.9718 24.8169 16.0112 24.5808C16.0899 24.2464 16.3456 22.1809 16.4439 21.3154C16.6997 21.6498 17.0538 22.2006 16.9751 22.5547C17.5456 21.7481 17.1324 20.9613 16.9357 20.6465C16.7587 20.3318 16.5226 19.7023 16.7193 19.0335C16.9161 18.3646 17.6242 16.5155 17.6242 16.5155C17.6242 16.5155 17.8603 16.9286 18.1947 16.8499C18.5291 16.7712 21.2241 12.7189 21.2241 12.7189C21.2241 12.7189 21.952 14.3123 21.1848 15.4729C20.3979 16.6335 19.6307 16.8499 19.6307 16.8499C19.6307 16.8499 20.7127 17.0466 21.7159 16.3188C22.129 17.2827 22.5225 18.286 22.5421 18.4237C22.4831 18.5614 21.6962 20.4498 21.6176 20.5679C21.5782 20.6072 21.3028 20.6859 21.1061 20.7252C20.7717 20.8236 20.575 20.8826 20.4963 20.9416C20.3586 21.0596 19.7291 22.7907 19.434 23.6366C19.0799 23.7349 18.7258 23.9317 18.4701 24.3251C18.6078 24.2267 19.0406 24.1677 19.3553 24.1284C19.6307 24.1087 20.4766 24.5612 20.693 25.407C20.693 25.4267 20.693 25.4267 20.693 25.4464C20.7323 25.7611 20.634 26.0562 20.4766 26.2922ZM18.6275 26.5283C18.8045 26.2726 18.7849 25.8398 18.8045 25.7021C18.8242 25.5644 18.8635 25.3087 19.0209 25.2693C19.1783 25.23 19.552 25.289 19.552 25.5644C19.552 25.8201 19.2766 25.8791 19.0799 26.0562C18.9422 26.1939 18.6668 26.489 18.6275 26.5283ZM26.4764 22.7711C26.6731 21.7678 26.6928 20.9023 26.6338 20.1941C27.401 21.217 27.8731 22.4563 28.0108 23.7349C28.0305 23.8923 28.1879 24.0497 28.3452 24.2071C28.4829 24.3251 28.6403 24.4825 28.6403 24.5808C28.6403 25.0333 28.601 25.4857 28.5223 25.9382C28.5026 25.9972 28.3256 26.0955 28.1879 26.1742C27.9911 26.2726 27.8141 26.3709 27.7748 26.5283C27.342 28.043 26.4174 29.3807 25.1781 30.3249C27.0076 28.4168 27.8928 25.2694 26.4764 22.7711ZM25.2371 30.502C26.5158 29.5184 27.4994 28.1414 27.9321 26.5873C27.9518 26.5283 28.1288 26.4299 28.2469 26.3513C28.4436 26.2529 28.6403 26.1349 28.6796 25.9775C28.7583 25.5251 28.7977 25.0529 28.7977 24.5808C28.7977 24.4038 28.6206 24.2268 28.4436 24.0497C28.3452 23.9317 28.1879 23.794 28.1879 23.6956C28.0305 22.2596 27.46 20.9023 26.5748 19.781C26.1814 17.4204 24.6076 16.6926 24.5683 16.6729C24.6076 16.7319 25.6306 18.2073 24.9224 19.9384C24.1945 21.6891 22.3257 21.4137 22.1684 21.4334C22.011 21.4334 21.4012 22.2202 20.634 23.6759C20.5356 23.6366 20.1225 23.5382 19.6504 23.6169C20.0045 22.6333 20.5356 21.2367 20.634 21.1187C20.6733 21.0793 20.9684 21.0006 21.1651 20.9416C21.5389 20.8433 21.7159 20.7842 21.7749 20.7056C21.8143 20.6465 22.011 20.1941 22.2077 19.722C22.3848 19.722 22.8372 19.6826 22.8765 19.663C22.9159 19.6236 23.2896 18.6597 23.2896 18.5417C23.2896 18.4433 22.5225 16.5352 22.2274 15.8073C22.3651 15.65 22.5028 15.4533 22.6405 15.2369C26.6731 15.6696 29.8206 19.0925 29.8206 23.2432C29.8206 26.43 27.9518 29.2036 25.2371 30.502Z" fill="#1B314F"/>
<path d="M30.9415 28.7512C30.6464 29.1447 30.312 29.5578 29.9186 29.9512C32.4562 25.0727 30.0366 20.6072 29.9383 20.4302C30.1153 20.6072 30.2923 20.8039 30.4497 20.981C32.3972 23.1448 32.6333 26.3907 30.9415 28.7512Z" fill="#D82122"/>
<path d="M20.0046 19.8793C20.3783 19.4465 20.1816 18.6399 19.4931 18.5022C19.6702 18.0891 19.9259 17.2629 19.9259 17.2629C19.9259 17.2629 17.9194 20.4104 17.7424 20.4694C17.5653 20.5284 17.3883 19.8399 17.3883 19.8399C17.0145 21.2759 18.0178 21.4727 18.1358 21.0202C18.6866 20.8825 19.6308 20.2924 20.0046 19.8793Z" fill="#1B314F"/>
<path d="M18.2927 20.6465L19.3157 18.8958C19.3157 18.8958 19.9058 19.1908 19.6107 19.6629C19.237 20.2137 18.2927 20.6465 18.2927 20.6465Z" fill="#FFD923"/>
<path d="M33.302 22.4761C32.4168 20.0958 31.1578 18.0697 28.3841 16.2402C25.7088 14.4698 22.8367 14.6075 22.6794 14.6271C22.6597 14.6271 22.64 14.6271 22.64 14.6271C22.7384 14.5878 22.8367 14.5681 22.9351 14.5484C23.5449 14.3517 24.3318 14.1944 25.1186 14.096C27.2038 13.8009 29.3087 14.5091 30.7447 16.0238C30.7644 16.0435 30.7644 16.0435 30.784 16.0632C32.4168 17.7943 33.2626 19.9581 33.302 22.4761Z" fill="#D82122"/>
<path d="M16.916 16.5156C14.6145 16.4369 15.3817 13.7616 15.421 13.6042C15.421 13.6239 15.5784 15.7091 16.916 16.5156Z" fill="#D82122"/>
<path d="M16.2676 17.2235C16.3856 17.3219 16.5037 17.4989 16.366 17.7547C16.2873 17.8924 16.1693 17.8727 15.9922 17.794C15.7562 17.676 14.3398 16.8498 13.0612 16.0039C14.5169 16.5154 15.9922 17.0662 16.2283 17.1842C16.2283 17.1842 16.2479 17.2039 16.2676 17.2235Z" fill="white"/>
<path d="M27.7547 12.7383C24.8237 12.1875 22.9352 12.4629 21.5779 12.9744C21.5385 12.817 21.4008 12.5023 21.2828 12.2466C20.8697 12.7383 20.4369 13.3285 20.1615 13.7023C19.414 14.2137 19.0992 14.7055 19.0992 14.7055C19.532 13.2301 20.791 12.1285 22.3254 11.8531C22.7582 11.7745 23.2303 11.7351 23.7417 11.7351C25.0991 11.7548 26.4564 12.0892 27.7547 12.7383Z" fill="#D82122"/>
<path d="M19.1781 11.696C17.4076 12.7583 17.7617 15.2959 17.7617 15.2959C16.07 12.719 19.0404 11.7551 19.1781 11.696Z" fill="#D82122"/>
<defs>
<linearGradient id="paint0_linear_1293_24345" x1="0" y1="0" x2="44.002" y2="44.002" gradientUnits="userSpaceOnUse">
<stop stop-color="#742A31"/>
<stop offset="1" stop-color="#175180"/>
</linearGradient>
</defs>
</svg>
