<svg width="24" height="24" viewBox="0 0 40 40"  xmlns="http://www.w3.org/2000/svg">
    <path d="M10.391 22.35l.969-7.293-8.413-5.841 7.686 2.603 1.816-2.785 6.628-4.115 14.616 8.05.757 12.286-6.506 9.049-5.145.786 2.663-4.872v-4.69l-1.937-3.662-1.967-1.302-3.026 3.117v3.3l-2.36 2.208-2.997.363-1.331.757-2.179-.696-.908-3.268 1.634-2.3V22.35z" fill="#fff"/>
    <path d="M23.828 9.156c-1.604-.333-3.36-.242-3.36-.242s-.574 2.663-4.145 3.359c.03 0 4.72 1.604 7.505-3.117zm1.452 24.149c1.936-1.513 3.389-3.601 4.054-5.962.03-.09.303-.242.485-.363.302-.181.605-.333.665-.575.121-.696.182-1.422.182-2.148 0-.273-.272-.545-.545-.817-.212-.182-.423-.394-.423-.545-.303-2.754-1.574-5.326-3.602-7.203l-.212.212c1.968 1.846 3.239 4.358 3.511 7.021.03.242.272.484.514.726.212.182.454.454.454.575 0 .697-.06 1.393-.181 2.088-.03.122-.303.243-.515.364-.302.151-.575.302-.635.544a11.185 11.185 0 01-4.6 6.265c.393-.848 1.634-3.601 2.3-4.994l-.121-4.478-3.844-3.723-2.178.303-2.391 3.873s1.12 1.423-.454 3.087c-1.543 1.634-2.754 1.998-2.754 1.998l-1.12-.606c.333-.423.999-1.059 1.514-1.482.877-.727 1.755-.787 1.755-1.574.03-1.634-1.725-1.18-1.725-1.18l-.636.605-.272 2.24-1.332 1.664-.151-.03-2.179-.485s1.332-.696 1.543-1.482c.212-.757-.423-3.269-.454-3.42.03.03.636.544.908 1.392.485-1.332 1.12-2.603 1.302-2.724.181-.12 2.633-1.422 2.633-1.422l-.818 2.149.606-.333 1.452-3.571s1.423-.696 2.482-.696c1.906-.03 4.72-2.36 3.45-6.537.363.151 6.657 3.299 7.747 9.472.817 4.751-1.876 9.2-6.416 11.772z" fill="#94A6C3"/>
    <path d="M18.078 9.82c.696-.816.423-2.027.423-2.027l-2.027 2.996c-.03 0 .726.03 1.604-.968zm-6.81 16.374l.242-1.21s-.999 1.755-1.09 1.997c-.09.272.06.756.454.726.394-.03.878-.605.878-1.029 0-.545-.484-.484-.484-.484z" fill="#1B314F"/>
    <path d="M29.245 6.945s1.514.06 3.087.242c-3.54-2.784-6.9-3.6-9.623-3.6-3.753 0-6.295 1.543-6.446 1.633l1.18-1.876s-4.72-.454-6.385 4.54c-.424-1.06-.817-2.603-.817-2.603S7.789 7.43 8.939 11C6.125 9.97 2.1 8.549 1.95 8.518c-.212-.03-.273.06-.273.06s-.06.091.121.243c.333.272 6.688 4.963 8.08 5.87-.302 1.09-.302 1.605 0 2.119.424.696.454 1.06.394 1.573-.06.515-.605 4.963-.726 5.508-.121.545-1.392 2.482-1.332 3.057.06.575.847 3.026 1.543 3.298.515.182 1.786.576 2.633.576.303 0 .575-.061.696-.182.515-.454.666-.545 1.03-.545h.09c.151 0 .333.03.545.03.484 0 1.12-.09 1.573-.514.666-.666 1.816-1.574 2.18-1.997a2.816 2.816 0 00.574-2.149c-.09-.726.303-1.362.757-1.997.575-.757 1.634-2.119 1.634-2.119 2.088 1.574 3.39 3.965 3.39 6.628 0 4.72-4.116 8.534-9.2 8.534a9.733 9.733 0 01-2.3-.273c2.33.818 4.297 1.09 5.9 1.09 3.42 0 5.236-1.24 5.236-1.24s-.635.816-1.664 1.754h.03c5.66-.787 8.413-5.447 8.413-5.447s-.212 1.513-.484 2.542c7.535-5.659 6.264-12.74 6.234-12.982.06.09.817.998 1.21 1.482 1.211-12.468-8.987-16.493-8.987-16.493zm-11.59 19.913c-.121.151-.636.605-.999.938-.363.333-.756.666-1.059.969-.12.12-.363.181-.726.181h-.908c.454-.605 1.785-1.997 2.24-2.3.544-.363.816-.726.483-1.362-.332-.635-1.21-.484-1.21-.484s.514-.212.968-.212c-.574-.151-1.3 0-1.634.333-.363.333-.302 1.513-.454 2.27-.151.787-.665 1.18-1.452 1.906-.424.394-.727.515-.969.515-.514-.09-1.12-.242-1.543-.393-.303-.394-.757-1.695-.878-2.24.091-.303.454-.938.636-1.301.363-.696.575-1.09.635-1.453.121-.514.515-3.692.666-5.023.394.514.938 1.361.817 1.906.878-1.24.242-2.451-.06-2.935-.273-.484-.636-1.453-.333-2.482.302-1.029 1.392-3.873 1.392-3.873s.363.635.878.514c.514-.12 4.66-6.355 4.66-6.355s1.12 2.451-.06 4.237c-1.211 1.785-2.391 2.118-2.391 2.118s1.664.303 3.207-.817c.636 1.483 1.241 3.026 1.271 3.238-.09.212-1.3 3.117-1.422 3.299-.06.06-.484.181-.787.242-.514.151-.817.242-.938.333-.212.181-1.18 2.844-1.634 4.146-.545.151-1.09.454-1.483 1.059.212-.152.878-.242 1.362-.303.424-.03 1.725.666 2.058 1.967v.06c.06.485-.09.939-.333 1.302zm-2.845.363c.273-.393.242-1.059.273-1.27.03-.213.09-.606.333-.667.242-.06.817.03.817.454 0 .394-.424.485-.727.757-.212.212-.635.666-.696.726zm12.075-5.78c.303-1.543.333-2.875.242-3.964 1.18 1.573 1.907 3.48 2.119 5.447.03.242.272.484.514.726.212.182.454.424.454.575 0 .696-.06 1.392-.182 2.088-.03.091-.302.242-.514.363-.303.152-.575.303-.636.545a11.268 11.268 0 01-3.994 5.84c2.814-2.935 4.176-7.776 1.997-11.62zm-1.907 11.893c1.968-1.513 3.48-3.631 4.146-6.022.03-.09.303-.242.485-.363.302-.152.605-.333.665-.575a12.61 12.61 0 00.182-2.149c0-.272-.272-.545-.545-.817-.151-.181-.393-.393-.393-.545a11.823 11.823 0 00-2.482-6.022c-.605-3.631-3.026-4.751-3.087-4.781.061.09 1.635 2.36.545 5.023-1.12 2.694-3.994 2.27-4.236 2.3-.243 0-1.18 1.21-2.36 3.45-.152-.06-.788-.212-1.514-.09.545-1.514 1.362-3.662 1.513-3.844.06-.06.515-.181.817-.272.575-.152.848-.242.938-.363.06-.091.363-.787.666-1.514.272 0 .968-.06 1.029-.09.06-.06.636-1.544.636-1.725 0-.152-1.18-3.087-1.635-4.207.212-.242.424-.545.636-.877 6.204.665 11.046 5.931 11.046 12.316 0 4.903-2.875 9.17-7.052 11.167z" fill="#1B314F"/>
    <path d="M16.928 16.992c.575-.666.273-1.906-.786-2.118.272-.636.665-1.907.665-1.907s-3.086 4.842-3.359 4.933c-.272.09-.545-.968-.545-.968-.575 2.209.969 2.512 1.15 1.815.848-.211 2.3-1.12 2.875-1.755z" fill="#1B314F"/>
    <path d="M14.296 18.174l1.574-2.694s.908.454.454 1.18c-.576.848-2.028 1.514-2.028 1.514z" fill="#FFD923"/>
    <path d="M33.755 30.642a17.06 17.06 0 01-1.573 1.846c3.904-7.505.181-14.375.03-14.647.272.272.545.575.787.848 2.996 3.328 3.359 8.322.756 11.953zm3.632-9.655c-1.362-3.662-3.299-6.779-7.566-9.593-4.115-2.724-8.534-2.512-8.776-2.482h-.06c.151-.06.302-.09.454-.12.938-.303 2.148-.545 3.359-.697 3.208-.454 6.446.636 8.655 2.966l.06.06c2.512 2.664 3.813 5.992 3.874 9.866zM28.85 6.006c-4.509-.847-7.414-.423-9.502.364-.06-.243-.272-.727-.454-1.12-.636.756-1.301 1.664-1.725 2.24-1.15.786-1.634 1.543-1.634 1.543.666-2.27 2.602-3.965 4.963-4.388a12.202 12.202 0 012.179-.182c2.088.03 4.176.545 6.173 1.543zm-16.672 5.812c-3.541-.121-2.361-4.237-2.3-4.479 0 .03.242 3.238 2.3 4.48zm3.479-7.414c-2.723 1.635-2.179 5.538-2.179 5.538-2.602-3.964 1.967-5.447 2.18-5.538z" fill="#D82122"/>
    <path d="M11.181 12.908c.182.151.363.423.151.817-.12.212-.302.181-.575.06-.363-.181-2.542-1.452-4.509-2.754 2.24.787 4.51 1.635 4.872 1.816l.061.06z" fill="#fff"/>
</svg>
