<svg width="24" height="22" viewBox="0 0 24 22" fill="none" xmlns="http://www.w3.org/2000/svg">
<path d="M1.17432 7.96777H11.7872V21.613L1.17432 17.8226V7.96777Z" fill="#5092F2"/>
<path d="M22.3999 7.96777H11.787V21.613L22.3999 17.8226V7.96777Z" fill="#186BDF"/>
<mask id="mask0_1426_28904" style="mask-type:alpha" maskUnits="userSpaceOnUse" x="11" y="7" width="12" height="15">
<path d="M22.3999 7.96777H11.787V21.613L22.3999 17.8226V7.96777Z" fill="#186BDF"/>
</mask>
<g mask="url(#mask0_1426_28904)">
<rect x="15.5774" y="7.96777" width="3.03226" height="14.8189" fill="#F6BD33"/>
<path opacity="0.4" d="M23.1582 5.95703L11.7872 7.47316V12.0216L23.1582 8.61026V5.95703Z" fill="black"/>
</g>
<path d="M0.416016 5.69385H23.158V8.34708H0.416016V5.69385Z" fill="#7DB2FF"/>
<path d="M23.1582 5.69385L11.7872 7.20998V11.7584L23.1582 8.34708V5.69385Z" fill="#186BDF"/>
<mask id="mask1_1426_28904" style="mask-type:alpha" maskUnits="userSpaceOnUse" x="1" y="7" width="11" height="15">
<path d="M1.17432 7.96777H11.7872V21.613L1.17432 17.8226V7.96777Z" fill="#5092F2"/>
</mask>
<g mask="url(#mask1_1426_28904)">
<rect x="4.9646" y="7.96777" width="3.03226" height="15.374" fill="#F6BD33"/>
<path opacity="0.4" d="M0.416016 5.95703L11.787 7.47316V12.0216L0.416016 8.61026V5.95703Z" fill="black"/>
</g>
<path d="M0.416016 5.69385L11.787 7.20998V11.7584L0.416016 8.34708V5.69385Z" fill="#5092F2"/>
<path d="M3.82739 12.8955C3.95374 11.3794 4.81288 7.96807 7.23869 6.45194C8.37578 5.94656 10.1193 5.39064 7.99675 7.21C5.87417 9.02936 6.10159 11.7584 6.48062 12.8955L5.34352 12.1374L3.82739 12.8955Z" fill="#FBE9B6"/>
<path d="M19.2307 12.8955C19.1044 11.3794 18.2452 7.96807 15.8194 6.45194C14.6823 5.94656 12.9388 5.39064 15.0614 7.21C17.1839 9.02936 16.9565 11.7584 16.5775 12.8955L17.7146 12.1374L19.2307 12.8955Z" fill="#FBE9B6"/>
<path d="M7.44166 2.00106L9.67634 3.72004C10.0513 4.0085 10.2711 4.45477 10.2711 4.92788C10.2711 5.76948 9.58883 6.45173 8.74723 6.45173H6.1675C5.63169 6.45173 5.10928 6.28431 4.67327 5.97288L4.55801 5.89055C3.51079 5.14254 3.23168 3.70603 3.9226 2.6203C4.68613 1.42047 6.31441 1.13394 7.44166 2.00106Z" fill="#F6BD33"/>
<path d="M15.3745 2.00106L13.1398 3.72004C12.7648 4.0085 12.5451 4.45477 12.5451 4.92788C12.5451 5.76948 13.2273 6.45173 14.0689 6.45173H16.6487C17.1845 6.45173 17.7069 6.28431 18.1429 5.97288L18.2582 5.89055C19.3054 5.14254 19.5845 3.70603 18.8936 2.6203C18.13 1.42047 16.5017 1.13394 15.3745 2.00106Z" fill="#F6BD33"/>
<rect x="9.51294" y="3.79834" width="3.79033" height="2.2742" rx="1" fill="#FBE9B6"/>
</svg>
