<svg width="16" height="16" viewBox="0 0 16 16" fill="none" xmlns="http://www.w3.org/2000/svg">
<path fill-rule="evenodd" clip-rule="evenodd" d="M5.11337 1.33325H10.8934C13.1534 1.33325 14.6667 2.91992 14.6667 5.27992V10.7273C14.6667 13.0799 13.1534 14.6666 10.8934 14.6666H5.11337C2.85337 14.6666 1.33337 13.0799 1.33337 10.7273V5.27992C1.33337 2.91992 2.85337 1.33325 5.11337 1.33325ZM7.62004 9.99325L10.7867 6.82659C11.0134 6.59992 11.0134 6.23325 10.7867 5.99992C10.56 5.77325 10.1867 5.77325 9.96004 5.99992L7.20671 8.75325L6.04004 7.58659C5.81337 7.35992 5.44004 7.35992 5.21337 7.58659C4.98671 7.81325 4.98671 8.17992 5.21337 8.41325L6.80004 9.99325C6.91337 10.1066 7.06004 10.1599 7.20671 10.1599C7.36004 10.1599 7.50671 10.1066 7.62004 9.99325Z" fill="#53BA95"/>
</svg>
