<svg width="44" height="44" viewBox="0 0 44 44" fill="none" xmlns="http://www.w3.org/2000/svg">
<g clip-path="url(#clip0_9444_28206)">
<path d="M44 0H0V44H44V0Z" fill="url(#paint0_linear_9444_28206)"/>
<path fill-rule="evenodd" clip-rule="evenodd" d="M27.6297 11.9164C30.3875 9.31031 36.5774 9.18712 33.3209 15.8178C33.3209 15.8178 33.9324 16.4964 34.3171 17.0497C34.4197 17.2759 34.2792 17.4808 34.1273 17.704C33.9519 17.9594 33.7621 18.2391 33.9036 18.5986C34.115 19.1367 34.4474 19.6628 34.8301 20.2676C35.3123 21.0299 35.8725 21.9154 36.3671 23.1059C37.2556 25.2404 36.0049 28.5421 34.8045 30.4585C32.7473 33.5947 29.3421 32.3457 26.5483 30.9937C26.1532 30.8029 25.6751 30.9775 25.5099 31.3784L24.0222 34.9709C23.7863 35.5404 23.1768 35.8746 22.5756 35.705C18.3392 34.5155 11.1408 30.3121 7.42567 21.3187C7.15173 20.6563 7.51186 19.9092 8.15516 19.577C8.87028 19.2084 9.74648 18.6571 10.3169 17.9514C10.3169 17.9514 6.89215 12.506 10.7161 10.6047C13.1415 9.55667 15.5988 10.3089 16.8762 10.9581C17.0198 11.0228 17.146 11.0813 17.2599 11.1328C18.1156 11.5276 18.2284 11.5791 19.4227 11.3317C22.3776 10.6684 25.433 11.0137 27.6297 11.9174V11.9164ZM28.4217 18.9469C28.8629 20.1444 29.4118 21.5277 29.8961 22.4203C30.1659 22.9181 30.6861 23.2028 31.2555 23.2674C33.7262 23.5491 34.5008 23.323 34.9881 23.1049C35.2077 23.0059 35.3277 22.7626 35.1933 22.5647C35.1933 22.5647 33.2757 19.4235 32.3287 18.1987C32.3062 18.1654 32.2826 18.1321 32.259 18.0998C31.7583 17.3839 31.2648 16.6781 32.851 16.7064C28.2514 12.0224 24.0397 11.2712 19.1446 12.3283C18.1925 12.5121 17.6734 12.3778 16.6884 11.8901C15.6367 11.3661 14.1398 10.7734 12.2068 11.1086C13.5827 11.9931 14.7216 13.3824 15.5188 14.5951C16.5181 16.1167 18.2141 17.2355 20.0506 17.1012L24.8502 16.7498C26.3482 16.6397 27.9108 17.5566 28.4228 18.9459L28.4217 18.9469ZM28.6351 12.2839C29.223 11.7619 31.1109 10.8198 32.5463 11.3176C31.7603 11.3539 31.2289 11.6993 30.7477 12.0113C30.1105 12.4242 29.5626 12.7796 28.6351 12.2839ZM10.4041 21.5944C10.1169 20.6341 9.39457 19.6588 8.18081 20.6321C10.6596 27.0094 15.0509 30.4091 15.0509 30.4091C12.7126 27.9939 11.1901 23.8894 10.4041 21.5954V21.5944ZM27.5712 26.9559C24.1484 27.0902 21.8738 27.0205 20.6641 25.9755C29.6273 22.1517 33.6 24.6497 33.6 26.8973C33.6041 29.052 31.825 29.6871 29.4005 29.5599C26.9771 29.4327 24.6235 28.5442 23.4774 27.7808C23.4774 27.7808 26.0147 27.8091 27.5712 26.9559ZM35.7946 24.5962C35.3103 24.9294 34.7624 25.7766 34.5952 26.8155C33.8677 31.0452 36.1403 26.861 35.7946 24.5962ZM34.0883 29.8467C32.5996 32.6456 28.8485 30.9765 26.9669 29.9931C29.7083 30.6625 32.0897 30.4283 33.6861 29.7255C33.8041 29.674 33.9426 29.6972 34.0319 29.7891L34.0883 29.8467ZM18.29 18.1119L21.9292 17.8968C22.2955 17.8756 22.6279 18.1099 22.8844 18.3684C23.3861 18.8742 24.683 19.4185 26.973 19.3306C27.2818 19.3185 27.5814 19.4699 27.7312 19.7365C28.7131 21.9619 27.9703 22.7909 23.3369 24.0409C14.7882 26.348 11.2773 18.6248 18.29 18.1119Z" fill="white"/>
</g>
<defs>
<linearGradient id="paint0_linear_9444_28206" x1="22" y1="0" x2="22" y2="44" gradientUnits="userSpaceOnUse">
<stop stop-color="#F19F39"/>
<stop offset="1" stop-color="#ED6C2D"/>
</linearGradient>
<clipPath id="clip0_9444_28206">
<rect width="44" height="44" rx="22" fill="white"/>
</clipPath>
</defs>
</svg>
