<svg width="14" height="12" viewBox="0 0 14 12" fill="none" xmlns="http://www.w3.org/2000/svg">
<path fill-rule="evenodd" clip-rule="evenodd" d="M1.48974 12C1.22607 12 0.967128 11.9299 0.739358 11.7971C0.511589 11.6643 0.323149 11.4734 0.193276 11.2439C0.0634034 11.0144 -0.00324993 10.7546 0.000121862 10.4909C0.00349366 10.2273 0.076769 9.96925 0.212468 9.74318L5.62771 0.723155C5.76008 0.502592 5.9473 0.320061 6.17116 0.193334C6.39501 0.0666063 6.64786 0 6.9051 0C7.16233 0 7.41519 0.0666063 7.63904 0.193334C7.86289 0.320061 8.05012 0.502592 8.18249 0.723155L13.598 9.74318C13.7337 9.96925 13.8069 10.2273 13.8103 10.4909C13.8137 10.7546 13.747 11.0144 13.6171 11.2439C13.4873 11.4734 13.2988 11.6643 13.0711 11.7971C12.8433 11.9299 12.5844 12 12.3207 12H1.48974ZM7.58875 3.73104C7.58875 3.35448 7.28349 3.04922 6.90693 3.04922C6.53037 3.04922 6.22511 3.35448 6.22511 3.73104V6.85126C6.22511 7.22781 6.53037 7.53307 6.90693 7.53307C7.28349 7.53307 7.58875 7.22781 7.58875 6.85126V3.73104ZM7.58903 9.55799C7.58903 9.93455 7.28377 10.2398 6.90721 10.2398C6.53065 10.2398 6.22539 9.93455 6.22539 9.55799C6.22539 9.18143 6.53065 8.87617 6.90721 8.87617C7.28377 8.87617 7.58903 9.18143 7.58903 9.55799Z" fill="#FFAC2F"/>
</svg>
