<svg viewBox="0 0 24 24" fill="none" xmlns="http://www.w3.org/2000/svg">
<path d="M12 24C18.6274 24 24 18.6274 24 12C24 5.37258 18.6274 0 12 0C5.37258 0 0 5.37258 0 12C0 18.6274 5.37258 24 12 24Z" fill="#E7E7EE"/>
<path d="M8.25977 17.5V7.5H12.3917C12.4889 7.5 12.6139 7.50463 12.7667 7.51389C12.9195 7.51852 13.0607 7.53241 13.1903 7.55556C13.769 7.64352 14.2459 7.83565 14.6209 8.13194C15.0005 8.42824 15.2806 8.80324 15.4612 9.25694C15.6463 9.70602 15.7389 10.206 15.7389 10.7569C15.7389 11.3032 15.6463 11.8032 15.4612 12.2569C15.276 12.706 14.9936 13.0787 14.6139 13.375C14.2389 13.6713 13.7644 13.8634 13.1903 13.9514C13.0607 13.9699 12.9172 13.9838 12.7598 13.9931C12.607 14.0023 12.4843 14.0069 12.3917 14.0069H9.93338V17.5H8.25977ZM9.93338 12.4444H12.3223C12.4149 12.4444 12.519 12.4398 12.6348 12.4306C12.7505 12.4213 12.857 12.4028 12.9542 12.375C13.232 12.3056 13.4496 12.1829 13.607 12.0069C13.769 11.831 13.8825 11.6319 13.9473 11.4097C14.0167 11.1875 14.0514 10.9699 14.0514 10.7569C14.0514 10.544 14.0167 10.3264 13.9473 10.1042C13.8825 9.87732 13.769 9.67593 13.607 9.5C13.4496 9.32407 13.232 9.20139 12.9542 9.13194C12.857 9.10417 12.7505 9.08796 12.6348 9.08333C12.519 9.07407 12.4149 9.06944 12.3223 9.06944H9.93338V12.4444Z" fill="#0C0C0D" fill-opacity="0.25"/>
</svg>
