<svg viewBox="0 0 24 24" fill="none" xmlns="http://www.w3.org/2000/svg">
<rect width="24" height="24.0011" rx="12" fill="url(#paint0_linear_4033_5450)"/>
<path fill-rule="evenodd" clip-rule="evenodd" d="M5.95861 6.04956C7.40078 7.78935 8.50818 8.76693 9.03937 9.23585C9.22041 9.39567 9.33452 9.4964 9.37214 9.54808C9.49434 9.71599 9.44835 9.86693 9.239 9.98523C9.12258 10.051 8.88323 10.1176 8.76339 10.1176C8.62786 10.1176 8.58132 10.0657 8.58132 10.0657C8.57178 10.0567 8.56275 10.049 8.55353 10.0411C8.4867 9.98406 8.40951 9.91816 8.05488 9.2925C7.49458 8.42834 7.02567 7.71148 7.01288 7.69947C6.9833 7.67172 6.98381 7.67265 7.99775 9.47589C8.12803 9.77477 8.0717 9.92322 8.04318 9.9984C8.03583 10.0178 8.03033 10.0323 8.03033 10.0432C8.03033 10.1521 8.00045 10.2093 7.8653 10.3592C7.64 10.609 7.53929 10.8897 7.46659 11.4706C7.38509 12.1218 7.15591 12.5818 6.52079 13.3691C6.14901 13.83 6.08817 13.9145 5.99436 14.1002C5.8762 14.3341 5.84371 14.4652 5.83054 14.7605C5.81662 15.0728 5.84373 15.2746 5.93972 15.5732C6.02376 15.8346 6.11149 16.0072 6.33574 16.3524C6.52928 16.6504 6.64071 16.8718 6.64071 16.9584C6.64071 17.0273 6.65395 17.0274 6.95385 16.9601C7.67153 16.799 8.25429 16.5157 8.58204 16.1685C8.78488 15.9536 8.83251 15.8349 8.83405 15.5405C8.83506 15.3479 8.82825 15.3075 8.77586 15.1967C8.69059 15.0163 8.53535 14.8663 8.19318 14.6339C7.74487 14.3293 7.55338 14.084 7.5005 13.7468C7.4571 13.47 7.50744 13.2748 7.75546 12.7581C8.01216 12.2233 8.07578 11.9954 8.11881 11.4564C8.14661 11.1081 8.1851 10.9708 8.28576 10.8605C8.39076 10.7456 8.48528 10.7066 8.74511 10.6714C9.16873 10.6138 9.43847 10.5049 9.66019 10.3018C9.85253 10.1257 9.93302 9.9559 9.94537 9.70036L9.95475 9.50667L9.84726 9.38211C9.45801 8.931 5.69793 5.69495 5.67398 5.69495C5.66886 5.69495 5.79695 5.85453 5.95861 6.04956ZM6.85922 15.1139C6.94722 14.959 6.90046 14.7599 6.75325 14.6625C6.61416 14.5706 6.39808 14.6139 6.39808 14.7337C6.39808 14.7703 6.41842 14.7969 6.46425 14.8204C6.54143 14.8598 6.54703 14.9042 6.48631 14.9949C6.42481 15.0868 6.42978 15.1676 6.50032 15.2224C6.614 15.3109 6.77493 15.2622 6.85922 15.1139Z" fill="#FF007A"/>
<path d="M9.5083 6.66594C9.33465 6.63917 9.32732 6.63603 9.40904 6.62354C9.56565 6.5996 9.93545 6.63223 10.1903 6.69245C10.7852 6.83301 11.3265 7.19307 11.9044 7.83255L12.0579 8.00244L12.2775 7.96735C13.2027 7.81957 14.1439 7.93702 14.9311 8.29848C15.1476 8.39792 15.4891 8.59587 15.5318 8.64674C15.5454 8.66295 15.5703 8.7673 15.5872 8.87866C15.6456 9.26391 15.6164 9.55921 15.4979 9.77977C15.4333 9.89979 15.4297 9.93782 15.4731 10.0405C15.5078 10.1225 15.6043 10.1832 15.6999 10.183C15.8954 10.1828 16.106 9.86845 16.2036 9.43109L16.2424 9.25737L16.3191 9.3438C16.7402 9.81802 17.071 10.4647 17.1278 10.9251L17.1426 11.0451L17.0718 10.936C16.95 10.7482 16.8276 10.6204 16.6709 10.5173C16.3883 10.3315 16.0896 10.2683 15.2984 10.2268C14.5838 10.1894 14.1794 10.1287 13.7784 9.99878C13.0961 9.77767 12.7522 9.4832 11.9417 8.42631C11.5818 7.95687 11.3593 7.69715 11.1379 7.48798C10.635 7.01271 10.1409 6.76346 9.5083 6.66594Z" fill="#FF007A"/>
<path d="M15.6928 7.71406C15.7109 7.39949 15.7537 7.19201 15.84 7.00253C15.8742 6.92753 15.9062 6.86614 15.9112 6.86614C15.916 6.86614 15.9012 6.9215 15.8781 6.98915C15.8154 7.17304 15.805 7.42457 15.8483 7.71721C15.9031 8.08851 15.9343 8.14208 16.3292 8.54317C16.5144 8.7313 16.7298 8.96857 16.8078 9.07044L16.9499 9.25567L16.8078 9.12329C16.6342 8.96141 16.2349 8.64571 16.1467 8.60058C16.0875 8.57032 16.0788 8.57084 16.0423 8.60694C16.0087 8.64019 16.0016 8.69016 15.9969 8.92641C15.9896 9.29462 15.9391 9.53095 15.8173 9.76726C15.7514 9.89507 15.741 9.86779 15.8006 9.72353C15.8451 9.61582 15.8497 9.56847 15.8494 9.21202C15.8486 8.49584 15.7631 8.32366 15.2615 8.02871C15.1344 7.95399 14.925 7.84624 14.7962 7.78924C14.6673 7.73224 14.565 7.68259 14.5687 7.67888C14.5829 7.66483 15.0721 7.80676 15.2691 7.88205C15.562 7.99403 15.6103 8.00855 15.6458 7.99504C15.6698 7.98598 15.6813 7.91696 15.6928 7.71406Z" fill="#FF007A"/>
<path d="M9.32232 7.16421C9.27509 7.71714 9.49322 8.4568 9.84576 8.93922C10.1191 9.31319 10.5427 9.6038 10.8554 9.63185C11.0602 9.65023 11.1218 9.58651 11.0291 9.45204C10.9005 9.26533 10.7423 8.97785 10.7005 8.85477C10.6744 8.77831 10.6179 8.55244 10.5749 8.35286C10.4278 7.67146 10.2833 7.4061 9.94937 7.20456C9.8277 7.1311 9.56787 7.03497 9.41717 7.00766L9.33692 6.9931L9.32232 7.16421Z" fill="#FF007A"/>
<path d="M15.2654 12.5296C13.6179 11.8703 13.0376 11.298 13.0376 10.3323C13.0376 10.1902 13.0425 10.0739 13.0485 10.0739C13.0545 10.0739 13.1183 10.1208 13.1902 10.1782C13.5243 10.4445 13.8984 10.5583 14.934 10.7084C15.5435 10.7968 15.8865 10.8682 16.2029 10.9725C17.2084 11.304 17.8306 11.9767 17.979 12.8929C18.0221 13.1591 17.9968 13.6584 17.9269 13.9215C17.8717 14.1294 17.7033 14.504 17.6586 14.5184C17.6462 14.5224 17.6341 14.4752 17.6309 14.411C17.614 14.0669 17.4391 13.732 17.1453 13.4811C16.8113 13.1958 16.3626 12.9687 15.2654 12.5296Z" fill="#FF007A"/>
<path d="M14.029 12.4571C14.0521 12.5255 14.0879 12.6815 14.1086 12.8036C14.2405 13.5842 13.8283 14.2148 13.0263 14.4592C12.9414 14.4851 12.607 14.5501 12.2832 14.6038C11.6277 14.7123 11.3351 14.789 11.0412 14.9298C10.8327 15.0296 10.5804 15.1791 10.5954 15.194C10.6002 15.1988 10.6478 15.1874 10.7011 15.1689C11.0717 15.0395 11.4842 14.9725 12.111 14.9401C12.3597 14.9273 12.6425 14.9068 12.7396 14.8947C13.298 14.8248 13.6849 14.6562 13.9858 14.3518C14.1533 14.1824 14.2531 14.0245 14.3336 13.802C14.3846 13.6608 14.3915 13.6084 14.3919 13.3582C14.3923 13.1034 14.3861 13.0568 14.3309 12.9C14.2585 12.6945 14.1731 12.5402 14.065 12.4197L13.987 12.3326L14.029 12.4571Z" fill="#FF007A"/>
<path d="M14.8638 14.1367C14.6449 13.669 14.5946 13.2174 14.7146 12.7963C14.7274 12.7513 14.748 12.7144 14.7604 12.7144C14.7728 12.7144 14.8245 12.7422 14.8752 12.7761C14.9761 12.8436 15.1784 12.9573 15.7174 13.2494C16.3899 13.6138 16.7734 13.8961 17.0342 14.2185C17.2626 14.5009 17.4039 14.8225 17.4719 15.2147C17.5105 15.4368 17.4878 15.9713 17.4305 16.195C17.2497 16.9004 16.8294 17.4544 16.23 17.7777C16.1422 17.8251 16.0633 17.864 16.0548 17.8642C16.0462 17.8643 16.0783 17.7834 16.1259 17.6844C16.3275 17.2655 16.3505 16.8579 16.198 16.4043C16.1047 16.1265 15.9143 15.7876 15.5301 15.2147C15.0832 14.5488 14.9737 14.3716 14.8638 14.1367Z" fill="#FF007A"/>
<path d="M10.7405 15.6708C10.0475 15.7827 9.28682 16.1472 8.67543 16.6603L8.49341 16.8131L8.65337 16.8379C9.48814 16.9674 9.71293 17.0823 10.292 17.6752C10.6252 18.0163 10.7377 18.0922 11.0141 18.1624C11.42 18.2654 11.8202 18.0762 11.9575 17.7162C12.0188 17.5554 12.0106 17.2891 11.9403 17.1553C11.7729 16.8369 11.2853 16.734 11.0495 16.9672C10.8532 17.1615 10.9104 17.4542 11.1546 17.5045C11.2105 17.5161 11.209 17.5137 11.1404 17.4828C11.0335 17.4347 10.9871 17.3682 10.9865 17.2622C10.9851 17.0137 11.2712 16.874 11.5374 16.9934C11.7323 17.0809 11.8097 17.1951 11.8097 17.3954C11.8097 17.7037 11.5457 17.9361 11.2384 17.898C11.0742 17.8777 10.8733 17.7733 10.7656 17.6523C10.4946 17.3477 10.6002 16.8671 10.9786 16.6827C11.2666 16.5423 11.6495 16.577 11.9464 16.7701C12.2876 16.9922 12.4327 17.1951 12.7265 17.8613C12.8222 18.0782 12.9453 18.3223 13 18.4038C13.2783 18.818 13.6118 19.0211 14.0135 19.0211C14.2351 19.0211 14.4018 18.9808 14.6114 18.8767C14.7672 18.7994 14.9882 18.6524 14.9722 18.6367C14.9677 18.6322 14.903 18.6522 14.8286 18.6811C14.39 18.8511 13.9441 18.8394 13.6852 18.651C13.5222 18.5324 13.3906 18.2962 13.323 18.0007C13.3113 17.9496 13.2727 17.7238 13.2372 17.4988C13.1472 16.9286 13.0607 16.6723 12.8591 16.3783C12.6529 16.0774 12.2564 15.8248 11.8131 15.7121C11.5366 15.6417 11.0391 15.6226 10.7405 15.6708Z" fill="#FF007A"/>
<path fill-rule="evenodd" clip-rule="evenodd" d="M9.77026 11.2628C9.8301 11.0432 10.0234 10.8337 10.2223 10.773C10.3487 10.7344 10.6101 10.759 10.733 10.8211C10.9712 10.9415 11.1441 11.2157 11.1066 11.4135C11.0608 11.6549 10.6671 11.8479 10.2142 11.851C9.98291 11.8527 9.89748 11.8218 9.80915 11.7045C9.75447 11.6319 9.73376 11.3969 9.77026 11.2628ZM10.6722 10.9071C10.791 10.9792 10.8215 11.0858 10.7517 11.1845C10.7036 11.2524 10.5547 11.3169 10.4458 11.3169C10.2823 11.3169 10.1039 11.2016 10.1039 11.0958C10.1039 10.8834 10.446 10.7698 10.6722 10.9071Z" fill="#FF007A"/>
<defs>
<linearGradient id="paint0_linear_4033_5450" x1="24" y1="0" x2="-0.00109193" y2="24" gradientUnits="userSpaceOnUse">
<stop stop-color="#FED4E8"/>
<stop offset="1" stop-color="#FCFDFF"/>
</linearGradient>
</defs>
</svg>
